G04*
G04 #@! TF.GenerationSoftware,Altium Limited,Altium Designer,21.3.2 (30)*
G04*
G04 Layer_Color=32768*
%FSLAX25Y25*%
%MOIN*%
G70*
G04*
G04 #@! TF.SameCoordinates,BB1D773A-2413-427B-BD55-C883B2B148E4*
G04*
G04*
G04 #@! TF.FilePolarity,Positive*
G04*
G01*
G75*
%ADD11C,0.00787*%
G36*
X148445Y210852D02*
X148484Y210850D01*
X148563Y210835D01*
X148629Y210815D01*
X148661Y210806D01*
X148688Y210793D01*
X148713Y210781D01*
X148737Y210771D01*
X148755Y210761D01*
X148772Y210751D01*
X148784Y210744D01*
X148794Y210737D01*
X148799Y210734D01*
X148801Y210732D01*
X148831Y210707D01*
X148860Y210683D01*
X148910Y210626D01*
X148951Y210567D01*
X148986Y210510D01*
X149013Y210459D01*
X149023Y210437D01*
X149030Y210417D01*
X149038Y210402D01*
X149042Y210390D01*
X149045Y210382D01*
Y210380D01*
X149074Y210446D01*
X149106Y210503D01*
X149138Y210550D01*
X149170Y210589D01*
X149200Y210618D01*
X149222Y210641D01*
X149239Y210653D01*
X149242Y210658D01*
X149244D01*
X149296Y210690D01*
X149347Y210712D01*
X149399Y210729D01*
X149446Y210739D01*
X149488Y210746D01*
X149507Y210749D01*
X149522D01*
X149534Y210751D01*
X149544D01*
X149549D01*
X149552D01*
X149603Y210749D01*
X149650Y210744D01*
X149697Y210732D01*
X149741Y210719D01*
X149783Y210705D01*
X149820Y210687D01*
X149857Y210670D01*
X149889Y210650D01*
X149918Y210631D01*
X149943Y210614D01*
X149967Y210596D01*
X149985Y210582D01*
X149999Y210569D01*
X150009Y210560D01*
X150017Y210552D01*
X150019Y210550D01*
X150054Y210510D01*
X150083Y210468D01*
X150108Y210427D01*
X150130Y210382D01*
X150149Y210338D01*
X150164Y210294D01*
X150177Y210249D01*
X150186Y210208D01*
X150194Y210168D01*
X150201Y210134D01*
X150206Y210102D01*
X150208Y210072D01*
X150211Y210050D01*
Y210018D01*
X150208Y209959D01*
X150204Y209900D01*
X150194Y209848D01*
X150181Y209797D01*
X150167Y209750D01*
X150152Y209706D01*
X150135Y209666D01*
X150117Y209632D01*
X150098Y209600D01*
X150081Y209571D01*
X150066Y209548D01*
X150051Y209529D01*
X150039Y209511D01*
X150029Y209502D01*
X150024Y209494D01*
X150022Y209492D01*
X149985Y209457D01*
X149948Y209428D01*
X149908Y209401D01*
X149871Y209379D01*
X149832Y209359D01*
X149793Y209344D01*
X149756Y209330D01*
X149721Y209320D01*
X149687Y209312D01*
X149655Y209305D01*
X149628Y209300D01*
X149606Y209297D01*
X149586D01*
X149571Y209295D01*
X149562D01*
X149559D01*
X149493Y209300D01*
X149434Y209310D01*
X149379Y209325D01*
X149335Y209342D01*
X149298Y209356D01*
X149284Y209364D01*
X149269Y209371D01*
X149259Y209379D01*
X149251Y209381D01*
X149249Y209386D01*
X149247D01*
X149200Y209425D01*
X149161Y209470D01*
X149126Y209519D01*
X149097Y209566D01*
X149074Y209608D01*
X149065Y209627D01*
X149057Y209642D01*
X149052Y209654D01*
X149047Y209666D01*
X149045Y209671D01*
Y209674D01*
X149033Y209632D01*
X149018Y209593D01*
X149003Y209556D01*
X148986Y209521D01*
X148966Y209489D01*
X148946Y209460D01*
X148929Y209433D01*
X148910Y209408D01*
X148892Y209388D01*
X148875Y209369D01*
X148860Y209354D01*
X148846Y209339D01*
X148833Y209330D01*
X148826Y209322D01*
X148821Y209320D01*
X148819Y209317D01*
X148787Y209295D01*
X148755Y209278D01*
X148720Y209261D01*
X148686Y209246D01*
X148617Y209224D01*
X148550Y209209D01*
X148521Y209204D01*
X148494Y209202D01*
X148469Y209199D01*
X148450Y209197D01*
X148432Y209194D01*
X148418D01*
X148410D01*
X148408D01*
X148346Y209197D01*
X148290Y209204D01*
X148235Y209216D01*
X148184Y209229D01*
X148135Y209246D01*
X148088Y209265D01*
X148046Y209285D01*
X148009Y209307D01*
X147975Y209330D01*
X147945Y209349D01*
X147918Y209369D01*
X147896Y209386D01*
X147879Y209401D01*
X147866Y209411D01*
X147859Y209418D01*
X147857Y209420D01*
X147817Y209465D01*
X147785Y209511D01*
X147756Y209561D01*
X147731Y209612D01*
X147709Y209662D01*
X147692Y209711D01*
X147677Y209760D01*
X147665Y209807D01*
X147655Y209851D01*
X147650Y209893D01*
X147645Y209930D01*
X147640Y209962D01*
Y209986D01*
X147638Y210006D01*
Y210023D01*
X147640Y210092D01*
X147648Y210156D01*
X147657Y210217D01*
X147672Y210274D01*
X147689Y210328D01*
X147707Y210377D01*
X147726Y210424D01*
X147748Y210466D01*
X147768Y210500D01*
X147788Y210535D01*
X147805Y210562D01*
X147822Y210584D01*
X147837Y210601D01*
X147847Y210616D01*
X147854Y210623D01*
X147857Y210626D01*
X147898Y210665D01*
X147943Y210702D01*
X147987Y210732D01*
X148034Y210759D01*
X148081Y210781D01*
X148125Y210798D01*
X148169Y210813D01*
X148211Y210825D01*
X148250Y210835D01*
X148287Y210842D01*
X148319Y210847D01*
X148346Y210852D01*
X148368D01*
X148386Y210855D01*
X148398D01*
X148400D01*
X148445Y210852D01*
D02*
G37*
G36*
X150211Y208203D02*
X150179Y208188D01*
X150149Y208168D01*
X150088Y208126D01*
X150031Y208082D01*
X149980Y208038D01*
X149958Y208016D01*
X149935Y207996D01*
X149918Y207977D01*
X149901Y207962D01*
X149889Y207949D01*
X149879Y207937D01*
X149874Y207932D01*
X149871Y207930D01*
X149810Y207854D01*
X149753Y207777D01*
X149702Y207701D01*
X149660Y207630D01*
X149640Y207598D01*
X149625Y207568D01*
X149611Y207543D01*
X149598Y207521D01*
X149589Y207502D01*
X149581Y207489D01*
X149579Y207480D01*
X149576Y207477D01*
X149279D01*
X149301Y207531D01*
X149325Y207588D01*
X149352Y207642D01*
X149377Y207691D01*
X149399Y207735D01*
X149409Y207753D01*
X149419Y207770D01*
X149426Y207782D01*
X149431Y207792D01*
X149436Y207797D01*
Y207799D01*
X149475Y207863D01*
X149515Y207922D01*
X149552Y207974D01*
X149584Y208016D01*
X149611Y208050D01*
X149633Y208075D01*
X149640Y208082D01*
X149645Y208090D01*
X149650Y208092D01*
Y208095D01*
X147680D01*
Y208404D01*
X150211D01*
Y208203D01*
D02*
G37*
G36*
X148563Y206619D02*
X148506Y206604D01*
X148452Y206587D01*
X148400Y206569D01*
X148354Y206550D01*
X148312Y206527D01*
X148272Y206505D01*
X148235Y206483D01*
X148204Y206461D01*
X148177Y206441D01*
X148152Y206422D01*
X148130Y206402D01*
X148112Y206387D01*
X148100Y206375D01*
X148090Y206363D01*
X148085Y206358D01*
X148083Y206355D01*
X148056Y206318D01*
X148031Y206279D01*
X148009Y206240D01*
X147989Y206200D01*
X147975Y206158D01*
X147962Y206119D01*
X147943Y206045D01*
X147935Y206011D01*
X147931Y205979D01*
X147928Y205952D01*
X147926Y205927D01*
X147923Y205908D01*
Y205880D01*
X147926Y205839D01*
X147928Y205797D01*
X147943Y205716D01*
X147960Y205644D01*
X147972Y205610D01*
X147982Y205580D01*
X147994Y205551D01*
X148004Y205526D01*
X148014Y205504D01*
X148024Y205487D01*
X148031Y205472D01*
X148036Y205462D01*
X148039Y205455D01*
X148041Y205452D01*
X148066Y205418D01*
X148090Y205384D01*
X148147Y205325D01*
X148206Y205275D01*
X148265Y205234D01*
X148317Y205202D01*
X148339Y205189D01*
X148359Y205179D01*
X148376Y205172D01*
X148388Y205167D01*
X148395Y205162D01*
X148398D01*
X148491Y205130D01*
X148587Y205108D01*
X148683Y205091D01*
X148728Y205086D01*
X148769Y205081D01*
X148811Y205076D01*
X148846Y205074D01*
X148880Y205071D01*
X148907D01*
X148929Y205069D01*
X148946D01*
X148959D01*
X148961D01*
X149052Y205071D01*
X149141Y205081D01*
X149222Y205093D01*
X149261Y205101D01*
X149296Y205108D01*
X149328Y205116D01*
X149357Y205123D01*
X149382Y205130D01*
X149404Y205135D01*
X149421Y205140D01*
X149434Y205145D01*
X149441Y205148D01*
X149443D01*
X149488Y205165D01*
X149527Y205182D01*
X149566Y205202D01*
X149601Y205224D01*
X149635Y205246D01*
X149667Y205268D01*
X149694Y205290D01*
X149721Y205315D01*
X149743Y205334D01*
X149763Y205354D01*
X149780Y205374D01*
X149795Y205388D01*
X149805Y205403D01*
X149812Y205413D01*
X149817Y205418D01*
X149820Y205420D01*
X149844Y205457D01*
X149866Y205497D01*
X149884Y205539D01*
X149901Y205578D01*
X149916Y205620D01*
X149925Y205659D01*
X149943Y205738D01*
X149948Y205772D01*
X149953Y205804D01*
X149955Y205834D01*
X149958Y205858D01*
X149960Y205880D01*
Y205908D01*
X149958Y205954D01*
X149955Y205999D01*
X149940Y206080D01*
X149931Y206117D01*
X149921Y206151D01*
X149908Y206183D01*
X149896Y206210D01*
X149884Y206237D01*
X149871Y206259D01*
X149862Y206279D01*
X149852Y206296D01*
X149844Y206309D01*
X149837Y206318D01*
X149835Y206323D01*
X149832Y206326D01*
X149808Y206355D01*
X149778Y206385D01*
X149716Y206436D01*
X149650Y206481D01*
X149586Y206518D01*
X149554Y206533D01*
X149527Y206545D01*
X149500Y206557D01*
X149478Y206564D01*
X149461Y206572D01*
X149446Y206577D01*
X149436Y206582D01*
X149434D01*
X149510Y206911D01*
X149574Y206889D01*
X149633Y206867D01*
X149689Y206840D01*
X149741Y206810D01*
X149790Y206781D01*
X149835Y206751D01*
X149874Y206722D01*
X149911Y206692D01*
X149943Y206663D01*
X149972Y206636D01*
X149997Y206614D01*
X150017Y206592D01*
X150031Y206574D01*
X150041Y206562D01*
X150048Y206552D01*
X150051Y206550D01*
X150085Y206501D01*
X150115Y206449D01*
X150142Y206395D01*
X150164Y206341D01*
X150181Y206289D01*
X150199Y206235D01*
X150211Y206183D01*
X150221Y206136D01*
X150228Y206090D01*
X150235Y206048D01*
X150240Y206011D01*
X150243Y205979D01*
X150245Y205952D01*
Y205915D01*
X150243Y205854D01*
X150238Y205792D01*
X150231Y205735D01*
X150221Y205679D01*
X150211Y205625D01*
X150196Y205573D01*
X150184Y205526D01*
X150169Y205485D01*
X150154Y205443D01*
X150142Y205408D01*
X150127Y205376D01*
X150117Y205352D01*
X150108Y205329D01*
X150100Y205315D01*
X150095Y205305D01*
X150093Y205302D01*
X150063Y205251D01*
X150029Y205204D01*
X149994Y205160D01*
X149958Y205118D01*
X149921Y205081D01*
X149884Y205044D01*
X149847Y205012D01*
X149812Y204985D01*
X149778Y204958D01*
X149746Y204936D01*
X149719Y204919D01*
X149694Y204902D01*
X149675Y204889D01*
X149657Y204882D01*
X149648Y204877D01*
X149645Y204874D01*
X149589Y204847D01*
X149532Y204825D01*
X149473Y204805D01*
X149414Y204788D01*
X149357Y204774D01*
X149298Y204761D01*
X149244Y204751D01*
X149193Y204744D01*
X149143Y204737D01*
X149099Y204732D01*
X149060Y204729D01*
X149025Y204727D01*
X148998Y204724D01*
X148976D01*
X148964D01*
X148959D01*
X148892Y204727D01*
X148826Y204729D01*
X148762Y204737D01*
X148700Y204744D01*
X148641Y204756D01*
X148585Y204766D01*
X148533Y204779D01*
X148484Y204791D01*
X148440Y204803D01*
X148400Y204815D01*
X148366Y204828D01*
X148336Y204837D01*
X148314Y204845D01*
X148297Y204852D01*
X148287Y204855D01*
X148282Y204857D01*
X148226Y204884D01*
X148172Y204911D01*
X148122Y204943D01*
X148076Y204973D01*
X148031Y205005D01*
X147992Y205037D01*
X147958Y205069D01*
X147926Y205101D01*
X147896Y205130D01*
X147871Y205157D01*
X147849Y205179D01*
X147835Y205202D01*
X147820Y205219D01*
X147810Y205234D01*
X147805Y205241D01*
X147803Y205243D01*
X147773Y205293D01*
X147748Y205344D01*
X147726Y205401D01*
X147707Y205455D01*
X147692Y205511D01*
X147677Y205566D01*
X147667Y205620D01*
X147657Y205672D01*
X147652Y205721D01*
X147648Y205765D01*
X147643Y205804D01*
X147640Y205839D01*
X147638Y205868D01*
Y205908D01*
X147640Y205979D01*
X147648Y206050D01*
X147657Y206114D01*
X147672Y206178D01*
X147687Y206237D01*
X147707Y206291D01*
X147724Y206343D01*
X147746Y206390D01*
X147766Y206429D01*
X147785Y206466D01*
X147803Y206498D01*
X147817Y206525D01*
X147832Y206547D01*
X147842Y206562D01*
X147849Y206572D01*
X147852Y206574D01*
X147894Y206624D01*
X147940Y206670D01*
X147989Y206710D01*
X148041Y206749D01*
X148093Y206783D01*
X148144Y206815D01*
X148196Y206842D01*
X148248Y206867D01*
X148295Y206887D01*
X148339Y206906D01*
X148378Y206921D01*
X148413Y206933D01*
X148440Y206941D01*
X148462Y206948D01*
X148474Y206953D01*
X148479D01*
X148563Y206619D01*
D02*
G37*
G36*
X168285Y208909D02*
X168349Y208901D01*
X168408Y208889D01*
X168464Y208877D01*
X168516Y208857D01*
X168565Y208840D01*
X168609Y208818D01*
X168649Y208798D01*
X168686Y208776D01*
X168718Y208754D01*
X168745Y208737D01*
X168767Y208719D01*
X168784Y208705D01*
X168799Y208692D01*
X168806Y208685D01*
X168809Y208682D01*
X168848Y208638D01*
X168885Y208594D01*
X168914Y208547D01*
X168941Y208501D01*
X168964Y208454D01*
X168981Y208407D01*
X168996Y208360D01*
X169008Y208318D01*
X169018Y208279D01*
X169025Y208242D01*
X169030Y208208D01*
X169035Y208181D01*
Y208156D01*
X169037Y208139D01*
Y208124D01*
X169035Y208077D01*
X169030Y208031D01*
X169023Y207986D01*
X169013Y207944D01*
X168986Y207863D01*
X168973Y207826D01*
X168959Y207792D01*
X168941Y207760D01*
X168929Y207733D01*
X168914Y207706D01*
X168902Y207686D01*
X168892Y207669D01*
X168885Y207657D01*
X168880Y207649D01*
X168877Y207647D01*
X169559Y207782D01*
Y208793D01*
X169854D01*
Y207536D01*
X168558Y207293D01*
X168521Y207583D01*
X168558Y207610D01*
X168592Y207642D01*
X168622Y207671D01*
X168649Y207703D01*
X168668Y207728D01*
X168683Y207750D01*
X168693Y207765D01*
X168695Y207767D01*
Y207770D01*
X168718Y207817D01*
X168735Y207863D01*
X168747Y207908D01*
X168757Y207949D01*
X168762Y207986D01*
Y208001D01*
X168764Y208016D01*
Y208040D01*
X168762Y208085D01*
X168757Y208126D01*
X168750Y208166D01*
X168740Y208205D01*
X168727Y208240D01*
X168715Y208272D01*
X168700Y208301D01*
X168688Y208328D01*
X168673Y208350D01*
X168659Y208372D01*
X168646Y208390D01*
X168634Y208404D01*
X168624Y208417D01*
X168617Y208424D01*
X168612Y208429D01*
X168609Y208432D01*
X168580Y208459D01*
X168548Y208481D01*
X168513Y208501D01*
X168479Y208518D01*
X168445Y208532D01*
X168410Y208545D01*
X168344Y208562D01*
X168312Y208569D01*
X168282Y208574D01*
X168258Y208577D01*
X168235Y208579D01*
X168216Y208582D01*
X168203D01*
X168194D01*
X168191D01*
X168140Y208579D01*
X168093Y208574D01*
X168046Y208567D01*
X168004Y208557D01*
X167965Y208545D01*
X167928Y208532D01*
X167894Y208518D01*
X167864Y208505D01*
X167837Y208491D01*
X167812Y208476D01*
X167790Y208464D01*
X167775Y208451D01*
X167761Y208441D01*
X167751Y208434D01*
X167746Y208429D01*
X167743Y208427D01*
X167714Y208397D01*
X167689Y208365D01*
X167667Y208333D01*
X167648Y208301D01*
X167630Y208269D01*
X167618Y208240D01*
X167598Y208178D01*
X167591Y208151D01*
X167586Y208126D01*
X167581Y208104D01*
X167579Y208085D01*
X167576Y208070D01*
Y208048D01*
X167579Y208013D01*
X167581Y207981D01*
X167596Y207920D01*
X167613Y207866D01*
X167635Y207819D01*
X167657Y207780D01*
X167667Y207765D01*
X167677Y207753D01*
X167684Y207743D01*
X167689Y207735D01*
X167692Y207731D01*
X167694Y207728D01*
X167719Y207706D01*
X167743Y207684D01*
X167803Y207647D01*
X167861Y207620D01*
X167918Y207598D01*
X167972Y207580D01*
X167994Y207575D01*
X168014Y207571D01*
X168031Y207568D01*
X168044Y207566D01*
X168051Y207563D01*
X168053D01*
X168026Y207239D01*
X167967Y207246D01*
X167913Y207258D01*
X167861Y207273D01*
X167812Y207290D01*
X167766Y207310D01*
X167724Y207330D01*
X167684Y207352D01*
X167650Y207374D01*
X167620Y207393D01*
X167593Y207416D01*
X167569Y207433D01*
X167549Y207450D01*
X167534Y207465D01*
X167525Y207475D01*
X167517Y207482D01*
X167515Y207485D01*
X167480Y207526D01*
X167451Y207571D01*
X167426Y207617D01*
X167404Y207664D01*
X167384Y207713D01*
X167369Y207760D01*
X167357Y207804D01*
X167347Y207849D01*
X167340Y207890D01*
X167333Y207927D01*
X167328Y207962D01*
X167325Y207991D01*
Y208016D01*
X167323Y208033D01*
Y208048D01*
X167325Y208124D01*
X167335Y208198D01*
X167350Y208264D01*
X167369Y208328D01*
X167394Y208387D01*
X167419Y208441D01*
X167446Y208491D01*
X167475Y208537D01*
X167505Y208577D01*
X167532Y208611D01*
X167557Y208641D01*
X167581Y208665D01*
X167601Y208685D01*
X167615Y208697D01*
X167625Y208707D01*
X167628Y208710D01*
X167675Y208744D01*
X167724Y208776D01*
X167775Y208803D01*
X167825Y208825D01*
X167874Y208845D01*
X167923Y208862D01*
X167972Y208874D01*
X168017Y208887D01*
X168058Y208894D01*
X168098Y208901D01*
X168132Y208906D01*
X168162Y208909D01*
X168186D01*
X168203Y208911D01*
X168213D01*
X168218D01*
X168285Y208909D01*
D02*
G37*
G36*
X168248Y206619D02*
X168191Y206604D01*
X168137Y206587D01*
X168085Y206569D01*
X168039Y206550D01*
X167997Y206527D01*
X167957Y206505D01*
X167921Y206483D01*
X167889Y206461D01*
X167861Y206441D01*
X167837Y206422D01*
X167815Y206402D01*
X167798Y206387D01*
X167785Y206375D01*
X167775Y206363D01*
X167771Y206358D01*
X167768Y206355D01*
X167741Y206318D01*
X167716Y206279D01*
X167694Y206240D01*
X167675Y206200D01*
X167660Y206158D01*
X167648Y206119D01*
X167628Y206045D01*
X167620Y206011D01*
X167615Y205979D01*
X167613Y205952D01*
X167611Y205927D01*
X167608Y205908D01*
Y205880D01*
X167611Y205839D01*
X167613Y205797D01*
X167628Y205716D01*
X167645Y205644D01*
X167657Y205610D01*
X167667Y205580D01*
X167680Y205551D01*
X167689Y205526D01*
X167699Y205504D01*
X167709Y205487D01*
X167716Y205472D01*
X167721Y205462D01*
X167724Y205455D01*
X167726Y205452D01*
X167751Y205418D01*
X167775Y205384D01*
X167832Y205325D01*
X167891Y205275D01*
X167950Y205234D01*
X168002Y205202D01*
X168024Y205189D01*
X168044Y205179D01*
X168061Y205172D01*
X168073Y205167D01*
X168080Y205162D01*
X168083D01*
X168176Y205130D01*
X168272Y205108D01*
X168368Y205091D01*
X168413Y205086D01*
X168454Y205081D01*
X168496Y205076D01*
X168531Y205074D01*
X168565Y205071D01*
X168592D01*
X168614Y205069D01*
X168631D01*
X168644D01*
X168646D01*
X168737Y205071D01*
X168826Y205081D01*
X168907Y205093D01*
X168946Y205101D01*
X168981Y205108D01*
X169013Y205116D01*
X169042Y205123D01*
X169067Y205130D01*
X169089Y205135D01*
X169106Y205140D01*
X169119Y205145D01*
X169126Y205148D01*
X169128D01*
X169173Y205165D01*
X169212Y205182D01*
X169251Y205202D01*
X169286Y205224D01*
X169320Y205246D01*
X169352Y205268D01*
X169379Y205290D01*
X169406Y205315D01*
X169429Y205334D01*
X169448Y205354D01*
X169465Y205374D01*
X169480Y205388D01*
X169490Y205403D01*
X169497Y205413D01*
X169502Y205418D01*
X169505Y205420D01*
X169529Y205457D01*
X169552Y205497D01*
X169569Y205539D01*
X169586Y205578D01*
X169601Y205620D01*
X169611Y205659D01*
X169628Y205738D01*
X169633Y205772D01*
X169638Y205804D01*
X169640Y205834D01*
X169643Y205858D01*
X169645Y205880D01*
Y205908D01*
X169643Y205954D01*
X169640Y205999D01*
X169625Y206080D01*
X169615Y206117D01*
X169606Y206151D01*
X169593Y206183D01*
X169581Y206210D01*
X169569Y206237D01*
X169556Y206259D01*
X169547Y206279D01*
X169537Y206296D01*
X169529Y206309D01*
X169522Y206318D01*
X169520Y206323D01*
X169517Y206326D01*
X169492Y206355D01*
X169463Y206385D01*
X169402Y206436D01*
X169335Y206481D01*
X169271Y206518D01*
X169239Y206533D01*
X169212Y206545D01*
X169185Y206557D01*
X169163Y206564D01*
X169146Y206572D01*
X169131Y206577D01*
X169121Y206582D01*
X169119D01*
X169195Y206911D01*
X169259Y206889D01*
X169318Y206867D01*
X169374Y206840D01*
X169426Y206810D01*
X169475Y206781D01*
X169520Y206751D01*
X169559Y206722D01*
X169596Y206692D01*
X169628Y206663D01*
X169657Y206636D01*
X169682Y206614D01*
X169702Y206592D01*
X169716Y206574D01*
X169726Y206562D01*
X169734Y206552D01*
X169736Y206550D01*
X169771Y206501D01*
X169800Y206449D01*
X169827Y206395D01*
X169849Y206341D01*
X169866Y206289D01*
X169884Y206235D01*
X169896Y206183D01*
X169906Y206136D01*
X169913Y206090D01*
X169921Y206048D01*
X169925Y206011D01*
X169928Y205979D01*
X169930Y205952D01*
Y205915D01*
X169928Y205854D01*
X169923Y205792D01*
X169916Y205735D01*
X169906Y205679D01*
X169896Y205625D01*
X169881Y205573D01*
X169869Y205526D01*
X169854Y205485D01*
X169839Y205443D01*
X169827Y205408D01*
X169812Y205376D01*
X169802Y205352D01*
X169793Y205329D01*
X169785Y205315D01*
X169780Y205305D01*
X169778Y205302D01*
X169748Y205251D01*
X169714Y205204D01*
X169679Y205160D01*
X169643Y205118D01*
X169606Y205081D01*
X169569Y205044D01*
X169532Y205012D01*
X169497Y204985D01*
X169463Y204958D01*
X169431Y204936D01*
X169404Y204919D01*
X169379Y204902D01*
X169360Y204889D01*
X169342Y204882D01*
X169333Y204877D01*
X169330Y204874D01*
X169274Y204847D01*
X169217Y204825D01*
X169158Y204805D01*
X169099Y204788D01*
X169042Y204774D01*
X168983Y204761D01*
X168929Y204751D01*
X168877Y204744D01*
X168828Y204737D01*
X168784Y204732D01*
X168745Y204729D01*
X168710Y204727D01*
X168683Y204724D01*
X168661D01*
X168649D01*
X168644D01*
X168577Y204727D01*
X168511Y204729D01*
X168447Y204737D01*
X168386Y204744D01*
X168326Y204756D01*
X168270Y204766D01*
X168218Y204779D01*
X168169Y204791D01*
X168125Y204803D01*
X168085Y204815D01*
X168051Y204828D01*
X168021Y204837D01*
X167999Y204845D01*
X167982Y204852D01*
X167972Y204855D01*
X167967Y204857D01*
X167911Y204884D01*
X167857Y204911D01*
X167807Y204943D01*
X167761Y204973D01*
X167716Y205005D01*
X167677Y205037D01*
X167643Y205069D01*
X167611Y205101D01*
X167581Y205130D01*
X167557Y205157D01*
X167534Y205179D01*
X167520Y205202D01*
X167505Y205219D01*
X167495Y205234D01*
X167490Y205241D01*
X167488Y205243D01*
X167458Y205293D01*
X167434Y205344D01*
X167411Y205401D01*
X167392Y205455D01*
X167377Y205511D01*
X167362Y205566D01*
X167352Y205620D01*
X167342Y205672D01*
X167338Y205721D01*
X167333Y205765D01*
X167328Y205804D01*
X167325Y205839D01*
X167323Y205868D01*
Y205908D01*
X167325Y205979D01*
X167333Y206050D01*
X167342Y206114D01*
X167357Y206178D01*
X167372Y206237D01*
X167392Y206291D01*
X167409Y206343D01*
X167431Y206390D01*
X167451Y206429D01*
X167470Y206466D01*
X167488Y206498D01*
X167502Y206525D01*
X167517Y206547D01*
X167527Y206562D01*
X167534Y206572D01*
X167537Y206574D01*
X167579Y206624D01*
X167625Y206670D01*
X167675Y206710D01*
X167726Y206749D01*
X167778Y206783D01*
X167830Y206815D01*
X167881Y206842D01*
X167933Y206867D01*
X167980Y206887D01*
X168024Y206906D01*
X168063Y206921D01*
X168098Y206933D01*
X168125Y206941D01*
X168147Y206948D01*
X168159Y206953D01*
X168164D01*
X168248Y206619D01*
D02*
G37*
G36*
X188976Y139429D02*
X187830D01*
Y138246D01*
X187532D01*
Y139429D01*
X186753D01*
Y138061D01*
X186455D01*
Y139764D01*
X188976D01*
Y139429D01*
D02*
G37*
G36*
X187355Y137461D02*
X187331Y137405D01*
X187304Y137351D01*
X187279Y137301D01*
X187257Y137257D01*
X187247Y137240D01*
X187237Y137223D01*
X187230Y137210D01*
X187225Y137200D01*
X187220Y137196D01*
Y137193D01*
X187181Y137129D01*
X187141Y137070D01*
X187104Y137019D01*
X187072Y136977D01*
X187045Y136942D01*
X187023Y136918D01*
X187016Y136910D01*
X187011Y136903D01*
X187006Y136900D01*
Y136898D01*
X188976D01*
Y136588D01*
X186445D01*
Y136790D01*
X186477Y136804D01*
X186507Y136824D01*
X186568Y136866D01*
X186625Y136910D01*
X186676Y136954D01*
X186698Y136977D01*
X186721Y136996D01*
X186738Y137016D01*
X186755Y137031D01*
X186767Y137043D01*
X186777Y137055D01*
X186782Y137060D01*
X186785Y137063D01*
X186846Y137139D01*
X186903Y137215D01*
X186954Y137292D01*
X186996Y137363D01*
X187016Y137395D01*
X187031Y137424D01*
X187045Y137449D01*
X187058Y137471D01*
X187067Y137491D01*
X187075Y137503D01*
X187077Y137513D01*
X187080Y137515D01*
X187377D01*
X187355Y137461D01*
D02*
G37*
G36*
X208662Y147303D02*
X207515D01*
Y146120D01*
X207218D01*
Y147303D01*
X206438D01*
Y145935D01*
X206140D01*
Y147638D01*
X208662D01*
Y147303D01*
D02*
G37*
G36*
Y144002D02*
X208364D01*
Y145239D01*
X208332Y145220D01*
X208302Y145197D01*
X208275Y145175D01*
X208248Y145156D01*
X208228Y145136D01*
X208211Y145121D01*
X208199Y145111D01*
X208196Y145109D01*
X208179Y145092D01*
X208160Y145070D01*
X208135Y145045D01*
X208110Y145018D01*
X208059Y144959D01*
X208007Y144900D01*
X207958Y144841D01*
X207936Y144816D01*
X207916Y144794D01*
X207901Y144777D01*
X207889Y144762D01*
X207882Y144752D01*
X207879Y144750D01*
X207827Y144691D01*
X207781Y144634D01*
X207734Y144582D01*
X207692Y144536D01*
X207653Y144492D01*
X207616Y144455D01*
X207581Y144418D01*
X207552Y144388D01*
X207525Y144361D01*
X207503Y144336D01*
X207483Y144319D01*
X207466Y144302D01*
X207454Y144290D01*
X207444Y144282D01*
X207439Y144278D01*
X207436Y144275D01*
X207377Y144223D01*
X207321Y144182D01*
X207267Y144145D01*
X207222Y144118D01*
X207183Y144096D01*
X207168Y144088D01*
X207154Y144081D01*
X207144Y144076D01*
X207136Y144071D01*
X207131Y144068D01*
X207129D01*
X207075Y144046D01*
X207021Y144032D01*
X206969Y144019D01*
X206925Y144012D01*
X206885Y144007D01*
X206871D01*
X206856Y144004D01*
X206846D01*
X206839D01*
X206834D01*
X206831D01*
X206777Y144007D01*
X206726Y144014D01*
X206674Y144024D01*
X206627Y144036D01*
X206583Y144054D01*
X206543Y144071D01*
X206504Y144090D01*
X206470Y144110D01*
X206438Y144130D01*
X206411Y144150D01*
X206388Y144167D01*
X206369Y144184D01*
X206351Y144196D01*
X206342Y144206D01*
X206334Y144213D01*
X206332Y144216D01*
X206297Y144258D01*
X206265Y144302D01*
X206238Y144346D01*
X206216Y144396D01*
X206196Y144442D01*
X206179Y144492D01*
X206167Y144538D01*
X206155Y144582D01*
X206147Y144627D01*
X206140Y144666D01*
X206135Y144701D01*
X206133Y144730D01*
Y144757D01*
X206130Y144774D01*
Y144792D01*
X206133Y144858D01*
X206137Y144920D01*
X206147Y144979D01*
X206160Y145033D01*
X206174Y145084D01*
X206189Y145131D01*
X206206Y145173D01*
X206224Y145212D01*
X206241Y145247D01*
X206258Y145279D01*
X206273Y145303D01*
X206288Y145326D01*
X206300Y145343D01*
X206310Y145355D01*
X206315Y145362D01*
X206317Y145365D01*
X206354Y145402D01*
X206393Y145436D01*
X206435Y145466D01*
X206479Y145493D01*
X206526Y145515D01*
X206571Y145535D01*
X206615Y145552D01*
X206657Y145566D01*
X206698Y145576D01*
X206735Y145586D01*
X206770Y145594D01*
X206799Y145601D01*
X206824Y145603D01*
X206843Y145606D01*
X206853Y145608D01*
X206858D01*
X206890Y145291D01*
X206846Y145289D01*
X206807Y145286D01*
X206767Y145279D01*
X206733Y145271D01*
X206701Y145259D01*
X206669Y145249D01*
X206642Y145237D01*
X206617Y145225D01*
X206595Y145212D01*
X206575Y145200D01*
X206558Y145188D01*
X206546Y145178D01*
X206536Y145170D01*
X206526Y145163D01*
X206524Y145161D01*
X206521Y145158D01*
X206497Y145131D01*
X206477Y145104D01*
X206457Y145074D01*
X206442Y145045D01*
X206418Y144986D01*
X206403Y144927D01*
X206398Y144902D01*
X206393Y144878D01*
X206391Y144856D01*
X206388Y144836D01*
X206386Y144821D01*
Y144799D01*
X206388Y144760D01*
X206391Y144723D01*
X206406Y144656D01*
X206425Y144597D01*
X206438Y144570D01*
X206450Y144548D01*
X206462Y144526D01*
X206474Y144509D01*
X206484Y144492D01*
X206494Y144479D01*
X206502Y144469D01*
X206509Y144459D01*
X206511Y144457D01*
X206514Y144455D01*
X206539Y144430D01*
X206563Y144410D01*
X206590Y144393D01*
X206615Y144378D01*
X206666Y144354D01*
X206716Y144339D01*
X206760Y144329D01*
X206777Y144327D01*
X206792Y144324D01*
X206807Y144322D01*
X206817D01*
X206821D01*
X206824D01*
X206856Y144324D01*
X206890Y144329D01*
X206922Y144336D01*
X206957Y144344D01*
X207018Y144369D01*
X207075Y144396D01*
X207099Y144410D01*
X207124Y144423D01*
X207144Y144435D01*
X207161Y144447D01*
X207176Y144455D01*
X207186Y144462D01*
X207193Y144467D01*
X207195Y144469D01*
X207235Y144499D01*
X207274Y144536D01*
X207318Y144575D01*
X207363Y144617D01*
X207451Y144708D01*
X207537Y144801D01*
X207577Y144846D01*
X207613Y144888D01*
X207648Y144924D01*
X207675Y144959D01*
X207700Y144986D01*
X207717Y145008D01*
X207727Y145020D01*
X207732Y145025D01*
X207771Y145072D01*
X207810Y145119D01*
X207847Y145161D01*
X207882Y145200D01*
X207916Y145234D01*
X207948Y145269D01*
X207978Y145298D01*
X208002Y145326D01*
X208027Y145350D01*
X208049Y145370D01*
X208069Y145387D01*
X208083Y145402D01*
X208096Y145414D01*
X208105Y145421D01*
X208110Y145426D01*
X208113Y145429D01*
X208174Y145478D01*
X208233Y145520D01*
X208290Y145554D01*
X208342Y145584D01*
X208386Y145606D01*
X208403Y145613D01*
X208418Y145621D01*
X208430Y145626D01*
X208440Y145631D01*
X208445Y145633D01*
X208447D01*
X208487Y145645D01*
X208524Y145655D01*
X208561Y145660D01*
X208593Y145665D01*
X208622Y145667D01*
X208642D01*
X208657D01*
X208659D01*
X208662D01*
Y144002D01*
D02*
G37*
%LPC*%
G36*
X149571Y210434D02*
X149562D01*
X149557D01*
X149554D01*
X149525D01*
X149495Y210429D01*
X149441Y210417D01*
X149394Y210397D01*
X149352Y210377D01*
X149320Y210355D01*
X149296Y210336D01*
X149288Y210328D01*
X149281Y210323D01*
X149279Y210321D01*
X149276Y210318D01*
X149256Y210296D01*
X149239Y210274D01*
X149212Y210225D01*
X149193Y210176D01*
X149180Y210129D01*
X149170Y210090D01*
X149168Y210070D01*
Y210055D01*
X149165Y210043D01*
Y210026D01*
X149168Y209991D01*
X149170Y209959D01*
X149183Y209900D01*
X149202Y209848D01*
X149222Y209807D01*
X149242Y209772D01*
X149261Y209748D01*
X149269Y209738D01*
X149274Y209731D01*
X149279Y209728D01*
Y209725D01*
X149301Y209706D01*
X149323Y209689D01*
X149372Y209659D01*
X149421Y209639D01*
X149468Y209627D01*
X149510Y209617D01*
X149527Y209615D01*
X149542D01*
X149554Y209612D01*
X149564D01*
X149569D01*
X149571D01*
X149601Y209615D01*
X149628Y209617D01*
X149680Y209630D01*
X149726Y209649D01*
X149766Y209671D01*
X149798Y209691D01*
X149822Y209711D01*
X149837Y209723D01*
X149839Y209728D01*
X149842D01*
X149862Y209750D01*
X149881Y209775D01*
X149908Y209824D01*
X149931Y209873D01*
X149943Y209920D01*
X149953Y209959D01*
X149955Y209979D01*
Y209994D01*
X149958Y210006D01*
Y210023D01*
X149955Y210055D01*
X149953Y210087D01*
X149940Y210144D01*
X149921Y210193D01*
X149899Y210235D01*
X149876Y210269D01*
X149859Y210294D01*
X149849Y210304D01*
X149844Y210311D01*
X149842Y210314D01*
X149839Y210316D01*
X149817Y210336D01*
X149795Y210355D01*
X149746Y210385D01*
X149699Y210404D01*
X149653Y210419D01*
X149613Y210429D01*
X149596Y210432D01*
X149584D01*
X149571Y210434D01*
D02*
G37*
G36*
X148418Y210537D02*
X148405D01*
X148398D01*
X148395D01*
X148356Y210535D01*
X148317Y210530D01*
X148280Y210525D01*
X148245Y210515D01*
X148184Y210491D01*
X148154Y210478D01*
X148130Y210466D01*
X148108Y210451D01*
X148088Y210439D01*
X148071Y210427D01*
X148058Y210414D01*
X148046Y210404D01*
X148039Y210400D01*
X148034Y210395D01*
X148031Y210392D01*
X148007Y210365D01*
X147985Y210336D01*
X147967Y210306D01*
X147950Y210274D01*
X147938Y210245D01*
X147926Y210213D01*
X147908Y210156D01*
X147903Y210129D01*
X147898Y210104D01*
X147896Y210082D01*
X147894Y210063D01*
X147891Y210048D01*
Y210026D01*
X147894Y209974D01*
X147901Y209925D01*
X147913Y209878D01*
X147926Y209839D01*
X147935Y209804D01*
X147948Y209780D01*
X147953Y209770D01*
X147955Y209762D01*
X147958Y209760D01*
Y209757D01*
X147985Y209713D01*
X148017Y209676D01*
X148049Y209644D01*
X148081Y209620D01*
X148108Y209600D01*
X148130Y209585D01*
X148144Y209576D01*
X148147Y209573D01*
X148149D01*
X148196Y209553D01*
X148240Y209539D01*
X148285Y209526D01*
X148324Y209519D01*
X148356Y209514D01*
X148383Y209511D01*
X148393D01*
X148400D01*
X148403D01*
X148405D01*
X148445Y209514D01*
X148484Y209519D01*
X148518Y209524D01*
X148553Y209534D01*
X148614Y209556D01*
X148641Y209571D01*
X148669Y209583D01*
X148691Y209595D01*
X148710Y209610D01*
X148728Y209622D01*
X148740Y209632D01*
X148752Y209642D01*
X148759Y209649D01*
X148764Y209652D01*
X148767Y209654D01*
X148792Y209681D01*
X148816Y209711D01*
X148833Y209740D01*
X148851Y209770D01*
X148865Y209802D01*
X148878Y209831D01*
X148895Y209888D01*
X148900Y209915D01*
X148905Y209940D01*
X148907Y209962D01*
X148910Y209979D01*
X148912Y209994D01*
Y210016D01*
X148910Y210058D01*
X148905Y210097D01*
X148897Y210134D01*
X148890Y210168D01*
X148865Y210232D01*
X148853Y210259D01*
X148838Y210286D01*
X148823Y210309D01*
X148811Y210328D01*
X148799Y210345D01*
X148787Y210360D01*
X148779Y210372D01*
X148772Y210380D01*
X148767Y210385D01*
X148764Y210387D01*
X148737Y210414D01*
X148708Y210437D01*
X148676Y210456D01*
X148646Y210473D01*
X148614Y210488D01*
X148585Y210500D01*
X148526Y210518D01*
X148499Y210525D01*
X148474Y210530D01*
X148452Y210532D01*
X148432Y210535D01*
X148418Y210537D01*
D02*
G37*
%LPD*%
D11*
X152559Y196063D02*
Y213386D01*
X142717D02*
X152559D01*
X142717Y196063D02*
Y213386D01*
Y196063D02*
X152559D01*
X172244D02*
Y213386D01*
X162402D02*
X172244D01*
X162402Y196063D02*
Y213386D01*
Y196063D02*
X172244D01*
X184583Y131870D02*
Y147658D01*
Y131870D02*
X193370D01*
Y147658D01*
X184583D02*
X193370D01*
X197559Y130315D02*
Y164961D01*
Y130315D02*
X219764D01*
Y164961D01*
X197559D02*
X219764D01*
M02*
