G04*
G04 #@! TF.GenerationSoftware,Altium Limited,Altium Designer,25.3.2 (17)*
G04*
G04 Layer_Color=32768*
%FSLAX25Y25*%
%MOIN*%
G70*
G04*
G04 #@! TF.SameCoordinates,DFD58F72-5230-4211-8425-633F0AFCE8D5*
G04*
G04*
G04 #@! TF.FilePolarity,Positive*
G04*
G01*
G75*
%ADD71C,0.00394*%
%ADD75C,0.00197*%
D71*
X128740Y199213D02*
Y203150D01*
X126772Y201181D02*
X130709D01*
X155512Y156496D02*
X159449D01*
X157480Y154528D02*
Y158465D01*
X123622Y89567D02*
X127559D01*
X125591Y87598D02*
Y91535D01*
X88779Y99708D02*
X106102D01*
Y74117D02*
Y99708D01*
X88779Y74117D02*
X106102D01*
X88779D02*
Y99708D01*
Y97149D02*
X91339Y99708D01*
X97441Y229528D02*
X101378D01*
X99410Y227559D02*
Y231496D01*
X67913Y164370D02*
Y168307D01*
X65945Y166339D02*
X69882D01*
X116437Y42913D02*
X142618D01*
X116437D02*
Y57087D01*
X142618D01*
Y42913D02*
Y57087D01*
X190945Y86614D02*
Y90551D01*
X188976Y88583D02*
X192913D01*
X190945Y137795D02*
Y141732D01*
X188976Y139764D02*
X192913D01*
X190945Y125000D02*
Y128937D01*
X188976Y126969D02*
X192913D01*
X190945Y112205D02*
Y116142D01*
X188976Y114173D02*
X192913D01*
X190945Y99409D02*
Y103347D01*
X188976Y101378D02*
X192913D01*
X155512Y183071D02*
X159449D01*
X157480Y181102D02*
Y185039D01*
X214567Y187008D02*
X218504D01*
X216535Y185039D02*
Y188976D01*
X187008Y187008D02*
X190945D01*
X188976Y185039D02*
Y188976D01*
X121653Y165945D02*
Y169882D01*
X119685Y167913D02*
X123622D01*
Y138779D02*
Y142717D01*
X121653Y140748D02*
X125591D01*
X101575Y103051D02*
Y129232D01*
X115748D01*
Y103051D02*
Y129232D01*
X101575Y103051D02*
X115748D01*
X79134D02*
Y129232D01*
X93307D01*
Y103051D02*
Y129232D01*
X79134Y103051D02*
X93307D01*
X147638Y71850D02*
X151575D01*
X149606Y69882D02*
Y73819D01*
X158465Y71850D02*
X162402D01*
X160433Y69882D02*
Y73819D01*
X67913Y60039D02*
Y63976D01*
X65945Y62008D02*
X69882D01*
X52165Y60039D02*
Y63976D01*
X50197Y62008D02*
X54134D01*
X95472Y61024D02*
X99410D01*
X97441Y59055D02*
Y62992D01*
X95472Y115013D02*
X99409D01*
X97441Y113045D02*
Y116981D01*
X14764Y97441D02*
X18701D01*
X16732Y95472D02*
Y99410D01*
X14764Y81693D02*
X18701D01*
X16732Y79724D02*
Y83661D01*
X179134Y234252D02*
X183071D01*
X181102Y232283D02*
Y236221D01*
X179134Y216535D02*
X183071D01*
X181102Y214567D02*
Y218504D01*
X28543Y180118D02*
X32480D01*
X30512Y178150D02*
Y182087D01*
X44291Y174213D02*
Y178150D01*
X42323Y176181D02*
X46260D01*
X37992Y237205D02*
Y241142D01*
X36024Y239173D02*
X39961D01*
X37992Y228346D02*
Y232283D01*
X36024Y230315D02*
X39961D01*
X128740Y204724D02*
Y208661D01*
X126772Y206693D02*
X130709D01*
X103543Y218799D02*
Y244980D01*
X117717D01*
Y218799D02*
Y244980D01*
X103543Y218799D02*
X117717D01*
X81102D02*
Y244980D01*
X95276D01*
Y218799D02*
Y244980D01*
X81102Y218799D02*
X95276D01*
X54823Y182283D02*
X81004D01*
Y168110D02*
Y182283D01*
X54823Y168110D02*
X81004D01*
X54823D02*
Y182283D01*
X90748Y213291D02*
X93307Y215850D01*
X90748Y190259D02*
Y215850D01*
Y190259D02*
X108071D01*
Y215850D01*
X90748D02*
X108071D01*
D75*
X121850Y211614D02*
X135630D01*
X121850Y190748D02*
X135630D01*
X121850D02*
Y211614D01*
X135630Y190748D02*
Y211614D01*
X177423Y144606D02*
Y168386D01*
X137537Y144606D02*
Y168386D01*
X177423D01*
X137537Y144606D02*
X177423D01*
X134252Y84646D02*
Y94488D01*
X116929Y84646D02*
Y94488D01*
Y84646D02*
X134252D01*
X116929Y94488D02*
X134252D01*
X104331Y220866D02*
Y238189D01*
X94488Y220866D02*
Y238189D01*
X104331D01*
X94488Y220866D02*
X104331D01*
X59252Y171260D02*
X76575D01*
X59252Y161417D02*
X76575D01*
X59252D02*
Y171260D01*
X76575Y161417D02*
Y171260D01*
X182283Y83661D02*
X199606D01*
X182283Y93504D02*
X199606D01*
Y83661D02*
Y93504D01*
X182283Y83661D02*
Y93504D01*
Y134843D02*
X199606D01*
X182283Y144685D02*
X199606D01*
Y134843D02*
Y144685D01*
X182283Y134843D02*
Y144685D01*
Y122047D02*
X199606D01*
X182283Y131890D02*
X199606D01*
Y122047D02*
Y131890D01*
X182283Y122047D02*
Y131890D01*
Y109252D02*
X199606D01*
X182283Y119095D02*
X199606D01*
Y109252D02*
Y119095D01*
X182283Y109252D02*
Y119095D01*
Y96457D02*
X199606D01*
X182283Y106299D02*
X199606D01*
Y96457D02*
Y106299D01*
X182283Y96457D02*
Y106299D01*
X177423Y171181D02*
Y194961D01*
X137537Y171181D02*
Y194961D01*
X177423D01*
X137537Y171181D02*
X177423D01*
X223031Y175197D02*
Y198819D01*
X210039Y175197D02*
Y198819D01*
Y175197D02*
X223031D01*
X210039Y198819D02*
X223031D01*
X195472Y175197D02*
Y198819D01*
X182480Y175197D02*
Y198819D01*
Y175197D02*
X195472D01*
X182480Y198819D02*
X195472D01*
X106693Y149409D02*
X136614D01*
X106693Y186417D02*
X136614D01*
Y149409D02*
Y186417D01*
X106693Y149409D02*
Y186417D01*
X113189Y133858D02*
X134055D01*
X113189Y147638D02*
X134055D01*
X113189Y133858D02*
Y147638D01*
X134055Y133858D02*
Y147638D01*
X144685Y63189D02*
Y80512D01*
X154528Y63189D02*
Y80512D01*
X144685Y63189D02*
X154528D01*
X144685Y80512D02*
X154528D01*
X165354Y63189D02*
Y80512D01*
X155512Y63189D02*
Y80512D01*
X165354D01*
X155512Y63189D02*
X165354D01*
X59252Y57087D02*
X76575D01*
X59252Y66929D02*
X76575D01*
Y57087D02*
Y66929D01*
X59252Y57087D02*
Y66929D01*
X43504Y57087D02*
X60827D01*
X43504Y66929D02*
X60827D01*
Y57087D02*
Y66929D01*
X43504Y57087D02*
Y66929D01*
X92520Y52362D02*
Y69685D01*
X102362Y52362D02*
Y69685D01*
X92520Y52362D02*
X102362D01*
X92520Y69685D02*
X102362D01*
Y106352D02*
Y123674D01*
X92520Y106352D02*
Y123674D01*
X102362D01*
X92520Y106352D02*
X102362D01*
X11811Y88779D02*
Y106102D01*
X21654Y88779D02*
Y106102D01*
X11811Y88779D02*
X21654D01*
X11811Y106102D02*
X21654D01*
X11811Y73032D02*
Y90354D01*
X21654Y73032D02*
Y90354D01*
X11811Y73032D02*
X21654D01*
X11811Y90354D02*
X21654D01*
X186024Y225590D02*
Y242913D01*
X176181Y225590D02*
Y242913D01*
X186024D01*
X176181Y225590D02*
X186024D01*
Y207874D02*
Y225197D01*
X176181Y207874D02*
Y225197D01*
X186024D01*
X176181Y207874D02*
X186024D01*
X35433Y171457D02*
Y188779D01*
X25591Y171457D02*
Y188779D01*
X35433D01*
X25591Y171457D02*
X35433D01*
X35630Y181102D02*
X52953D01*
X35630Y171260D02*
X52953D01*
X35630D02*
Y181102D01*
X52953Y171260D02*
Y181102D01*
X29331Y234252D02*
X46654D01*
X29331Y244094D02*
X46654D01*
Y234252D02*
Y244094D01*
X29331Y234252D02*
Y244094D01*
Y235236D02*
X46654D01*
X29331Y225394D02*
X46654D01*
X29331D02*
Y235236D01*
X46654Y225394D02*
Y235236D01*
X120079Y211614D02*
X137402D01*
X120079Y201772D02*
X137402D01*
X120079D02*
Y211614D01*
X137402Y201772D02*
Y211614D01*
M02*
