G04*
G04 #@! TF.GenerationSoftware,Altium Limited,Altium Designer,25.3.2 (17)*
G04*
G04 Layer_Physical_Order=1*
G04 Layer_Color=255*
%FSLAX25Y25*%
%MOIN*%
G70*
G04*
G04 #@! TF.SameCoordinates,DFD58F72-5230-4211-8425-633F0AFCE8D5*
G04*
G04*
G04 #@! TF.FilePolarity,Positive*
G04*
G01*
G75*
%ADD13R,0.04921X0.05906*%
%ADD14R,0.07087X0.03937*%
%ADD15R,0.12598X0.06299*%
%ADD16R,0.05709X0.01772*%
%ADD17R,0.10787X0.15197*%
%ADD18R,0.06299X0.12598*%
%ADD19R,0.05906X0.04921*%
%ADD20R,0.04921X0.06299*%
%ADD21R,0.04724X0.04724*%
%ADD22R,0.06299X0.04921*%
%ADD23R,0.06693X0.03740*%
%ADD24R,0.12598X0.06772*%
%ADD25R,0.22441X0.06299*%
%ADD26R,0.10236X0.17717*%
%ADD36R,0.06102X0.06102*%
%ADD37C,0.06102*%
%ADD42C,0.02756*%
%ADD43C,0.03937*%
%ADD44C,0.07874*%
%ADD45C,0.01181*%
%ADD46C,0.16929*%
%ADD47C,0.08858*%
G04:AMPARAMS|DCode=48|XSize=88.58mil|YSize=88.58mil|CornerRadius=22.15mil|HoleSize=0mil|Usage=FLASHONLY|Rotation=90.000|XOffset=0mil|YOffset=0mil|HoleType=Round|Shape=RoundedRectangle|*
%AMROUNDEDRECTD48*
21,1,0.08858,0.04429,0,0,90.0*
21,1,0.04429,0.08858,0,0,90.0*
1,1,0.04429,0.02215,0.02215*
1,1,0.04429,0.02215,-0.02215*
1,1,0.04429,-0.02215,-0.02215*
1,1,0.04429,-0.02215,0.02215*
%
%ADD48ROUNDEDRECTD48*%
%ADD49C,0.02362*%
%ADD50C,0.01575*%
%ADD51C,0.05000*%
%ADD52C,0.03937*%
G36*
X221619Y286687D02*
X223733Y286120D01*
X225755Y285283D01*
X227650Y284189D01*
X229387Y282856D01*
X230935Y281308D01*
X232267Y279572D01*
X233362Y277676D01*
X234199Y275654D01*
X234766Y273540D01*
X235051Y271370D01*
Y270276D01*
Y18307D01*
Y17213D01*
X234766Y15043D01*
X234199Y12928D01*
X233362Y10906D01*
X232267Y9011D01*
X230935Y7274D01*
X229387Y5727D01*
X227651Y4394D01*
X225755Y3300D01*
X223733Y2462D01*
X221619Y1896D01*
X219449Y1610D01*
X16473D01*
X14302Y1896D01*
X12188Y2462D01*
X10166Y3300D01*
X8271Y4394D01*
X6534Y5727D01*
X4986Y7274D01*
X3654Y9011D01*
X2560Y10906D01*
X1722Y12928D01*
X1156Y15043D01*
X870Y17213D01*
Y18307D01*
Y270276D01*
Y271370D01*
X1156Y273540D01*
X1722Y275654D01*
X2560Y277676D01*
X3654Y279572D01*
X4986Y281308D01*
X6534Y282856D01*
X8271Y284188D01*
X10166Y285283D01*
X12188Y286120D01*
X14302Y286687D01*
X16473Y286973D01*
X219449D01*
X221619Y286687D01*
D02*
G37*
%LPC*%
G36*
X213127Y281519D02*
X121283D01*
X120822Y281428D01*
X120681Y281333D01*
X120540Y281428D01*
X120079Y281519D01*
X23093D01*
X22800Y281461D01*
X22633Y281428D01*
X22242Y281167D01*
X22085Y280932D01*
X21981Y280776D01*
X21789Y280314D01*
X21698Y279853D01*
X21756Y279560D01*
X21789Y279392D01*
X22050Y279001D01*
X22164Y278888D01*
X23068Y277535D01*
X23691Y276031D01*
X24008Y274436D01*
Y272809D01*
X23691Y271213D01*
X23068Y269709D01*
X22164Y268356D01*
X21014Y267206D01*
X19661Y266302D01*
X18158Y265679D01*
X16562Y265362D01*
X14934D01*
X13339Y265679D01*
X11788Y266322D01*
X11575Y266364D01*
X11363Y266413D01*
X11345Y266410D01*
X11327Y266413D01*
X11114Y266371D01*
X10900Y266335D01*
X10522Y266192D01*
X10456Y266150D01*
X10381Y266128D01*
X10259Y266062D01*
X10122Y265950D01*
X9975Y265852D01*
X9942Y265802D01*
X9896Y265764D01*
X9813Y265608D01*
X9714Y265461D01*
X9702Y265403D01*
X9674Y265350D01*
X9657Y265174D01*
X9623Y265001D01*
Y184055D01*
X9714Y183594D01*
X9975Y183204D01*
X9975Y183204D01*
X12928Y180251D01*
X13319Y179990D01*
X13780Y179898D01*
X13780Y179898D01*
X26446D01*
X26559Y179445D01*
X26559D01*
Y172524D01*
X34465D01*
Y174559D01*
X36697D01*
Y172228D01*
X38552D01*
Y170454D01*
X38504Y170406D01*
X38205Y169683D01*
Y168900D01*
X38504Y168176D01*
X39058Y167622D01*
X39782Y167323D01*
X40565D01*
X41288Y167622D01*
X41842Y168176D01*
X42142Y168900D01*
Y169683D01*
X41842Y170406D01*
X41795Y170454D01*
Y172228D01*
X43618D01*
Y179898D01*
X53150D01*
X53610Y179990D01*
X53752Y180084D01*
X53893Y179990D01*
X54354Y179898D01*
X80709D01*
X81169Y179990D01*
X81560Y180251D01*
X81821Y180641D01*
X81913Y181102D01*
Y182857D01*
X82375Y183048D01*
X82908Y182515D01*
X83434Y182163D01*
X84055Y182040D01*
X84236D01*
Y180791D01*
X92929D01*
Y186531D01*
X84299D01*
Y194199D01*
X84871Y194771D01*
X91748D01*
Y197330D01*
Y199889D01*
Y202448D01*
Y205422D01*
X92027Y205477D01*
X92554Y205829D01*
X93572Y206847D01*
X93923Y207373D01*
X94047Y207994D01*
Y211449D01*
X94463Y211798D01*
X94852Y211747D01*
X95243Y211486D01*
X95704Y211394D01*
X106876D01*
X106925Y210894D01*
X106791Y210868D01*
X106265Y210516D01*
X105334Y209584D01*
X104982Y209058D01*
X104859Y208438D01*
Y199227D01*
Y195258D01*
X104695Y195190D01*
X104141Y194636D01*
X103842Y193913D01*
Y193130D01*
X104141Y192406D01*
X104695Y191852D01*
X105419Y191553D01*
X106202D01*
X106925Y191852D01*
X107479Y192406D01*
X107779Y193130D01*
Y193591D01*
X107979Y193890D01*
X108102Y194511D01*
Y194771D01*
X113575D01*
Y189870D01*
X113596Y189765D01*
X113594Y189658D01*
X113642Y189537D01*
X113667Y189409D01*
X113727Y189320D01*
X113766Y189220D01*
X113856Y189127D01*
X113928Y189019D01*
X114017Y188959D01*
X114092Y188882D01*
X114550Y188563D01*
X114669Y188511D01*
X114777Y188439D01*
X114882Y188418D01*
X114980Y188375D01*
X115110Y188373D01*
X115238Y188347D01*
X115343Y188368D01*
X115450Y188366D01*
X115571Y188414D01*
X115698Y188439D01*
X115990Y188559D01*
X116294D01*
X116575Y188443D01*
X116920Y188098D01*
X116980Y188008D01*
X117079Y187942D01*
X117163Y187858D01*
X117213Y187460D01*
X117188Y187312D01*
X115159Y185283D01*
X114583D01*
Y186531D01*
X105890D01*
Y180791D01*
X114583D01*
Y182040D01*
X115831D01*
X116451Y182163D01*
X116977Y182515D01*
X119616Y185153D01*
X119683D01*
X120343Y185427D01*
X120618Y185322D01*
X120843Y185183D01*
Y173228D01*
X120935Y172767D01*
X121196Y172377D01*
X123952Y169621D01*
X124342Y169360D01*
X124803Y169268D01*
X124803Y169268D01*
X174409Y169268D01*
X199270D01*
X199387Y169291D01*
X199505D01*
X199615Y169337D01*
X199731Y169360D01*
X199830Y169426D01*
X199939Y169471D01*
X200023Y169555D01*
X200122Y169621D01*
X200188Y169720D01*
X200272Y169803D01*
X200317Y169913D01*
X200383Y170012D01*
X200406Y170128D01*
X200451Y170238D01*
X200548Y170724D01*
X204964D01*
X205061Y170238D01*
X205106Y170128D01*
X205129Y170012D01*
X205195Y169913D01*
X205240Y169803D01*
X205324Y169720D01*
X205390Y169621D01*
X205489Y169555D01*
X205573Y169471D01*
X205682Y169426D01*
X205781Y169360D01*
X205897Y169337D01*
X206007Y169291D01*
X206125D01*
X206242Y169268D01*
X225394D01*
X225854Y169360D01*
X226245Y169621D01*
X226506Y170012D01*
X226598Y170472D01*
Y189961D01*
X226506Y190421D01*
X226245Y190812D01*
X226245Y190812D01*
X223292Y193765D01*
X222902Y194026D01*
X222441Y194118D01*
X222441Y194118D01*
X208661D01*
X208201Y194026D01*
X207810Y193765D01*
X207810Y193765D01*
X203873Y189828D01*
X203612Y189437D01*
X203520Y188976D01*
X203520Y188976D01*
Y185538D01*
X203045Y185063D01*
X183480D01*
X183401Y185047D01*
X170086D01*
Y190937D01*
X183401D01*
X183480Y190922D01*
X192126D01*
X192126Y190922D01*
X192587Y191013D01*
X192977Y191274D01*
X192977Y191274D01*
X195733Y194030D01*
X195733Y194030D01*
X198451Y196748D01*
X198495Y196814D01*
X198555Y196867D01*
X198625Y197008D01*
X198712Y197139D01*
X198728Y197217D01*
X198763Y197288D01*
X198819Y197497D01*
X199375Y198460D01*
X200162Y199247D01*
X201125Y199803D01*
X202200Y200091D01*
X203312D01*
X204387Y199803D01*
X204488Y199744D01*
X204563Y199719D01*
X204629Y199675D01*
X204784Y199644D01*
X204933Y199593D01*
X205012Y199599D01*
X205090Y199583D01*
X222441D01*
X222902Y199675D01*
X223292Y199936D01*
X226048Y202692D01*
X226309Y203082D01*
X226401Y203543D01*
X226401Y203543D01*
Y248031D01*
X226309Y248492D01*
X226048Y248883D01*
X225658Y249144D01*
X225197Y249236D01*
X219112D01*
X218920Y249698D01*
X221324Y252101D01*
X221585Y252492D01*
X221677Y252953D01*
X221677Y252953D01*
Y264158D01*
X221585Y264618D01*
X221324Y265009D01*
X220933Y265270D01*
X220472Y265362D01*
X219659D01*
X218063Y265679D01*
X216560Y266302D01*
X215207Y267206D01*
X214056Y268356D01*
X213152Y269709D01*
X212530Y271213D01*
X212212Y272809D01*
Y274436D01*
X212530Y276031D01*
X213152Y277535D01*
X214056Y278888D01*
X214170Y279001D01*
X214431Y279392D01*
X214523Y279853D01*
X214431Y280314D01*
X214240Y280776D01*
X214109Y280972D01*
X213979Y281167D01*
X213588Y281428D01*
X213280Y281489D01*
X213127Y281519D01*
D02*
G37*
G36*
X64681Y179347D02*
X57760D01*
Y176819D01*
X55493D01*
X55446Y176866D01*
X54722Y177165D01*
X53939D01*
X53216Y176866D01*
X52662Y176312D01*
X52362Y175588D01*
Y174805D01*
X52662Y174082D01*
X53216Y173528D01*
X53939Y173228D01*
X54722D01*
X55446Y173528D01*
X55493Y173575D01*
X57760D01*
Y171047D01*
X64681D01*
Y179347D01*
D02*
G37*
G36*
X67240Y170291D02*
X60319D01*
Y162386D01*
X62158D01*
Y160611D01*
X62111Y160564D01*
X61811Y159840D01*
Y159057D01*
X62111Y158334D01*
X62665Y157780D01*
X63388Y157480D01*
X64171D01*
X64895Y157780D01*
X65448Y158334D01*
X65748Y159057D01*
Y159840D01*
X65448Y160564D01*
X65401Y160611D01*
Y162386D01*
X67240D01*
Y170291D01*
D02*
G37*
G36*
X134291Y156831D02*
X133425D01*
X132589Y156607D01*
X131840Y156174D01*
X131563Y155897D01*
X131212Y155576D01*
X131193Y155589D01*
X130963Y155767D01*
X130888Y155793D01*
X130822Y155837D01*
X130667Y155868D01*
X130518Y155918D01*
X130439Y155913D01*
X130361Y155929D01*
X114961D01*
X114500Y155837D01*
X114109Y155576D01*
X114109Y155576D01*
X107416Y148883D01*
X107155Y148492D01*
X107063Y148031D01*
X107063Y148031D01*
X107063Y129921D01*
X107155Y129460D01*
X107416Y129070D01*
X107807Y128809D01*
X108268Y128717D01*
X131391D01*
X132007Y128101D01*
X132397Y127840D01*
X132858Y127749D01*
X132858Y127749D01*
X136438D01*
X136566Y127557D01*
X136957Y127296D01*
X137417Y127205D01*
X150374D01*
X150374Y127205D01*
X150835Y127296D01*
X151225Y127557D01*
X160875Y137207D01*
X161136Y137598D01*
X161228Y138059D01*
X161228Y138059D01*
Y141725D01*
X173418D01*
Y135834D01*
X163452D01*
X163452Y135834D01*
X162992Y135742D01*
X162601Y135481D01*
X162601Y135481D01*
X152325Y125205D01*
X151836Y124879D01*
X151259Y124764D01*
X137417D01*
X136957Y124672D01*
X136566Y124411D01*
X136438Y124220D01*
X133858D01*
X133397Y124128D01*
X133007Y123867D01*
X132746Y123477D01*
X132654Y123016D01*
Y120685D01*
X132746Y120224D01*
X133007Y119834D01*
X133397Y119572D01*
X133858Y119481D01*
X139953D01*
Y113590D01*
X133858D01*
X133397Y113498D01*
X133007Y113237D01*
X132746Y112847D01*
X132654Y112386D01*
Y108268D01*
X132654Y108268D01*
X132746Y107807D01*
X133007Y107416D01*
X133639Y106784D01*
X133447Y106322D01*
X115377D01*
Y122047D01*
X115286Y122508D01*
X115025Y122899D01*
X114634Y123160D01*
X114173Y123251D01*
X112811D01*
X112350Y123160D01*
X111960Y122899D01*
X111698Y122508D01*
X111607Y122047D01*
Y120578D01*
X105716D01*
Y122047D01*
X105624Y122508D01*
X105363Y122899D01*
X104973Y123160D01*
X104512Y123251D01*
X90370D01*
X89909Y123160D01*
X89518Y122899D01*
X89258Y122508D01*
X89166Y122047D01*
Y120578D01*
X82071D01*
X81913Y121041D01*
Y125984D01*
X81821Y126445D01*
X81560Y126836D01*
X81169Y127097D01*
X80709Y127189D01*
X76007D01*
X76007Y127189D01*
Y139764D01*
X75916Y140225D01*
X75655Y140615D01*
X75264Y140876D01*
X74803Y140968D01*
X70291D01*
X69831Y140876D01*
X69440Y140615D01*
X69179Y140225D01*
X69087Y139764D01*
Y138373D01*
X56897D01*
Y139764D01*
X56805Y140225D01*
X56544Y140615D01*
X56154Y140876D01*
X55693Y140968D01*
X37614D01*
X37153Y140876D01*
X36763Y140615D01*
X36502Y140225D01*
X36410Y139764D01*
Y132685D01*
X30519D01*
Y139764D01*
X30428Y140225D01*
X30167Y140615D01*
X29776Y140876D01*
X29315Y140968D01*
X11811D01*
X11350Y140876D01*
X10960Y140615D01*
X10960Y140615D01*
X9778Y139434D01*
X9517Y139043D01*
X9426Y138583D01*
X9426Y138583D01*
X9426Y106496D01*
X9517Y106035D01*
X9778Y105645D01*
X9778Y105645D01*
X10960Y104464D01*
X10960Y104463D01*
X11350Y104202D01*
X11811Y104111D01*
X11811Y104111D01*
X19481D01*
Y98193D01*
X19465Y98114D01*
Y96768D01*
X12779D01*
Y95692D01*
X11811D01*
X11350Y95601D01*
X10960Y95340D01*
X10960Y95340D01*
X9778Y94159D01*
X9517Y93768D01*
X9426Y93307D01*
X9426Y93307D01*
Y63189D01*
X9517Y62728D01*
X9778Y62337D01*
X9778Y62337D01*
X10960Y61156D01*
X11350Y60895D01*
X11811Y60804D01*
X11811Y60804D01*
X23016D01*
X23095Y60819D01*
X32023D01*
X32102Y60804D01*
X44571D01*
X45032Y60895D01*
X45422Y61156D01*
X45683Y61547D01*
X45775Y62008D01*
Y64756D01*
X50288D01*
Y62008D01*
X50380Y61547D01*
X50641Y61156D01*
X51031Y60895D01*
X51492Y60804D01*
X52839D01*
Y58055D01*
X54677D01*
Y57068D01*
X54630Y57021D01*
X54331Y56297D01*
Y55514D01*
X54630Y54790D01*
X55184Y54237D01*
X55908Y53937D01*
X56691D01*
X57414Y54237D01*
X57968Y54790D01*
X58268Y55514D01*
Y56297D01*
X57968Y57021D01*
X57921Y57068D01*
Y58055D01*
X59760D01*
Y60804D01*
X60319D01*
X60780Y60895D01*
X61170Y61156D01*
X61431Y61547D01*
X61523Y62008D01*
Y64756D01*
X66036D01*
Y62008D01*
X66128Y61547D01*
X66389Y61156D01*
X66779Y60895D01*
X67240Y60804D01*
X68587D01*
Y58055D01*
X75508D01*
Y60386D01*
X77261D01*
X77881Y60510D01*
X78408Y60861D01*
X80446Y62900D01*
X80797Y63426D01*
X80921Y64046D01*
Y71465D01*
X81383Y71656D01*
X82171Y70868D01*
X82697Y70516D01*
X83318Y70393D01*
X84105D01*
X84592Y69906D01*
X84385Y69406D01*
X82268D01*
Y63665D01*
X89347D01*
Y58382D01*
X89439Y57921D01*
X89700Y57530D01*
X89756Y57493D01*
Y53531D01*
X89700Y53493D01*
X89439Y53103D01*
X89347Y52642D01*
Y51181D01*
X89439Y50720D01*
X89700Y50330D01*
X90090Y50068D01*
X90551Y49977D01*
X108268D01*
X108729Y50068D01*
X109119Y50330D01*
X109380Y50720D01*
X109472Y51181D01*
Y52642D01*
X109380Y53103D01*
X109119Y53493D01*
X108729Y53754D01*
X108268Y53846D01*
X105125D01*
Y57178D01*
X111410D01*
Y57087D01*
X111502Y56626D01*
X111763Y56235D01*
X112153Y55974D01*
X112614Y55882D01*
X116717D01*
Y53921D01*
X116906D01*
Y51181D01*
X116998Y50720D01*
X117259Y50330D01*
X117649Y50068D01*
X118110Y49977D01*
X119374D01*
X119835Y50068D01*
X120226Y50330D01*
X120487Y50720D01*
X120578Y51181D01*
Y52945D01*
X125091D01*
Y51181D01*
X125183Y50720D01*
X125444Y50330D01*
X125834Y50068D01*
X126295Y49977D01*
X132760D01*
Y45850D01*
X139681D01*
Y48378D01*
X140453D01*
X141073Y48502D01*
X141600Y48853D01*
X142762Y50016D01*
X142911D01*
X143635Y50315D01*
X144188Y50869D01*
X144488Y51593D01*
Y52376D01*
X144448Y52474D01*
X144612Y52748D01*
X144800Y52930D01*
X146612D01*
Y43645D01*
X146714Y42870D01*
X147013Y42147D01*
X147489Y41527D01*
X150663Y38353D01*
Y18825D01*
X148891Y17053D01*
X140995D01*
X140803Y17515D01*
X140879Y17591D01*
X141413Y18515D01*
X141689Y19545D01*
Y20612D01*
X141413Y21642D01*
X140879Y22566D01*
X140125Y23321D01*
X139201Y23854D01*
X138171Y24130D01*
X137104D01*
X136074Y23854D01*
X135150Y23321D01*
X134396Y22566D01*
X133863Y21642D01*
X133587Y20612D01*
Y19545D01*
X133863Y18515D01*
X134396Y17591D01*
X134472Y17515D01*
X134281Y17053D01*
X125484D01*
X121603Y20934D01*
X121413Y21642D01*
X120879Y22566D01*
X120125Y23321D01*
X119202Y23854D01*
X118171Y24130D01*
X117104D01*
X116074Y23854D01*
X115150Y23321D01*
X114396Y22566D01*
X113863Y21642D01*
X113587Y20612D01*
Y19545D01*
X113863Y18515D01*
X114396Y17591D01*
X115150Y16837D01*
X116074Y16304D01*
X117104Y16028D01*
X118041D01*
X122126Y11942D01*
X122746Y11466D01*
X123468Y11167D01*
X124243Y11065D01*
X150131D01*
X150906Y11167D01*
X151628Y11466D01*
X152248Y11942D01*
X155775Y15468D01*
X156251Y16088D01*
X156550Y16810D01*
X156652Y17585D01*
Y39593D01*
X156550Y40368D01*
X156251Y41091D01*
X155775Y41711D01*
X152600Y44885D01*
Y52930D01*
X153543D01*
X153543Y52930D01*
X154004Y53021D01*
X154395Y53282D01*
X156363Y55251D01*
X156624Y55642D01*
X156716Y56102D01*
X156716Y56102D01*
Y69709D01*
X156941Y69754D01*
X157269Y69973D01*
X163597D01*
X163925Y69754D01*
X164386Y69662D01*
X183071Y69662D01*
X183532Y69754D01*
X183922Y70015D01*
X183922Y70015D01*
X188647Y74739D01*
X188908Y75130D01*
X188999Y75591D01*
X188999Y75591D01*
Y80662D01*
X220195D01*
X220236Y80591D01*
X220749Y80078D01*
X221377Y79715D01*
X222078Y79528D01*
X222804D01*
X223505Y79715D01*
X224133Y80078D01*
X224646Y80591D01*
X225009Y81220D01*
X225197Y81921D01*
Y82646D01*
X225009Y83347D01*
X224646Y83976D01*
X224133Y84489D01*
X223505Y84851D01*
X222804Y85039D01*
X222078D01*
X221377Y84851D01*
X220749Y84489D01*
X220236Y83976D01*
X220195Y83905D01*
X188765D01*
X188630Y84041D01*
Y84630D01*
X190272D01*
Y92535D01*
X188999D01*
Y97425D01*
X190272D01*
Y105331D01*
X188999D01*
Y110221D01*
X190272D01*
Y118126D01*
X188999D01*
Y123016D01*
X190272D01*
Y130921D01*
X188999D01*
Y135811D01*
X190272D01*
Y143717D01*
X188999D01*
Y150000D01*
X188999Y150000D01*
X188908Y150461D01*
X188647Y150852D01*
X183922Y155576D01*
X183532Y155837D01*
X183071Y155929D01*
X183071Y155929D01*
X137356Y155929D01*
X137278Y155913D01*
X137199Y155918D01*
X137049Y155868D01*
X136895Y155837D01*
X136829Y155793D01*
X136754Y155767D01*
X136524Y155589D01*
X136504Y155576D01*
X136153Y155897D01*
X135877Y156174D01*
X135127Y156607D01*
X134291Y156831D01*
D02*
G37*
G36*
X198539Y143717D02*
X191618D01*
Y135811D01*
X198539D01*
Y137339D01*
X201165D01*
Y136402D01*
X207890D01*
Y143126D01*
X201165D01*
Y142188D01*
X198539D01*
Y143717D01*
D02*
G37*
G36*
Y130921D02*
X191618D01*
Y123016D01*
X198539D01*
Y124544D01*
X201165D01*
Y123606D01*
X207890D01*
Y130331D01*
X201165D01*
Y129393D01*
X198539D01*
Y130921D01*
D02*
G37*
G36*
Y118126D02*
X191618D01*
Y110221D01*
X198539D01*
Y111749D01*
X201165D01*
Y110811D01*
X207890D01*
Y117535D01*
X201165D01*
Y116598D01*
X198539D01*
Y118126D01*
D02*
G37*
G36*
Y105331D02*
X191618D01*
Y97425D01*
X198539D01*
Y98953D01*
X201165D01*
Y98016D01*
X207890D01*
Y104740D01*
X201165D01*
Y103803D01*
X198539D01*
Y105331D01*
D02*
G37*
G36*
Y92535D02*
X191618D01*
Y84630D01*
X198539D01*
Y86158D01*
X201165D01*
Y85220D01*
X207890D01*
Y91945D01*
X201165D01*
Y91007D01*
X198539D01*
Y92535D01*
D02*
G37*
G36*
X197260Y61236D02*
X182661D01*
Y56366D01*
X181582Y55287D01*
X181057Y54500D01*
X180872Y53572D01*
Y52880D01*
X180866Y52873D01*
X180503Y52245D01*
X180315Y51544D01*
Y50818D01*
X180503Y50117D01*
X180866Y49489D01*
X181379Y48976D01*
X182007Y48613D01*
X182708Y48425D01*
X183434D01*
X184135Y48613D01*
X184763Y48976D01*
X185276Y49489D01*
X185639Y50117D01*
X185827Y50818D01*
Y51544D01*
X185721Y51937D01*
Y52568D01*
X186090Y52937D01*
X197260D01*
Y61236D01*
D02*
G37*
G36*
X138158Y38189D02*
X137433D01*
X136732Y38001D01*
X136103Y37638D01*
X135590Y37125D01*
X135227Y36497D01*
X135039Y35796D01*
Y35070D01*
X135227Y34369D01*
X135590Y33741D01*
X135566Y33561D01*
X135150Y33321D01*
X134396Y32566D01*
X133863Y31642D01*
X133587Y30612D01*
Y29545D01*
X133863Y28515D01*
X134396Y27591D01*
X135150Y26837D01*
X136074Y26304D01*
X137104Y26028D01*
X138171D01*
X139201Y26304D01*
X140125Y26837D01*
X140879Y27591D01*
X141413Y28515D01*
X141689Y29545D01*
Y30612D01*
X141413Y31642D01*
X140879Y32566D01*
X140125Y33321D01*
X140050Y33364D01*
X140000Y33741D01*
X140363Y34369D01*
X140551Y35070D01*
Y35796D01*
X140363Y36497D01*
X140000Y37125D01*
X139487Y37638D01*
X138859Y38001D01*
X138158Y38189D01*
D02*
G37*
G36*
X118171Y34130D02*
X117104D01*
X116074Y33854D01*
X115150Y33321D01*
X114396Y32566D01*
X113863Y31642D01*
X113587Y30612D01*
Y29545D01*
X113863Y28515D01*
X114396Y27591D01*
X115150Y26837D01*
X116074Y26304D01*
X117104Y26028D01*
X118171D01*
X119202Y26304D01*
X120125Y26837D01*
X120879Y27591D01*
X121413Y28515D01*
X121689Y29545D01*
Y30612D01*
X121413Y31642D01*
X120879Y32566D01*
X120125Y33321D01*
X119202Y33854D01*
X118171Y34130D01*
D02*
G37*
G36*
X98171D02*
X97104D01*
X96074Y33854D01*
X95150Y33321D01*
X94396Y32566D01*
X93863Y31642D01*
X93587Y30612D01*
Y29545D01*
X93863Y28515D01*
X94396Y27591D01*
X95150Y26837D01*
X96074Y26304D01*
X97104Y26028D01*
X98171D01*
X99202Y26304D01*
X100125Y26837D01*
X100880Y27591D01*
X101413Y28515D01*
X101689Y29545D01*
Y30612D01*
X101413Y31642D01*
X100880Y32566D01*
X100125Y33321D01*
X99202Y33854D01*
X98171Y34130D01*
D02*
G37*
G36*
X78171D02*
X77104D01*
X76074Y33854D01*
X75150Y33321D01*
X74396Y32566D01*
X73863Y31642D01*
X73587Y30612D01*
Y29545D01*
X73863Y28515D01*
X74396Y27591D01*
X75150Y26837D01*
X76074Y26304D01*
X77104Y26028D01*
X78171D01*
X79202Y26304D01*
X80125Y26837D01*
X80879Y27591D01*
X81413Y28515D01*
X81689Y29545D01*
Y30612D01*
X81413Y31642D01*
X80879Y32566D01*
X80125Y33321D01*
X79202Y33854D01*
X78171Y34130D01*
D02*
G37*
G36*
X98171Y24130D02*
X97104D01*
X96074Y23854D01*
X95150Y23321D01*
X94396Y22566D01*
X93863Y21642D01*
X93587Y20612D01*
Y19545D01*
X93863Y18515D01*
X94396Y17591D01*
X95150Y16837D01*
X96074Y16304D01*
X97104Y16028D01*
X98171D01*
X99202Y16304D01*
X100125Y16837D01*
X100880Y17591D01*
X101413Y18515D01*
X101689Y19545D01*
Y20612D01*
X101413Y21642D01*
X100880Y22566D01*
X100125Y23321D01*
X99202Y23854D01*
X98171Y24130D01*
D02*
G37*
G36*
X78171D02*
X77104D01*
X76074Y23854D01*
X75150Y23321D01*
X74396Y22566D01*
X73863Y21642D01*
X73587Y20612D01*
Y19545D01*
X73863Y18515D01*
X74396Y17591D01*
X75150Y16837D01*
X76074Y16304D01*
X77104Y16028D01*
X78171D01*
X79202Y16304D01*
X80125Y16837D01*
X80879Y17591D01*
X81413Y18515D01*
X81689Y19545D01*
Y20612D01*
X81413Y21642D01*
X80879Y22566D01*
X80125Y23321D01*
X79202Y23854D01*
X78171Y24130D01*
D02*
G37*
%LPD*%
G36*
X120079Y266142D02*
X117717Y263779D01*
X53150D01*
Y253937D01*
X29528D01*
Y250016D01*
X28921D01*
Y244079D01*
X29528D01*
Y231937D01*
X28721D01*
X28674Y231984D01*
X27951Y232283D01*
X27167D01*
X26444Y231984D01*
X25890Y231430D01*
X25591Y230707D01*
Y229923D01*
X25890Y229200D01*
X26220Y228870D01*
X26390Y228543D01*
X26220Y228217D01*
X25890Y227887D01*
X25591Y227163D01*
Y226380D01*
X25890Y225657D01*
X26444Y225103D01*
X27167Y224803D01*
X27951D01*
X28674Y225103D01*
X29228Y225657D01*
X29346Y225941D01*
X29528Y226378D01*
Y226378D01*
X29528Y226378D01*
X30398D01*
Y226362D01*
X37319D01*
Y226378D01*
X38665D01*
Y226362D01*
X45373D01*
X45398Y226238D01*
X45923Y225451D01*
X46710Y224925D01*
X47638Y224741D01*
X48566Y224925D01*
X49352Y225451D01*
X49878Y226238D01*
X49906Y226378D01*
X53150D01*
Y181102D01*
X13780D01*
X10827Y184055D01*
Y265001D01*
X10949Y265066D01*
X11327Y265209D01*
X12987Y264521D01*
X14816Y264158D01*
X16680D01*
X18509Y264521D01*
X20231Y265235D01*
X21781Y266270D01*
X23100Y267589D01*
X24135Y269139D01*
X24849Y270861D01*
X25213Y272690D01*
Y274554D01*
X24849Y276383D01*
X24135Y278105D01*
X23100Y279655D01*
X22902Y279853D01*
X23093Y280315D01*
X120079D01*
Y266142D01*
D02*
G37*
G36*
X182260Y262887D02*
Y247105D01*
X180454Y245299D01*
X153543D01*
X153543Y245299D01*
X153083Y245207D01*
X152692Y244946D01*
X152692Y244946D01*
X150723Y242977D01*
X150462Y242587D01*
X150371Y242126D01*
X150371Y242126D01*
Y228346D01*
X150462Y227886D01*
X150723Y227495D01*
X150723Y227495D01*
X152692Y225526D01*
X152692Y225526D01*
X153083Y225265D01*
X153543Y225174D01*
X153543Y225174D01*
X173228Y225174D01*
X173228Y225174D01*
X173689Y225265D01*
X174080Y225526D01*
X176048Y227495D01*
X176309Y227886D01*
X176401Y228346D01*
X176401Y228346D01*
Y233048D01*
X177150D01*
Y226658D01*
X179481D01*
Y224130D01*
X177150D01*
Y222094D01*
X175572D01*
X175524Y222141D01*
X174801Y222441D01*
X174018D01*
X173294Y222141D01*
X172964Y221811D01*
X172464Y222018D01*
Y222441D01*
X172372Y222902D01*
X172111Y223292D01*
X171721Y223553D01*
X171260Y223645D01*
X119315D01*
Y236221D01*
X119223Y236681D01*
X118962Y237072D01*
X118571Y237333D01*
X118110Y237425D01*
X114779D01*
X114319Y237333D01*
X113928Y237072D01*
X113667Y236681D01*
X113596Y236326D01*
X107664D01*
X107593Y236681D01*
X107332Y237072D01*
X106941Y237333D01*
X106480Y237425D01*
X92339D01*
X91878Y237333D01*
X91487Y237072D01*
X91226Y236681D01*
X91155Y236326D01*
X85244D01*
Y241748D01*
X85244Y241748D01*
X85152Y242209D01*
X84891Y242600D01*
X84891Y242600D01*
X82544Y244946D01*
X82154Y245207D01*
X81693Y245299D01*
X81693Y245299D01*
X49819D01*
X49740Y245283D01*
X40811D01*
X40732Y245299D01*
X39370D01*
X38909Y245207D01*
X38519Y244946D01*
X38258Y244555D01*
X38166Y244094D01*
X38166Y234268D01*
X38258Y233807D01*
X38519Y233416D01*
X38909Y233155D01*
X39370Y233064D01*
X45507D01*
X45587Y233048D01*
X51945D01*
Y227582D01*
X49906D01*
X49789Y227559D01*
X49671Y227559D01*
X49561Y227514D01*
X49445Y227490D01*
X49346Y227425D01*
X49237Y227379D01*
X49153Y227295D01*
X49054Y227229D01*
X48988Y227131D01*
X48904Y227047D01*
X48859Y226937D01*
X48793Y226839D01*
X48777Y226758D01*
X48484Y226319D01*
X48096Y226060D01*
X47638Y225969D01*
X47180Y226060D01*
X46792Y226319D01*
X46499Y226758D01*
X46486Y226823D01*
X46420Y226922D01*
X46374Y227031D01*
X46290Y227115D01*
X46224Y227214D01*
X46126Y227280D01*
X46042Y227363D01*
X45932Y227409D01*
X45834Y227475D01*
X45717Y227498D01*
X45608Y227543D01*
X45489Y227543D01*
X45373Y227566D01*
X38745D01*
X38665Y227582D01*
X37319D01*
Y234268D01*
X35480D01*
Y235221D01*
X37319D01*
Y243126D01*
X30732D01*
Y244079D01*
X30640Y244540D01*
X30379Y244930D01*
X30125Y245100D01*
Y248995D01*
X30379Y249164D01*
X30640Y249555D01*
X30732Y250016D01*
Y252733D01*
X53150D01*
X53610Y252824D01*
X54001Y253085D01*
X54262Y253476D01*
X54354Y253937D01*
Y262575D01*
X117300D01*
Y251969D01*
X117391Y251508D01*
X117652Y251117D01*
X118043Y250856D01*
X118504Y250764D01*
X165354D01*
X165815Y250856D01*
X166206Y251117D01*
X166467Y251508D01*
X166559Y251969D01*
Y262297D01*
X168806Y264544D01*
X180604D01*
X182260Y262887D01*
D02*
G37*
G36*
X84039Y241748D02*
Y235122D01*
X92339D01*
Y236221D01*
X106480D01*
Y235122D01*
X114779D01*
Y236221D01*
X118110D01*
Y223645D01*
X117649Y223553D01*
X117259Y223292D01*
X116998Y222902D01*
X116906Y222441D01*
Y213803D01*
X114779D01*
Y213897D01*
X107071D01*
Y212598D01*
X95704D01*
X95512Y213060D01*
X100556Y218104D01*
X100908Y218630D01*
X101031Y219251D01*
Y221933D01*
X103362D01*
Y228854D01*
X95457D01*
Y221933D01*
X97788D01*
Y219923D01*
X92086Y214221D01*
X91748Y213897D01*
Y213897D01*
X91748Y213897D01*
X85244D01*
Y216456D01*
X85204Y216655D01*
X85175Y216856D01*
X85016Y217307D01*
X85000Y217335D01*
X84993Y217368D01*
X84880Y217537D01*
X84777Y217711D01*
X84750Y217731D01*
X84732Y217758D01*
X83922Y218568D01*
X83532Y218829D01*
X83071Y218921D01*
X83071Y218921D01*
X81913D01*
Y235236D01*
X81913Y235236D01*
X81821Y235697D01*
X81560Y236088D01*
X81560Y236088D01*
X78607Y239040D01*
X78607Y239040D01*
X78217Y239301D01*
X77756Y239393D01*
X77756Y239393D01*
X56102D01*
X55642Y239301D01*
X55251Y239040D01*
X55251Y239040D01*
X52298Y236088D01*
X52037Y235697D01*
X51945Y235236D01*
X51945Y235236D01*
Y234252D01*
X45587D01*
Y234268D01*
X39370D01*
X39370Y244094D01*
X40732D01*
Y244079D01*
X49819D01*
Y244094D01*
X81693D01*
X84039Y241748D01*
D02*
G37*
G36*
X213318Y279853D02*
X213121Y279655D01*
X212085Y278105D01*
X211372Y276383D01*
X211008Y274554D01*
Y272690D01*
X211372Y270861D01*
X212085Y269139D01*
X213121Y267589D01*
X214439Y266270D01*
X215989Y265235D01*
X217712Y264521D01*
X219540Y264158D01*
X220472D01*
Y252953D01*
X215551Y248031D01*
X196850D01*
Y236221D01*
X194882Y234252D01*
X175197D01*
Y228346D01*
X173228Y226378D01*
X153543Y226378D01*
X151575Y228346D01*
Y242126D01*
X153543Y244094D01*
X180953D01*
X183465Y246606D01*
Y263386D01*
X181102Y265748D01*
X168307D01*
X165354Y262795D01*
Y251969D01*
X118504D01*
Y262885D01*
X118568Y262928D01*
X118568Y262928D01*
X120930Y265290D01*
X121191Y265681D01*
X121283Y266142D01*
X121283Y266142D01*
Y280315D01*
X213127D01*
X213318Y279853D01*
D02*
G37*
G36*
X193678Y233048D02*
Y224803D01*
X193769Y224342D01*
X194030Y223952D01*
X194421Y223691D01*
X194882Y223599D01*
X200575D01*
X201036Y223691D01*
X201426Y223952D01*
X201687Y224342D01*
X201738Y224599D01*
X207670D01*
Y212409D01*
X201779D01*
Y214209D01*
X201779Y214210D01*
X201779Y214210D01*
X201734Y214437D01*
X201687Y214670D01*
X201687Y214670D01*
X201687Y214671D01*
X201562Y214858D01*
X201426Y215061D01*
X201426Y215061D01*
X201426Y215061D01*
X201072Y215415D01*
X201072Y215415D01*
X201072Y215415D01*
X200880Y215543D01*
X200681Y215676D01*
X200681Y215676D01*
X200681Y215676D01*
X200463Y215719D01*
X200221Y215767D01*
X200220Y215767D01*
X200220Y215767D01*
X185054Y215755D01*
X184820Y215709D01*
X184594Y215664D01*
X184594Y215664D01*
X184593Y215663D01*
X184399Y215533D01*
X184204Y215403D01*
X184203Y215402D01*
X184203Y215402D01*
X184077Y215214D01*
X183942Y215012D01*
X183942Y215012D01*
X183942Y215011D01*
X183897Y214785D01*
X183851Y214551D01*
Y210145D01*
X178354D01*
Y210630D01*
X178262Y211091D01*
X178001Y211481D01*
X177610Y211742D01*
X177150Y211834D01*
X172464D01*
Y218927D01*
X172964Y219134D01*
X173294Y218804D01*
X174018Y218504D01*
X174801D01*
X175524Y218804D01*
X175572Y218851D01*
X177150D01*
Y217209D01*
X185055D01*
Y224130D01*
X182724D01*
Y226658D01*
X185055D01*
Y233048D01*
X193678D01*
X193678Y233048D01*
D02*
G37*
G36*
X225197Y203543D02*
X222441Y200787D01*
X205090D01*
X204852Y200925D01*
X203471Y201295D01*
X202041D01*
X200660Y200925D01*
X199422Y200210D01*
X198412Y199200D01*
X197697Y197962D01*
X197600Y197600D01*
X194882Y194882D01*
X192126Y192126D01*
X183480D01*
Y192142D01*
X168882D01*
Y183843D01*
X183480D01*
Y183858D01*
X203543D01*
X204724Y185039D01*
Y188976D01*
X208661Y192913D01*
X222441D01*
X225394Y189961D01*
Y170472D01*
X206242D01*
X206142Y170972D01*
X206592Y171159D01*
X207263Y171674D01*
X207778Y172345D01*
X208102Y173127D01*
X208213Y173967D01*
Y178396D01*
X208102Y179235D01*
X207778Y180017D01*
X207263Y180688D01*
X206592Y181204D01*
X205810Y181527D01*
X204971Y181638D01*
X200541D01*
X199702Y181527D01*
X198920Y181204D01*
X198249Y180688D01*
X197733Y180017D01*
X197409Y179235D01*
X197299Y178396D01*
Y173967D01*
X197409Y173127D01*
X197733Y172345D01*
X198249Y171674D01*
X198920Y171159D01*
X199370Y170972D01*
X199270Y170472D01*
X174409D01*
X124803Y170472D01*
X122047Y173228D01*
Y185804D01*
X147638D01*
X148099Y185895D01*
X148489Y186156D01*
X148750Y186547D01*
X148842Y187008D01*
Y200787D01*
X148750Y201248D01*
X148489Y201639D01*
X148099Y201900D01*
X147638Y201992D01*
X127953D01*
Y202740D01*
X128067D01*
Y209426D01*
X129413D01*
X129492Y209441D01*
X136256D01*
X136335Y209426D01*
X154118D01*
Y208390D01*
X168717D01*
Y209426D01*
X171260D01*
X171721Y209517D01*
X172111Y209778D01*
X172372Y210169D01*
X172464Y210630D01*
X177150D01*
Y208941D01*
X185055D01*
Y210630D01*
Y214551D01*
X200221Y214563D01*
X200575Y214209D01*
Y211205D01*
X208874D01*
Y225803D01*
X200575D01*
Y224803D01*
X194882D01*
Y233048D01*
X195343Y233139D01*
X195733Y233400D01*
X195733Y233401D01*
X197702Y235369D01*
X197702Y235369D01*
X197963Y235760D01*
X198055Y236221D01*
X198055Y236221D01*
Y246827D01*
X215551D01*
X216012Y246919D01*
X216403Y247180D01*
X216403Y247180D01*
X217254Y248031D01*
X225197D01*
Y203543D01*
D02*
G37*
G36*
X171260Y210630D02*
X136335D01*
Y210646D01*
X129413D01*
Y210630D01*
X128067D01*
Y210646D01*
X121146D01*
Y210283D01*
X116553D01*
X115932Y210160D01*
X115406Y209808D01*
X115242Y209644D01*
X114779Y209835D01*
Y211338D01*
X110236D01*
Y212598D01*
X118110D01*
Y222441D01*
X171260D01*
Y210630D01*
D02*
G37*
G36*
X80709Y235236D02*
Y217717D01*
X83071D01*
X83881Y216907D01*
X84039Y216456D01*
X84039D01*
X84039Y216456D01*
Y212684D01*
X87894D01*
Y211338D01*
X84039D01*
Y210716D01*
X83733Y210655D01*
X83207Y210303D01*
X82005Y209102D01*
X80362D01*
Y210137D01*
X80585Y210675D01*
Y211458D01*
X80285Y212182D01*
X80201Y212265D01*
X80249Y212504D01*
X80803Y213058D01*
X81102Y213782D01*
Y214565D01*
X80803Y215288D01*
X80249Y215842D01*
X79525Y216142D01*
X78742D01*
X78019Y215842D01*
X77465Y215288D01*
X77165Y214565D01*
Y213782D01*
X77465Y213058D01*
X77549Y212975D01*
X77501Y212735D01*
X76947Y212182D01*
X76648Y211458D01*
Y210675D01*
X76947Y209951D01*
X77118Y209780D01*
Y208172D01*
X77242Y207552D01*
X77593Y207026D01*
X78131Y206488D01*
X78225Y206163D01*
X78113Y205847D01*
X77717Y205451D01*
X77418Y204728D01*
Y203945D01*
X77717Y203221D01*
X77964Y202975D01*
X78019Y202456D01*
X77465Y201903D01*
X77165Y201179D01*
Y200396D01*
X77465Y199672D01*
X78019Y199119D01*
X78089Y199090D01*
Y198548D01*
X78019Y198519D01*
X77465Y197966D01*
X77165Y197242D01*
Y196459D01*
X77465Y195735D01*
X78019Y195182D01*
X78742Y194882D01*
X79525D01*
X80209Y195165D01*
X80709Y194988D01*
Y181102D01*
X54354D01*
Y226378D01*
X54262Y226839D01*
X54001Y227229D01*
X53610Y227490D01*
X53150Y227582D01*
Y235236D01*
X56102Y238189D01*
X77756D01*
X80709Y235236D01*
D02*
G37*
G36*
X147638Y187008D02*
X121260D01*
Y187514D01*
X120960Y188237D01*
X120406Y188791D01*
X119683Y189091D01*
X118900D01*
X118176Y188791D01*
X117832Y188859D01*
X117810Y188910D01*
X117257Y189464D01*
X116533Y189764D01*
X115750D01*
X115238Y189551D01*
X114779Y189870D01*
Y192212D01*
Y195983D01*
X110236D01*
Y197330D01*
X114779D01*
Y200153D01*
X117919D01*
X118540Y200276D01*
X119066Y200628D01*
X119226Y200787D01*
X147638D01*
Y187008D01*
D02*
G37*
G36*
X187795Y150000D02*
Y130921D01*
X183350D01*
Y128787D01*
X177049D01*
X177008Y128858D01*
X176495Y129371D01*
X175867Y129733D01*
X175166Y129921D01*
X174440D01*
X173739Y129733D01*
X173111Y129371D01*
X172598Y128858D01*
X172235Y128229D01*
X172047Y127528D01*
Y126803D01*
X172235Y126102D01*
X172598Y125473D01*
X173111Y124960D01*
X173739Y124597D01*
X174440Y124409D01*
X175166D01*
X175867Y124597D01*
X176495Y124960D01*
X177008Y125473D01*
X177049Y125544D01*
X183350D01*
Y123016D01*
X187795D01*
Y118126D01*
X183350D01*
Y115795D01*
X181380D01*
X181339Y115865D01*
X180826Y116378D01*
X180198Y116741D01*
X179497Y116929D01*
X178771D01*
X178070Y116741D01*
X177442Y116378D01*
X176929Y115865D01*
X176566Y115237D01*
X176378Y114536D01*
Y113810D01*
X176566Y113110D01*
X176929Y112481D01*
X177442Y111968D01*
X178070Y111605D01*
X178771Y111417D01*
X179497D01*
X180198Y111605D01*
X180826Y111968D01*
X181339Y112481D01*
X181380Y112551D01*
X183350D01*
Y110221D01*
X187795D01*
Y105331D01*
X183350D01*
Y100637D01*
X174958D01*
X174338Y100514D01*
X173883Y100210D01*
X173197Y100394D01*
X172472D01*
X171771Y100206D01*
X171142Y99843D01*
X170629Y99330D01*
X170267Y98702D01*
X170079Y98001D01*
Y97275D01*
X170267Y96574D01*
X170629Y95946D01*
X171142Y95433D01*
X171771Y95070D01*
X172472Y94882D01*
X173197D01*
X173898Y95070D01*
X174527Y95433D01*
X175040Y95946D01*
X175403Y96574D01*
X175591Y97275D01*
Y97355D01*
X175630Y97394D01*
X184941D01*
X185098Y97425D01*
X187795D01*
Y92535D01*
X183350D01*
Y84630D01*
X185386D01*
Y83369D01*
X185510Y82749D01*
X185861Y82222D01*
X186947Y81137D01*
X187473Y80785D01*
X187795Y80721D01*
Y75591D01*
X183071Y70866D01*
X164386Y70866D01*
Y71177D01*
X156480D01*
Y70866D01*
X155512D01*
Y56102D01*
X153543Y54134D01*
X144720D01*
Y87634D01*
X146653Y89567D01*
X166339D01*
X169291Y92520D01*
Y103347D01*
X166339Y106299D01*
X135827Y106299D01*
X133858Y108268D01*
Y112386D01*
X141157D01*
Y120685D01*
X133858D01*
Y123016D01*
X137417D01*
Y123560D01*
X151378D01*
X152306Y123744D01*
X153092Y124270D01*
X163452Y134630D01*
X174622D01*
Y142929D01*
X160024D01*
Y138059D01*
X150374Y128409D01*
X137417D01*
Y128953D01*
X132858D01*
X131890Y129921D01*
X108268D01*
X108268Y148031D01*
X114961Y154724D01*
X130361D01*
X130665Y154328D01*
X130571Y153976D01*
Y153111D01*
X130795Y152274D01*
X131228Y151525D01*
X131840Y150913D01*
X132589Y150480D01*
X133425Y150256D01*
X134291D01*
X135127Y150480D01*
X135877Y150913D01*
X136489Y151525D01*
X136922Y152274D01*
X137146Y153111D01*
Y153976D01*
X137051Y154328D01*
X137356Y154724D01*
X183071Y154724D01*
X187795Y150000D01*
D02*
G37*
G36*
X74803Y125984D02*
X72835Y124016D01*
X53150D01*
Y77559D01*
X75984Y77559D01*
X77559Y75984D01*
X77559Y65748D01*
X75970Y64159D01*
X75508Y64350D01*
Y65961D01*
X68587D01*
Y62008D01*
X67240D01*
Y65961D01*
X60319D01*
Y62008D01*
X59760D01*
Y65961D01*
X52839D01*
Y62008D01*
X51492D01*
Y65961D01*
X44571D01*
Y62008D01*
X32102D01*
Y62024D01*
X23016D01*
Y62008D01*
X11811D01*
X10630Y63189D01*
Y93307D01*
X11811Y94488D01*
X12779D01*
Y89846D01*
X15111D01*
Y89287D01*
X12779D01*
Y82366D01*
X20685D01*
Y84205D01*
X22066D01*
X22113Y84158D01*
X22837Y83858D01*
X23620D01*
X24343Y84158D01*
X24897Y84712D01*
X25197Y85435D01*
Y86218D01*
X24897Y86942D01*
X24437Y87402D01*
X24897Y87861D01*
X25197Y88585D01*
Y89368D01*
X24897Y90091D01*
X24343Y90645D01*
X23620Y90945D01*
X22837D01*
X22113Y90645D01*
X21560Y90091D01*
X21260Y89368D01*
Y88585D01*
X21523Y87949D01*
X21319Y87449D01*
X20685D01*
Y89287D01*
X18354D01*
Y89846D01*
X20685D01*
Y96768D01*
X20669D01*
Y98114D01*
X20685D01*
Y105035D01*
X20669D01*
Y105315D01*
X11811D01*
X10630Y106496D01*
X10630Y138583D01*
X11811Y139764D01*
X29315D01*
Y131480D01*
X37614D01*
Y139764D01*
X55693D01*
Y137169D01*
X70291D01*
Y139764D01*
X74803D01*
Y125984D01*
D02*
G37*
G36*
X80709Y98425D02*
X82071D01*
Y96543D01*
X86614D01*
Y95196D01*
X82071D01*
Y92520D01*
X78740D01*
Y92467D01*
X78448Y92310D01*
X78240Y92237D01*
X77557Y92520D01*
X76774D01*
X76050Y92220D01*
X75497Y91666D01*
X75197Y90943D01*
Y90160D01*
X75497Y89436D01*
X76050Y88882D01*
X76774Y88583D01*
X77557D01*
X78240Y88866D01*
X78448Y88792D01*
X78740Y88635D01*
Y87743D01*
X78448Y87586D01*
X78240Y87512D01*
X77557Y87795D01*
X76774D01*
X76050Y87496D01*
X75497Y86942D01*
X75197Y86218D01*
Y85435D01*
X75497Y84712D01*
X76050Y84158D01*
X76774Y83858D01*
X77557D01*
X78240Y84141D01*
X78448Y84068D01*
X78740Y83911D01*
Y82138D01*
X78153Y81551D01*
X77801Y81025D01*
X77678Y80404D01*
Y78222D01*
X77216Y78031D01*
X76836Y78411D01*
X76445Y78672D01*
X75984Y78763D01*
X75984Y78763D01*
X54354Y78763D01*
Y122811D01*
X72835D01*
X72835Y122811D01*
X73295Y122903D01*
X73686Y123164D01*
X75655Y125133D01*
X75916Y125523D01*
X76007Y125984D01*
X80709D01*
Y98425D01*
D02*
G37*
G36*
X114173Y106322D02*
X113712Y106231D01*
X113322Y105970D01*
X113061Y105579D01*
X112969Y105118D01*
X112969Y98959D01*
X112811D01*
X112350Y98868D01*
X111960Y98607D01*
X111698Y98216D01*
X111607Y97755D01*
X105102D01*
Y97439D01*
X104825Y97325D01*
X104602Y97274D01*
X104114Y97600D01*
X103493Y97723D01*
X91388D01*
X90768Y97600D01*
X90280Y97274D01*
X90057Y97325D01*
X89780Y97439D01*
Y97755D01*
X83275D01*
Y98425D01*
X83183Y98886D01*
X82922Y99277D01*
X82532Y99538D01*
X82071Y99629D01*
X81913D01*
Y118939D01*
X82071Y119374D01*
X90370D01*
Y122047D01*
X104512D01*
Y119374D01*
X112811D01*
Y122047D01*
X114173D01*
Y106322D01*
D02*
G37*
G36*
X135827Y105095D02*
X135827Y105095D01*
X165840Y105095D01*
X168087Y102848D01*
Y93284D01*
X165748Y90945D01*
X144905D01*
Y92520D01*
X144813Y92980D01*
X144552Y93371D01*
X144162Y93632D01*
X143701Y93724D01*
X124917D01*
X124457Y93632D01*
X124288Y93520D01*
X117996D01*
Y91189D01*
X116993D01*
X116555Y91626D01*
X116521Y92299D01*
X116629Y92408D01*
X116929Y93131D01*
Y93914D01*
X116629Y94638D01*
X116076Y95192D01*
X115352Y95491D01*
X114569D01*
X113846Y95192D01*
X113669Y95015D01*
X112811D01*
Y95196D01*
X108268D01*
Y96543D01*
X112811D01*
Y97755D01*
X114173D01*
X114173Y105118D01*
X135710D01*
X135827Y105095D01*
D02*
G37*
G36*
X123555Y83533D02*
X124016Y83441D01*
X140528D01*
Y72070D01*
X114173D01*
X113990Y72034D01*
X112966Y73057D01*
X112811Y73511D01*
X112811D01*
X112811Y73511D01*
Y76070D01*
Y79842D01*
X108268D01*
Y81188D01*
X112811D01*
Y82204D01*
X113210Y82325D01*
X113311Y82330D01*
X113846Y81796D01*
X114569Y81496D01*
X115352D01*
X115598Y81598D01*
X115748Y81498D01*
X116048Y80775D01*
X116602Y80221D01*
X117325Y79921D01*
X118108D01*
X118832Y80221D01*
X119385Y80775D01*
X119685Y81498D01*
Y82281D01*
X119385Y83005D01*
X119229Y83161D01*
X119436Y83661D01*
X123363D01*
X123555Y83533D01*
D02*
G37*
G36*
X102847Y94455D02*
Y94368D01*
X102970Y93747D01*
X103270Y93300D01*
X103014Y92916D01*
X102890Y92296D01*
Y84088D01*
X103014Y83468D01*
X103365Y82942D01*
X104297Y82010D01*
X104823Y81658D01*
X105102Y81603D01*
Y78629D01*
X111607D01*
Y76070D01*
Y73511D01*
X111645Y73317D01*
X111672Y73121D01*
X111827Y72668D01*
X111846Y72634D01*
X111854Y72597D01*
X111963Y72432D01*
X112063Y72261D01*
X112093Y72238D01*
X112115Y72206D01*
X113049Y71271D01*
X112969Y70866D01*
Y69756D01*
X112614Y69406D01*
X104733D01*
X104489Y69906D01*
X104724Y70475D01*
Y71258D01*
X104425Y71981D01*
X103871Y72535D01*
X103147Y72835D01*
X102364D01*
X101641Y72535D01*
X101594Y72488D01*
X98309D01*
X92078Y78719D01*
Y84532D01*
X91955Y85153D01*
X91603Y85679D01*
X90585Y86697D01*
X90059Y87049D01*
X89780Y87104D01*
Y91839D01*
X90059Y91895D01*
X90585Y92246D01*
X91560Y93221D01*
X91912Y93747D01*
X92035Y94368D01*
Y94455D01*
X92060Y94480D01*
X102822D01*
X102847Y94455D01*
D02*
G37*
G36*
X88835Y78047D02*
X88958Y77427D01*
X89310Y76901D01*
X95819Y70391D01*
Y68618D01*
X93488D01*
Y68133D01*
X90961D01*
Y69406D01*
X88236D01*
Y70177D01*
X88112Y70798D01*
X87761Y71324D01*
X85923Y73161D01*
X85397Y73513D01*
X84777Y73636D01*
X83990D01*
X83102Y74524D01*
Y78629D01*
X88835D01*
Y78047D01*
D02*
G37*
G36*
X143701Y88234D02*
X143608Y88095D01*
X143516Y87634D01*
X143516Y87634D01*
Y54264D01*
X143491Y54218D01*
X143251Y53990D01*
X143056Y53885D01*
X142520Y53991D01*
X141752Y53838D01*
X141101Y53404D01*
X140665Y52752D01*
X140604Y52445D01*
X140181Y52022D01*
X139681Y52229D01*
Y54150D01*
X132760D01*
Y51181D01*
X126295D01*
Y54150D01*
X119374D01*
Y51181D01*
X118110D01*
Y57087D01*
X112614D01*
Y58382D01*
X103921D01*
Y52642D01*
X108268D01*
Y51181D01*
X90551D01*
Y52642D01*
X90961D01*
Y58382D01*
X90551D01*
Y63665D01*
X90961D01*
Y66929D01*
X93488D01*
Y61697D01*
X101394D01*
Y66929D01*
X103921D01*
Y63665D01*
X112578D01*
X113063Y63541D01*
X112954Y62992D01*
X113106Y62224D01*
X113541Y61573D01*
X114193Y61138D01*
X114961Y60985D01*
X115729Y61138D01*
X116380Y61573D01*
X116815Y62224D01*
X116968Y62992D01*
X116815Y63760D01*
X116380Y64411D01*
X116226Y64514D01*
Y65014D01*
X116380Y65116D01*
X116815Y65767D01*
X116968Y66535D01*
X116815Y67304D01*
X116380Y67955D01*
X115729Y68390D01*
X114961Y68542D01*
X114673Y68485D01*
X114173Y68896D01*
Y70866D01*
X141732D01*
Y84646D01*
X124016D01*
Y85614D01*
X124917D01*
Y92520D01*
X143701D01*
Y88234D01*
D02*
G37*
%LPC*%
G36*
X168502Y81102D02*
X167719D01*
X166995Y80803D01*
X166441Y80249D01*
X166142Y79525D01*
Y78742D01*
X166405Y78106D01*
X166201Y77606D01*
X164386D01*
Y79445D01*
X156480D01*
Y77606D01*
X153559D01*
Y79445D01*
X145653D01*
Y72524D01*
X153559D01*
Y74362D01*
X156480D01*
Y72524D01*
X164386D01*
Y74362D01*
X166948D01*
X166995Y74315D01*
X167719Y74016D01*
X168502D01*
X169225Y74315D01*
X169779Y74869D01*
X170079Y75593D01*
Y76376D01*
X169779Y77099D01*
X169319Y77559D01*
X169779Y78019D01*
X170079Y78742D01*
Y79525D01*
X169779Y80249D01*
X169225Y80803D01*
X168502Y81102D01*
D02*
G37*
G36*
X101394Y114340D02*
X93488D01*
Y107419D01*
X95819D01*
Y105493D01*
X95772Y105446D01*
X95472Y104722D01*
Y103939D01*
X95772Y103216D01*
X96326Y102662D01*
X97049Y102362D01*
X97833D01*
X98556Y102662D01*
X98787Y102893D01*
X99114Y103211D01*
X99441Y102893D01*
X99672Y102662D01*
X100396Y102362D01*
X101179D01*
X101902Y102662D01*
X102456Y103216D01*
X102756Y103939D01*
Y104722D01*
X102456Y105446D01*
X101902Y106000D01*
X101179Y106299D01*
X100396D01*
X99672Y106000D01*
X99563Y105890D01*
X99063Y106097D01*
Y107419D01*
X101394D01*
Y114340D01*
D02*
G37*
%LPD*%
D13*
X129724Y89567D02*
D03*
X121457D02*
D03*
X63779Y166339D02*
D03*
X72047D02*
D03*
X195079Y88583D02*
D03*
X186811D02*
D03*
X195079Y139764D02*
D03*
X186811D02*
D03*
X195079Y126969D02*
D03*
X186811D02*
D03*
X195079Y114173D02*
D03*
X186811D02*
D03*
X195079Y101378D02*
D03*
X186811D02*
D03*
X72047Y62008D02*
D03*
X63779D02*
D03*
X56299D02*
D03*
X48031D02*
D03*
X40157Y176181D02*
D03*
X48425D02*
D03*
X42126Y239173D02*
D03*
X33858D02*
D03*
Y230315D02*
D03*
X42126D02*
D03*
X124606Y206693D02*
D03*
X132874D02*
D03*
D14*
X16535Y70472D02*
D03*
Y58661D02*
D03*
X27559Y70866D02*
D03*
Y59055D02*
D03*
X132874Y137795D02*
D03*
Y125984D02*
D03*
X121063Y137795D02*
D03*
Y125984D02*
D03*
X127953Y256890D02*
D03*
Y245079D02*
D03*
X140748Y256890D02*
D03*
Y245079D02*
D03*
X33465Y247047D02*
D03*
Y258858D02*
D03*
X45276Y247047D02*
D03*
Y258858D02*
D03*
D15*
X189961Y57087D02*
D03*
X170276D02*
D03*
X176181Y187992D02*
D03*
X156496D02*
D03*
X147638Y138779D02*
D03*
X167323D02*
D03*
X155512Y257874D02*
D03*
X175197D02*
D03*
D16*
X85925Y98428D02*
D03*
Y95869D02*
D03*
Y93310D02*
D03*
Y90751D02*
D03*
Y88192D02*
D03*
Y85633D02*
D03*
Y83074D02*
D03*
Y80515D02*
D03*
Y77956D02*
D03*
Y75397D02*
D03*
X108957D02*
D03*
Y77956D02*
D03*
Y80515D02*
D03*
Y83074D02*
D03*
Y85633D02*
D03*
Y88192D02*
D03*
Y90751D02*
D03*
Y93310D02*
D03*
Y95869D02*
D03*
Y98428D02*
D03*
X110925Y214570D02*
D03*
Y212011D02*
D03*
Y209452D02*
D03*
Y206893D02*
D03*
Y204334D02*
D03*
Y201775D02*
D03*
Y199216D02*
D03*
Y196657D02*
D03*
Y194098D02*
D03*
Y191539D02*
D03*
X87894D02*
D03*
Y194098D02*
D03*
Y196657D02*
D03*
Y199216D02*
D03*
Y201775D02*
D03*
Y204334D02*
D03*
Y206893D02*
D03*
Y209452D02*
D03*
Y212011D02*
D03*
Y214570D02*
D03*
D17*
X97441Y86913D02*
D03*
X99410Y203054D02*
D03*
D18*
X204724Y218504D02*
D03*
Y238189D02*
D03*
X99410Y252165D02*
D03*
Y271850D02*
D03*
X33465Y138779D02*
D03*
Y119095D02*
D03*
D19*
X99410Y233661D02*
D03*
Y225394D02*
D03*
X149606Y67716D02*
D03*
Y75984D02*
D03*
X160433D02*
D03*
Y67716D02*
D03*
X97441Y56890D02*
D03*
Y65158D02*
D03*
Y119147D02*
D03*
Y110879D02*
D03*
X16732Y93307D02*
D03*
Y101575D02*
D03*
Y77559D02*
D03*
Y85827D02*
D03*
X181102Y238386D02*
D03*
Y230118D02*
D03*
Y220669D02*
D03*
Y212402D02*
D03*
X30512Y184252D02*
D03*
Y175984D02*
D03*
D20*
X136221Y50000D02*
D03*
X122835D02*
D03*
X61221Y175197D02*
D03*
X74606D02*
D03*
D21*
X204528Y139764D02*
D03*
X212795D02*
D03*
Y126969D02*
D03*
X204528D02*
D03*
X212795Y88583D02*
D03*
X204528D02*
D03*
Y114173D02*
D03*
X212795D02*
D03*
Y101378D02*
D03*
X204528D02*
D03*
D22*
X108661Y109449D02*
D03*
Y122835D02*
D03*
X86221Y109449D02*
D03*
Y122835D02*
D03*
X110630Y225197D02*
D03*
Y238583D02*
D03*
X88189Y225197D02*
D03*
Y238583D02*
D03*
D23*
X108268Y66535D02*
D03*
Y55512D02*
D03*
X86614Y66535D02*
D03*
Y55512D02*
D03*
X88583Y183661D02*
D03*
Y172638D02*
D03*
X110236Y183661D02*
D03*
Y172638D02*
D03*
D24*
X157480Y94665D02*
D03*
Y119902D02*
D03*
X62992Y116319D02*
D03*
Y141555D02*
D03*
X161417Y212776D02*
D03*
Y238012D02*
D03*
X64961Y233445D02*
D03*
Y258681D02*
D03*
D25*
X128937Y98032D02*
D03*
Y116535D02*
D03*
Y76575D02*
D03*
Y58071D02*
D03*
X133858Y196260D02*
D03*
Y177756D02*
D03*
Y218110D02*
D03*
Y236614D02*
D03*
D26*
X69882Y87598D02*
D03*
X38386D02*
D03*
X71299Y203740D02*
D03*
X39803D02*
D03*
D36*
X147638Y30079D02*
D03*
D37*
X137638D02*
D03*
X127638D02*
D03*
X117638D02*
D03*
X107638D02*
D03*
X97638D02*
D03*
X87638D02*
D03*
X77638D02*
D03*
X147638Y20079D02*
D03*
X137638D02*
D03*
X127638D02*
D03*
X117638D02*
D03*
X107638D02*
D03*
X97638D02*
D03*
X87638D02*
D03*
X77638D02*
D03*
D42*
X47638Y227165D02*
Y229094D01*
X42520Y230709D02*
X46023D01*
X47638Y229094D01*
X42126Y230315D02*
X42520Y230709D01*
X164173Y138779D02*
X167323D01*
X151378Y125984D02*
X164173Y138779D01*
X132874Y125984D02*
X151378D01*
X195079Y88583D02*
X204528D01*
X183297Y53572D02*
X186811Y57087D01*
X183297Y51407D02*
Y53572D01*
X183071Y51181D02*
X183297Y51407D01*
X186811Y57087D02*
X189961D01*
X195079Y139764D02*
X204528D01*
X195079Y126969D02*
X204528D01*
X195079Y114173D02*
X204528D01*
X195079Y101378D02*
X204528D01*
D43*
X161811Y121319D02*
X172382Y131890D01*
X175591D01*
X161811Y121319D02*
Y121319D01*
X160394Y119902D02*
X161811Y121319D01*
X157480Y119902D02*
X160394D01*
X175591Y131890D02*
X178740Y135039D01*
X155456Y145669D02*
X176434D01*
X178740Y143363D01*
Y135039D02*
Y143363D01*
X151969Y142182D02*
X155456Y145669D01*
X151969Y139961D02*
Y142182D01*
X150787Y138779D02*
X151969Y139961D01*
X147638Y138779D02*
X150787D01*
X133268Y206299D02*
X143413D01*
X144201Y205512D02*
X144488D01*
X132874Y206693D02*
X133268Y206299D01*
X143413D02*
X144201Y205512D01*
X110827Y225394D02*
Y231299D01*
X110630Y225197D02*
X110827Y225394D01*
X149606Y43645D02*
X153657Y39593D01*
X149606Y43645D02*
Y67716D01*
X117638Y20079D02*
X118224D01*
X124243Y14059D02*
X150131D01*
X118224Y20079D02*
X124243Y14059D01*
X150131D02*
X153657Y17585D01*
Y39593D01*
X129724Y89567D02*
X130217Y89075D01*
Y88583D02*
X134752D01*
X135539Y87795D02*
X135827D01*
X130217Y88583D02*
Y89075D01*
X134752Y88583D02*
X135539Y87795D01*
D44*
X39370Y188976D02*
Y203307D01*
X39803Y203740D01*
X173031Y238386D02*
X181102D01*
X172835Y238189D02*
X173031Y238386D01*
D45*
X78740Y208172D02*
Y210942D01*
X78616Y211067D02*
X78740Y210942D01*
X97441Y119147D02*
X97713Y118875D01*
X102586D01*
X174803Y127165D02*
X186614D01*
X186811Y126969D01*
X137716Y30158D02*
Y35354D01*
X137638Y30079D02*
X137716Y30158D01*
Y35354D02*
X137795Y35433D01*
X188093Y82284D02*
X222441D01*
X187008Y83369D02*
X188093Y82284D01*
X187008Y83369D02*
Y88386D01*
X186811Y88583D02*
X187008Y88386D01*
X56299Y55905D02*
Y62008D01*
X142437Y51984D02*
X142520D01*
X140453Y50000D02*
X142437Y51984D01*
X54331Y175197D02*
X61221D01*
X79386Y204336D02*
X79398Y204324D01*
X82489Y201491D02*
X82630Y201633D01*
X79398Y204324D02*
X87884D01*
X82630Y201633D02*
X87752D01*
X179134Y114173D02*
X186811D01*
X186811Y114173D01*
X82677Y207480D02*
X84354Y209157D01*
X87598D01*
X79432Y207480D02*
X82677D01*
X78740Y208172D02*
X79432Y207480D01*
X87884Y204324D02*
X87894Y204334D01*
X172835Y97638D02*
X173580D01*
X174958Y99016D01*
X184941D01*
X186811Y100886D01*
X160433Y75984D02*
X160433Y75984D01*
X168110D01*
X186811Y100886D02*
Y101378D01*
X16732Y85827D02*
X23228D01*
X110925Y204334D02*
X115825D01*
X116216Y204724D02*
X116535D01*
X115825Y204334D02*
X116216Y204724D01*
X111008Y206976D02*
X114867D01*
X116553Y208661D01*
X122736D02*
X123819Y207579D01*
Y206693D02*
Y207579D01*
X116553Y208661D02*
X122736D01*
X82499Y198342D02*
X82818D01*
X83397Y198921D01*
X87598D01*
X117919Y201775D02*
X119031Y202887D01*
X119351D01*
X136221Y50000D02*
X140453D01*
X108957Y85633D02*
X109252Y85338D01*
X112768D01*
X114641Y83465D02*
X114961D01*
X112768Y85338D02*
X114641Y83465D01*
X114780Y87008D02*
X114961D01*
X113678Y88109D02*
X114780Y87008D01*
X97441Y70866D02*
Y71063D01*
X90457Y78047D02*
X97441Y71063D01*
X90457Y78047D02*
Y84532D01*
X63779Y159449D02*
Y166339D01*
X40173Y169291D02*
Y176165D01*
X40157Y176181D02*
X40173Y176165D01*
X27559Y230315D02*
X33858D01*
Y239173D01*
X16732Y85827D02*
Y93307D01*
X106480Y199227D02*
X110914D01*
X110925Y199216D01*
X106480Y194511D02*
Y199227D01*
Y208438D01*
X105810Y193841D02*
X106480Y194511D01*
X105810Y193521D02*
Y193841D01*
X110925Y201775D02*
X117919D01*
X174409Y220472D02*
X180905D01*
X181102Y220669D01*
X115831Y183661D02*
X119291Y187122D01*
X110236Y183661D02*
X115831D01*
X63779Y166339D02*
X63779Y166339D01*
X115137Y90751D02*
X116321Y89567D01*
X108957Y93310D02*
X109039Y93393D01*
X114831D01*
X114961Y93523D01*
X108957Y90751D02*
X115137D01*
X108268Y66535D02*
X114961D01*
X109039Y88109D02*
X113678D01*
X116321Y89567D02*
X119882D01*
X108957Y88192D02*
X109039Y88109D01*
X80315Y86012D02*
X82412Y88109D01*
X80315Y85827D02*
Y86012D01*
X82412Y88109D02*
X85843D01*
X97441Y65158D02*
Y70866D01*
X102756D01*
X80432Y90668D02*
X85843D01*
X85925Y90751D01*
X80315Y90551D02*
X80432Y90668D01*
X97441Y104331D02*
Y110879D01*
X149606Y75984D02*
X160433D01*
X108874Y93227D02*
X108957Y93310D01*
X105444Y93227D02*
X108874D01*
X108874Y93393D02*
X108957Y93310D01*
X105444Y93393D02*
X108874D01*
X86008D02*
X89438D01*
X90413Y94368D02*
Y95126D01*
X103493Y96102D02*
X104469Y95126D01*
X85925Y93310D02*
X86008Y93393D01*
X91388Y96102D02*
X103493D01*
X90413Y95126D02*
X91388Y96102D01*
X89438Y93393D02*
X90413Y94368D01*
X104469Y94368D02*
X105444Y93393D01*
X104469Y94368D02*
Y95126D01*
X104512Y92296D02*
X105444Y93227D01*
X104512Y84088D02*
Y92296D01*
Y84088D02*
X105444Y83157D01*
X108874D01*
X108957Y83074D01*
X77261Y62008D02*
X79299Y64046D01*
Y80404D01*
X81887Y82991D01*
X85843D01*
X85925Y83074D01*
X82412Y80432D02*
X85843D01*
X81480Y73852D02*
Y79501D01*
Y73852D02*
X83318Y72015D01*
X72047Y62008D02*
X77261D01*
X81480Y79501D02*
X82412Y80432D01*
X85925Y85633D02*
X86008Y85550D01*
X89438D01*
X90457Y84532D01*
X85843Y80432D02*
X85925Y80515D01*
X83318Y72015D02*
X84777D01*
X86614Y70177D01*
Y66535D02*
Y70177D01*
X85843Y88109D02*
X85925Y88192D01*
X107412Y209369D02*
X110843D01*
X106480Y208438D02*
X107412Y209369D01*
X91407Y206976D02*
X92425Y207994D01*
X99410Y219251D02*
Y225394D01*
X87976Y206976D02*
X91407D01*
X92425Y207994D02*
Y212267D01*
X99410Y219251D01*
X30709Y176181D02*
X40157D01*
X84381Y196574D02*
X87811D01*
X82677Y185039D02*
Y194871D01*
X84381Y196574D01*
X82677Y185039D02*
X84055Y183661D01*
X88583D01*
X181102Y220669D02*
Y230118D01*
D46*
X98425Y147638D02*
D03*
X220472Y273622D02*
D03*
X222441Y15748D02*
D03*
X13780D02*
D03*
X15748Y273622D02*
D03*
D47*
X202756Y195866D02*
D03*
D48*
Y176181D02*
D03*
D49*
X232284Y275591D02*
D03*
Y271654D02*
D03*
Y267717D02*
D03*
Y263780D02*
D03*
Y259843D02*
D03*
Y255906D02*
D03*
Y251969D02*
D03*
Y248032D02*
D03*
Y244095D02*
D03*
Y240158D02*
D03*
Y236221D02*
D03*
Y232284D02*
D03*
Y228347D02*
D03*
Y224410D02*
D03*
Y220473D02*
D03*
Y216536D02*
D03*
Y212599D02*
D03*
Y208662D02*
D03*
Y204725D02*
D03*
Y200788D02*
D03*
Y196851D02*
D03*
Y192914D02*
D03*
Y188977D02*
D03*
Y185040D02*
D03*
Y181103D02*
D03*
Y177166D02*
D03*
Y173229D02*
D03*
Y169292D02*
D03*
Y165355D02*
D03*
Y161417D02*
D03*
Y157481D02*
D03*
Y153543D02*
D03*
Y149607D02*
D03*
Y145669D02*
D03*
Y141733D02*
D03*
Y137795D02*
D03*
Y133859D02*
D03*
Y129921D02*
D03*
Y125984D02*
D03*
Y122047D02*
D03*
Y118110D02*
D03*
Y114173D02*
D03*
Y110236D02*
D03*
Y106299D02*
D03*
Y102362D02*
D03*
Y98425D02*
D03*
Y94488D02*
D03*
Y90551D02*
D03*
Y86614D02*
D03*
Y82677D02*
D03*
Y78740D02*
D03*
Y74803D02*
D03*
Y70866D02*
D03*
Y66929D02*
D03*
Y62992D02*
D03*
Y59055D02*
D03*
Y55118D02*
D03*
Y51181D02*
D03*
Y47244D02*
D03*
Y43307D02*
D03*
Y39370D02*
D03*
Y35433D02*
D03*
Y31496D02*
D03*
Y27559D02*
D03*
Y23622D02*
D03*
Y19685D02*
D03*
Y11811D02*
D03*
X228347Y263780D02*
D03*
Y259843D02*
D03*
Y255906D02*
D03*
Y251969D02*
D03*
Y248032D02*
D03*
Y244095D02*
D03*
Y240158D02*
D03*
Y236221D02*
D03*
Y232284D02*
D03*
Y228347D02*
D03*
Y224410D02*
D03*
Y220473D02*
D03*
Y216536D02*
D03*
Y212599D02*
D03*
Y208662D02*
D03*
Y204725D02*
D03*
Y200788D02*
D03*
Y196851D02*
D03*
Y192914D02*
D03*
Y188977D02*
D03*
Y185040D02*
D03*
Y181103D02*
D03*
Y177166D02*
D03*
Y173229D02*
D03*
Y169292D02*
D03*
Y165355D02*
D03*
Y161417D02*
D03*
Y157481D02*
D03*
Y153543D02*
D03*
Y149607D02*
D03*
Y145669D02*
D03*
Y141733D02*
D03*
Y137795D02*
D03*
Y133859D02*
D03*
Y129921D02*
D03*
Y125984D02*
D03*
Y122047D02*
D03*
Y118110D02*
D03*
Y114173D02*
D03*
Y110236D02*
D03*
Y106299D02*
D03*
Y102362D02*
D03*
Y98425D02*
D03*
Y94488D02*
D03*
Y90551D02*
D03*
Y86614D02*
D03*
Y82677D02*
D03*
Y78740D02*
D03*
Y74803D02*
D03*
Y70866D02*
D03*
Y66929D02*
D03*
Y62992D02*
D03*
Y59055D02*
D03*
Y55118D02*
D03*
Y51181D02*
D03*
Y47244D02*
D03*
Y43307D02*
D03*
Y39370D02*
D03*
Y35433D02*
D03*
Y31496D02*
D03*
Y27559D02*
D03*
X224410Y283465D02*
D03*
Y263780D02*
D03*
Y259843D02*
D03*
Y255906D02*
D03*
Y251969D02*
D03*
Y78740D02*
D03*
Y74803D02*
D03*
Y70866D02*
D03*
Y66929D02*
D03*
Y62992D02*
D03*
Y59055D02*
D03*
Y55118D02*
D03*
Y51181D02*
D03*
Y47244D02*
D03*
Y43307D02*
D03*
Y39370D02*
D03*
Y35433D02*
D03*
Y31496D02*
D03*
Y27559D02*
D03*
X220473Y78740D02*
D03*
Y74803D02*
D03*
Y70866D02*
D03*
Y66929D02*
D03*
Y62992D02*
D03*
Y59055D02*
D03*
Y55118D02*
D03*
Y51181D02*
D03*
Y47244D02*
D03*
Y43307D02*
D03*
Y39370D02*
D03*
Y35433D02*
D03*
Y31496D02*
D03*
Y27559D02*
D03*
Y3937D02*
D03*
X216536Y283465D02*
D03*
Y122047D02*
D03*
Y118110D02*
D03*
Y110236D02*
D03*
Y106299D02*
D03*
Y94488D02*
D03*
Y78740D02*
D03*
Y74803D02*
D03*
Y70866D02*
D03*
Y66929D02*
D03*
Y62992D02*
D03*
Y59055D02*
D03*
Y55118D02*
D03*
Y51181D02*
D03*
Y47244D02*
D03*
Y43307D02*
D03*
Y39370D02*
D03*
Y35433D02*
D03*
Y31496D02*
D03*
Y27559D02*
D03*
Y3937D02*
D03*
X212599Y283465D02*
D03*
Y122047D02*
D03*
Y106299D02*
D03*
Y94488D02*
D03*
Y78740D02*
D03*
Y74803D02*
D03*
Y70866D02*
D03*
Y66929D02*
D03*
Y62992D02*
D03*
Y59055D02*
D03*
Y55118D02*
D03*
Y51181D02*
D03*
Y47244D02*
D03*
Y43307D02*
D03*
Y39370D02*
D03*
Y35433D02*
D03*
Y31496D02*
D03*
Y27559D02*
D03*
Y23622D02*
D03*
Y19685D02*
D03*
Y11811D02*
D03*
Y7874D02*
D03*
Y3937D02*
D03*
X208662Y283465D02*
D03*
Y122047D02*
D03*
Y106299D02*
D03*
Y94488D02*
D03*
Y78740D02*
D03*
Y74803D02*
D03*
Y70866D02*
D03*
Y66929D02*
D03*
Y62992D02*
D03*
Y59055D02*
D03*
Y55118D02*
D03*
Y51181D02*
D03*
Y47244D02*
D03*
Y43307D02*
D03*
Y39370D02*
D03*
Y35433D02*
D03*
Y31496D02*
D03*
Y27559D02*
D03*
Y23622D02*
D03*
Y19685D02*
D03*
Y15748D02*
D03*
Y11811D02*
D03*
Y7874D02*
D03*
Y3937D02*
D03*
X204725Y283465D02*
D03*
Y122047D02*
D03*
Y106299D02*
D03*
Y94488D02*
D03*
Y78740D02*
D03*
Y74803D02*
D03*
Y70866D02*
D03*
Y66929D02*
D03*
Y62992D02*
D03*
Y59055D02*
D03*
Y55118D02*
D03*
Y51181D02*
D03*
Y47244D02*
D03*
Y43307D02*
D03*
Y39370D02*
D03*
Y35433D02*
D03*
Y31496D02*
D03*
Y27559D02*
D03*
Y23622D02*
D03*
Y19685D02*
D03*
Y15748D02*
D03*
Y11811D02*
D03*
Y7874D02*
D03*
Y3937D02*
D03*
X200788Y283465D02*
D03*
Y122047D02*
D03*
Y106299D02*
D03*
Y94488D02*
D03*
Y78740D02*
D03*
Y74803D02*
D03*
Y70866D02*
D03*
Y66929D02*
D03*
Y62992D02*
D03*
Y59055D02*
D03*
Y55118D02*
D03*
Y51181D02*
D03*
Y47244D02*
D03*
Y43307D02*
D03*
Y39370D02*
D03*
Y35433D02*
D03*
Y31496D02*
D03*
Y27559D02*
D03*
Y23622D02*
D03*
Y19685D02*
D03*
Y15748D02*
D03*
Y11811D02*
D03*
Y7874D02*
D03*
Y3937D02*
D03*
X196851Y283465D02*
D03*
Y31496D02*
D03*
Y27559D02*
D03*
Y23622D02*
D03*
Y19685D02*
D03*
Y15748D02*
D03*
Y11811D02*
D03*
Y7874D02*
D03*
Y3937D02*
D03*
X192914Y283465D02*
D03*
Y27559D02*
D03*
Y23622D02*
D03*
Y19685D02*
D03*
Y15748D02*
D03*
Y11811D02*
D03*
Y7874D02*
D03*
Y3937D02*
D03*
X188977Y283465D02*
D03*
Y23622D02*
D03*
Y19685D02*
D03*
Y15748D02*
D03*
Y11811D02*
D03*
Y7874D02*
D03*
Y3937D02*
D03*
X185040Y283465D02*
D03*
Y66929D02*
D03*
Y62992D02*
D03*
Y19685D02*
D03*
Y15748D02*
D03*
Y11811D02*
D03*
Y7874D02*
D03*
Y3937D02*
D03*
X181103Y283465D02*
D03*
Y66929D02*
D03*
Y62992D02*
D03*
Y15748D02*
D03*
Y11811D02*
D03*
Y7874D02*
D03*
Y3937D02*
D03*
X177166Y283465D02*
D03*
Y251969D02*
D03*
Y248032D02*
D03*
Y66929D02*
D03*
Y62992D02*
D03*
Y31496D02*
D03*
Y11811D02*
D03*
Y7874D02*
D03*
Y3937D02*
D03*
X173229Y283465D02*
D03*
Y251969D02*
D03*
Y248032D02*
D03*
Y31496D02*
D03*
Y27559D02*
D03*
Y7874D02*
D03*
Y3937D02*
D03*
X169292Y283465D02*
D03*
Y251969D02*
D03*
Y248032D02*
D03*
Y31496D02*
D03*
Y27559D02*
D03*
Y23622D02*
D03*
Y3937D02*
D03*
X165355Y283465D02*
D03*
Y248032D02*
D03*
Y31496D02*
D03*
Y27559D02*
D03*
Y23622D02*
D03*
Y19685D02*
D03*
Y3937D02*
D03*
X161418Y283465D02*
D03*
Y248032D02*
D03*
Y62992D02*
D03*
Y59055D02*
D03*
Y55118D02*
D03*
Y51181D02*
D03*
Y31496D02*
D03*
Y27559D02*
D03*
Y23622D02*
D03*
Y19685D02*
D03*
Y3937D02*
D03*
X157481Y283465D02*
D03*
Y248032D02*
D03*
Y51181D02*
D03*
Y3937D02*
D03*
X153544Y283465D02*
D03*
Y248032D02*
D03*
Y3937D02*
D03*
X149607Y283465D02*
D03*
Y248032D02*
D03*
Y244095D02*
D03*
Y3937D02*
D03*
X145669Y283465D02*
D03*
Y248032D02*
D03*
Y3937D02*
D03*
X141733Y283465D02*
D03*
Y23622D02*
D03*
Y3937D02*
D03*
X137795Y283465D02*
D03*
Y3937D02*
D03*
X133859Y283465D02*
D03*
Y248032D02*
D03*
Y244095D02*
D03*
Y3937D02*
D03*
X129921Y283465D02*
D03*
Y110236D02*
D03*
Y3937D02*
D03*
X125985Y283465D02*
D03*
Y165355D02*
D03*
Y110236D02*
D03*
Y3937D02*
D03*
X122047Y283465D02*
D03*
Y248032D02*
D03*
Y244095D02*
D03*
Y169292D02*
D03*
Y165355D02*
D03*
Y23622D02*
D03*
Y3937D02*
D03*
X118111Y283465D02*
D03*
Y248032D02*
D03*
Y244095D02*
D03*
Y240158D02*
D03*
Y173229D02*
D03*
Y169292D02*
D03*
Y165355D02*
D03*
Y3937D02*
D03*
X114173Y283465D02*
D03*
Y259843D02*
D03*
Y255906D02*
D03*
Y251969D02*
D03*
Y248032D02*
D03*
Y244095D02*
D03*
Y3937D02*
D03*
X110236Y283465D02*
D03*
Y259843D02*
D03*
Y255906D02*
D03*
Y251969D02*
D03*
Y248032D02*
D03*
Y244095D02*
D03*
Y177166D02*
D03*
Y3937D02*
D03*
X106299Y283465D02*
D03*
Y259843D02*
D03*
Y255906D02*
D03*
Y251969D02*
D03*
Y248032D02*
D03*
Y244095D02*
D03*
Y177166D02*
D03*
Y3937D02*
D03*
X102362Y283465D02*
D03*
Y244095D02*
D03*
Y240158D02*
D03*
Y188977D02*
D03*
Y185040D02*
D03*
Y181103D02*
D03*
Y177166D02*
D03*
Y173229D02*
D03*
Y169292D02*
D03*
Y23622D02*
D03*
Y3937D02*
D03*
X98425Y283465D02*
D03*
Y244095D02*
D03*
Y240158D02*
D03*
Y188977D02*
D03*
Y185040D02*
D03*
Y181103D02*
D03*
Y177166D02*
D03*
Y173229D02*
D03*
Y169292D02*
D03*
Y74803D02*
D03*
Y3937D02*
D03*
X94488Y283465D02*
D03*
Y259843D02*
D03*
Y255906D02*
D03*
Y251969D02*
D03*
Y248032D02*
D03*
Y244095D02*
D03*
Y240158D02*
D03*
Y188977D02*
D03*
Y185040D02*
D03*
Y181103D02*
D03*
Y177166D02*
D03*
Y173229D02*
D03*
Y169292D02*
D03*
Y3937D02*
D03*
X90551Y283465D02*
D03*
Y259843D02*
D03*
Y255906D02*
D03*
Y251969D02*
D03*
Y248032D02*
D03*
Y244095D02*
D03*
Y177166D02*
D03*
Y3937D02*
D03*
X86614Y283465D02*
D03*
Y259843D02*
D03*
Y255906D02*
D03*
Y251969D02*
D03*
Y248032D02*
D03*
Y244095D02*
D03*
Y3937D02*
D03*
X82677Y283465D02*
D03*
Y259843D02*
D03*
Y255906D02*
D03*
Y251969D02*
D03*
Y248032D02*
D03*
Y161417D02*
D03*
Y157481D02*
D03*
Y153543D02*
D03*
Y149607D02*
D03*
Y145669D02*
D03*
Y141733D02*
D03*
Y137795D02*
D03*
Y133859D02*
D03*
Y59055D02*
D03*
Y27559D02*
D03*
Y23622D02*
D03*
Y3937D02*
D03*
X78740Y283465D02*
D03*
Y259843D02*
D03*
Y255906D02*
D03*
Y251969D02*
D03*
Y248032D02*
D03*
Y157481D02*
D03*
Y153543D02*
D03*
Y149607D02*
D03*
Y145669D02*
D03*
Y141733D02*
D03*
Y137795D02*
D03*
Y133859D02*
D03*
Y59055D02*
D03*
Y3937D02*
D03*
X74803Y283465D02*
D03*
Y259843D02*
D03*
Y255906D02*
D03*
Y251969D02*
D03*
Y248032D02*
D03*
Y153543D02*
D03*
Y149607D02*
D03*
Y145669D02*
D03*
Y3937D02*
D03*
X70866Y283465D02*
D03*
Y251969D02*
D03*
Y248032D02*
D03*
Y149607D02*
D03*
Y145669D02*
D03*
Y3937D02*
D03*
X66929Y283465D02*
D03*
Y251969D02*
D03*
Y248032D02*
D03*
Y177166D02*
D03*
Y173229D02*
D03*
Y149607D02*
D03*
Y7874D02*
D03*
Y3937D02*
D03*
X62992Y283465D02*
D03*
Y251969D02*
D03*
Y248032D02*
D03*
Y149607D02*
D03*
Y11811D02*
D03*
Y7874D02*
D03*
Y3937D02*
D03*
X59055Y283465D02*
D03*
Y251969D02*
D03*
Y248032D02*
D03*
Y165355D02*
D03*
Y149607D02*
D03*
Y39370D02*
D03*
Y35433D02*
D03*
Y31496D02*
D03*
Y27559D02*
D03*
Y23622D02*
D03*
Y19685D02*
D03*
Y15748D02*
D03*
Y11811D02*
D03*
Y7874D02*
D03*
Y3937D02*
D03*
X55118Y283465D02*
D03*
Y251969D02*
D03*
Y248032D02*
D03*
Y165355D02*
D03*
Y161417D02*
D03*
Y149607D02*
D03*
Y145669D02*
D03*
Y39370D02*
D03*
Y35433D02*
D03*
Y31496D02*
D03*
Y27559D02*
D03*
Y23622D02*
D03*
Y19685D02*
D03*
Y15748D02*
D03*
Y11811D02*
D03*
Y7874D02*
D03*
Y3937D02*
D03*
X51181Y283465D02*
D03*
Y248032D02*
D03*
Y165355D02*
D03*
Y161417D02*
D03*
Y149607D02*
D03*
Y145669D02*
D03*
Y55118D02*
D03*
Y39370D02*
D03*
Y35433D02*
D03*
Y31496D02*
D03*
Y27559D02*
D03*
Y23622D02*
D03*
Y19685D02*
D03*
Y15748D02*
D03*
Y11811D02*
D03*
Y7874D02*
D03*
Y3937D02*
D03*
X47244Y283465D02*
D03*
Y165355D02*
D03*
Y161417D02*
D03*
Y149607D02*
D03*
Y145669D02*
D03*
Y55118D02*
D03*
Y39370D02*
D03*
Y35433D02*
D03*
Y31496D02*
D03*
Y27559D02*
D03*
Y23622D02*
D03*
Y19685D02*
D03*
Y15748D02*
D03*
Y11811D02*
D03*
Y7874D02*
D03*
Y3937D02*
D03*
X43307Y283465D02*
D03*
Y165355D02*
D03*
Y161417D02*
D03*
Y149607D02*
D03*
Y145669D02*
D03*
Y59055D02*
D03*
Y55118D02*
D03*
Y39370D02*
D03*
Y35433D02*
D03*
Y31496D02*
D03*
Y27559D02*
D03*
Y23622D02*
D03*
Y19685D02*
D03*
Y15748D02*
D03*
Y11811D02*
D03*
Y7874D02*
D03*
Y3937D02*
D03*
X39370Y283465D02*
D03*
Y248032D02*
D03*
Y161417D02*
D03*
Y149607D02*
D03*
Y145669D02*
D03*
Y59055D02*
D03*
Y39370D02*
D03*
Y35433D02*
D03*
Y31496D02*
D03*
Y27559D02*
D03*
Y23622D02*
D03*
Y19685D02*
D03*
Y15748D02*
D03*
Y11811D02*
D03*
Y7874D02*
D03*
Y3937D02*
D03*
X35433Y283465D02*
D03*
Y39370D02*
D03*
Y35433D02*
D03*
Y31496D02*
D03*
Y27559D02*
D03*
Y23622D02*
D03*
Y19685D02*
D03*
Y15748D02*
D03*
Y11811D02*
D03*
Y7874D02*
D03*
Y3937D02*
D03*
X31496Y283465D02*
D03*
Y39370D02*
D03*
Y35433D02*
D03*
Y31496D02*
D03*
Y27559D02*
D03*
Y23622D02*
D03*
Y19685D02*
D03*
Y15748D02*
D03*
Y11811D02*
D03*
Y7874D02*
D03*
Y3937D02*
D03*
X27559Y283465D02*
D03*
Y169292D02*
D03*
Y165355D02*
D03*
Y161417D02*
D03*
Y157481D02*
D03*
Y153543D02*
D03*
Y149607D02*
D03*
Y145669D02*
D03*
Y55118D02*
D03*
Y39370D02*
D03*
Y35433D02*
D03*
Y31496D02*
D03*
Y27559D02*
D03*
Y23622D02*
D03*
Y19685D02*
D03*
Y15748D02*
D03*
Y11811D02*
D03*
Y7874D02*
D03*
Y3937D02*
D03*
X23622Y283465D02*
D03*
Y177166D02*
D03*
Y173229D02*
D03*
Y169292D02*
D03*
Y165355D02*
D03*
Y161417D02*
D03*
Y157481D02*
D03*
Y153543D02*
D03*
Y149607D02*
D03*
Y145669D02*
D03*
Y43307D02*
D03*
Y39370D02*
D03*
Y35433D02*
D03*
Y31496D02*
D03*
Y27559D02*
D03*
Y23622D02*
D03*
Y19685D02*
D03*
Y11811D02*
D03*
Y7874D02*
D03*
Y3937D02*
D03*
X19685Y283465D02*
D03*
Y177166D02*
D03*
Y173229D02*
D03*
Y169292D02*
D03*
Y165355D02*
D03*
Y161417D02*
D03*
Y157481D02*
D03*
Y153543D02*
D03*
Y149607D02*
D03*
Y145669D02*
D03*
Y47244D02*
D03*
Y43307D02*
D03*
Y39370D02*
D03*
Y35433D02*
D03*
Y31496D02*
D03*
Y27559D02*
D03*
Y3937D02*
D03*
X15748Y177166D02*
D03*
Y173229D02*
D03*
Y169292D02*
D03*
Y165355D02*
D03*
Y161417D02*
D03*
Y157481D02*
D03*
Y153543D02*
D03*
Y149607D02*
D03*
Y145669D02*
D03*
Y51181D02*
D03*
Y47244D02*
D03*
Y43307D02*
D03*
Y39370D02*
D03*
Y35433D02*
D03*
Y31496D02*
D03*
Y27559D02*
D03*
Y3937D02*
D03*
X11811Y283465D02*
D03*
Y177166D02*
D03*
Y173229D02*
D03*
Y169292D02*
D03*
Y165355D02*
D03*
Y161417D02*
D03*
Y157481D02*
D03*
Y153543D02*
D03*
Y149607D02*
D03*
Y145669D02*
D03*
Y102362D02*
D03*
Y98425D02*
D03*
Y55118D02*
D03*
Y51181D02*
D03*
Y47244D02*
D03*
Y43307D02*
D03*
Y39370D02*
D03*
Y35433D02*
D03*
Y31496D02*
D03*
Y27559D02*
D03*
Y3937D02*
D03*
X7874Y263780D02*
D03*
Y259843D02*
D03*
Y255906D02*
D03*
Y251969D02*
D03*
Y248032D02*
D03*
Y244095D02*
D03*
Y240158D02*
D03*
Y236221D02*
D03*
Y232284D02*
D03*
Y228347D02*
D03*
Y224410D02*
D03*
Y220473D02*
D03*
Y216536D02*
D03*
Y212599D02*
D03*
Y208662D02*
D03*
Y204725D02*
D03*
Y200788D02*
D03*
Y196851D02*
D03*
Y192914D02*
D03*
Y188977D02*
D03*
Y185040D02*
D03*
Y181103D02*
D03*
Y177166D02*
D03*
Y173229D02*
D03*
Y169292D02*
D03*
Y165355D02*
D03*
Y161417D02*
D03*
Y157481D02*
D03*
Y153543D02*
D03*
Y149607D02*
D03*
Y145669D02*
D03*
Y141733D02*
D03*
Y137795D02*
D03*
Y133859D02*
D03*
Y129921D02*
D03*
Y125984D02*
D03*
Y122047D02*
D03*
Y118110D02*
D03*
Y114173D02*
D03*
Y110236D02*
D03*
Y106299D02*
D03*
Y102362D02*
D03*
Y98425D02*
D03*
Y94488D02*
D03*
Y90551D02*
D03*
Y86614D02*
D03*
Y82677D02*
D03*
Y78740D02*
D03*
Y74803D02*
D03*
Y70866D02*
D03*
Y66929D02*
D03*
Y62992D02*
D03*
Y59055D02*
D03*
Y55118D02*
D03*
Y51181D02*
D03*
Y47244D02*
D03*
Y43307D02*
D03*
Y39370D02*
D03*
Y35433D02*
D03*
Y31496D02*
D03*
Y27559D02*
D03*
X3937Y275591D02*
D03*
Y271654D02*
D03*
Y267717D02*
D03*
Y263780D02*
D03*
Y259843D02*
D03*
Y255906D02*
D03*
Y251969D02*
D03*
Y248032D02*
D03*
Y244095D02*
D03*
Y240158D02*
D03*
Y236221D02*
D03*
Y232284D02*
D03*
Y228347D02*
D03*
Y224410D02*
D03*
Y220473D02*
D03*
Y216536D02*
D03*
Y212599D02*
D03*
Y208662D02*
D03*
Y204725D02*
D03*
Y200788D02*
D03*
Y196851D02*
D03*
Y192914D02*
D03*
Y188977D02*
D03*
Y185040D02*
D03*
Y181103D02*
D03*
Y177166D02*
D03*
Y173229D02*
D03*
Y169292D02*
D03*
Y165355D02*
D03*
Y161417D02*
D03*
Y157481D02*
D03*
Y153543D02*
D03*
Y149607D02*
D03*
Y145669D02*
D03*
Y141733D02*
D03*
Y137795D02*
D03*
Y133859D02*
D03*
Y129921D02*
D03*
Y125984D02*
D03*
Y122047D02*
D03*
Y118110D02*
D03*
Y114173D02*
D03*
Y110236D02*
D03*
Y106299D02*
D03*
Y102362D02*
D03*
Y98425D02*
D03*
Y94488D02*
D03*
Y90551D02*
D03*
Y86614D02*
D03*
Y82677D02*
D03*
Y78740D02*
D03*
Y74803D02*
D03*
Y70866D02*
D03*
Y66929D02*
D03*
Y62992D02*
D03*
Y59055D02*
D03*
Y55118D02*
D03*
Y51181D02*
D03*
Y47244D02*
D03*
Y43307D02*
D03*
Y39370D02*
D03*
Y35433D02*
D03*
Y31496D02*
D03*
Y27559D02*
D03*
Y23622D02*
D03*
Y19685D02*
D03*
Y11811D02*
D03*
X47638Y227165D02*
D03*
X90158Y72835D02*
D03*
X173229Y216536D02*
D03*
X78616Y211067D02*
D03*
X56299Y55905D02*
D03*
Y52756D02*
D03*
X142520Y51984D02*
D03*
X145669Y51968D02*
D03*
X54331Y178740D02*
D03*
Y175197D02*
D03*
X82489Y201491D02*
D03*
X79134Y200787D02*
D03*
X79386Y204336D02*
D03*
X79134Y196850D02*
D03*
X176378Y217323D02*
D03*
X79134Y214173D02*
D03*
X168110Y79134D02*
D03*
Y75984D02*
D03*
X23228Y85827D02*
D03*
Y88976D02*
D03*
X119685Y206102D02*
D03*
X82499Y198342D02*
D03*
X59055Y161417D02*
D03*
X39370Y165354D02*
D03*
X116535Y204724D02*
D03*
X119351Y202887D02*
D03*
X116142Y187795D02*
D03*
X107524Y190878D02*
D03*
X102756Y74016D02*
D03*
X77165Y90551D02*
D03*
X100787Y104331D02*
D03*
X114961Y62992D02*
D03*
X117717Y81890D02*
D03*
X114961Y83465D02*
D03*
Y87008D02*
D03*
X117717Y85039D02*
D03*
X77165Y85827D02*
D03*
X63779Y159449D02*
D03*
X40173Y169291D02*
D03*
X27559Y226772D02*
D03*
Y230315D02*
D03*
X105810Y193521D02*
D03*
X174409Y220472D02*
D03*
X119291Y187122D02*
D03*
X114961Y93523D02*
D03*
Y66535D02*
D03*
X80315Y85827D02*
D03*
X102756Y70866D02*
D03*
X80315Y90551D02*
D03*
X97441Y104331D02*
D03*
D50*
X226575Y270051D02*
D03*
X226616Y277122D02*
D03*
X224043Y279725D02*
D03*
X220514Y280693D02*
D03*
X213402Y273663D02*
D03*
X22819Y273581D02*
D03*
X220431Y266551D02*
D03*
X222482Y22819D02*
D03*
X20850Y15707D02*
D03*
X215370Y15789D02*
D03*
X13821Y22819D02*
D03*
X13738Y8677D02*
D03*
X222400D02*
D03*
X17279Y9604D02*
D03*
X225941D02*
D03*
X218870Y9645D02*
D03*
X10209D02*
D03*
X228544Y12177D02*
D03*
X19882D02*
D03*
X216297Y12248D02*
D03*
X7636D02*
D03*
X229512Y15707D02*
D03*
X6709Y15789D02*
D03*
X19924Y19248D02*
D03*
X228585D02*
D03*
X216338Y19319D02*
D03*
X7677D02*
D03*
X226012Y21851D02*
D03*
X17351D02*
D03*
X218941Y21892D02*
D03*
X10280D02*
D03*
X98384Y140567D02*
D03*
X101925Y141494D02*
D03*
X104528Y144067D02*
D03*
X105496Y147597D02*
D03*
X104569Y151137D02*
D03*
X101996Y153741D02*
D03*
X98466Y154709D02*
D03*
X94926Y153782D02*
D03*
X92322Y151209D02*
D03*
X91355Y147679D02*
D03*
X92281Y144138D02*
D03*
X94854Y141535D02*
D03*
X223972Y267478D02*
D03*
X227543Y273581D02*
D03*
X216973Y279766D02*
D03*
X214370Y277193D02*
D03*
X214329Y270122D02*
D03*
X216901Y267519D02*
D03*
X12177D02*
D03*
X9604Y270122D02*
D03*
X8677Y273663D02*
D03*
X9645Y277193D02*
D03*
X12248Y279766D02*
D03*
X15789Y280693D02*
D03*
X19319Y279725D02*
D03*
X21892Y277122D02*
D03*
X21851Y270051D02*
D03*
X19248Y267478D02*
D03*
X15707Y266551D02*
D03*
D51*
X39370Y188976D02*
D03*
X144488Y205512D02*
D03*
X102586Y118875D02*
D03*
X68504Y127559D02*
D03*
X110827Y231299D02*
D03*
X133858Y153543D02*
D03*
X159449Y183071D02*
D03*
X135827Y87795D02*
D03*
X172835Y238189D02*
D03*
D52*
X174803Y127165D02*
D03*
X222441Y82284D02*
D03*
Y181102D02*
D03*
X183071Y51181D02*
D03*
X16142Y74016D02*
D03*
X179134Y114173D02*
D03*
X172835Y97638D02*
D03*
X137795Y35433D02*
D03*
M02*
