G04*
G04 #@! TF.GenerationSoftware,Altium Limited,Altium Designer,21.3.2 (30)*
G04*
G04 Layer_Color=32896*
%FSLAX25Y25*%
%MOIN*%
G70*
G04*
G04 #@! TF.SameCoordinates,BB1D773A-2413-427B-BD55-C883B2B148E4*
G04*
G04*
G04 #@! TF.FilePolarity,Positive*
G04*
G01*
G75*
%ADD11C,0.00787*%
%ADD69C,0.00394*%
D11*
X12992Y57677D02*
X20079D01*
Y71457D01*
X12992D02*
X20079D01*
X12992Y57677D02*
Y71457D01*
X24016Y58071D02*
X31102D01*
Y71850D01*
X24016D02*
X31102D01*
X24016Y58071D02*
Y71850D01*
X166732Y43701D02*
Y70472D01*
Y43701D02*
X193504D01*
Y70472D01*
X166732D02*
X193504D01*
X191339Y214961D02*
Y241732D01*
X218110D01*
Y214961D02*
Y241732D01*
X191339Y214961D02*
X218110D01*
X86024Y248622D02*
Y275394D01*
X112795D01*
Y248622D02*
Y275394D01*
X86024Y248622D02*
X112795D01*
X152953Y174606D02*
X179724D01*
X152953D02*
Y201378D01*
X179724D01*
Y174606D02*
Y201378D01*
X204232Y142717D02*
X213090D01*
Y136811D02*
Y142717D01*
X204232Y136811D02*
X213090D01*
X204232D02*
Y142717D01*
Y124016D02*
X213090D01*
X204232D02*
Y129921D01*
X213090D01*
Y124016D02*
Y129921D01*
X204232Y85630D02*
X213090D01*
X204232D02*
Y91535D01*
X213090D01*
Y85630D02*
Y91535D01*
X204232Y117126D02*
X213090D01*
Y111221D02*
Y117126D01*
X204232Y111221D02*
X213090D01*
X204232D02*
Y117126D01*
Y98425D02*
X213090D01*
X204232D02*
Y104331D01*
X213090D01*
Y98425D02*
Y104331D01*
X46850Y115551D02*
Y142323D01*
X20079Y115551D02*
X46850D01*
X20079D02*
Y142323D01*
X46850D01*
X111811Y54331D02*
Y67716D01*
X104724Y54331D02*
X111811D01*
X104724D02*
Y67716D01*
X111811D01*
X136417Y125000D02*
Y138779D01*
X129331Y125000D02*
X136417D01*
X129331D02*
Y138779D01*
X136417D01*
X124606Y125000D02*
Y138779D01*
X117520Y125000D02*
X124606D01*
X117520D02*
Y138779D01*
X124606D01*
X144095Y152165D02*
X170866D01*
Y125394D02*
Y152165D01*
X144095Y125394D02*
X170866D01*
X144095D02*
Y152165D01*
X145236Y93287D02*
Y121280D01*
X169724D01*
Y93287D02*
Y121280D01*
X145236Y93287D02*
X169724D01*
X116732Y95079D02*
Y119488D01*
X141142D01*
Y95079D02*
Y119488D01*
X116732Y95079D02*
X141142D01*
Y55118D02*
Y79528D01*
X116732Y55118D02*
X141142D01*
X116732D02*
Y79528D01*
X141142D01*
X90158Y54331D02*
Y67716D01*
X83071Y54331D02*
X90158D01*
X83071D02*
Y67716D01*
X90158D01*
X33858Y67323D02*
X74409D01*
X33858D02*
Y107874D01*
X74409D01*
Y67323D02*
Y107874D01*
X50748Y114941D02*
Y142933D01*
X75236D01*
Y114941D02*
Y142933D01*
X50748Y114941D02*
X75236D01*
X92126Y171457D02*
Y184843D01*
X85039Y171457D02*
X92126D01*
X85039D02*
Y184843D01*
X92126D01*
X113779Y171457D02*
Y184843D01*
X106693Y171457D02*
X113779D01*
X106693D02*
Y184843D01*
X113779D01*
X35276Y183465D02*
X75827D01*
X35276D02*
Y224016D01*
X75827D01*
Y183465D02*
Y224016D01*
X146063Y174803D02*
Y199213D01*
X121653Y174803D02*
X146063D01*
X121653D02*
Y199213D01*
X146063D01*
X131496Y244094D02*
Y257874D01*
X124409Y244094D02*
X131496D01*
X124409D02*
Y257874D01*
X131496D01*
X144291Y244094D02*
Y257874D01*
X137205Y244094D02*
X144291D01*
X137205D02*
Y257874D01*
X144291D01*
X151969Y271260D02*
X178740D01*
Y244488D02*
Y271260D01*
X151969Y244488D02*
X178740D01*
X151969D02*
Y271260D01*
X121653Y215158D02*
Y239567D01*
X146063D01*
Y215158D02*
Y239567D01*
X121653Y215158D02*
X146063D01*
X149173Y211398D02*
Y239390D01*
X173661D01*
Y211398D02*
Y239390D01*
X149173Y211398D02*
X173661D01*
X29921Y246063D02*
Y259842D01*
X37008D01*
Y246063D02*
Y259842D01*
X29921Y246063D02*
X37008D01*
X41732D02*
Y259842D01*
X48819D01*
Y246063D02*
Y259842D01*
X41732Y246063D02*
X48819D01*
X52716Y232067D02*
Y260059D01*
X77205D01*
Y232067D02*
Y260059D01*
X52716Y232067D02*
X77205D01*
X57480Y6181D02*
X167795D01*
X57480D02*
Y42795D01*
X167795D01*
Y6181D02*
Y42795D01*
D69*
X187007Y205709D02*
X210039D01*
X212204D02*
X218503D01*
X190590Y166339D02*
X218503D01*
X187007D02*
X188424D01*
X218503D02*
Y205709D01*
X187007Y166339D02*
Y205709D01*
X190590Y166339D02*
X191476Y163976D01*
X187539D02*
X188424Y166339D01*
X187539Y163976D02*
X191476D01*
X212204Y205709D02*
X213090Y208071D01*
X209153D02*
X210039Y205709D01*
X209153Y208071D02*
X213090D01*
M02*
