G04*
G04 #@! TF.GenerationSoftware,Altium Limited,Altium Designer,21.3.2 (30)*
G04*
G04 Layer_Physical_Order=4*
G04 Layer_Color=16711680*
%FSLAX25Y25*%
%MOIN*%
G70*
G04*
G04 #@! TF.SameCoordinates,BB1D773A-2413-427B-BD55-C883B2B148E4*
G04*
G04*
G04 #@! TF.FilePolarity,Positive*
G04*
G01*
G75*
%ADD14R,0.07087X0.03937*%
%ADD36R,0.06102X0.06102*%
%ADD37C,0.06102*%
%ADD42C,0.02756*%
%ADD43C,0.03937*%
%ADD44C,0.07874*%
%ADD45C,0.01181*%
%ADD46C,0.16929*%
%ADD47C,0.08858*%
G04:AMPARAMS|DCode=48|XSize=88.58mil|YSize=88.58mil|CornerRadius=22.15mil|HoleSize=0mil|Usage=FLASHONLY|Rotation=90.000|XOffset=0mil|YOffset=0mil|HoleType=Round|Shape=RoundedRectangle|*
%AMROUNDEDRECTD48*
21,1,0.08858,0.04429,0,0,90.0*
21,1,0.04429,0.08858,0,0,90.0*
1,1,0.04429,0.02215,0.02215*
1,1,0.04429,0.02215,-0.02215*
1,1,0.04429,-0.02215,-0.02215*
1,1,0.04429,-0.02215,0.02215*
%
%ADD48ROUNDEDRECTD48*%
%ADD49C,0.02362*%
%ADD50C,0.01575*%
%ADD51C,0.05000*%
%ADD52C,0.03937*%
%ADD53R,0.12992X0.04724*%
%ADD54R,0.11000X0.15000*%
%ADD55R,0.08000X0.04500*%
%ADD56R,0.20866X0.07874*%
%ADD57R,0.06102X0.09449*%
G04:AMPARAMS|DCode=58|XSize=27.56mil|YSize=94.49mil|CornerRadius=1.93mil|HoleSize=0mil|Usage=FLASHONLY|Rotation=0.000|XOffset=0mil|YOffset=0mil|HoleType=Round|Shape=RoundedRectangle|*
%AMROUNDEDRECTD58*
21,1,0.02756,0.09063,0,0,0.0*
21,1,0.02370,0.09449,0,0,0.0*
1,1,0.00386,0.01185,-0.04532*
1,1,0.00386,-0.01185,-0.04532*
1,1,0.00386,-0.01185,0.04532*
1,1,0.00386,0.01185,0.04532*
%
%ADD58ROUNDEDRECTD58*%
G04:AMPARAMS|DCode=59|XSize=125.98mil|YSize=94.49mil|CornerRadius=1.89mil|HoleSize=0mil|Usage=FLASHONLY|Rotation=0.000|XOffset=0mil|YOffset=0mil|HoleType=Round|Shape=RoundedRectangle|*
%AMROUNDEDRECTD59*
21,1,0.12598,0.09071,0,0,0.0*
21,1,0.12221,0.09449,0,0,0.0*
1,1,0.00378,0.06110,-0.04535*
1,1,0.00378,-0.06110,-0.04535*
1,1,0.00378,-0.06110,0.04535*
1,1,0.00378,0.06110,0.04535*
%
%ADD59ROUNDEDRECTD59*%
%ADD60R,0.04724X0.12992*%
%ADD61C,0.01968*%
G36*
X221619Y286687D02*
X223733Y286120D01*
X225755Y285283D01*
X227650Y284189D01*
X229387Y282856D01*
X230935Y281308D01*
X232267Y279572D01*
X233362Y277676D01*
X234199Y275654D01*
X234766Y273540D01*
X235051Y271370D01*
Y270276D01*
Y18307D01*
Y17213D01*
X234766Y15043D01*
X234199Y12928D01*
X233362Y10906D01*
X232267Y9011D01*
X230935Y7274D01*
X229387Y5727D01*
X227651Y4394D01*
X225755Y3300D01*
X223733Y2462D01*
X221619Y1896D01*
X219449Y1610D01*
X16473D01*
X14302Y1896D01*
X12188Y2462D01*
X10166Y3300D01*
X8271Y4394D01*
X6534Y5727D01*
X4986Y7274D01*
X3654Y9011D01*
X2560Y10906D01*
X1722Y12928D01*
X1156Y15043D01*
X870Y17213D01*
Y18307D01*
Y270276D01*
Y271370D01*
X1156Y273540D01*
X1722Y275654D01*
X2560Y277676D01*
X3654Y279572D01*
X4986Y281308D01*
X6534Y282856D01*
X8271Y284188D01*
X10166Y285283D01*
X12188Y286120D01*
X14302Y286687D01*
X16473Y286973D01*
X219449D01*
X221619Y286687D01*
D02*
G37*
%LPC*%
G36*
X173267Y241476D02*
X172402D01*
X171566Y241252D01*
X170816Y240820D01*
X170204Y240208D01*
X169771Y239458D01*
X169547Y238622D01*
Y237756D01*
X169771Y236920D01*
X170204Y236171D01*
X170816Y235558D01*
X171566Y235126D01*
X172402Y234902D01*
X173267D01*
X174103Y235126D01*
X174853Y235558D01*
X175465Y236171D01*
X175898Y236920D01*
X176122Y237756D01*
Y238622D01*
X175898Y239458D01*
X175465Y240208D01*
X174853Y240820D01*
X174103Y241252D01*
X173267Y241476D01*
D02*
G37*
G36*
X111260Y234587D02*
X110394D01*
X109558Y234363D01*
X108808Y233930D01*
X108196Y233318D01*
X107763Y232568D01*
X107539Y231732D01*
Y230866D01*
X107763Y230030D01*
X108196Y229281D01*
X108808Y228669D01*
X109558Y228236D01*
X110394Y228012D01*
X111260D01*
X112096Y228236D01*
X112845Y228669D01*
X113457Y229281D01*
X113890Y230030D01*
X114114Y230866D01*
Y231732D01*
X113890Y232568D01*
X113457Y233318D01*
X112845Y233930D01*
X112096Y234363D01*
X111260Y234587D01*
D02*
G37*
G36*
X174801Y222441D02*
X174018D01*
X173294Y222141D01*
X173247Y222094D01*
X117621D01*
X117000Y221971D01*
X116474Y221619D01*
X115389Y220534D01*
X115037Y220007D01*
X114914Y219387D01*
Y205887D01*
X114867Y205839D01*
X114567Y205116D01*
Y204333D01*
X114867Y203609D01*
X115420Y203056D01*
X116144Y202756D01*
X116927D01*
X116967Y202773D01*
X117383Y202495D01*
X117682Y201772D01*
X117700Y201754D01*
Y198819D01*
Y188314D01*
X117622Y188237D01*
X117323Y187514D01*
Y186731D01*
X117622Y186007D01*
X118176Y185453D01*
X118900Y185153D01*
X119683D01*
X120406Y185453D01*
X120960Y186007D01*
X121260Y186731D01*
Y187514D01*
X120960Y188237D01*
X120943Y188254D01*
Y189767D01*
D01*
D01*
X121244Y190142D01*
X128659D01*
Y161977D01*
X128159Y161688D01*
X127839Y161752D01*
X125469D01*
X125003Y161659D01*
X124609Y161396D01*
X124345Y161001D01*
X124252Y160535D01*
Y157751D01*
X124061Y157501D01*
X123761Y156779D01*
X123659Y156004D01*
X123761Y155229D01*
X124061Y154507D01*
X124252Y154257D01*
Y151472D01*
X124345Y151007D01*
X124609Y150612D01*
X125003Y150349D01*
X125469Y150256D01*
X127839D01*
X128304Y150349D01*
X128699Y150612D01*
X128876Y150877D01*
X128975Y150905D01*
X129332D01*
X129431Y150877D01*
X129609Y150612D01*
X130003Y150349D01*
X130468Y150256D01*
X132839D01*
X133175Y150323D01*
X133425Y150256D01*
X134291D01*
X135127Y150480D01*
X135877Y150913D01*
X136091Y151127D01*
X136591Y150920D01*
Y133858D01*
X136683Y133397D01*
X136944Y133007D01*
X136944Y133007D01*
X140881Y129070D01*
X141271Y128809D01*
X141732Y128717D01*
X141732Y128717D01*
X172017D01*
X172267Y128284D01*
X172235Y128229D01*
X172047Y127528D01*
Y126803D01*
X172235Y126102D01*
X172598Y125473D01*
X173111Y124960D01*
X173739Y124597D01*
X174440Y124409D01*
X175166D01*
X175867Y124597D01*
X176495Y124960D01*
X177008Y125473D01*
X177371Y126102D01*
X177559Y126803D01*
Y127528D01*
X177371Y128229D01*
X177339Y128284D01*
X177589Y128717D01*
X192415D01*
X195999Y125133D01*
X196390Y124872D01*
X196850Y124780D01*
X196851Y124780D01*
X220472Y124780D01*
X220933Y124872D01*
X221324Y125133D01*
X221324Y125133D01*
X223292Y127101D01*
X223553Y127492D01*
X223645Y127953D01*
X223645Y127953D01*
Y139764D01*
X223645Y139764D01*
X223553Y140225D01*
X223292Y140615D01*
X223261Y140647D01*
X223225Y140755D01*
X223292Y141269D01*
X223553Y141659D01*
X223645Y142120D01*
Y175961D01*
X223553Y176422D01*
X223459Y176563D01*
X223553Y176705D01*
X223645Y177165D01*
Y178615D01*
X224133Y178897D01*
X224646Y179410D01*
X225009Y180039D01*
X225197Y180739D01*
Y181465D01*
X225009Y182166D01*
X224646Y182794D01*
X224133Y183308D01*
X223645Y183589D01*
Y196850D01*
X223553Y197311D01*
X223292Y197702D01*
X222902Y197963D01*
X222441Y198055D01*
X220587D01*
X220126Y197963D01*
X219735Y197702D01*
X219474Y197311D01*
X219382Y196850D01*
Y188492D01*
X213688D01*
Y196850D01*
X213597Y197311D01*
X213336Y197702D01*
X212945Y197963D01*
X212484Y198055D01*
X208392D01*
X208314Y198039D01*
X208235Y198044D01*
X208085Y197994D01*
X207931Y197963D01*
X207865Y197919D01*
X207790Y197893D01*
X207671Y197790D01*
X207540Y197702D01*
X207496Y197636D01*
X207436Y197583D01*
X207230Y197314D01*
X207160Y197173D01*
X207072Y197042D01*
X207057Y196964D01*
X207022Y196893D01*
X207012Y196735D01*
X206981Y196581D01*
Y195310D01*
X206693Y194235D01*
X206137Y193272D01*
X205350Y192485D01*
X204387Y191929D01*
X203312Y191641D01*
X202200D01*
X201125Y191929D01*
X200162Y192485D01*
X199375Y193272D01*
X198819Y194235D01*
X198531Y195310D01*
Y196581D01*
X198500Y196735D01*
X198490Y196893D01*
X198455Y196964D01*
X198439Y197042D01*
X198352Y197173D01*
X198282Y197314D01*
X198075Y197583D01*
X198016Y197636D01*
X197971Y197702D01*
X197840Y197790D01*
X197722Y197893D01*
X197647Y197919D01*
X197581Y197963D01*
X197426Y197994D01*
X197277Y198044D01*
X197198Y198039D01*
X197120Y198055D01*
X193028D01*
X192567Y197963D01*
X192176Y197702D01*
X191915Y197311D01*
X191823Y196850D01*
Y188492D01*
X186129D01*
Y195307D01*
X186038Y195768D01*
X185777Y196159D01*
X185777Y196159D01*
X184690Y197246D01*
X184299Y197507D01*
X183838Y197599D01*
X183838Y197599D01*
X171866D01*
X171405Y197507D01*
X171015Y197246D01*
X170887Y197055D01*
X163759D01*
X163631Y197246D01*
X163240Y197507D01*
X162779Y197599D01*
X152181D01*
X151720Y197507D01*
X151330Y197246D01*
X151202Y197055D01*
X144299D01*
Y200583D01*
X151202D01*
X151330Y200392D01*
X151720Y200131D01*
X152181Y200039D01*
X162779D01*
X163240Y200131D01*
X163631Y200392D01*
X163759Y200583D01*
X170887D01*
X171015Y200392D01*
X171405Y200131D01*
X171866Y200039D01*
X174088D01*
X174381Y200097D01*
X174548Y200131D01*
X174939Y200392D01*
X175095Y200626D01*
X175200Y200783D01*
X175391Y201244D01*
X175483Y201705D01*
X175425Y201998D01*
X175391Y202166D01*
X175130Y202557D01*
X174433Y203255D01*
Y212378D01*
X174341Y212839D01*
X174080Y213230D01*
X173689Y213491D01*
X173228Y213583D01*
X171866D01*
Y213598D01*
X162779D01*
Y213583D01*
X152181D01*
Y213598D01*
X150575D01*
X150491Y213682D01*
X150491Y213682D01*
X148755Y215419D01*
X148364Y215680D01*
X147903Y215771D01*
X147903Y215771D01*
X139764D01*
X139303Y215680D01*
X138912Y215419D01*
X137164Y213670D01*
X136903Y213279D01*
X136811Y212819D01*
Y202756D01*
X136770Y202715D01*
X136749Y202662D01*
X136683Y202564D01*
X136660Y202448D01*
X136614Y202338D01*
Y202219D01*
X136591Y202103D01*
Y197217D01*
X136236Y196866D01*
X121443D01*
X121244Y196866D01*
X120943Y197241D01*
Y200787D01*
Y201695D01*
X121020Y201772D01*
X121319Y202495D01*
Y203278D01*
X121020Y204002D01*
X120466Y204556D01*
X119743Y204855D01*
X118959D01*
X118919Y204839D01*
X118504Y205116D01*
X118204Y205839D01*
X118157Y205887D01*
Y213583D01*
Y218715D01*
X118293Y218851D01*
X173247D01*
X173294Y218804D01*
X174018Y218504D01*
X174801D01*
X175524Y218804D01*
X176078Y219357D01*
X176378Y220081D01*
Y220864D01*
X176078Y221587D01*
X175524Y222141D01*
X174801Y222441D01*
D02*
G37*
G36*
X39803Y192264D02*
X38937D01*
X38101Y192040D01*
X37351Y191607D01*
X36739Y190995D01*
X36307Y190245D01*
X36082Y189409D01*
Y188544D01*
X36307Y187707D01*
X36739Y186958D01*
X37351Y186346D01*
X38101Y185913D01*
X38937Y185689D01*
X39803D01*
X40639Y185913D01*
X41388Y186346D01*
X42000Y186958D01*
X42433Y187707D01*
X42657Y188544D01*
Y189409D01*
X42433Y190245D01*
X42000Y190995D01*
X41388Y191607D01*
X40639Y192040D01*
X39803Y192264D01*
D02*
G37*
G36*
X27753Y232283D02*
X27365D01*
X26985Y232208D01*
X26627Y232059D01*
X26304Y231844D01*
X26030Y231570D01*
X25815Y231247D01*
X25666Y230889D01*
X25591Y230509D01*
Y230121D01*
X25666Y229741D01*
X25815Y229382D01*
X26030Y229060D01*
X26304Y228786D01*
X26627Y228571D01*
X26985Y228422D01*
X27365Y228346D01*
X27753D01*
X28133Y228422D01*
X28492Y228571D01*
X28675Y228693D01*
X71607D01*
Y207587D01*
X71730Y206966D01*
X72082Y206440D01*
X72773Y205749D01*
X73300Y205397D01*
X73517Y205354D01*
X73682Y204811D01*
X73656Y204785D01*
X73305Y204259D01*
X73181Y203639D01*
Y170913D01*
X41335D01*
X41288Y170960D01*
X40565Y171260D01*
X39782D01*
X39058Y170960D01*
X38504Y170406D01*
X38205Y169683D01*
Y168900D01*
X38504Y168176D01*
X39058Y167622D01*
X39782Y167323D01*
X40565D01*
X41288Y167622D01*
X41335Y167670D01*
X74111D01*
X74732Y167793D01*
X75258Y168145D01*
X75950Y168836D01*
X76301Y169363D01*
X76425Y169983D01*
Y193701D01*
Y202709D01*
X78278D01*
X78454Y202592D01*
X78812Y202443D01*
X79192Y202368D01*
X79580D01*
X79960Y202443D01*
X80263Y202569D01*
X80467Y202365D01*
X80470Y202363D01*
X80479Y202352D01*
X80646Y202186D01*
X80596Y202065D01*
X80520Y201685D01*
Y201297D01*
X80596Y200917D01*
X80744Y200559D01*
X80959Y200236D01*
X81284Y199911D01*
X80947Y199574D01*
X80942Y199556D01*
X80754Y199274D01*
X80606Y198916D01*
X80530Y198536D01*
Y198148D01*
X80606Y197767D01*
X80754Y197409D01*
X80877Y197225D01*
Y193701D01*
Y171753D01*
X70194Y161071D01*
X64942D01*
X64895Y161118D01*
X64171Y161417D01*
X63388D01*
X62665Y161118D01*
X62111Y160564D01*
X61811Y159840D01*
Y159057D01*
X61915Y158807D01*
X61581Y158307D01*
X35094D01*
Y160182D01*
Y173174D01*
X54331D01*
X54605Y173228D01*
X54722D01*
X54830Y173273D01*
X55105Y173328D01*
X55338Y173483D01*
X55446Y173528D01*
X55528Y173611D01*
X55761Y173766D01*
X55917Y173999D01*
X55999Y174082D01*
X56044Y174190D01*
X56200Y174423D01*
X56254Y174697D01*
X56299Y174805D01*
Y174922D01*
X56354Y175197D01*
X56299Y175471D01*
Y175588D01*
X56254Y175697D01*
X56200Y175971D01*
X56044Y176204D01*
X55999Y176312D01*
X55917Y176395D01*
X55761Y176627D01*
X55528Y176783D01*
X55446Y176866D01*
X55338Y176910D01*
X55105Y177066D01*
X54830Y177121D01*
X54722Y177165D01*
X54605D01*
X54331Y177220D01*
X34224D01*
X33450Y177066D01*
X32793Y176627D01*
X31640Y175474D01*
X31202Y174818D01*
X31048Y174044D01*
Y157437D01*
X31202Y156662D01*
X31640Y156006D01*
X32793Y154853D01*
X33450Y154414D01*
X34224Y154260D01*
X71244D01*
X72018Y154414D01*
X72675Y154853D01*
X86470Y168648D01*
X86909Y169305D01*
X87063Y170079D01*
Y191498D01*
X105810D01*
X106085Y191553D01*
X106202D01*
X106310Y191597D01*
X106584Y191652D01*
X106817Y191808D01*
X106925Y191852D01*
X107008Y191935D01*
X107241Y192091D01*
X107396Y192323D01*
X107479Y192406D01*
X107524Y192514D01*
X107679Y192747D01*
X107734Y193022D01*
X107779Y193130D01*
Y193247D01*
X107833Y193521D01*
X107779Y193796D01*
Y193913D01*
X107734Y194021D01*
X107679Y194295D01*
X107524Y194528D01*
X107479Y194636D01*
X107396Y194719D01*
X107241Y194952D01*
X107008Y195107D01*
X106925Y195190D01*
X106817Y195235D01*
X106584Y195390D01*
X106310Y195445D01*
X106202Y195490D01*
X106085D01*
X105810Y195544D01*
X94543D01*
Y209477D01*
X94389Y210251D01*
X93950Y210907D01*
X93594Y211263D01*
X92361Y212497D01*
X91704Y212936D01*
X90930Y213090D01*
X78616D01*
X78342Y213035D01*
X77842Y212936D01*
X77185Y212497D01*
X76747Y211841D01*
X76593Y211067D01*
X76747Y210292D01*
X77185Y209636D01*
X77842Y209197D01*
X78616Y209043D01*
X90092D01*
X90497Y208639D01*
Y195544D01*
X86193D01*
X85418Y195390D01*
X84762Y194952D01*
X84582Y194772D01*
X84120Y194963D01*
Y197179D01*
D01*
Y197225D01*
X84243Y197409D01*
X84391Y197767D01*
X84467Y198148D01*
Y198536D01*
X84391Y198916D01*
X84243Y199274D01*
X84028Y199597D01*
X83703Y199922D01*
X84040Y200259D01*
X84045Y200277D01*
X84233Y200559D01*
X84381Y200917D01*
X84457Y201297D01*
Y201685D01*
X84381Y202065D01*
X84233Y202424D01*
X84035Y202720D01*
Y202729D01*
Y205776D01*
X83911Y206396D01*
X83560Y206923D01*
X82441Y208042D01*
X81914Y208394D01*
X81294Y208517D01*
X74850D01*
Y229623D01*
X74727Y230244D01*
X74375Y230770D01*
X73683Y231462D01*
X73157Y231813D01*
X72536Y231937D01*
X28675D01*
X28492Y232059D01*
X28133Y232208D01*
X27753Y232283D01*
D02*
G37*
G36*
X68937Y130847D02*
X68071D01*
X67235Y130622D01*
X66485Y130190D01*
X65873Y129578D01*
X65441Y128828D01*
X65216Y127992D01*
Y127126D01*
X65441Y126290D01*
X65873Y125541D01*
X66485Y124928D01*
X67235Y124496D01*
X68071Y124272D01*
X68937D01*
X69773Y124496D01*
X70522Y124928D01*
X71135Y125541D01*
X71567Y126290D01*
X71791Y127126D01*
Y127992D01*
X71567Y128828D01*
X71135Y129578D01*
X70522Y130190D01*
X69773Y130622D01*
X68937Y130847D01*
D02*
G37*
G36*
X179497Y116929D02*
X178771D01*
X178070Y116741D01*
X177442Y116378D01*
X176929Y115865D01*
X176566Y115237D01*
X176378Y114536D01*
Y113810D01*
X176566Y113110D01*
X176929Y112481D01*
X177442Y111968D01*
X178070Y111605D01*
X178771Y111417D01*
X179497D01*
X180198Y111605D01*
X180826Y111968D01*
X181339Y112481D01*
X181702Y113110D01*
X181890Y113810D01*
Y114536D01*
X181702Y115237D01*
X181339Y115865D01*
X180826Y116378D01*
X180198Y116741D01*
X179497Y116929D01*
D02*
G37*
G36*
X97833Y106299D02*
X97049D01*
X96326Y106000D01*
X96279Y105952D01*
X81007D01*
X80386Y105829D01*
X79860Y105477D01*
X79168Y104786D01*
X78817Y104259D01*
X78693Y103639D01*
Y91713D01*
X78646Y91666D01*
X78347Y90943D01*
Y90160D01*
X78646Y89436D01*
X79200Y88882D01*
X79923Y88583D01*
X80707D01*
X81430Y88882D01*
X81984Y89436D01*
X82284Y90160D01*
Y90943D01*
X81984Y91666D01*
X81937Y91713D01*
Y102709D01*
X96279D01*
X96326Y102662D01*
X97049Y102362D01*
X97833D01*
X98556Y102662D01*
X99110Y103216D01*
X99409Y103939D01*
Y104722D01*
X99110Y105446D01*
X98556Y106000D01*
X97833Y106299D01*
D02*
G37*
G36*
X173197Y100394D02*
X172472D01*
X171771Y100206D01*
X171142Y99843D01*
X170629Y99330D01*
X170267Y98702D01*
X170079Y98001D01*
Y97275D01*
X170267Y96574D01*
X170629Y95946D01*
X171142Y95433D01*
X171771Y95070D01*
X172472Y94882D01*
X173197D01*
X173898Y95070D01*
X174527Y95433D01*
X175040Y95946D01*
X175403Y96574D01*
X175591Y97275D01*
Y98001D01*
X175403Y98702D01*
X175040Y99330D01*
X174527Y99843D01*
X173898Y100206D01*
X173197Y100394D01*
D02*
G37*
G36*
X136260Y91083D02*
X135394D01*
X134558Y90859D01*
X133808Y90426D01*
X133196Y89814D01*
X132763Y89064D01*
X132539Y88228D01*
Y87362D01*
X132763Y86526D01*
X133196Y85777D01*
X133808Y85165D01*
X134558Y84732D01*
X135394Y84508D01*
X136260D01*
X137096Y84732D01*
X137845Y85165D01*
X138457Y85777D01*
X138604Y86032D01*
X138890Y86526D01*
X139114Y87362D01*
Y88228D01*
X138890Y89064D01*
X138457Y89814D01*
X137845Y90426D01*
X137096Y90859D01*
X136260Y91083D01*
D02*
G37*
G36*
X222804Y85039D02*
X222078D01*
X221377Y84851D01*
X220749Y84489D01*
X220236Y83976D01*
X219873Y83347D01*
X219685Y82646D01*
Y81921D01*
X219873Y81220D01*
X220236Y80591D01*
X220749Y80078D01*
X221377Y79715D01*
X222078Y79528D01*
X222804D01*
X223505Y79715D01*
X224133Y80078D01*
X224646Y80591D01*
X225009Y81220D01*
X225197Y81921D01*
Y82646D01*
X225009Y83347D01*
X224646Y83976D01*
X224133Y84489D01*
X223505Y84851D01*
X222804Y85039D01*
D02*
G37*
G36*
X80315Y87850D02*
X80040Y87795D01*
X79923D01*
X79815Y87751D01*
X79541Y87696D01*
X79308Y87540D01*
X79200Y87496D01*
X79117Y87413D01*
X78884Y87257D01*
X78729Y87025D01*
X78646Y86942D01*
X78601Y86834D01*
X78446Y86601D01*
X78391Y86326D01*
X78347Y86218D01*
Y86101D01*
X78292Y85827D01*
Y64622D01*
X25251D01*
Y85827D01*
X25197Y86101D01*
Y86218D01*
X25152Y86326D01*
X25098Y86601D01*
X24942Y86834D01*
X24897Y86942D01*
X24814Y87025D01*
X24659Y87257D01*
X24426Y87413D01*
X24343Y87496D01*
X24235Y87540D01*
X24003Y87696D01*
X23728Y87751D01*
X23620Y87795D01*
X23503D01*
X23228Y87850D01*
X22954Y87795D01*
X22837D01*
X22729Y87751D01*
X22454Y87696D01*
X22221Y87540D01*
X22113Y87496D01*
X22030Y87413D01*
X21798Y87257D01*
X21642Y87025D01*
X21560Y86942D01*
X21515Y86834D01*
X21359Y86601D01*
X21305Y86326D01*
X21260Y86218D01*
Y86101D01*
X21205Y85827D01*
Y63752D01*
X21359Y62977D01*
X21798Y62321D01*
X22951Y61168D01*
X23607Y60729D01*
X24382Y60575D01*
X79162D01*
X79936Y60729D01*
X80592Y61168D01*
X81745Y62321D01*
X82184Y62977D01*
X82338Y63752D01*
Y85827D01*
X82284Y86101D01*
Y86218D01*
X82239Y86326D01*
X82184Y86601D01*
X82029Y86834D01*
X81984Y86942D01*
X81901Y87025D01*
X81745Y87257D01*
X81513Y87413D01*
X81430Y87496D01*
X81322Y87540D01*
X81089Y87696D01*
X80815Y87751D01*
X80707Y87795D01*
X80589D01*
X80315Y87850D01*
D02*
G37*
G36*
X103147Y72835D02*
X102364D01*
X101641Y72535D01*
X101087Y71981D01*
X100787Y71258D01*
Y70475D01*
X101087Y69751D01*
X101134Y69704D01*
Y57527D01*
X57461D01*
X57414Y57574D01*
X56691Y57874D01*
X55908D01*
X55184Y57574D01*
X54630Y57021D01*
X54331Y56297D01*
Y55514D01*
X54630Y54790D01*
X55184Y54237D01*
X55908Y53937D01*
X56691D01*
X57414Y54237D01*
X57461Y54284D01*
X102064D01*
X102685Y54407D01*
X103211Y54759D01*
X103903Y55451D01*
X104254Y55977D01*
X104378Y56597D01*
Y69704D01*
X104425Y69751D01*
X104724Y70475D01*
Y71258D01*
X104425Y71981D01*
X103871Y72535D01*
X103147Y72835D01*
D02*
G37*
G36*
X114173Y164590D02*
X114173Y164590D01*
X86614D01*
X86153Y164498D01*
X85763Y164237D01*
X85502Y163847D01*
X85410Y163386D01*
Y109472D01*
X85502Y109011D01*
X85763Y108620D01*
X86153Y108359D01*
X86614Y108268D01*
X100394D01*
X105905Y102756D01*
Y97861D01*
X105833Y97767D01*
D01*
X105787Y97706D01*
X105675Y97560D01*
X105463Y97049D01*
X105376Y96838D01*
X105274Y96063D01*
Y48819D01*
X86614D01*
X86153Y48727D01*
X85763Y48466D01*
X85502Y48076D01*
X85410Y47615D01*
Y45276D01*
Y35433D01*
X85502Y34972D01*
X85763Y34582D01*
X85763Y34582D01*
X87066Y33278D01*
X87457Y33017D01*
X87917Y32926D01*
X87917Y32926D01*
X88013D01*
X88737Y32732D01*
X89386Y32357D01*
X89916Y31827D01*
X90291Y31178D01*
X90485Y30454D01*
Y29545D01*
X90516Y29391D01*
X90526Y29234D01*
X90561Y29162D01*
X90576Y29085D01*
X90664Y28954D01*
X90734Y28812D01*
X90747Y28794D01*
X90803Y28746D01*
X90838Y28694D01*
X90841Y28692D01*
X90851Y28676D01*
X90982Y28589D01*
X91101Y28485D01*
X91176Y28459D01*
X91242Y28415D01*
X91396Y28384D01*
X91545Y28334D01*
X91625Y28339D01*
X91703Y28323D01*
X93973D01*
X94396Y27591D01*
X94644Y27344D01*
Y22814D01*
X94396Y22566D01*
X93863Y21642D01*
X93587Y20612D01*
Y19545D01*
X93863Y18515D01*
X94396Y17591D01*
X95107Y16880D01*
X95062Y16508D01*
X95028Y16380D01*
X80248D01*
X80213Y16508D01*
X80168Y16880D01*
X80879Y17591D01*
X81413Y18515D01*
X81689Y19545D01*
Y20612D01*
X81413Y21642D01*
X80879Y22566D01*
X80125Y23321D01*
X79202Y23854D01*
X78171Y24130D01*
X77104D01*
X76074Y23854D01*
X75150Y23321D01*
X74396Y22566D01*
X73863Y21642D01*
X73587Y20612D01*
Y19545D01*
X73863Y18515D01*
X74396Y17591D01*
X75107Y16880D01*
X75062Y16508D01*
X75028Y16380D01*
X68901D01*
X68348Y16932D01*
Y43757D01*
X68246Y44532D01*
X68071Y44955D01*
X67947Y45254D01*
X67471Y45874D01*
X65165Y48180D01*
X64545Y48656D01*
X64152Y48819D01*
D01*
X64034Y48867D01*
X63823Y48955D01*
X63048Y49057D01*
X29980D01*
X19136Y59902D01*
Y74016D01*
X19034Y74791D01*
X18735Y75513D01*
X18504Y75814D01*
X18259Y76133D01*
X17639Y76609D01*
X16917Y76908D01*
X16142Y77010D01*
X15367Y76908D01*
X14645Y76609D01*
X14025Y76133D01*
X13549Y75513D01*
X13250Y74791D01*
X13148Y74016D01*
Y58661D01*
X13250Y57886D01*
X13549Y57164D01*
X14025Y56544D01*
X26623Y43946D01*
X27243Y43470D01*
X27542Y43346D01*
X27965Y43171D01*
X28740Y43069D01*
X61808D01*
X62360Y42516D01*
Y15692D01*
X62462Y14917D01*
X62761Y14195D01*
X63237Y13575D01*
X65543Y11269D01*
X66163Y10793D01*
X66463Y10669D01*
X66886Y10494D01*
X67661Y10392D01*
X130945D01*
X131720Y10494D01*
X132442Y10793D01*
X133062Y11269D01*
X137821Y16028D01*
X138171D01*
X139201Y16304D01*
X140125Y16837D01*
X140879Y17591D01*
X141413Y18515D01*
X141689Y19545D01*
Y20612D01*
X141413Y21642D01*
X140879Y22566D01*
X140125Y23321D01*
X139201Y23854D01*
X138171Y24130D01*
X137104D01*
X136074Y23854D01*
X135150Y23321D01*
X134396Y22566D01*
X133863Y21642D01*
X133587Y20612D01*
Y20262D01*
X129705Y16380D01*
X120248D01*
X120213Y16508D01*
X120168Y16880D01*
X120879Y17591D01*
X121413Y18515D01*
X121689Y19545D01*
Y20612D01*
X121413Y21642D01*
X120879Y22566D01*
X120125Y23321D01*
X119202Y23854D01*
X118171Y24130D01*
X117104D01*
X116074Y23854D01*
X115150Y23321D01*
X114396Y22566D01*
X113863Y21642D01*
X113587Y20612D01*
Y19545D01*
X113863Y18515D01*
X114396Y17591D01*
X115107Y16880D01*
X115062Y16508D01*
X115028Y16380D01*
X100248D01*
X100213Y16508D01*
X100168Y16880D01*
X100880Y17591D01*
X101413Y18515D01*
X101689Y19545D01*
Y20612D01*
X101413Y21642D01*
X100880Y22566D01*
X100632Y22814D01*
Y27344D01*
X100880Y27591D01*
X101302Y28323D01*
X103573D01*
X103651Y28339D01*
X103730Y28334D01*
X103879Y28384D01*
X104034Y28415D01*
X104100Y28459D01*
X104175Y28485D01*
X104294Y28589D01*
X104425Y28676D01*
X104435Y28692D01*
X104438Y28694D01*
X104473Y28746D01*
X104528Y28794D01*
X104542Y28812D01*
X104612Y28953D01*
X104699Y29085D01*
X104715Y29162D01*
X104750Y29234D01*
X104760Y29391D01*
X104791Y29545D01*
Y30454D01*
X104985Y31178D01*
X105360Y31827D01*
X105890Y32357D01*
X106539Y32732D01*
X107263Y32926D01*
X108013D01*
X108737Y32732D01*
X109502Y32290D01*
X109577Y32264D01*
X109643Y32220D01*
X109798Y32189D01*
X109947Y32139D01*
X110026Y32144D01*
X110104Y32128D01*
X110259Y32159D01*
X110416Y32169D01*
X110487Y32205D01*
X110565Y32220D01*
X110696Y32308D01*
X110837Y32377D01*
X110890Y32437D01*
X110956Y32481D01*
X114672Y36197D01*
X134736D01*
X135041Y35801D01*
X135039Y35796D01*
Y35070D01*
X135227Y34369D01*
X135590Y33741D01*
X135566Y33561D01*
X135150Y33321D01*
X134396Y32566D01*
X133863Y31642D01*
X133587Y30612D01*
Y29545D01*
X133863Y28515D01*
X134396Y27591D01*
X135150Y26837D01*
X136074Y26304D01*
X137104Y26028D01*
X138171D01*
X139201Y26304D01*
X140125Y26837D01*
X140879Y27591D01*
X141413Y28515D01*
X141689Y29545D01*
Y30612D01*
X141413Y31642D01*
X140879Y32566D01*
X140125Y33321D01*
X140050Y33364D01*
X140000Y33741D01*
X140363Y34369D01*
X140551Y35070D01*
Y35796D01*
X140550Y35801D01*
X140854Y36197D01*
X185039D01*
X185500Y36289D01*
X185891Y36550D01*
X185891Y36550D01*
X187859Y38519D01*
X188120Y38909D01*
X188212Y39370D01*
X188212Y39370D01*
Y55118D01*
X188120Y55579D01*
X187859Y55970D01*
X187859Y55970D01*
X185891Y57938D01*
X185500Y58199D01*
X185039Y58291D01*
X185039Y58291D01*
X174039D01*
X173578Y58199D01*
X173187Y57938D01*
X172926Y57547D01*
X172835Y57087D01*
Y49213D01*
X172751Y49129D01*
D01*
X168982Y45360D01*
X168982Y45359D01*
X168898Y45276D01*
X124016D01*
X123932Y45359D01*
X123932Y45360D01*
D01*
X123417Y45874D01*
X120825Y48466D01*
D01*
X120825Y48466D01*
X120434Y48727D01*
X119974Y48819D01*
X111262D01*
Y48937D01*
Y91614D01*
Y91732D01*
X112862D01*
X112978Y91755D01*
X113097D01*
X113207Y91801D01*
X113323Y91824D01*
X113421Y91890D01*
X113531Y91935D01*
X113615Y92019D01*
X113654Y92045D01*
X113846Y91854D01*
X114139Y91732D01*
X114569Y91554D01*
X115352D01*
X115782Y91732D01*
X116076Y91854D01*
X116301Y92079D01*
X140898D01*
Y53146D01*
X140851Y53099D01*
X140551Y52376D01*
Y51593D01*
X140851Y50869D01*
X141405Y50315D01*
X142128Y50016D01*
X142911D01*
X143635Y50315D01*
X144188Y50869D01*
X144488Y51593D01*
Y52376D01*
X144188Y53099D01*
X144141Y53146D01*
Y93009D01*
X144018Y93629D01*
X143666Y94156D01*
X142974Y94848D01*
X142448Y95199D01*
X141828Y95323D01*
X115760D01*
X115377Y95481D01*
Y95958D01*
X122899Y103479D01*
X123160Y103870D01*
X123251Y104331D01*
X123251Y104331D01*
Y150256D01*
X123160Y150717D01*
X122899Y151108D01*
X122508Y151369D01*
X122047Y151460D01*
X120587D01*
X120478Y151482D01*
X120457Y151591D01*
Y158307D01*
X120365Y158768D01*
X120104Y159158D01*
X120104Y159158D01*
X119055Y160207D01*
Y160535D01*
X118962Y161001D01*
X118699Y161396D01*
X118304Y161659D01*
X117839Y161752D01*
X117510D01*
X115025Y164237D01*
X114634Y164498D01*
X114173Y164590D01*
D02*
G37*
G36*
X121083Y89593D02*
X116243D01*
X115622Y89470D01*
X115096Y89118D01*
X114954Y88976D01*
X114569D01*
X113846Y88677D01*
X113292Y88123D01*
X112992Y87399D01*
Y86616D01*
X113292Y85893D01*
X113622Y85563D01*
X113792Y85236D01*
D01*
D01*
X113622Y84910D01*
X113292Y84580D01*
X112992Y83856D01*
Y83073D01*
X113292Y82349D01*
X113339Y82302D01*
Y67698D01*
X113292Y67651D01*
X112992Y66927D01*
Y66144D01*
X113292Y65420D01*
X113846Y64867D01*
X114569Y64567D01*
X115352D01*
X116076Y64867D01*
X116629Y65420D01*
X116929Y66144D01*
Y66927D01*
X116629Y67651D01*
X116582Y67698D01*
Y82302D01*
X116629Y82349D01*
X116929Y83073D01*
Y83856D01*
X116629Y84580D01*
X116299Y84910D01*
X116129Y85236D01*
D01*
D01*
X116299Y85563D01*
X116629Y85893D01*
X116751Y86186D01*
X116915Y86350D01*
X120412D01*
X126725Y80037D01*
Y48330D01*
X126848Y47709D01*
X127200Y47183D01*
X127892Y46491D01*
X128418Y46139D01*
X129038Y46016D01*
X167418D01*
X168039Y46139D01*
X168565Y46491D01*
X169257Y47183D01*
X169608Y47709D01*
X169732Y48330D01*
Y74822D01*
X169779Y74869D01*
X170079Y75593D01*
Y76376D01*
X169779Y77099D01*
X169225Y77653D01*
X168502Y77953D01*
X167719D01*
X166995Y77653D01*
X166441Y77099D01*
X166142Y76376D01*
Y75593D01*
X166441Y74869D01*
X166489Y74822D01*
Y49259D01*
X129968D01*
Y80709D01*
X129845Y81329D01*
X129493Y81855D01*
X122230Y89118D01*
X121704Y89470D01*
X121083Y89593D01*
D02*
G37*
G36*
X118171Y34130D02*
X117104D01*
X116074Y33854D01*
X115150Y33321D01*
X114396Y32566D01*
X113863Y31642D01*
X113587Y30612D01*
Y29545D01*
X113863Y28515D01*
X114396Y27591D01*
X115150Y26837D01*
X116074Y26304D01*
X117104Y26028D01*
X118171D01*
X119202Y26304D01*
X120125Y26837D01*
X120879Y27591D01*
X121413Y28515D01*
X121689Y29545D01*
Y30612D01*
X121413Y31642D01*
X120879Y32566D01*
X120125Y33321D01*
X119202Y33854D01*
X118171Y34130D01*
D02*
G37*
G36*
X78171D02*
X77104D01*
X76074Y33854D01*
X75150Y33321D01*
X74396Y32566D01*
X73863Y31642D01*
X73587Y30612D01*
Y29545D01*
X73863Y28515D01*
X74396Y27591D01*
X75150Y26837D01*
X76074Y26304D01*
X77104Y26028D01*
X78171D01*
X79202Y26304D01*
X80125Y26837D01*
X80879Y27591D01*
X81413Y28515D01*
X81689Y29545D01*
Y30612D01*
X81413Y31642D01*
X80879Y32566D01*
X80125Y33321D01*
X79202Y33854D01*
X78171Y34130D01*
D02*
G37*
%LPD*%
G36*
X149723Y212747D02*
X150114Y212486D01*
X150575Y212394D01*
X150575Y212394D01*
X152102D01*
X152181Y212378D01*
X162779D01*
X162859Y212394D01*
X171787D01*
X171866Y212378D01*
X173228D01*
Y202756D01*
X174279Y201705D01*
X174088Y201243D01*
X171866D01*
Y201787D01*
X162779D01*
Y201243D01*
X152181D01*
Y201787D01*
X143095D01*
Y195850D01*
X152181D01*
Y196394D01*
X162779D01*
Y195850D01*
X171866D01*
Y196394D01*
X183838D01*
X184925Y195307D01*
Y187287D01*
X193028D01*
Y196850D01*
X197120D01*
X197327Y196581D01*
Y195151D01*
X197697Y193771D01*
X198412Y192533D01*
X199422Y191522D01*
X200660Y190807D01*
X202041Y190437D01*
X203471D01*
X204852Y190807D01*
X206089Y191522D01*
X207100Y192533D01*
X207815Y193771D01*
X208185Y195151D01*
Y196581D01*
X208392Y196850D01*
X212484D01*
Y187287D01*
X220587D01*
Y196850D01*
X222441D01*
Y177165D01*
X210630D01*
X207778Y180017D01*
X207263Y180688D01*
X206592Y181204D01*
X205810Y181527D01*
X204971Y181638D01*
X200541D01*
X199702Y181527D01*
X198920Y181204D01*
X198249Y180688D01*
X197734Y180017D01*
X194882Y177165D01*
Y175197D01*
X183071D01*
X179134Y171260D01*
Y143701D01*
X178370Y142937D01*
X163885D01*
X156716Y150105D01*
Y188976D01*
X156624Y189437D01*
X156363Y189828D01*
X156363Y189828D01*
X152426Y193765D01*
X152036Y194026D01*
X151575Y194118D01*
X151575Y194118D01*
X137795D01*
Y202103D01*
X137924Y202295D01*
X138015Y202756D01*
X138015Y202756D01*
Y212818D01*
X139764Y214567D01*
X147903D01*
X149723Y212747D01*
D02*
G37*
G36*
X205495Y180354D02*
X205984Y180152D01*
X206404Y179829D01*
X206823Y179284D01*
X206883Y179232D01*
X206927Y179166D01*
X209778Y176314D01*
X210169Y176053D01*
X210630Y175961D01*
X210630Y175961D01*
X212484D01*
Y175279D01*
X220587D01*
Y175961D01*
X222441D01*
Y142120D01*
X221979Y141929D01*
X221324Y142584D01*
X220933Y142845D01*
X220472Y142937D01*
X220472Y142937D01*
X180599D01*
X180286Y143437D01*
X180338Y143701D01*
X180338Y143701D01*
Y170761D01*
X183570Y173993D01*
X194882D01*
X195343Y174084D01*
X195733Y174345D01*
X195994Y174736D01*
X196086Y175197D01*
Y176666D01*
X198585Y179166D01*
X198629Y179232D01*
X198689Y179284D01*
X199108Y179829D01*
X199528Y180152D01*
X200016Y180354D01*
X200620Y180434D01*
X204891D01*
X205495Y180354D01*
D02*
G37*
G36*
X155512Y188976D02*
Y149606D01*
X163386Y141732D01*
X220472D01*
X222441Y139764D01*
Y127953D01*
X220472Y125984D01*
X196850Y125984D01*
X192913Y129921D01*
X141732D01*
X137795Y133858D01*
Y192913D01*
X151575D01*
X155512Y188976D01*
D02*
G37*
G36*
X119252Y158307D02*
Y151472D01*
X119345Y151007D01*
X119608Y150612D01*
X120003Y150349D01*
X120468Y150256D01*
X122047D01*
Y104331D01*
X114173Y96457D01*
Y95327D01*
X113846Y95192D01*
X113292Y94638D01*
X112992Y93914D01*
Y93131D01*
X112862Y92936D01*
X111262D01*
X110801Y92845D01*
X110410Y92584D01*
X110149Y92193D01*
X110058Y91732D01*
Y48819D01*
X110149Y48358D01*
X110410Y47967D01*
X110801Y47706D01*
X111262Y47615D01*
X119974D01*
X123164Y44424D01*
X123555Y44163D01*
X124016Y44071D01*
X124016Y44071D01*
X168898D01*
X169358Y44163D01*
X169749Y44424D01*
X173686Y48361D01*
X173686Y48361D01*
X173947Y48752D01*
X174039Y49213D01*
X174039Y49213D01*
Y57087D01*
X185039D01*
X187008Y55118D01*
Y39370D01*
X185039Y37402D01*
X139724D01*
X139487Y37638D01*
X138859Y38001D01*
X138158Y38189D01*
X137433D01*
X136732Y38001D01*
X136103Y37638D01*
X135866Y37402D01*
X114173D01*
X110104Y33333D01*
X109202Y33854D01*
X108171Y34130D01*
X107104D01*
X106074Y33854D01*
X105150Y33321D01*
X104396Y32566D01*
X103863Y31642D01*
X103587Y30612D01*
Y29545D01*
X103573Y29528D01*
X91703D01*
X91689Y29545D01*
Y30612D01*
X91413Y31642D01*
X90879Y32566D01*
X90125Y33321D01*
X89201Y33854D01*
X88171Y34130D01*
X87917D01*
X86614Y35433D01*
Y45276D01*
Y47615D01*
X105274D01*
X105734Y47706D01*
X106125Y47967D01*
X106386Y48358D01*
X106478Y48819D01*
Y95984D01*
X106549Y96524D01*
X106727Y96953D01*
X106861Y97128D01*
X106931Y97269D01*
X107018Y97400D01*
X107034Y97478D01*
X107069Y97549D01*
X107079Y97706D01*
X107110Y97861D01*
Y102756D01*
X107110Y102756D01*
X107018Y103217D01*
X106757Y103607D01*
X106757Y103607D01*
X101245Y109119D01*
X100855Y109380D01*
X100394Y109472D01*
X100394Y109472D01*
X86614D01*
Y163386D01*
X114173D01*
X119252Y158307D01*
D02*
G37*
%LPC*%
G36*
X99357Y157102D02*
X97493D01*
X95665Y156739D01*
X93942Y156025D01*
X92392Y154989D01*
X91074Y153671D01*
X90038Y152121D01*
X89324Y150399D01*
X88961Y148570D01*
Y146706D01*
X89324Y144877D01*
X90038Y143155D01*
X91074Y141604D01*
X92392Y140286D01*
X93942Y139250D01*
X95665Y138537D01*
X97493Y138173D01*
X99357D01*
X101186Y138537D01*
X102908Y139250D01*
X104458Y140286D01*
X105777Y141604D01*
X106813Y143155D01*
X107526Y144877D01*
X107890Y146706D01*
Y148570D01*
X107526Y150399D01*
X106813Y152121D01*
X105777Y153671D01*
X104458Y154989D01*
X102908Y156025D01*
X101186Y156739D01*
X99357Y157102D01*
D02*
G37*
G36*
X103019Y122162D02*
X102153D01*
X101317Y121938D01*
X100567Y121506D01*
X99955Y120894D01*
X99523Y120144D01*
X99299Y119308D01*
Y118442D01*
X99523Y117606D01*
X99955Y116857D01*
X100567Y116244D01*
X101317Y115812D01*
X102153Y115588D01*
X103019D01*
X103855Y115812D01*
X104605Y116244D01*
X105217Y116857D01*
X105649Y117606D01*
X105874Y118442D01*
Y119308D01*
X105649Y120144D01*
X105217Y120894D01*
X104605Y121506D01*
X103855Y121938D01*
X103019Y122162D01*
D02*
G37*
%LPD*%
G36*
X100835Y155581D02*
X102338Y154958D01*
X103691Y154054D01*
X104841Y152903D01*
X105745Y151550D01*
X106368Y150047D01*
X106685Y148451D01*
Y146824D01*
X106368Y145228D01*
X105745Y143725D01*
X104841Y142372D01*
X103691Y141222D01*
X102338Y140318D01*
X100835Y139695D01*
X99239Y139377D01*
X97612D01*
X96016Y139695D01*
X94512Y140318D01*
X93160Y141222D01*
X92009Y142372D01*
X91105Y143725D01*
X90482Y145228D01*
X90165Y146824D01*
Y148451D01*
X90482Y150047D01*
X91105Y151550D01*
X92009Y152903D01*
X93160Y154054D01*
X94512Y154958D01*
X96016Y155581D01*
X97612Y155898D01*
X99239D01*
X100835Y155581D01*
D02*
G37*
D14*
X147638Y198819D02*
D03*
Y210630D02*
D03*
X167323Y198819D02*
D03*
Y210630D02*
D03*
D36*
X147638Y30079D02*
D03*
D37*
X137638D02*
D03*
X127638D02*
D03*
X117638D02*
D03*
X107638D02*
D03*
X97638D02*
D03*
X87638D02*
D03*
X77638D02*
D03*
X147638Y20079D02*
D03*
X137638D02*
D03*
X127638D02*
D03*
X117638D02*
D03*
X107638D02*
D03*
X97638D02*
D03*
X87638D02*
D03*
X77638D02*
D03*
D42*
X184843Y198819D02*
X188976Y194685D01*
X167323Y198819D02*
X184843D01*
X188976Y193012D02*
Y194685D01*
X147638Y198819D02*
X167323D01*
X182874Y50984D02*
X183071Y51181D01*
X131653Y153543D02*
Y156004D01*
Y153543D02*
X133858D01*
D43*
X108268Y41339D02*
Y96063D01*
X115945Y103740D01*
Y140748D01*
X180568Y41339D02*
X182874Y43645D01*
Y50984D01*
X107874Y41339D02*
X180568D01*
X111653Y156004D02*
X116654D01*
X115748Y140945D02*
Y152933D01*
X116063Y153248D02*
Y155413D01*
X115748Y152933D02*
X116063Y153248D01*
Y155413D02*
X116654Y156004D01*
X115748Y140945D02*
X115945Y140748D01*
X203248Y160630D02*
X208661D01*
X202165D02*
X203248D01*
X191008Y145295D02*
Y149472D01*
X190726Y145014D02*
X191008Y145295D01*
Y149472D02*
X202165Y160630D01*
X188976Y145014D02*
X190726D01*
X97638Y30079D02*
X107874Y40315D01*
X131260Y193504D02*
X131653Y193110D01*
X128740Y193504D02*
X131260D01*
X131653Y156004D02*
Y193110D01*
X126654Y156004D02*
X131653D01*
X159449Y183071D02*
X171529D01*
X171529Y183071D01*
X130945Y13386D02*
X137638Y20079D01*
X67661Y13386D02*
X130945D01*
X16142Y58661D02*
X28740Y46063D01*
X16142Y58661D02*
Y74016D01*
X28740Y46063D02*
X63048D01*
X65354Y15692D02*
Y43757D01*
X63048Y46063D02*
X65354Y43757D01*
Y15692D02*
X67661Y13386D01*
X97638Y20079D02*
Y30079D01*
D44*
X203248Y160630D02*
Y175689D01*
X202756Y176181D02*
X203248Y175689D01*
X143431Y154496D02*
X163413Y134514D01*
X202033D01*
X143431Y154496D02*
Y156496D01*
X143431Y156496D02*
Y183071D01*
Y156496D02*
X143431Y156496D01*
X202033Y134514D02*
X202165Y134646D01*
X208661D01*
X189764Y181791D02*
X193823D01*
X197579Y185547D01*
X211689Y181791D02*
X215748D01*
X216535Y181004D01*
X188976D02*
X189764Y181791D01*
X197579Y185547D02*
X207933D01*
X211689Y181791D01*
X171529Y182272D02*
Y183071D01*
X173092Y180709D02*
X188681D01*
X188976Y181004D01*
X171529Y182272D02*
X173092Y180709D01*
X171529Y156496D02*
Y183071D01*
Y156496D02*
X171529Y156496D01*
D45*
X115139Y93701D02*
X141828D01*
X142520Y51984D02*
Y93009D01*
X114961Y93523D02*
X115139Y93701D01*
X141828D02*
X142520Y93009D01*
X73228Y207587D02*
Y229623D01*
Y207587D02*
X73920Y206895D01*
X81294D01*
X82413Y201567D02*
Y205776D01*
X81294Y206895D02*
X82413Y205776D01*
X72536Y230315D02*
X73228Y229623D01*
X27559Y230315D02*
X72536D01*
X74803Y169983D02*
Y203639D01*
X75495Y204331D02*
X79381D01*
X79386Y204336D01*
X74803Y203639D02*
X75495Y204331D01*
X40173Y169291D02*
X74111D01*
X74803Y169983D01*
X216535Y181004D02*
X216634Y181102D01*
X124606Y193504D02*
X128740D01*
X171529Y156963D02*
X171653Y157087D01*
X171529Y156496D02*
Y156963D01*
X128347Y48330D02*
Y80709D01*
X121083Y87972D02*
X128347Y80709D01*
X129038Y47638D02*
X167418D01*
X128347Y48330D02*
X129038Y47638D01*
X167418D02*
X168110Y48330D01*
Y75984D01*
X114961Y87008D02*
X115279D01*
X116243Y87972D01*
X121083D01*
X216634Y181102D02*
X222441D01*
X56299Y55905D02*
X102064D01*
X102756Y56597D02*
Y70866D01*
X102064Y55905D02*
X102756Y56597D01*
X82413Y201567D02*
X82489Y201491D01*
X82499Y171081D02*
Y198342D01*
X70866Y159449D02*
X82499Y171081D01*
X63779Y159449D02*
X70866D01*
X116535Y204724D02*
Y219387D01*
X117621Y220472D01*
X119321Y187152D02*
Y202857D01*
X114961Y66535D02*
Y83465D01*
X80315Y90551D02*
Y103639D01*
X81007Y104331D01*
X97441D01*
X117621Y220472D02*
X174409D01*
D46*
X98425Y147638D02*
D03*
X220472Y273622D02*
D03*
X222441Y15748D02*
D03*
X13780D02*
D03*
X15748Y273622D02*
D03*
D47*
X202756Y195866D02*
D03*
D48*
Y176181D02*
D03*
D49*
X232284Y275591D02*
D03*
Y271654D02*
D03*
Y267717D02*
D03*
Y263780D02*
D03*
Y259843D02*
D03*
Y255906D02*
D03*
Y251969D02*
D03*
Y248032D02*
D03*
Y244095D02*
D03*
Y240158D02*
D03*
Y236221D02*
D03*
Y232284D02*
D03*
Y228347D02*
D03*
Y224410D02*
D03*
Y220473D02*
D03*
Y216536D02*
D03*
Y212599D02*
D03*
Y208662D02*
D03*
Y204725D02*
D03*
Y200788D02*
D03*
Y196851D02*
D03*
Y192914D02*
D03*
Y188977D02*
D03*
Y185040D02*
D03*
Y181103D02*
D03*
Y177166D02*
D03*
Y173229D02*
D03*
Y169292D02*
D03*
Y165355D02*
D03*
Y161417D02*
D03*
Y157481D02*
D03*
Y153543D02*
D03*
Y149607D02*
D03*
Y145669D02*
D03*
Y141733D02*
D03*
Y137795D02*
D03*
Y133859D02*
D03*
Y129921D02*
D03*
Y125984D02*
D03*
Y122047D02*
D03*
Y118110D02*
D03*
Y114173D02*
D03*
Y110236D02*
D03*
Y106299D02*
D03*
Y102362D02*
D03*
Y98425D02*
D03*
Y94488D02*
D03*
Y90551D02*
D03*
Y86614D02*
D03*
Y82677D02*
D03*
Y78740D02*
D03*
Y74803D02*
D03*
Y70866D02*
D03*
Y66929D02*
D03*
Y62992D02*
D03*
Y59055D02*
D03*
Y55118D02*
D03*
Y51181D02*
D03*
Y47244D02*
D03*
Y43307D02*
D03*
Y39370D02*
D03*
Y35433D02*
D03*
Y31496D02*
D03*
Y27559D02*
D03*
Y23622D02*
D03*
Y19685D02*
D03*
Y11811D02*
D03*
X228347Y263780D02*
D03*
Y259843D02*
D03*
Y255906D02*
D03*
Y251969D02*
D03*
Y248032D02*
D03*
Y244095D02*
D03*
Y240158D02*
D03*
Y236221D02*
D03*
Y232284D02*
D03*
Y228347D02*
D03*
Y224410D02*
D03*
Y220473D02*
D03*
Y216536D02*
D03*
Y212599D02*
D03*
Y208662D02*
D03*
Y204725D02*
D03*
Y200788D02*
D03*
Y196851D02*
D03*
Y192914D02*
D03*
Y188977D02*
D03*
Y185040D02*
D03*
Y181103D02*
D03*
Y177166D02*
D03*
Y173229D02*
D03*
Y169292D02*
D03*
Y165355D02*
D03*
Y161417D02*
D03*
Y157481D02*
D03*
Y153543D02*
D03*
Y149607D02*
D03*
Y145669D02*
D03*
Y141733D02*
D03*
Y137795D02*
D03*
Y133859D02*
D03*
Y129921D02*
D03*
Y125984D02*
D03*
Y122047D02*
D03*
Y118110D02*
D03*
Y114173D02*
D03*
Y110236D02*
D03*
Y106299D02*
D03*
Y102362D02*
D03*
Y98425D02*
D03*
Y94488D02*
D03*
Y90551D02*
D03*
Y86614D02*
D03*
Y82677D02*
D03*
Y78740D02*
D03*
Y74803D02*
D03*
Y70866D02*
D03*
Y66929D02*
D03*
Y62992D02*
D03*
Y59055D02*
D03*
Y55118D02*
D03*
Y51181D02*
D03*
Y47244D02*
D03*
Y43307D02*
D03*
Y39370D02*
D03*
Y35433D02*
D03*
Y31496D02*
D03*
Y27559D02*
D03*
X224410Y283465D02*
D03*
Y263780D02*
D03*
Y259843D02*
D03*
Y255906D02*
D03*
Y251969D02*
D03*
Y78740D02*
D03*
Y74803D02*
D03*
Y70866D02*
D03*
Y66929D02*
D03*
Y62992D02*
D03*
Y59055D02*
D03*
Y55118D02*
D03*
Y51181D02*
D03*
Y47244D02*
D03*
Y43307D02*
D03*
Y39370D02*
D03*
Y35433D02*
D03*
Y31496D02*
D03*
Y27559D02*
D03*
X220473Y78740D02*
D03*
Y74803D02*
D03*
Y70866D02*
D03*
Y66929D02*
D03*
Y62992D02*
D03*
Y59055D02*
D03*
Y55118D02*
D03*
Y51181D02*
D03*
Y47244D02*
D03*
Y43307D02*
D03*
Y39370D02*
D03*
Y35433D02*
D03*
Y31496D02*
D03*
Y27559D02*
D03*
Y3937D02*
D03*
X216536Y283465D02*
D03*
Y122047D02*
D03*
Y118110D02*
D03*
Y110236D02*
D03*
Y106299D02*
D03*
Y94488D02*
D03*
Y78740D02*
D03*
Y74803D02*
D03*
Y70866D02*
D03*
Y66929D02*
D03*
Y62992D02*
D03*
Y59055D02*
D03*
Y55118D02*
D03*
Y51181D02*
D03*
Y47244D02*
D03*
Y43307D02*
D03*
Y39370D02*
D03*
Y35433D02*
D03*
Y31496D02*
D03*
Y27559D02*
D03*
Y3937D02*
D03*
X212599Y283465D02*
D03*
Y122047D02*
D03*
Y106299D02*
D03*
Y94488D02*
D03*
Y78740D02*
D03*
Y74803D02*
D03*
Y70866D02*
D03*
Y66929D02*
D03*
Y62992D02*
D03*
Y59055D02*
D03*
Y55118D02*
D03*
Y51181D02*
D03*
Y47244D02*
D03*
Y43307D02*
D03*
Y39370D02*
D03*
Y35433D02*
D03*
Y31496D02*
D03*
Y27559D02*
D03*
Y23622D02*
D03*
Y19685D02*
D03*
Y11811D02*
D03*
Y7874D02*
D03*
Y3937D02*
D03*
X208662Y283465D02*
D03*
Y122047D02*
D03*
Y106299D02*
D03*
Y94488D02*
D03*
Y78740D02*
D03*
Y74803D02*
D03*
Y70866D02*
D03*
Y66929D02*
D03*
Y62992D02*
D03*
Y59055D02*
D03*
Y55118D02*
D03*
Y51181D02*
D03*
Y47244D02*
D03*
Y43307D02*
D03*
Y39370D02*
D03*
Y35433D02*
D03*
Y31496D02*
D03*
Y27559D02*
D03*
Y23622D02*
D03*
Y19685D02*
D03*
Y15748D02*
D03*
Y11811D02*
D03*
Y7874D02*
D03*
Y3937D02*
D03*
X204725Y283465D02*
D03*
Y122047D02*
D03*
Y106299D02*
D03*
Y94488D02*
D03*
Y78740D02*
D03*
Y74803D02*
D03*
Y70866D02*
D03*
Y66929D02*
D03*
Y62992D02*
D03*
Y59055D02*
D03*
Y55118D02*
D03*
Y51181D02*
D03*
Y47244D02*
D03*
Y43307D02*
D03*
Y39370D02*
D03*
Y35433D02*
D03*
Y31496D02*
D03*
Y27559D02*
D03*
Y23622D02*
D03*
Y19685D02*
D03*
Y15748D02*
D03*
Y11811D02*
D03*
Y7874D02*
D03*
Y3937D02*
D03*
X200788Y283465D02*
D03*
Y122047D02*
D03*
Y106299D02*
D03*
Y94488D02*
D03*
Y78740D02*
D03*
Y74803D02*
D03*
Y70866D02*
D03*
Y66929D02*
D03*
Y62992D02*
D03*
Y59055D02*
D03*
Y55118D02*
D03*
Y51181D02*
D03*
Y47244D02*
D03*
Y43307D02*
D03*
Y39370D02*
D03*
Y35433D02*
D03*
Y31496D02*
D03*
Y27559D02*
D03*
Y23622D02*
D03*
Y19685D02*
D03*
Y15748D02*
D03*
Y11811D02*
D03*
Y7874D02*
D03*
Y3937D02*
D03*
X196851Y283465D02*
D03*
Y31496D02*
D03*
Y27559D02*
D03*
Y23622D02*
D03*
Y19685D02*
D03*
Y15748D02*
D03*
Y11811D02*
D03*
Y7874D02*
D03*
Y3937D02*
D03*
X192914Y283465D02*
D03*
Y27559D02*
D03*
Y23622D02*
D03*
Y19685D02*
D03*
Y15748D02*
D03*
Y11811D02*
D03*
Y7874D02*
D03*
Y3937D02*
D03*
X188977Y283465D02*
D03*
Y23622D02*
D03*
Y19685D02*
D03*
Y15748D02*
D03*
Y11811D02*
D03*
Y7874D02*
D03*
Y3937D02*
D03*
X185040Y283465D02*
D03*
Y66929D02*
D03*
Y62992D02*
D03*
Y19685D02*
D03*
Y15748D02*
D03*
Y11811D02*
D03*
Y7874D02*
D03*
Y3937D02*
D03*
X181103Y283465D02*
D03*
Y66929D02*
D03*
Y62992D02*
D03*
Y15748D02*
D03*
Y11811D02*
D03*
Y7874D02*
D03*
Y3937D02*
D03*
X177166Y283465D02*
D03*
Y251969D02*
D03*
Y248032D02*
D03*
Y66929D02*
D03*
Y62992D02*
D03*
Y31496D02*
D03*
Y11811D02*
D03*
Y7874D02*
D03*
Y3937D02*
D03*
X173229Y283465D02*
D03*
Y251969D02*
D03*
Y248032D02*
D03*
Y31496D02*
D03*
Y27559D02*
D03*
Y7874D02*
D03*
Y3937D02*
D03*
X169292Y283465D02*
D03*
Y251969D02*
D03*
Y248032D02*
D03*
Y31496D02*
D03*
Y27559D02*
D03*
Y23622D02*
D03*
Y3937D02*
D03*
X165355Y283465D02*
D03*
Y248032D02*
D03*
Y31496D02*
D03*
Y27559D02*
D03*
Y23622D02*
D03*
Y19685D02*
D03*
Y3937D02*
D03*
X161418Y283465D02*
D03*
Y248032D02*
D03*
Y62992D02*
D03*
Y59055D02*
D03*
Y55118D02*
D03*
Y51181D02*
D03*
Y31496D02*
D03*
Y27559D02*
D03*
Y23622D02*
D03*
Y19685D02*
D03*
Y3937D02*
D03*
X157481Y283465D02*
D03*
Y248032D02*
D03*
Y51181D02*
D03*
Y3937D02*
D03*
X153544Y283465D02*
D03*
Y248032D02*
D03*
Y3937D02*
D03*
X149607Y283465D02*
D03*
Y248032D02*
D03*
Y244095D02*
D03*
Y3937D02*
D03*
X145669Y283465D02*
D03*
Y248032D02*
D03*
Y3937D02*
D03*
X141733Y283465D02*
D03*
Y23622D02*
D03*
Y3937D02*
D03*
X137795Y283465D02*
D03*
Y3937D02*
D03*
X133859Y283465D02*
D03*
Y248032D02*
D03*
Y244095D02*
D03*
Y3937D02*
D03*
X129921Y283465D02*
D03*
Y110236D02*
D03*
Y3937D02*
D03*
X125985Y283465D02*
D03*
Y165355D02*
D03*
Y110236D02*
D03*
Y3937D02*
D03*
X122047Y283465D02*
D03*
Y248032D02*
D03*
Y244095D02*
D03*
Y169292D02*
D03*
Y165355D02*
D03*
Y23622D02*
D03*
Y3937D02*
D03*
X118111Y283465D02*
D03*
Y248032D02*
D03*
Y244095D02*
D03*
Y240158D02*
D03*
Y173229D02*
D03*
Y169292D02*
D03*
Y165355D02*
D03*
Y3937D02*
D03*
X114173Y283465D02*
D03*
Y259843D02*
D03*
Y255906D02*
D03*
Y251969D02*
D03*
Y248032D02*
D03*
Y244095D02*
D03*
Y3937D02*
D03*
X110236Y283465D02*
D03*
Y259843D02*
D03*
Y255906D02*
D03*
Y251969D02*
D03*
Y248032D02*
D03*
Y244095D02*
D03*
Y177166D02*
D03*
Y3937D02*
D03*
X106299Y283465D02*
D03*
Y259843D02*
D03*
Y255906D02*
D03*
Y251969D02*
D03*
Y248032D02*
D03*
Y244095D02*
D03*
Y177166D02*
D03*
Y3937D02*
D03*
X102362Y283465D02*
D03*
Y244095D02*
D03*
Y240158D02*
D03*
Y188977D02*
D03*
Y185040D02*
D03*
Y181103D02*
D03*
Y177166D02*
D03*
Y173229D02*
D03*
Y169292D02*
D03*
Y23622D02*
D03*
Y3937D02*
D03*
X98425Y283465D02*
D03*
Y244095D02*
D03*
Y240158D02*
D03*
Y188977D02*
D03*
Y185040D02*
D03*
Y181103D02*
D03*
Y177166D02*
D03*
Y173229D02*
D03*
Y169292D02*
D03*
Y74803D02*
D03*
Y3937D02*
D03*
X94488Y283465D02*
D03*
Y259843D02*
D03*
Y255906D02*
D03*
Y251969D02*
D03*
Y248032D02*
D03*
Y244095D02*
D03*
Y240158D02*
D03*
Y188977D02*
D03*
Y185040D02*
D03*
Y181103D02*
D03*
Y177166D02*
D03*
Y173229D02*
D03*
Y169292D02*
D03*
Y3937D02*
D03*
X90551Y283465D02*
D03*
Y259843D02*
D03*
Y255906D02*
D03*
Y251969D02*
D03*
Y248032D02*
D03*
Y244095D02*
D03*
Y177166D02*
D03*
Y3937D02*
D03*
X86614Y283465D02*
D03*
Y259843D02*
D03*
Y255906D02*
D03*
Y251969D02*
D03*
Y248032D02*
D03*
Y244095D02*
D03*
Y3937D02*
D03*
X82677Y283465D02*
D03*
Y259843D02*
D03*
Y255906D02*
D03*
Y251969D02*
D03*
Y248032D02*
D03*
Y161417D02*
D03*
Y157481D02*
D03*
Y153543D02*
D03*
Y149607D02*
D03*
Y145669D02*
D03*
Y141733D02*
D03*
Y137795D02*
D03*
Y133859D02*
D03*
Y59055D02*
D03*
Y27559D02*
D03*
Y23622D02*
D03*
Y3937D02*
D03*
X78740Y283465D02*
D03*
Y259843D02*
D03*
Y255906D02*
D03*
Y251969D02*
D03*
Y248032D02*
D03*
Y157481D02*
D03*
Y153543D02*
D03*
Y149607D02*
D03*
Y145669D02*
D03*
Y141733D02*
D03*
Y137795D02*
D03*
Y133859D02*
D03*
Y59055D02*
D03*
Y3937D02*
D03*
X74803Y283465D02*
D03*
Y259843D02*
D03*
Y255906D02*
D03*
Y251969D02*
D03*
Y248032D02*
D03*
Y153543D02*
D03*
Y149607D02*
D03*
Y145669D02*
D03*
Y3937D02*
D03*
X70866Y283465D02*
D03*
Y251969D02*
D03*
Y248032D02*
D03*
Y149607D02*
D03*
Y145669D02*
D03*
Y3937D02*
D03*
X66929Y283465D02*
D03*
Y251969D02*
D03*
Y248032D02*
D03*
Y177166D02*
D03*
Y173229D02*
D03*
Y149607D02*
D03*
Y7874D02*
D03*
Y3937D02*
D03*
X62992Y283465D02*
D03*
Y251969D02*
D03*
Y248032D02*
D03*
Y149607D02*
D03*
Y11811D02*
D03*
Y7874D02*
D03*
Y3937D02*
D03*
X59055Y283465D02*
D03*
Y251969D02*
D03*
Y248032D02*
D03*
Y165355D02*
D03*
Y149607D02*
D03*
Y39370D02*
D03*
Y35433D02*
D03*
Y31496D02*
D03*
Y27559D02*
D03*
Y23622D02*
D03*
Y19685D02*
D03*
Y15748D02*
D03*
Y11811D02*
D03*
Y7874D02*
D03*
Y3937D02*
D03*
X55118Y283465D02*
D03*
Y251969D02*
D03*
Y248032D02*
D03*
Y165355D02*
D03*
Y161417D02*
D03*
Y149607D02*
D03*
Y145669D02*
D03*
Y39370D02*
D03*
Y35433D02*
D03*
Y31496D02*
D03*
Y27559D02*
D03*
Y23622D02*
D03*
Y19685D02*
D03*
Y15748D02*
D03*
Y11811D02*
D03*
Y7874D02*
D03*
Y3937D02*
D03*
X51181Y283465D02*
D03*
Y248032D02*
D03*
Y165355D02*
D03*
Y161417D02*
D03*
Y149607D02*
D03*
Y145669D02*
D03*
Y55118D02*
D03*
Y39370D02*
D03*
Y35433D02*
D03*
Y31496D02*
D03*
Y27559D02*
D03*
Y23622D02*
D03*
Y19685D02*
D03*
Y15748D02*
D03*
Y11811D02*
D03*
Y7874D02*
D03*
Y3937D02*
D03*
X47244Y283465D02*
D03*
Y165355D02*
D03*
Y161417D02*
D03*
Y149607D02*
D03*
Y145669D02*
D03*
Y55118D02*
D03*
Y39370D02*
D03*
Y35433D02*
D03*
Y31496D02*
D03*
Y27559D02*
D03*
Y23622D02*
D03*
Y19685D02*
D03*
Y15748D02*
D03*
Y11811D02*
D03*
Y7874D02*
D03*
Y3937D02*
D03*
X43307Y283465D02*
D03*
Y165355D02*
D03*
Y161417D02*
D03*
Y149607D02*
D03*
Y145669D02*
D03*
Y59055D02*
D03*
Y55118D02*
D03*
Y39370D02*
D03*
Y35433D02*
D03*
Y31496D02*
D03*
Y27559D02*
D03*
Y23622D02*
D03*
Y19685D02*
D03*
Y15748D02*
D03*
Y11811D02*
D03*
Y7874D02*
D03*
Y3937D02*
D03*
X39370Y283465D02*
D03*
Y248032D02*
D03*
Y161417D02*
D03*
Y149607D02*
D03*
Y145669D02*
D03*
Y59055D02*
D03*
Y39370D02*
D03*
Y35433D02*
D03*
Y31496D02*
D03*
Y27559D02*
D03*
Y23622D02*
D03*
Y19685D02*
D03*
Y15748D02*
D03*
Y11811D02*
D03*
Y7874D02*
D03*
Y3937D02*
D03*
X35433Y283465D02*
D03*
Y39370D02*
D03*
Y35433D02*
D03*
Y31496D02*
D03*
Y27559D02*
D03*
Y23622D02*
D03*
Y19685D02*
D03*
Y15748D02*
D03*
Y11811D02*
D03*
Y7874D02*
D03*
Y3937D02*
D03*
X31496Y283465D02*
D03*
Y39370D02*
D03*
Y35433D02*
D03*
Y31496D02*
D03*
Y27559D02*
D03*
Y23622D02*
D03*
Y19685D02*
D03*
Y15748D02*
D03*
Y11811D02*
D03*
Y7874D02*
D03*
Y3937D02*
D03*
X27559Y283465D02*
D03*
Y169292D02*
D03*
Y165355D02*
D03*
Y161417D02*
D03*
Y157481D02*
D03*
Y153543D02*
D03*
Y149607D02*
D03*
Y145669D02*
D03*
Y55118D02*
D03*
Y39370D02*
D03*
Y35433D02*
D03*
Y31496D02*
D03*
Y27559D02*
D03*
Y23622D02*
D03*
Y19685D02*
D03*
Y15748D02*
D03*
Y11811D02*
D03*
Y7874D02*
D03*
Y3937D02*
D03*
X23622Y283465D02*
D03*
Y177166D02*
D03*
Y173229D02*
D03*
Y169292D02*
D03*
Y165355D02*
D03*
Y161417D02*
D03*
Y157481D02*
D03*
Y153543D02*
D03*
Y149607D02*
D03*
Y145669D02*
D03*
Y43307D02*
D03*
Y39370D02*
D03*
Y35433D02*
D03*
Y31496D02*
D03*
Y27559D02*
D03*
Y23622D02*
D03*
Y19685D02*
D03*
Y11811D02*
D03*
Y7874D02*
D03*
Y3937D02*
D03*
X19685Y283465D02*
D03*
Y177166D02*
D03*
Y173229D02*
D03*
Y169292D02*
D03*
Y165355D02*
D03*
Y161417D02*
D03*
Y157481D02*
D03*
Y153543D02*
D03*
Y149607D02*
D03*
Y145669D02*
D03*
Y47244D02*
D03*
Y43307D02*
D03*
Y39370D02*
D03*
Y35433D02*
D03*
Y31496D02*
D03*
Y27559D02*
D03*
Y3937D02*
D03*
X15748Y177166D02*
D03*
Y173229D02*
D03*
Y169292D02*
D03*
Y165355D02*
D03*
Y161417D02*
D03*
Y157481D02*
D03*
Y153543D02*
D03*
Y149607D02*
D03*
Y145669D02*
D03*
Y51181D02*
D03*
Y47244D02*
D03*
Y43307D02*
D03*
Y39370D02*
D03*
Y35433D02*
D03*
Y31496D02*
D03*
Y27559D02*
D03*
Y3937D02*
D03*
X11811Y283465D02*
D03*
Y177166D02*
D03*
Y173229D02*
D03*
Y169292D02*
D03*
Y165355D02*
D03*
Y161417D02*
D03*
Y157481D02*
D03*
Y153543D02*
D03*
Y149607D02*
D03*
Y145669D02*
D03*
Y102362D02*
D03*
Y98425D02*
D03*
Y55118D02*
D03*
Y51181D02*
D03*
Y47244D02*
D03*
Y43307D02*
D03*
Y39370D02*
D03*
Y35433D02*
D03*
Y31496D02*
D03*
Y27559D02*
D03*
Y3937D02*
D03*
X7874Y263780D02*
D03*
Y259843D02*
D03*
Y255906D02*
D03*
Y251969D02*
D03*
Y248032D02*
D03*
Y244095D02*
D03*
Y240158D02*
D03*
Y236221D02*
D03*
Y232284D02*
D03*
Y228347D02*
D03*
Y224410D02*
D03*
Y220473D02*
D03*
Y216536D02*
D03*
Y212599D02*
D03*
Y208662D02*
D03*
Y204725D02*
D03*
Y200788D02*
D03*
Y196851D02*
D03*
Y192914D02*
D03*
Y188977D02*
D03*
Y185040D02*
D03*
Y181103D02*
D03*
Y177166D02*
D03*
Y173229D02*
D03*
Y169292D02*
D03*
Y165355D02*
D03*
Y161417D02*
D03*
Y157481D02*
D03*
Y153543D02*
D03*
Y149607D02*
D03*
Y145669D02*
D03*
Y141733D02*
D03*
Y137795D02*
D03*
Y133859D02*
D03*
Y129921D02*
D03*
Y125984D02*
D03*
Y122047D02*
D03*
Y118110D02*
D03*
Y114173D02*
D03*
Y110236D02*
D03*
Y106299D02*
D03*
Y102362D02*
D03*
Y98425D02*
D03*
Y94488D02*
D03*
Y90551D02*
D03*
Y86614D02*
D03*
Y82677D02*
D03*
Y78740D02*
D03*
Y74803D02*
D03*
Y70866D02*
D03*
Y66929D02*
D03*
Y62992D02*
D03*
Y59055D02*
D03*
Y55118D02*
D03*
Y51181D02*
D03*
Y47244D02*
D03*
Y43307D02*
D03*
Y39370D02*
D03*
Y35433D02*
D03*
Y31496D02*
D03*
Y27559D02*
D03*
X3937Y275591D02*
D03*
Y271654D02*
D03*
Y267717D02*
D03*
Y263780D02*
D03*
Y259843D02*
D03*
Y255906D02*
D03*
Y251969D02*
D03*
Y248032D02*
D03*
Y244095D02*
D03*
Y240158D02*
D03*
Y236221D02*
D03*
Y232284D02*
D03*
Y228347D02*
D03*
Y224410D02*
D03*
Y220473D02*
D03*
Y216536D02*
D03*
Y212599D02*
D03*
Y208662D02*
D03*
Y204725D02*
D03*
Y200788D02*
D03*
Y196851D02*
D03*
Y192914D02*
D03*
Y188977D02*
D03*
Y185040D02*
D03*
Y181103D02*
D03*
Y177166D02*
D03*
Y173229D02*
D03*
Y169292D02*
D03*
Y165355D02*
D03*
Y161417D02*
D03*
Y157481D02*
D03*
Y153543D02*
D03*
Y149607D02*
D03*
Y145669D02*
D03*
Y141733D02*
D03*
Y137795D02*
D03*
Y133859D02*
D03*
Y129921D02*
D03*
Y125984D02*
D03*
Y122047D02*
D03*
Y118110D02*
D03*
Y114173D02*
D03*
Y110236D02*
D03*
Y106299D02*
D03*
Y102362D02*
D03*
Y98425D02*
D03*
Y94488D02*
D03*
Y90551D02*
D03*
Y86614D02*
D03*
Y82677D02*
D03*
Y78740D02*
D03*
Y74803D02*
D03*
Y70866D02*
D03*
Y66929D02*
D03*
Y62992D02*
D03*
Y59055D02*
D03*
Y55118D02*
D03*
Y51181D02*
D03*
Y47244D02*
D03*
Y43307D02*
D03*
Y39370D02*
D03*
Y35433D02*
D03*
Y31496D02*
D03*
Y27559D02*
D03*
Y23622D02*
D03*
Y19685D02*
D03*
Y11811D02*
D03*
X47638Y227165D02*
D03*
X90158Y72835D02*
D03*
X173229Y216536D02*
D03*
X78616Y211067D02*
D03*
X56299Y55905D02*
D03*
Y52756D02*
D03*
X142520Y51984D02*
D03*
X145669Y51968D02*
D03*
X54331Y178740D02*
D03*
Y175197D02*
D03*
X82489Y201491D02*
D03*
X79134Y200787D02*
D03*
X79386Y204336D02*
D03*
X79134Y196850D02*
D03*
X176378Y217323D02*
D03*
X79134Y214173D02*
D03*
X168110Y79134D02*
D03*
Y75984D02*
D03*
X23228Y85827D02*
D03*
Y88976D02*
D03*
X119685Y206102D02*
D03*
X82499Y198342D02*
D03*
X59055Y161417D02*
D03*
X39370Y165354D02*
D03*
X116535Y204724D02*
D03*
X119351Y202887D02*
D03*
X116142Y187795D02*
D03*
X107524Y190878D02*
D03*
X102756Y74016D02*
D03*
X77165Y90551D02*
D03*
X100787Y104331D02*
D03*
X114961Y62992D02*
D03*
X117717Y81890D02*
D03*
X114961Y83465D02*
D03*
Y87008D02*
D03*
X117717Y85039D02*
D03*
X77165Y85827D02*
D03*
X63779Y159449D02*
D03*
X40173Y169291D02*
D03*
X27559Y226772D02*
D03*
Y230315D02*
D03*
X105810Y193521D02*
D03*
X174409Y220472D02*
D03*
X119291Y187122D02*
D03*
X114961Y93523D02*
D03*
Y66535D02*
D03*
X80315Y85827D02*
D03*
X102756Y70866D02*
D03*
X80315Y90551D02*
D03*
X97441Y104331D02*
D03*
D50*
X226575Y270051D02*
D03*
X226616Y277122D02*
D03*
X224043Y279725D02*
D03*
X220514Y280693D02*
D03*
X213402Y273663D02*
D03*
X22819Y273581D02*
D03*
X220431Y266551D02*
D03*
X222482Y22819D02*
D03*
X20850Y15707D02*
D03*
X215370Y15789D02*
D03*
X13821Y22819D02*
D03*
X13738Y8677D02*
D03*
X222400D02*
D03*
X17279Y9604D02*
D03*
X225941D02*
D03*
X218870Y9645D02*
D03*
X10209D02*
D03*
X228544Y12177D02*
D03*
X19882D02*
D03*
X216297Y12248D02*
D03*
X7636D02*
D03*
X229512Y15707D02*
D03*
X6709Y15789D02*
D03*
X19924Y19248D02*
D03*
X228585D02*
D03*
X216338Y19319D02*
D03*
X7677D02*
D03*
X226012Y21851D02*
D03*
X17351D02*
D03*
X218941Y21892D02*
D03*
X10280D02*
D03*
X98384Y140567D02*
D03*
X101925Y141494D02*
D03*
X104528Y144067D02*
D03*
X105496Y147597D02*
D03*
X104569Y151137D02*
D03*
X101996Y153741D02*
D03*
X98466Y154709D02*
D03*
X94926Y153782D02*
D03*
X92322Y151209D02*
D03*
X91355Y147679D02*
D03*
X92281Y144138D02*
D03*
X94854Y141535D02*
D03*
X223972Y267478D02*
D03*
X227543Y273581D02*
D03*
X216973Y279766D02*
D03*
X214370Y277193D02*
D03*
X214329Y270122D02*
D03*
X216901Y267519D02*
D03*
X12177D02*
D03*
X9604Y270122D02*
D03*
X8677Y273663D02*
D03*
X9645Y277193D02*
D03*
X12248Y279766D02*
D03*
X15789Y280693D02*
D03*
X19319Y279725D02*
D03*
X21892Y277122D02*
D03*
X21851Y270051D02*
D03*
X19248Y267478D02*
D03*
X15707Y266551D02*
D03*
D51*
X39370Y188976D02*
D03*
X144488Y205512D02*
D03*
X102586Y118875D02*
D03*
X68504Y127559D02*
D03*
X110827Y231299D02*
D03*
X133858Y153543D02*
D03*
X159449Y183071D02*
D03*
X135827Y87795D02*
D03*
X172835Y238189D02*
D03*
D52*
X174803Y127165D02*
D03*
X222441Y82284D02*
D03*
Y181102D02*
D03*
X183071Y51181D02*
D03*
X16142Y74016D02*
D03*
X179134Y114173D02*
D03*
X172835Y97638D02*
D03*
X137795Y35433D02*
D03*
D53*
X128740Y208858D02*
D03*
Y193504D02*
D03*
D54*
X171529Y156496D02*
D03*
X143431D02*
D03*
X171529Y183071D02*
D03*
X143431D02*
D03*
D55*
X188976Y145014D02*
D03*
Y134514D02*
D03*
D56*
X208661Y160630D02*
D03*
Y134646D02*
D03*
D57*
X216535Y181004D02*
D03*
Y193012D02*
D03*
X188976Y181004D02*
D03*
Y193012D02*
D03*
D58*
X131653Y156004D02*
D03*
X126654D02*
D03*
X121653D02*
D03*
X116654D02*
D03*
X111653D02*
D03*
D59*
X121653Y179823D02*
D03*
D60*
X115945Y140748D02*
D03*
X131299D02*
D03*
D61*
X90930Y211067D02*
X92520Y209477D01*
X78616Y211067D02*
X90930D01*
X92520Y193521D02*
Y209477D01*
X34224Y175197D02*
X54331D01*
X33071Y174044D02*
X34224Y175197D01*
Y156283D02*
X71244D01*
X33071Y157437D02*
X34224Y156283D01*
X33071Y157437D02*
Y174044D01*
X144488Y206332D02*
X145079Y206923D01*
X146063Y210630D02*
X147638D01*
X145079Y209646D02*
X146063Y210630D01*
X145079Y206923D02*
Y209646D01*
X144488Y205512D02*
Y206332D01*
X71244Y156283D02*
X85039Y170079D01*
Y192368D01*
X86193Y193521D02*
X92520D01*
X85039Y192368D02*
X86193Y193521D01*
X147638Y210630D02*
X167323D01*
X92520Y193521D02*
X105810D01*
X92520Y193521D02*
X92520Y193521D01*
X23228Y63752D02*
Y85827D01*
X24382Y62598D02*
X79162D01*
X23228Y63752D02*
X24382Y62598D01*
X80315Y63752D02*
Y85827D01*
X79162Y62598D02*
X80315Y63752D01*
M02*
