G04*
G04 #@! TF.GenerationSoftware,Altium Limited,Altium Designer,25.3.2 (17)*
G04*
G04 Layer_Color=8388736*
%FSLAX25Y25*%
%MOIN*%
G70*
G04*
G04 #@! TF.SameCoordinates,DFD58F72-5230-4211-8425-633F0AFCE8D5*
G04*
G04*
G04 #@! TF.FilePolarity,Negative*
G04*
G01*
G75*
%ADD14R,0.07087X0.03937*%
%ADD15R,0.12598X0.06299*%
%ADD18R,0.06299X0.12598*%
%ADD21R,0.04724X0.04724*%
%ADD23R,0.06693X0.03740*%
%ADD24R,0.12598X0.06772*%
%ADD25R,0.22441X0.06299*%
%ADD26R,0.10236X0.17717*%
%ADD27R,0.05721X0.06706*%
%ADD28R,0.06509X0.02572*%
%ADD29R,0.11587X0.15997*%
%ADD30R,0.06706X0.05721*%
%ADD31R,0.05721X0.07099*%
%ADD32R,0.07099X0.05721*%
%ADD33C,0.17729*%
%ADD34C,0.09658*%
G04:AMPARAMS|DCode=35|XSize=96.58mil|YSize=96.58mil|CornerRadius=26.15mil|HoleSize=0mil|Usage=FLASHONLY|Rotation=90.000|XOffset=0mil|YOffset=0mil|HoleType=Round|Shape=RoundedRectangle|*
%AMROUNDEDRECTD35*
21,1,0.09658,0.04429,0,0,90.0*
21,1,0.04429,0.09658,0,0,90.0*
1,1,0.05229,0.02215,0.02215*
1,1,0.05229,0.02215,-0.02215*
1,1,0.05229,-0.02215,-0.02215*
1,1,0.05229,-0.02215,0.02215*
%
%ADD35ROUNDEDRECTD35*%
%ADD36R,0.06102X0.06102*%
%ADD37C,0.06102*%
%ADD38C,0.02375*%
%ADD39C,0.03162*%
%ADD40C,0.05800*%
%ADD41C,0.04737*%
D14*
X16535Y70472D02*
D03*
Y58661D02*
D03*
X27559Y70866D02*
D03*
Y59055D02*
D03*
X132874Y137795D02*
D03*
Y125984D02*
D03*
X121063Y137795D02*
D03*
Y125984D02*
D03*
X127953Y256890D02*
D03*
Y245079D02*
D03*
X140748Y256890D02*
D03*
Y245079D02*
D03*
X33465Y247047D02*
D03*
Y258858D02*
D03*
X45276Y247047D02*
D03*
Y258858D02*
D03*
D15*
X189961Y57087D02*
D03*
X170276D02*
D03*
X176181Y187992D02*
D03*
X156496D02*
D03*
X147638Y138779D02*
D03*
X167323D02*
D03*
X155512Y257874D02*
D03*
X175197D02*
D03*
D18*
X204724Y218504D02*
D03*
Y238189D02*
D03*
X99410Y252165D02*
D03*
Y271850D02*
D03*
X33465Y138779D02*
D03*
Y119095D02*
D03*
D21*
X204528Y139764D02*
D03*
X212795D02*
D03*
Y126969D02*
D03*
X204528D02*
D03*
X212795Y88583D02*
D03*
X204528D02*
D03*
Y114173D02*
D03*
X212795D02*
D03*
Y101378D02*
D03*
X204528D02*
D03*
D23*
X108268Y66535D02*
D03*
Y55512D02*
D03*
X86614Y66535D02*
D03*
Y55512D02*
D03*
X88583Y183661D02*
D03*
Y172638D02*
D03*
X110236Y183661D02*
D03*
Y172638D02*
D03*
D24*
X157480Y94665D02*
D03*
Y119902D02*
D03*
X62992Y116319D02*
D03*
Y141555D02*
D03*
X161417Y212776D02*
D03*
Y238012D02*
D03*
X64961Y233445D02*
D03*
Y258681D02*
D03*
D25*
X128937Y98032D02*
D03*
Y116535D02*
D03*
Y76575D02*
D03*
Y58071D02*
D03*
X133858Y196260D02*
D03*
Y177756D02*
D03*
Y218110D02*
D03*
Y236614D02*
D03*
D26*
X69882Y87598D02*
D03*
X38386D02*
D03*
X71299Y203740D02*
D03*
X39803D02*
D03*
D27*
X129724Y89567D02*
D03*
X121457D02*
D03*
X63779Y166339D02*
D03*
X72047D02*
D03*
X195079Y88583D02*
D03*
X186811D02*
D03*
X195079Y139764D02*
D03*
X186811D02*
D03*
X195079Y126969D02*
D03*
X186811D02*
D03*
X195079Y114173D02*
D03*
X186811D02*
D03*
X195079Y101378D02*
D03*
X186811D02*
D03*
X72047Y62008D02*
D03*
X63779D02*
D03*
X56299D02*
D03*
X48031D02*
D03*
X40157Y176181D02*
D03*
X48425D02*
D03*
X42126Y239173D02*
D03*
X33858D02*
D03*
Y230315D02*
D03*
X42126D02*
D03*
X124606Y206693D02*
D03*
X132874D02*
D03*
D28*
X85925Y98428D02*
D03*
Y95869D02*
D03*
Y93310D02*
D03*
Y90751D02*
D03*
Y88192D02*
D03*
Y85633D02*
D03*
Y83074D02*
D03*
Y80515D02*
D03*
Y77956D02*
D03*
Y75397D02*
D03*
X108957D02*
D03*
Y77956D02*
D03*
Y80515D02*
D03*
Y83074D02*
D03*
Y85633D02*
D03*
Y88192D02*
D03*
Y90751D02*
D03*
Y93310D02*
D03*
Y95869D02*
D03*
Y98428D02*
D03*
X110925Y214570D02*
D03*
Y212011D02*
D03*
Y209452D02*
D03*
Y206893D02*
D03*
Y204334D02*
D03*
Y201775D02*
D03*
Y199216D02*
D03*
Y196657D02*
D03*
Y194098D02*
D03*
Y191539D02*
D03*
X87894D02*
D03*
Y194098D02*
D03*
Y196657D02*
D03*
Y199216D02*
D03*
Y201775D02*
D03*
Y204334D02*
D03*
Y206893D02*
D03*
Y209452D02*
D03*
Y212011D02*
D03*
Y214570D02*
D03*
D29*
X97441Y86913D02*
D03*
X99410Y203054D02*
D03*
D30*
Y233661D02*
D03*
Y225394D02*
D03*
X149606Y67716D02*
D03*
Y75984D02*
D03*
X160433D02*
D03*
Y67716D02*
D03*
X97441Y56890D02*
D03*
Y65158D02*
D03*
Y119147D02*
D03*
Y110879D02*
D03*
X16732Y93307D02*
D03*
Y101575D02*
D03*
Y77559D02*
D03*
Y85827D02*
D03*
X181102Y238386D02*
D03*
Y230118D02*
D03*
Y220669D02*
D03*
Y212402D02*
D03*
X30512Y184252D02*
D03*
Y175984D02*
D03*
D31*
X136221Y50000D02*
D03*
X122835D02*
D03*
X61221Y175197D02*
D03*
X74606D02*
D03*
D32*
X108661Y109449D02*
D03*
Y122835D02*
D03*
X86221Y109449D02*
D03*
Y122835D02*
D03*
X110630Y225197D02*
D03*
Y238583D02*
D03*
X88189Y225197D02*
D03*
Y238583D02*
D03*
D33*
X98425Y147638D02*
D03*
X220472Y273622D02*
D03*
X222441Y15748D02*
D03*
X13780D02*
D03*
X15748Y273622D02*
D03*
D34*
X202756Y195866D02*
D03*
D35*
Y176181D02*
D03*
D36*
X147638Y30079D02*
D03*
D37*
X137638D02*
D03*
X127638D02*
D03*
X117638D02*
D03*
X107638D02*
D03*
X97638D02*
D03*
X87638D02*
D03*
X77638D02*
D03*
X147638Y20079D02*
D03*
X137638D02*
D03*
X127638D02*
D03*
X117638D02*
D03*
X107638D02*
D03*
X97638D02*
D03*
X87638D02*
D03*
X77638D02*
D03*
D38*
X226575Y270051D02*
D03*
X226616Y277122D02*
D03*
X224043Y279725D02*
D03*
X220514Y280693D02*
D03*
X213402Y273663D02*
D03*
X22819Y273581D02*
D03*
X220431Y266551D02*
D03*
X222482Y22819D02*
D03*
X20850Y15707D02*
D03*
X215370Y15789D02*
D03*
X13821Y22819D02*
D03*
X13738Y8677D02*
D03*
X222400D02*
D03*
X17279Y9604D02*
D03*
X225941D02*
D03*
X218870Y9645D02*
D03*
X10209D02*
D03*
X228544Y12177D02*
D03*
X19882D02*
D03*
X216297Y12248D02*
D03*
X7636D02*
D03*
X229512Y15707D02*
D03*
X6709Y15789D02*
D03*
X19924Y19248D02*
D03*
X228585D02*
D03*
X216338Y19319D02*
D03*
X7677D02*
D03*
X226012Y21851D02*
D03*
X17351D02*
D03*
X218941Y21892D02*
D03*
X10280D02*
D03*
X98384Y140567D02*
D03*
X101925Y141494D02*
D03*
X104528Y144067D02*
D03*
X105496Y147597D02*
D03*
X104569Y151137D02*
D03*
X101996Y153741D02*
D03*
X98466Y154709D02*
D03*
X94926Y153782D02*
D03*
X92322Y151209D02*
D03*
X91355Y147679D02*
D03*
X92281Y144138D02*
D03*
X94854Y141535D02*
D03*
X223972Y267478D02*
D03*
X227543Y273581D02*
D03*
X216973Y279766D02*
D03*
X214370Y277193D02*
D03*
X214329Y270122D02*
D03*
X216901Y267519D02*
D03*
X12177D02*
D03*
X9604Y270122D02*
D03*
X8677Y273663D02*
D03*
X9645Y277193D02*
D03*
X12248Y279766D02*
D03*
X15789Y280693D02*
D03*
X19319Y279725D02*
D03*
X21892Y277122D02*
D03*
X21851Y270051D02*
D03*
X19248Y267478D02*
D03*
X15707Y266551D02*
D03*
D39*
X47638Y227165D02*
D03*
X90158Y72835D02*
D03*
X78616Y211067D02*
D03*
X56299Y55905D02*
D03*
Y52756D02*
D03*
X142520Y51984D02*
D03*
X145669Y51968D02*
D03*
X54331Y178740D02*
D03*
Y175197D02*
D03*
X82489Y201491D02*
D03*
X79134Y200787D02*
D03*
X79386Y204336D02*
D03*
X79134Y196850D02*
D03*
X176378Y217323D02*
D03*
X79134Y214173D02*
D03*
X168110Y79134D02*
D03*
Y75984D02*
D03*
X23228Y85827D02*
D03*
Y88976D02*
D03*
X119685Y206102D02*
D03*
X82499Y198342D02*
D03*
X59055Y161417D02*
D03*
X39370Y165354D02*
D03*
X116535Y204724D02*
D03*
X119351Y202887D02*
D03*
X116142Y187795D02*
D03*
X107524Y190878D02*
D03*
X102756Y74016D02*
D03*
X77165Y90551D02*
D03*
X100787Y104331D02*
D03*
X114961Y62992D02*
D03*
X117717Y81890D02*
D03*
X114961Y83465D02*
D03*
Y87008D02*
D03*
X117717Y85039D02*
D03*
X77165Y85827D02*
D03*
X63779Y159449D02*
D03*
X40173Y169291D02*
D03*
X27559Y226772D02*
D03*
Y230315D02*
D03*
X105810Y193521D02*
D03*
X174409Y220472D02*
D03*
X119291Y187122D02*
D03*
X114961Y93523D02*
D03*
Y66535D02*
D03*
X80315Y85827D02*
D03*
X102756Y70866D02*
D03*
X80315Y90551D02*
D03*
X97441Y104331D02*
D03*
D40*
X39370Y188976D02*
D03*
X144488Y205512D02*
D03*
X102586Y118875D02*
D03*
X68504Y127559D02*
D03*
X110827Y231299D02*
D03*
X133858Y153543D02*
D03*
X159449Y183071D02*
D03*
X135827Y87795D02*
D03*
X172835Y238189D02*
D03*
D41*
X174803Y127165D02*
D03*
X222441Y82284D02*
D03*
Y181102D02*
D03*
X183071Y51181D02*
D03*
X16142Y74016D02*
D03*
X179134Y114173D02*
D03*
X172835Y97638D02*
D03*
X137795Y35433D02*
D03*
M02*
