G04*
G04 #@! TF.GenerationSoftware,Altium Limited,Altium Designer,25.3.2 (17)*
G04*
G04 Layer_Color=16711935*
%FSLAX25Y25*%
%MOIN*%
G70*
G04*
G04 #@! TF.SameCoordinates,DFD58F72-5230-4211-8425-633F0AFCE8D5*
G04*
G04*
G04 #@! TF.FilePolarity,Positive*
G04*
G01*
G75*
%ADD71C,0.00394*%
%ADD72R,0.02420X0.22992*%
%ADD73R,0.10984X0.02383*%
%ADD74R,0.10984X0.02383*%
D71*
X122047Y210630D02*
X135433D01*
X122047Y191732D02*
X135433D01*
X122047D02*
Y210630D01*
X135433Y191732D02*
Y210630D01*
X170984Y145000D02*
Y167992D01*
X143976Y145000D02*
Y167992D01*
X170984D01*
X143976Y145000D02*
X170984D01*
X129921Y86910D02*
Y92224D01*
X121260Y86910D02*
Y92224D01*
Y86910D02*
X129921D01*
X121260Y92224D02*
X129921D01*
X102067Y225197D02*
Y233858D01*
X96752Y225197D02*
Y233858D01*
X102067D01*
X96752Y225197D02*
X102067D01*
X63583Y168996D02*
X72244D01*
X63583Y163681D02*
X72244D01*
X63583D02*
Y168996D01*
X72244Y163681D02*
Y168996D01*
X123228Y46850D02*
X135827D01*
X123228D02*
Y53150D01*
X135827D01*
Y46850D02*
Y53150D01*
X186614Y85925D02*
X195276D01*
X186614Y91240D02*
X195276D01*
Y85925D02*
Y91240D01*
X186614Y85925D02*
Y91240D01*
Y137106D02*
X195276D01*
X186614Y142421D02*
X195276D01*
Y137106D02*
Y142421D01*
X186614Y137106D02*
Y142421D01*
Y124311D02*
X195276D01*
X186614Y129626D02*
X195276D01*
Y124311D02*
Y129626D01*
X186614Y124311D02*
Y129626D01*
Y111516D02*
X195276D01*
X186614Y116831D02*
X195276D01*
Y111516D02*
Y116831D01*
X186614Y111516D02*
Y116831D01*
Y98721D02*
X195276D01*
X186614Y104035D02*
X195276D01*
Y98721D02*
Y104035D01*
X186614Y98721D02*
Y104035D01*
X170984Y171575D02*
Y194567D01*
X143976Y171575D02*
Y194567D01*
X170984D01*
X143976Y171575D02*
X170984D01*
X222028Y178150D02*
Y195866D01*
X211043Y178150D02*
Y195866D01*
Y178150D02*
X222028D01*
X211043Y195866D02*
X222028D01*
X194468Y178150D02*
Y195866D01*
X183484Y178150D02*
Y195866D01*
Y178150D02*
X194468D01*
X183484Y195866D02*
X194468D01*
X108760Y160925D02*
X134547D01*
X108760Y174902D02*
X134547D01*
Y160925D02*
Y174902D01*
X108760Y160925D02*
Y174902D01*
X114173Y134055D02*
X133071D01*
X114173Y147441D02*
X133071D01*
X114173Y134055D02*
Y147441D01*
X133071Y134055D02*
Y147441D01*
X105512Y109843D02*
Y122441D01*
X111811D01*
Y109843D02*
Y122441D01*
X105512Y109843D02*
X111811D01*
X83071D02*
Y122441D01*
X89370D01*
Y109843D02*
Y122441D01*
X83071Y109843D02*
X89370D01*
X146949Y67520D02*
Y76181D01*
X152264Y67520D02*
Y76181D01*
X146949Y67520D02*
X152264D01*
X146949Y76181D02*
X152264D01*
X163091Y67520D02*
Y76181D01*
X157776Y67520D02*
Y76181D01*
X163091D01*
X157776Y67520D02*
X163091D01*
X63583Y59350D02*
X72244D01*
X63583Y64665D02*
X72244D01*
Y59350D02*
Y64665D01*
X63583Y59350D02*
Y64665D01*
X47835Y59350D02*
X56496D01*
X47835Y64665D02*
X56496D01*
Y59350D02*
Y64665D01*
X47835Y59350D02*
Y64665D01*
X94784Y56693D02*
Y65354D01*
X100098Y56693D02*
Y65354D01*
X94784Y56693D02*
X100098D01*
X94784Y65354D02*
X100098D01*
Y110682D02*
Y119344D01*
X94784Y110682D02*
Y119344D01*
X100098D01*
X94784Y110682D02*
X100098D01*
X14075Y93110D02*
Y101772D01*
X19390Y93110D02*
Y101772D01*
X14075Y93110D02*
X19390D01*
X14075Y101772D02*
X19390D01*
X14075Y77362D02*
Y86024D01*
X19390Y77362D02*
Y86024D01*
X14075Y77362D02*
X19390D01*
X14075Y86024D02*
X19390D01*
X183760Y229921D02*
Y238583D01*
X178445Y229921D02*
Y238583D01*
X183760D01*
X178445Y229921D02*
X183760D01*
Y212205D02*
Y220866D01*
X178445Y212205D02*
Y220866D01*
X183760D01*
X178445Y212205D02*
X183760D01*
X33169Y175787D02*
Y184449D01*
X27854Y175787D02*
Y184449D01*
X33169D01*
X27854Y175787D02*
X33169D01*
X39961Y178839D02*
X48622D01*
X39961Y173524D02*
X48622D01*
X39961D02*
Y178839D01*
X48622Y173524D02*
Y178839D01*
X33661Y236516D02*
X42323D01*
X33661Y241831D02*
X42323D01*
Y236516D02*
Y241831D01*
X33661Y236516D02*
Y241831D01*
Y232972D02*
X42323D01*
X33661Y227658D02*
X42323D01*
X33661D02*
Y232972D01*
X42323Y227658D02*
Y232972D01*
X124409Y209350D02*
X133071D01*
X124409Y204035D02*
X133071D01*
X124409D02*
Y209350D01*
X133071Y204035D02*
Y209350D01*
X107480Y225591D02*
Y238189D01*
X113779D01*
Y225591D02*
Y238189D01*
X107480Y225591D02*
X113779D01*
X85039D02*
Y238189D01*
X91339D01*
Y225591D02*
Y238189D01*
X85039Y225591D02*
X91339D01*
X61614Y178347D02*
X74213D01*
Y172047D02*
Y178347D01*
X61614Y172047D02*
X74213D01*
X61614D02*
Y178347D01*
D72*
X169816Y156496D02*
D03*
Y183071D02*
D03*
D73*
X216535Y194675D02*
D03*
D74*
X188976D02*
D03*
M02*
