G04*
G04 #@! TF.GenerationSoftware,Altium Limited,Altium Designer,25.3.2 (17)*
G04*
G04 Layer_Physical_Order=3*
G04 Layer_Color=16440176*
%FSLAX25Y25*%
%MOIN*%
G70*
G04*
G04 #@! TF.SameCoordinates,DFD58F72-5230-4211-8425-633F0AFCE8D5*
G04*
G04*
G04 #@! TF.FilePolarity,Positive*
G04*
G01*
G75*
%ADD37C,0.06102*%
%ADD42C,0.02756*%
%ADD43C,0.03937*%
%ADD44C,0.07874*%
%ADD45C,0.01181*%
%ADD51C,0.05000*%
%ADD52C,0.03937*%
%ADD53C,0.05906*%
%ADD54C,0.04724*%
G36*
X158245Y143701D02*
X158245Y143701D01*
X158336Y143240D01*
X158597Y142849D01*
X170408Y131038D01*
X170799Y130777D01*
X171260Y130685D01*
X171260Y130685D01*
X176227D01*
X177930Y128982D01*
Y125961D01*
X176378Y124409D01*
X62992Y124409D01*
Y143701D01*
X76254D01*
X76504Y143440D01*
X76936Y142520D01*
X76772Y142124D01*
Y141341D01*
X77071Y140617D01*
X77153Y140536D01*
X77493Y139764D01*
X77153Y138992D01*
X77071Y138910D01*
X76772Y138187D01*
Y137404D01*
X77071Y136680D01*
X77153Y136599D01*
X77493Y135827D01*
X77153Y135055D01*
X77071Y134974D01*
X76772Y134250D01*
Y133467D01*
X77071Y132743D01*
X77625Y132190D01*
X78349Y131890D01*
X79132D01*
X79855Y132190D01*
X79937Y132272D01*
X80709Y132611D01*
X81480Y132272D01*
X81562Y132190D01*
X82286Y131890D01*
X83069D01*
X83792Y132190D01*
X84346Y132743D01*
X84646Y133467D01*
Y134250D01*
X84346Y134974D01*
X84264Y135055D01*
X83925Y135827D01*
X84264Y136599D01*
X84346Y136680D01*
X84646Y137404D01*
Y138187D01*
X84346Y138910D01*
X84264Y138992D01*
X83925Y139764D01*
X84264Y140536D01*
X84346Y140617D01*
X84646Y141341D01*
Y142124D01*
X84482Y142520D01*
X84914Y143440D01*
X85163Y143701D01*
X89812D01*
X90038Y143155D01*
X91074Y141604D01*
X92392Y140286D01*
X93942Y139250D01*
X95665Y138537D01*
X97493Y138173D01*
X99357D01*
X101186Y138537D01*
X102908Y139250D01*
X104458Y140286D01*
X105777Y141604D01*
X106813Y143155D01*
X107526Y144877D01*
X107890Y146706D01*
Y148570D01*
X107526Y150399D01*
X106813Y152121D01*
X105777Y153671D01*
X104458Y154989D01*
X104400Y155581D01*
X108268Y159449D01*
X158245D01*
Y143701D01*
D02*
G37*
G36*
X165354Y226378D02*
Y202756D01*
X185039Y183071D01*
Y120079D01*
X182128Y117167D01*
X179134D01*
X178359Y117065D01*
X177637Y116766D01*
X177017Y116290D01*
X176541Y115670D01*
X176242Y114948D01*
X176140Y114173D01*
X175103Y113189D01*
X156496D01*
X145669Y102362D01*
Y84646D01*
X127953D01*
X123031Y89567D01*
Y98425D01*
X115157Y106299D01*
X99410D01*
X94488Y111221D01*
Y123031D01*
X178150D01*
X179134Y124016D01*
Y129481D01*
X176725Y131890D01*
X171260D01*
X159449Y143701D01*
Y171260D01*
X133858Y196850D01*
Y212598D01*
X125984Y220472D01*
X100394D01*
Y236221D01*
X155512D01*
X165354Y226378D01*
D02*
G37*
%LPC*%
G36*
X130313Y112205D02*
X129530D01*
X128806Y111905D01*
X128725Y111823D01*
X127953Y111484D01*
X127181Y111823D01*
X127100Y111905D01*
X126376Y112205D01*
X125593D01*
X124869Y111905D01*
X124316Y111352D01*
X124016Y110628D01*
Y109845D01*
X124316Y109121D01*
X124869Y108568D01*
X125593Y108268D01*
X126376D01*
X127100Y108568D01*
X127181Y108649D01*
X127953Y108989D01*
X128725Y108649D01*
X128806Y108568D01*
X129530Y108268D01*
X130313D01*
X131037Y108568D01*
X131590Y109121D01*
X131890Y109845D01*
Y110628D01*
X131590Y111352D01*
X131037Y111905D01*
X130313Y112205D01*
D02*
G37*
%LPD*%
D37*
X137638Y30079D02*
D03*
X117638D02*
D03*
D42*
X137795Y35433D02*
X139764Y37402D01*
X141732Y39370D01*
X166535D02*
X172835Y45669D01*
X141732Y39370D02*
X166535D01*
X172835Y45669D02*
Y97638D01*
D43*
X141394Y231496D02*
X144488Y228402D01*
Y205512D02*
Y228402D01*
X103694Y118504D02*
X154275D01*
X181496Y122385D02*
Y135039D01*
X155850Y120079D02*
X179190D01*
X181496Y122385D01*
X154275Y118504D02*
X155850Y120079D01*
X103526Y118672D02*
X103694Y118504D01*
X102789Y118672D02*
X103526D01*
X102586Y118875D02*
X102789Y118672D01*
X110827Y231299D02*
X111024Y231496D01*
X141394D01*
X135827Y87795D02*
Y115804D01*
X133520Y118110D02*
X135827Y115804D01*
X179134Y114173D02*
X190945D01*
X222441Y82284D02*
Y181102D01*
D44*
X33465Y54219D02*
Y183071D01*
X39370Y188976D02*
Y188976D01*
X33465Y183071D02*
X39370Y188976D01*
X40833Y46850D02*
X130315D01*
X33465Y54219D02*
X40833Y46850D01*
X137638Y30079D02*
Y35433D01*
Y39528D01*
X172835Y238189D02*
X186726D01*
X191339Y233576D01*
Y114567D02*
Y233576D01*
Y37318D02*
Y114567D01*
X165832Y11811D02*
X191339Y37318D01*
X74609Y11811D02*
X165832D01*
X69650Y16770D02*
X74609Y11811D01*
X69650Y16770D02*
Y33388D01*
X74329Y38067D01*
X110947D01*
X117638Y31376D01*
Y30079D02*
Y31376D01*
X130315Y46850D02*
X137638Y39528D01*
D45*
X190945Y114173D02*
X191339Y114567D01*
D51*
X39370Y188976D02*
D03*
X144488Y205512D02*
D03*
X102586Y118875D02*
D03*
X68504Y127559D02*
D03*
X110827Y231299D02*
D03*
X133858Y153543D02*
D03*
X159449Y183071D02*
D03*
X135827Y87795D02*
D03*
X172835Y238189D02*
D03*
D52*
X174803Y127165D02*
D03*
X222441Y82284D02*
D03*
Y181102D02*
D03*
X179134Y114173D02*
D03*
X172835Y97638D02*
D03*
X137795Y35433D02*
D03*
D53*
X159449Y183071D02*
X181496Y161024D01*
Y135039D02*
Y161024D01*
D54*
X133465Y127559D02*
X133858Y127953D01*
Y153543D01*
X133465Y127559D02*
X174409D01*
X68504D02*
X133465D01*
X174409D02*
X174803Y127165D01*
M02*
