G04*
G04 #@! TF.GenerationSoftware,Altium Limited,Altium Designer,25.3.2 (17)*
G04*
G04 Layer_Color=128*
%FSLAX25Y25*%
%MOIN*%
G70*
G04*
G04 #@! TF.SameCoordinates,DFD58F72-5230-4211-8425-633F0AFCE8D5*
G04*
G04*
G04 #@! TF.FilePolarity,Positive*
G04*
G01*
G75*
%ADD14R,0.07087X0.03937*%
%ADD55R,0.12992X0.04724*%
%ADD56R,0.11000X0.15000*%
%ADD57R,0.08000X0.04500*%
%ADD58R,0.20866X0.07874*%
%ADD59R,0.06102X0.09449*%
G04:AMPARAMS|DCode=60|XSize=27.56mil|YSize=94.49mil|CornerRadius=1.93mil|HoleSize=0mil|Usage=FLASHONLY|Rotation=0.000|XOffset=0mil|YOffset=0mil|HoleType=Round|Shape=RoundedRectangle|*
%AMROUNDEDRECTD60*
21,1,0.02756,0.09063,0,0,0.0*
21,1,0.02370,0.09449,0,0,0.0*
1,1,0.00386,0.01185,-0.04532*
1,1,0.00386,-0.01185,-0.04532*
1,1,0.00386,-0.01185,0.04532*
1,1,0.00386,0.01185,0.04532*
%
%ADD60ROUNDEDRECTD60*%
G04:AMPARAMS|DCode=61|XSize=125.98mil|YSize=94.49mil|CornerRadius=1.89mil|HoleSize=0mil|Usage=FLASHONLY|Rotation=0.000|XOffset=0mil|YOffset=0mil|HoleType=Round|Shape=RoundedRectangle|*
%AMROUNDEDRECTD61*
21,1,0.12598,0.09071,0,0,0.0*
21,1,0.12221,0.09449,0,0,0.0*
1,1,0.00378,0.06110,-0.04535*
1,1,0.00378,-0.06110,-0.04535*
1,1,0.00378,-0.06110,0.04535*
1,1,0.00378,0.06110,0.04535*
%
%ADD61ROUNDEDRECTD61*%
%ADD62R,0.04724X0.12992*%
D14*
X147638Y198819D02*
D03*
Y210630D02*
D03*
X167323Y198819D02*
D03*
Y210630D02*
D03*
D55*
X128740Y208858D02*
D03*
Y193504D02*
D03*
D56*
X171529Y156496D02*
D03*
X143431D02*
D03*
X171529Y183071D02*
D03*
X143431D02*
D03*
D57*
X188976Y145014D02*
D03*
Y134514D02*
D03*
D58*
X208661Y160630D02*
D03*
Y134646D02*
D03*
D59*
X216535Y181004D02*
D03*
Y193012D02*
D03*
X188976Y181004D02*
D03*
Y193012D02*
D03*
D60*
X131653Y156004D02*
D03*
X126654D02*
D03*
X121653D02*
D03*
X116654D02*
D03*
X111653D02*
D03*
D61*
X121653Y179823D02*
D03*
D62*
X115945Y140748D02*
D03*
X131299D02*
D03*
M02*
