G04*
G04 #@! TF.GenerationSoftware,Altium Limited,Altium Designer,21.3.2 (30)*
G04*
G04 Layer_Color=0*
%FSLAX25Y25*%
%MOIN*%
G70*
G04*
G04 #@! TF.SameCoordinates,BB1D773A-2413-427B-BD55-C883B2B148E4*
G04*
G04*
G04 #@! TF.FilePolarity,Positive*
G04*
G01*
G75*
%ADD69C,0.00394*%
D69*
X14567Y64567D02*
X18504D01*
X16535Y62598D02*
Y66535D01*
X25591Y64961D02*
X29528D01*
X27559Y62992D02*
Y66929D01*
X180118Y55118D02*
Y59055D01*
X178150Y57087D02*
X182087D01*
X204724Y226378D02*
Y230315D01*
X202756Y228346D02*
X206693D01*
X99410Y260039D02*
Y263976D01*
X97441Y262008D02*
X101378D01*
X164370Y187992D02*
X168307D01*
X166339Y186024D02*
Y189961D01*
X206693Y139764D02*
X210630D01*
X208661Y137795D02*
Y141732D01*
X206693Y126969D02*
X210630D01*
X208661Y125000D02*
Y128937D01*
X206693Y88583D02*
X210630D01*
X208661Y86614D02*
Y90551D01*
X206693Y114173D02*
X210630D01*
X208661Y112205D02*
Y116142D01*
X206693Y101378D02*
X210630D01*
X208661Y99409D02*
Y103346D01*
X33465Y126969D02*
Y130905D01*
X31496Y128937D02*
X35433D01*
X108268Y59055D02*
Y62992D01*
X106299Y61024D02*
X110236D01*
X132874Y129921D02*
Y133858D01*
X130905Y131890D02*
X134843D01*
X121063Y129921D02*
Y133858D01*
X119095Y131890D02*
X123031D01*
X155512Y138779D02*
X159449D01*
X157480Y136811D02*
Y140748D01*
Y105315D02*
Y109252D01*
X155512Y107283D02*
X159449D01*
X128937Y105315D02*
Y109252D01*
X126969Y107283D02*
X130905D01*
X128937Y65354D02*
Y69291D01*
X126969Y67323D02*
X130905D01*
X86614Y59055D02*
Y62992D01*
X84646Y61024D02*
X88583D01*
X52165Y87598D02*
X56102D01*
X54134Y85630D02*
Y89567D01*
X62992Y126969D02*
Y130905D01*
X61024Y128937D02*
X64961D01*
X88583Y176181D02*
Y180118D01*
X86614Y178150D02*
X90551D01*
X110236Y176181D02*
Y180118D01*
X108268Y178150D02*
X112205D01*
X53583Y203740D02*
X57520D01*
X55551Y201772D02*
Y205709D01*
X133858Y185039D02*
Y188976D01*
X131890Y187008D02*
X135827D01*
X127953Y249016D02*
Y252953D01*
X125984Y250984D02*
X129921D01*
X140748Y249016D02*
Y252953D01*
X138779Y250984D02*
X142717D01*
X163386Y257874D02*
X167323D01*
X165354Y255906D02*
Y259842D01*
X133858Y225394D02*
Y229331D01*
X131890Y227362D02*
X135827D01*
X161417Y223425D02*
Y227362D01*
X159449Y225394D02*
X163386D01*
X33465Y250984D02*
Y254921D01*
X31496Y252953D02*
X35433D01*
X45276Y250984D02*
Y254921D01*
X43307Y252953D02*
X47244D01*
X64961Y244094D02*
Y248031D01*
X62992Y246063D02*
X66929D01*
X200787Y186024D02*
X204724D01*
X202756Y184055D02*
Y187992D01*
X110669Y24488D02*
X114606D01*
X112638Y22520D02*
Y26457D01*
M02*
