G04*
G04 #@! TF.GenerationSoftware,Altium Limited,Altium Designer,21.3.2 (30)*
G04*
G04 Layer_Color=32896*
%FSLAX25Y25*%
%MOIN*%
G70*
G04*
G04 #@! TF.SameCoordinates,BB1D773A-2413-427B-BD55-C883B2B148E4*
G04*
G04*
G04 #@! TF.FilePolarity,Positive*
G04*
G01*
G75*
%ADD10C,0.00984*%
%ADD11C,0.00787*%
%ADD12C,0.00598*%
D10*
X179687Y156496D02*
G03*
X179687Y156496I-492J0D01*
G01*
X179687Y183071D02*
G03*
X179687Y183071I-492J0D01*
G01*
X217028Y199902D02*
G03*
X217028Y199902I-492J0D01*
G01*
X189469D02*
G03*
X189469Y199902I-492J0D01*
G01*
X135689Y156004D02*
G03*
X135689Y156004I-492J0D01*
G01*
D11*
X122638Y197441D02*
Y204921D01*
X134843Y197441D02*
Y204921D01*
X143976Y145000D02*
Y147421D01*
X170984Y145000D02*
Y147421D01*
X143976Y145000D02*
X170984D01*
Y165571D02*
Y167992D01*
X143976Y165571D02*
Y167992D01*
X170984D01*
X151181Y202264D02*
Y207185D01*
X144095Y202264D02*
Y207185D01*
X170866Y202264D02*
Y207185D01*
X163779Y202264D02*
Y207185D01*
X185734Y138240D02*
Y141287D01*
X192218Y138240D02*
Y141287D01*
X197953Y140059D02*
Y155217D01*
X219370Y140059D02*
Y155217D01*
X143976Y171575D02*
Y173996D01*
X170984Y171575D02*
Y173996D01*
X143976Y171575D02*
X170984D01*
Y192146D02*
Y194567D01*
X143976Y192146D02*
Y194567D01*
X170984D01*
X221161Y178150D02*
X222047D01*
X221161Y195866D02*
X222047D01*
X211024Y178150D02*
X211910D01*
X211024Y195866D02*
X211910D01*
X222047Y178150D02*
Y195866D01*
X211024Y178150D02*
Y195866D01*
X193602Y178150D02*
X194488D01*
X193602Y195866D02*
X194488D01*
X183465Y178150D02*
X184350D01*
X183465Y195866D02*
X184350D01*
X194488Y178150D02*
Y195866D01*
X183465Y178150D02*
Y195866D01*
X108661Y161811D02*
X134646D01*
X108661Y174016D02*
X134646D01*
Y161811D02*
Y174016D01*
X108661Y161811D02*
Y174016D01*
X119882Y134646D02*
X127362D01*
X119882Y146850D02*
X127362D01*
D12*
X178641Y169783D02*
Y166831D01*
X177165D01*
X176673Y167323D01*
Y169291D01*
X177165Y169783D01*
X178641D01*
X173721D02*
X174705Y169291D01*
X175689Y168307D01*
Y167323D01*
X175197Y166831D01*
X174213D01*
X173721Y167323D01*
Y167815D01*
X174213Y168307D01*
X175689D01*
X123621Y189173D02*
Y186713D01*
X123129Y186221D01*
X122145D01*
X121653Y186713D01*
Y189173D01*
X120670Y186221D02*
X119686D01*
X120178D01*
Y189173D01*
X120670Y188681D01*
X224901Y147146D02*
Y145178D01*
X223425D01*
Y146162D01*
Y145178D01*
X221949D01*
Y150098D02*
Y148130D01*
X223917Y150098D01*
X224409D01*
X224901Y149606D01*
Y148622D01*
X224409Y148130D01*
X190452Y151575D02*
Y149607D01*
X188976D01*
Y150591D01*
Y149607D01*
X187501D01*
Y152559D02*
Y153543D01*
Y153051D01*
X190452D01*
X189960Y152559D01*
X215059Y173720D02*
X218011D01*
Y172244D01*
X217519Y171752D01*
X215551D01*
X215059Y172244D01*
Y173720D01*
X215551Y170768D02*
X215059Y170276D01*
Y169292D01*
X215551Y168800D01*
X216043D01*
X216535Y169292D01*
X217027Y168800D01*
X217519D01*
X218011Y169292D01*
Y170276D01*
X217519Y170768D01*
X217027D01*
X216535Y170276D01*
X216043Y170768D01*
X215551D01*
X216535Y170276D02*
Y169292D01*
X187501Y173720D02*
X190452D01*
Y172244D01*
X189960Y171752D01*
X187992D01*
X187501Y172244D01*
Y173720D01*
Y170768D02*
Y168800D01*
X187992D01*
X189960Y170768D01*
X190452D01*
X177657Y196358D02*
Y193406D01*
X176181D01*
X175689Y193898D01*
Y195866D01*
X176181Y196358D01*
X177657D01*
X172737D02*
X174705D01*
Y194882D01*
X173721Y195374D01*
X173229D01*
X172737Y194882D01*
Y193898D01*
X173229Y193406D01*
X174213D01*
X174705Y193898D01*
X138385Y138780D02*
X138877Y138288D01*
Y137304D01*
X138385Y136812D01*
X136418D01*
X135926Y137304D01*
Y138288D01*
X136418Y138780D01*
X135926Y141732D02*
Y139764D01*
X137893Y141732D01*
X138385D01*
X138877Y141240D01*
Y140256D01*
X138385Y139764D01*
X136418Y142716D02*
X135926Y143208D01*
Y144192D01*
X136418Y144684D01*
X138385D01*
X138877Y144192D01*
Y143208D01*
X138385Y142716D01*
X137893D01*
X137402Y143208D01*
Y144684D01*
X130708Y215945D02*
X131200Y216437D01*
X132184D01*
X132676Y215945D01*
Y213977D01*
X132184Y213485D01*
X131200D01*
X130708Y213977D01*
X127756Y213485D02*
X129724D01*
X127756Y215453D01*
Y215945D01*
X128248Y216437D01*
X129232D01*
X129724Y215945D01*
X126772D02*
X126280Y216437D01*
X125296D01*
X124804Y215945D01*
Y215453D01*
X125296Y214961D01*
X124804Y214469D01*
Y213977D01*
X125296Y213485D01*
X126280D01*
X126772Y213977D01*
Y214469D01*
X126280Y214961D01*
X126772Y215453D01*
Y215945D01*
X126280Y214961D02*
X125296D01*
X148622Y215798D02*
X149114Y215306D01*
Y214322D01*
X148622Y213830D01*
X146654D01*
X146162Y214322D01*
Y215306D01*
X146654Y215798D01*
X146162Y216782D02*
Y217766D01*
Y217274D01*
X149114D01*
X148622Y216782D01*
Y219242D02*
X149114Y219734D01*
Y220718D01*
X148622Y221209D01*
X148130D01*
X147638Y220718D01*
X147146Y221209D01*
X146654D01*
X146162Y220718D01*
Y219734D01*
X146654Y219242D01*
X147146D01*
X147638Y219734D01*
X148130Y219242D01*
X148622D01*
X147638Y219734D02*
Y220718D01*
X168307Y216043D02*
X168799Y215551D01*
Y214568D01*
X168307Y214076D01*
X166339D01*
X165847Y214568D01*
Y215551D01*
X166339Y216043D01*
X168799Y218995D02*
Y217027D01*
X167323D01*
X167815Y218011D01*
Y218503D01*
X167323Y218995D01*
X166339D01*
X165847Y218503D01*
Y217519D01*
X166339Y217027D01*
M02*
