M48
;Layer_Color=9474304
;FILE_FORMAT=4:4
METRIC,LZ
;TYPE=PLATED
T01F00S00C0.2000
T02F00S00C0.2500
T03F00S00C0.3000
T05F00S00C0.8600
T06F00S00C0.8900
T07F00S00C1.0000
T08F00S00C1.0200
T09F00S00C1.2000
T10F00S00C1.5700
T11F00S00C2.0100
T12F00S00C3.0000
;TYPE=NON_PLATED
T13F00S00C0.6500
T14F00S00C3.2150
%
T01
X01677Y004245
Y004355
X01688
Y004245
Y005145
Y005255
X01677
Y005145
X01672Y00667
Y00678
X01683
Y00667
Y00762
Y00773
X01672
Y00762
T02
X0033117Y0029782
Y0030882
Y0031982
X0034217
X0035317
Y0030882
X0034217
Y0029782
X0035317
T03
X00014411Y00021
X00012Y0003
X00014411Y00039
X00021Y00045588
X0003Y00048
X00039Y00045588
X00045588Y00039
X00048Y0003
X00045588Y00021
X00039Y00014411
X0003Y00012
X00021Y00014411
X00023Y00064
X00008
Y00094
X00023
X0004475Y00091
X000385Y001035
X0004475Y00116
X000385Y001285
X0004475Y00141
X000385Y001535
X00023Y00154
X00008
Y00124
X00023
X0006975Y00116
X0008225
X0009475
X0010725
X001135Y001035
X00101
X000885
X00076
X0008225Y00091
X0009475
X0010725
X0011975
X00115Y0008
X00101Y000785
X000885
X00076
X0008225Y00066
X0009475
X00101Y000535
X000885
X0006975Y00041
X0005725
X000635Y000285
X00076
X00089Y00021
Y00009
X00116
Y00021
X00146
Y00009
X001375Y0008175
X00139Y001471
X00146Y00172
X00139Y001979
X0011975Y00191
X001135Y002035
X00101
X000885
Y001785
X00101
X0010725Y00166
X0009475
X00101Y001535
Y001285
X000885
X00076
X0006975Y00091
X000385Y000785
X0004475Y00066
X00051Y000535
X0004475Y00166
X000385Y001785
X0004475Y00191
X000385Y002035
X0004475Y00216
X00051Y002285
X000385
X00023Y00214
X00008
Y00184
X00023
X00065Y00171
X0010725Y00216
X0011975
X00126Y002285
X0015725Y00216
X00176Y00219
X001875Y00219
X00199Y00219
X0021Y00219
X00221Y00219
X002325Y00219
X00244Y00219
X00255Y00219
X00267Y00213
X002775Y00219
X00273Y00197
X00284Y00194
X00308Y00199
X0032525Y001965
X00353Y00231
X00385Y00225
X00403Y00227
X00435Y00186
X00447Y00198
X0047Y00213
X00508Y00225
X00549Y00226
X00556Y00235
X00564Y00211
X0055Y00198
X00547Y00187
X00546Y00156
X00545Y00139
X00539Y00127
X00535929Y00115
X00527Y00121
X00517Y00115
X00500118Y00106632
X00489Y00099
X00459Y00090743
X00453Y00076
X0046975Y00066
X00442096Y00052097
X00432722Y000445
X00446Y00021
Y00009
X00416
Y00021
X00386
Y00009
X00356
Y00021
X00326
Y00009
X00296
Y00021
X00266
Y00009
X00236
Y00021
X00206
Y00009
X00176
Y00021
X0023225Y00091
X0025725
X0028225
X00274Y00127
X0028Y0014
X00248Y00145
Y00133
X00329Y00114
X0033225Y00091
X00374Y00076
X00388722Y00086722
X00397999Y00096
X00394743Y00113257
X00404257Y00110743
X00414Y00101
X003905Y0005525
X00476Y00021
Y00009
X00506
Y00021
X00536
Y00009
X00566
Y00021
X00561Y00109
X00533Y00147
X00524Y0016275
X00499Y0015675
X00499048Y00148562
X00498152Y00140296
X00477191Y00146191
X00455742Y00145258
X0057Y00109
X00627Y00105
X0064475Y00091
X00675Y00102
Y00113
X00681Y00128
X00677Y0016
X00662Y00176
X00696191Y00174191
X0071Y00165
X00715Y00158
X0074Y0017
X00747Y00182
X00783Y00182
X00793Y00193
Y00202
X00773Y00222
Y00234
X0076
Y00222
X00747
Y00234
X00725Y0022625
Y00198
X00726Y001035
X0073225Y00091
X0071975
X0070725
X0069475
X00701Y000785
X007135
X00726
X0073225Y00066
X0071975
X0070725
X0069475
X00701Y000535
X007135
X00726
X006885
Y000785
X00686Y00021
Y00009
X00716
Y00021
X00746
Y00009
X00776
Y00021
X00806
Y00009
X00836
Y00021
X00866
Y00009
X00896
Y00021
X00926
Y00009
X00956
Y00021
X0096Y00052
X00951Y00054411
X00944411Y00061
X00942Y0007
X00944411Y00079
X00951Y00085588
X0096Y00088
X00962501Y00114
X00941501
X00920501
X00899501
X00878501
X00857501
X00836501
X00815501
X00826001Y00135
X00847001
X00868001
X00857501Y00156
X00836501
X00815501
X0082Y00173
X0085
X00868001Y00177
Y00219
X00847001
X0083Y00225
X00931Y001925
X0092625Y0017643
X00958Y00177
X009425Y0014357
X0091
X00910001Y00093
X00931001
X00920501Y00072
X00899501
X00878501
X00857501
X00836501
X00815501
X00826001Y00093
X00847001
X00868001
X00889001
Y00051
X00910001
X00931001
X00868001
X00847001
X00763
Y00093
X00784
X00656Y00021
Y00009
X00626
Y00021
X00596
Y00009
X00627Y0014
X0063Y00192
X00627Y0022
Y00228
X00603Y00233
X00584Y002255
X00613Y00208
X00662Y00233
X009725Y00237
X01000486Y00222985
X01000738Y00206987
X01008218Y00192843
X01015253Y0023
X01030091Y00235986
X01046091
X0107Y0021893
X01085Y0018607
X01078001Y00177
X01099001
X01120001
X01141001
X01162001
X01183001
X01193501Y00198
X01172501
X01151501
X01130501
X01109501
X01120001Y00219
X01141001
X01162001
X01183001
X01214Y00222
X01225001Y00219
X01235501Y00198
X01256501
X01277501
X01298501
X01311288Y00190632
X01304644Y00180639
X01301322Y00169108
X01302886Y0015721
X01314752Y00155421
X01326358Y00158473
X01327079Y00170451
X01322833Y00181675
X01330705Y00190732
X01336744Y00201101
X01349666Y00201936
X01361501Y00198
X01351001Y00177
X01361501Y00156
X01340501
X01351001Y00135
X01330001
X01309001
X01288001
X01298501Y00114
X01319501
X01340501
X01351001Y00093
X01330001
X01309001
X01288001
X01267001
X01246001
X01225001
X01204001
X01183001
X01193501Y00072
X01214501
X01235501
X01256501
X01277501
X01298501
X01319501
X01340501
X01361501
X01346Y00021
Y00009
X01316
Y00021
X01286
Y00009
X01256
Y00021
X01226
Y00009
X01196
Y00021
X01166
Y00009
X01136
Y00021
X01106
Y00009
X01076
Y00021
X01046
Y00009
X01016
Y00021
X00986
Y00009
X00994001Y00051
X00975588Y00061
X00978Y0007
X00975588Y00079
X00969Y00085588
X00973001Y00093
X00994001
X01004501Y00114
X00983501
X00975Y0016
X01035Y00165
X01055Y0018607
X01067501Y00156
X01088501
X01109501
X01130501
X01151501
X01172501
X01193501
X01183001Y00135
X01162001
X01141001
X01120001
X01099001
X01078001
X01057001
X01067501Y00114
X01088501
X01109501
X01130501
X01151501
X01172501
X01214501
X01235501
X01246001Y00135
X01225001
X01212Y0014
X01235501Y00156
X01256501
X01277501
X01288001Y00177
X01267001
X01246001
X01288001Y00219
X01320694Y00223482
Y00211482
X01319303Y00199563
X01342694Y00219072
X01334438Y00233089
X01172501Y00072
X01130501
X01109501
X01088501
X01067501
X01078001Y00093
X01099001
X01120001
X01141001
X01057001
X01004501Y00072
X00969Y00054411
X01382501Y00072
X01403501
X01424501
X01445501
X01456001Y00093
X01435001
X01414001
X01393001
X01372001
X01403501Y00114
X01424501
X01445501
X01456001Y00135
X0147Y00142
X01445501Y00156
X01424501
X01403501
X01382501
X01393001Y00177
X01414001
X01435001
X01456001
X01445501Y00198
X01424501
X01403501
X01402755Y00213347
X0140735Y00228707
X01420196Y00219517
X01435001Y00219
X01436004Y00229126
X01423929Y00236916
X01389319Y00224567
X01384421Y00210875
X01382501Y00198
X01365921Y00210769
X01370822Y00224231
X01372001Y00177
X01393001Y00135
X01414001
X01435001
X01508501Y00156
X01529501
X01550501
X01566629Y00156305
X01578597Y00155421
X01589466Y00160506
X01589579Y00172505
X01583484Y00182842
X01589653Y00193134
X01577974Y00200493
X01583195Y00211298
Y00223298
X01561001Y00219
X01550501Y00198
X01529501
X01508501
X01519001Y00177
X01540001
X0156588Y00179794
X01563822Y00167972
X01571434Y00190432
X01613501Y00198
X01622571Y00202992
X01634501Y00198
X01639224Y00211051
X01641725Y00224591
X0166006Y0022705
X01657624Y00212968
X01655501Y00198
X01676501
X01675705Y00216885
X01687001Y00219
X01693259Y00222724
X01708001Y00219
X01710082Y0023042
X01729001Y00219
X01750001
X01739501Y00198
X01718501
X01697501
X01708001Y00177
X01729001
X01750001
X01739501Y00156
X01718501
X01697501
X01676501
X01655501
X01634501
X01613501
X01624001Y00177
X01645001
X01666001
X01687001
Y00135
X01708001
X01729001
X01750001
X01739501Y00114
X01718501
X01697501
X01676501
X01655501
X01666001Y00135
X01645001
Y00093
X01666001
X01687001
X01708001
X01729001
X01750001
X01739501Y00072
X01718501
X01697501
X01676501
X01655501
X01634501
X01613501
X01592501
X01571501
X01550501
X01529501
X01508501
X01519001Y00093
X01540001
X01561001
X01582001
X01603001
X01624001
Y00051
X01645001
X01666001
X01687001
X01708001
X01729001
X01750001
X01736Y00021
Y00009
X01706
Y00021
X01676
Y00009
X01646
Y00021
X01616
Y00009
X01586
Y00021
X01556
Y00009
X01526
Y00021
X01496
Y00009
X01466
Y00021
X01436
Y00009
X01406
Y00021
X01376
Y00009
X01519001Y00051
X01540001
X01561001
X01582001
X01603001
X01592501Y00114
X01571501
X01550501
X01561001Y00135
X01582001
X01603001
X01540001
X0160528Y0020957
X01605904Y0022806
X01624229Y00230603
X01678016Y00231505
X01471191Y00220191
X01771001Y00219
X01792001
X01813001
X01834001
X01857Y00214
X01872
Y00184
X01857
X01844501Y00198
X01823501
X01802501
X01781501
X01760501
X01771001Y00177
X01792001
X01813001
X01834001
X01844501Y00156
X01857Y00154
X01872
Y00124
X01857
X01844501Y00114
X01823501
X01802501
X01781501
X01760501
X01771001Y00135
X01792001
X01813001
X01834001
X01823501Y00156
X01802501
X01781501
X01760501
X01771001Y00093
X01792001
X01813001
X01834001
X01857Y00094
X01872
Y00064
X01857
X01859Y00045588
X0185Y00048
X01841Y00045588
X01834001Y00051
X01834411Y00039
X01832Y0003
X01834411Y00021
X01841Y00014411
X0185Y00012
X01859Y00014411
X01865589Y00021
X01868Y0003
X01865589Y00039
X01844501Y00072
X01823501
X01802501
X01781501
X01760501
X01771001Y00051
X01792001
X01813001
X01796Y00021
Y00009
X01766
Y00021
X01826Y00009
X01823501Y0024
X01844501
X01857Y00244
X01872
Y00274
X01857
X01844501Y00282
X01823501
X01802501
X01781501
X0177752Y00292407
X01764707Y00297572
X01766461Y00277577
X01771001Y00261
X01792001
X01813001
X01834001
Y00303
X01813001
X01787118Y00308223
X0177457Y00313224
X01782861Y00329762
X01795347Y00324792
X01802196Y00341977
X01813001Y00345
X01807382Y00359736
X01794765Y00364742
X01777079Y00365544
X01760501Y00366
X01765639Y0037264
X01766896Y00350098
X01789721Y00346943
X01784281Y00382584
X01792001Y00387
X01798273Y00382906
X01811047Y00377869
X01813001Y00387
X01813219Y00396241
X01800013Y00401324
X01788281Y00400647
X01789109Y00419128
X01800269Y00419823
X01792001Y00429
X01789109Y00437628
X01800269Y00438323
Y00456823
X01789109Y00456128
X01788658Y00474622
X01800269Y00475323
Y00493823
Y00512323
Y00530823
Y00549323
X01813001Y00555
X01813731Y00562734
Y00544234
Y00525734
X01823501Y00534
X01844501
X01857Y00544
X01872
Y00574
X01857
X01844501Y00576
X01823501
X01813731Y00581234
Y00599734
X01800269Y00604823
Y00586323
Y00567822
X01767Y00569
X017785Y00536
X01777752Y00508899
X01779073Y00490446
X01760733Y00484222
X01767Y0047643
X01813731Y00470234
Y00451734
X01823501Y0045
X01844501
X01857Y00454
X01872
Y00484
X01857
X01844501Y00492
X01823501
X01813731Y00488734
Y00507234
X01834001Y00513
X01857Y00514
X01872
X01834001Y00555
Y00597
X01857Y00604
X01872
Y00634
X01857
X01844501Y00618
X01823501
X01812855Y00618213
X01798147Y006232
X01834001Y00471
Y00429
X01813731Y00433234
Y00414734
X01823501Y00408
X01844501
X01857Y00394
X01872
Y00424
X01857
X01834001Y00387
X01844501Y00366
X01857Y00364
X01872
Y00334
X01857
X01844501Y00324
X01823501
X01834001Y00345
X01823501Y00366
X01772428Y00389849
X01775523Y00408088
X01760501Y00324
Y0024
X01781501
X01802501
X01857Y00304
X01872
X01750001Y00303
X01729001
X01723331Y00316363
X0172717Y00333538
X01729001Y00345
X01742314Y00344164
X01754108Y0033673
X01755429Y00357212
X01739501Y00366
X01718501
X01697501
X01676501
X01655501
X01634501
X01613501
X01592501
X01571501
X01582001Y00345
X01603001
X01624001
X01645001
X01666001
X01687001
X01708001
X01710475Y00325568
X01705989Y00309922
X016879Y00306043
X01692697Y00320452
X01674319Y0031833
X01669444Y00304769
X01650944
X01655819Y00318231
X01637319
X01632444Y00304769
X01624001Y00303
X01613944Y00304769
X01603001Y00303
X01595444Y00304769
X01600319Y00318231
X01592501Y00324
X01581819Y00318231
X01571501Y00324
X01563319Y00318242
X01558445Y00304592
X01576944Y00304769
X01540077Y00302385
X01544876Y00316791
X01526767Y00313007
X01522233Y00297502
X01509361Y0030674
X01505379Y00289873
X01492937Y00298225
X0148981Y0027988
X01477802Y00287587
X01466501Y00282
X01464182Y00275067
X0147587Y00267718
X01462789Y00254637
X014511Y00261986
X01435001Y00261
X01438019Y00248904
X01449707Y00241555
X01445501Y00282
X01424501
X01403501
X01382501
X01393001Y00303
X01414001
X01435001
X01456001
X01414001Y00261
X01405Y00257
X01372001Y00261
Y00303
X01407Y004
X0143Y0040107
X01430125Y0042393
X01407191
X01397528Y00443777
X01378125Y00469875
X01366509Y00509556
X01396Y00516
X01386437Y00529224
X01407191Y0052893
X0143
X014415Y00516
X01464705Y005335
X01491Y0053
X01535Y0053357
X015575Y005335
Y004915
X01535Y0049143
X015935Y00504
X01605Y0047
X0164Y00493
X01639Y00404
X01593191Y00414809
X01605Y0038
X01613501Y00324
X01618819Y00318231
X01634501Y00282
X01655501
X01676501
X01697501
X01718501
X01739501
X01740926Y00269276
X01740751Y00251025
X01739501Y0024
X01725965Y00239906
X01726939Y00257167
X01708001Y00261
X017117Y00246678
X01695277Y00238162
X01676501Y0024
X01669Y00257
X01687001Y00261
X01624001
X01603001
X01582001
X01561001
X01549Y00277
X01550501Y0024
X01529501
X0151545Y0027045
X01491191Y00377191
X0145288Y00406404
Y0041988
X01493075Y00458925
X01535Y0058
X015875Y005925
X016125
X01689Y00631
X01719Y00551
X017445Y005465
Y0056893
X01744191Y00476809
X017525Y004845
X01745Y00454
X01719Y00461
X01739501Y00408
X01757375Y00411682
X01750001Y00387
X01729001
X01708001
X01687001
X01739449Y00325444
X01753454Y00282888
X01754227Y00263699
X01491Y00625
X01381Y00629
X01395Y00592
X0139525Y0057475
X01395022Y00563787
X01381022Y00563792
X01357Y005465
X01335
X013125Y0054643
X01287
X01270251Y00549625
X01259425Y00540748
X01245491Y00540995
X01230173Y00545616
X0122808Y00561478
X012125Y0054643
X0119Y0054643
X011675Y0054643
X01145
X01122996Y00548737
X0110848Y00545511
X01107549Y00529538
X01101515Y00535228
Y00521228
X01116822Y00517403
X01120899Y00532875
X01114454Y00560354
X01101515Y0058599
Y0059999
Y0061399
X01088486Y00609286
X01084012Y0060307
X01088486Y00595286
X01074305Y00592981
X01060409Y00596329
X01069641Y00606854
X0106Y00616
Y00624
X01078349Y00632326
X011475Y0063
X0118
X01207809Y00624191
X01226Y00625
X011925Y00595
X0116Y0059607
X01155Y00511
X01144
X01165689Y00493111
X01179Y00485
X01197114Y00493485
X01206Y00485
X01244Y00488
X01251
X01258
Y00495
X01251Y00495
X01244Y00495
Y00502
X01251
X01258
X01298343Y00506514
X012995Y00515
X01325638Y00506556
X01328383Y00493684
X0134218Y00496059
X01339443Y00508883
X01335Y0052
X01345
X01352091Y00514885
X01355109Y0050143
X0136275Y00523963
X0136Y00593
X01319Y0062
Y00629
X0132Y0048
X01311
X01289257Y00484
X01281Y00477
X012825Y00464
X01251145Y00463913
X01243Y00464
X01231
X01241Y00443
X01227Y00434
Y00423
X01225Y00398
X01241Y0039
X012715Y003905
X01289Y00401
Y00409
X01295Y00429285
X01261Y00418
X012Y00407
Y00388
X012125Y00445
X011875Y0044643
X01155Y00434285
X01144
X01112514Y00443917
X01115Y00457
Y00467
X01093486Y00468868
X01094049Y00480912
X01082941Y00472391
X010875Y0045893
X010575
X01055445Y00468486
X01042066Y00464362
X01028687Y00468486
X01015818Y00462974
X01000486Y00458144
Y00444145
X01004071Y00430611
X01011656Y00418844
X01037881Y00420338
X010575Y00411785
X01088Y00414
X01093486Y00404868
Y00388868
X01091853Y00372951
X01077687Y00365514
X01061695Y00365
X01049875Y0033777
X01058083Y00324035
X01071111Y00314748
X01087111Y00314876
X01104736Y00313972
X01109014Y00298554
Y00282554
X01104737Y00251135
X01091031Y00254273
X010935Y00239746
X01085Y0026607
X01055
X01044427Y00249014
X01028427
X01013966Y0025586
X0100177Y0029
X0099377
X00994Y003
X01002
X0100893Y003575
X0098607
X0103Y00385
X01112514Y00379917
Y00395917
Y00411917
X01129Y00398
X01135Y00473
X01127Y00479
X01117828Y00491009
X0110767Y00504279
X010815Y0049857
X010515
X01050089Y00482456
X01036132Y00483552
X01022281Y00481514
X01010613Y00489252
X01003Y005225
X00995
Y005325
X010025
X0102462Y0054681
X01056724Y00556375
X0106675Y0053143
X00973Y0056
X00992Y00628
X009675Y00475
Y00467
X009725Y00245
X0107Y0029893
X01109237Y00329326
X01130501Y0024
X01151501
X01172501
X01193501
X01256501
X01277501
X01298501
X01309001Y00261
X01330001
X01351001
Y00303
X01330001
X01309001
X01319501Y00282
X01288Y00277
X0125545Y0027045
X013075Y003825
X013415Y004275
X009285Y004225
X00909Y00418
X0091Y0037357
X0094
X009425Y0030893
X009125
X009Y00277
X00868001Y00261
X0085Y0024782
X00857501Y0024
X00836501
X008315Y0026
X00805001Y00261
X00803Y00247
X0078901Y0025901
X00773Y00247
X0076
X00747
X00738Y00272
X00737096Y00311904
X0075575Y00298375
X00782Y00282191
Y00315
X00789Y00346
X0082Y003325
X008505Y00336
X00868001Y00303
X00863809Y00398809
X0082Y00386
X00815501Y00366
X00766Y00374
X007355Y003805
X0073225Y00391
X00724Y00395
Y00418
Y00440208
X00720878Y00452174
X00694809Y00452691
X006985Y0048357
X00667Y00483
X00664Y00465
X00668Y00444
X00664Y00423
X0068Y00383
X00645Y00377
X00651Y0037
X00632Y00377478
X00625522Y00389478
X00615Y00395
X00604743Y00394257
X00592119Y00419957
X00589Y0044
X006025Y0044
X00595Y00448
X0061Y00449
X00619Y00447
X00624Y00462
X00631Y004735
X00647Y00494
X00665Y00506
X00652972Y00542458
X00601Y0054
X0057357Y0053424
X0057443Y00522855
X00572934Y00477934
X00585Y0048
Y00456
X00576633Y004535
X00573Y00385339
X0057Y003475
X00587Y00282
X00598Y00275
Y0026
X00628Y0024
X006425Y002525
X00694Y00262
X0069375Y0028893
X00678Y0029893
X00668Y00307
X00656235Y00306234
X0063Y00305
X00618Y00307
X00612Y00296
X00642809Y00332191
X00682Y0033357
X00708
X0071Y00301
X00721Y00365904
X00733Y00366
X00747Y004
X00747Y00435
X0076
X0076Y00447708
X00773Y00448
Y00461
X0076
X00747
Y00448
X00773Y00435
X00772691Y00412038
X00789Y00415
Y00407
X0078851Y0047351
X00805001Y00471
X00804Y00460208
X0082Y004725
X008505Y0047
X00830875Y00443125
X0079Y005
X00789Y0053
X0076175Y00515
X00741191Y00526809
X00721Y00525
X00723Y00506
X00741Y00487
X0073225Y00541
Y00566
X00739Y00574
X0075Y00559
X00704Y005535
X00697899Y00573101
X00692243Y00578757
X00688Y006065
X00703493Y00627507
X00710243Y00623757
X00729257Y00632743
X00754781Y0062375
X00776Y00605
X0079Y005875
X00807Y00587
X0082Y005575
X0085Y0056
X00874Y00576
X00881Y0057
X00889Y00567
X0091Y0054393
X0094
X00957Y0050095
X00909191Y0050107
X00935255Y00601245
X0094393Y00615
X00883Y0062245
X00857501Y00618
X0086143Y00606088
X0061975Y00616
X00622499Y00629999
X006135Y006285
X00613Y00602
X00604
X00589461Y00601891
X0058Y00599
X00616Y00508
X00548075Y00501
X0054Y00511
X0053Y00495
X00527Y00443
X00543Y00439956
X0052Y0041
X00489Y00414
X0049Y00392
X00491Y0038
X00475Y00388
Y00362
X00503Y00367
Y00346
X00509Y0032
X0049Y00312
X004565Y00322641
X00428Y00324
X00423Y00315
X00435Y00312
X0043Y00298
X00423Y0028
X00422Y00257
X00434376Y00250484
X00376Y00259
X00366799Y00258799
X00367Y0025
X0036Y00284
X00348
X00332Y00285
X00322Y00291
X0032167Y00301
Y00311
X00293Y00299
X002726Y00307399
X00264612Y0030698
X00247576Y0030812
X00225576
X00213Y00337
X00249Y00369
X0025Y00436
Y00457
X0024Y004565
X00272Y00421
X00283Y00418
X00296036Y00421964
X00321Y00418
X00319Y004067
X003349Y0041655
X00334575Y00436575
X00358Y00445
X00352Y00493
X00329Y00492
Y00541
Y00591
Y00619
X0034Y0062
X00367Y00634
X0038Y00631
X004135Y006285
X00451
X0045725Y00616
X0044475
X004435Y00600588
X004525Y00603
X004615Y00600588
X00468088Y00594
X004705Y00585
X00468088Y00576
X004615Y00569412
X004525Y00567
X004435Y00569412
X00436912Y00576
X004345Y00585
X00436912Y00594
X0048225Y00591
X0049475
X00501Y006035
X004885
X00476
X00475Y00618
X0048225Y00616
X0049475
X00501Y006285
X00483Y00569
X0048Y00547
X00465Y0055
X0053Y00551
X00542Y00569199
X0047527Y0049
X00469Y00469
X004875Y0047
X00484Y0044
X00472Y0044
X00469Y00449
X00446Y00427
X00449Y00412
X0044Y00412
X00442Y004
X00434
Y00384
X00442
Y00365
X00434
X00416Y00345
X00395847Y00324667
X00397Y00305
X00365Y00311
Y00319
Y00327
X00366Y00353
X00343
X00375Y00392
X00388Y00395
X004Y004
X00407Y00406
X00412Y00395
X00414Y00419
X00428Y00434
Y00442
X00423Y00457
X0042375Y004745
X0043Y0049
X00431Y00514
X00382936Y0051604
X00397Y00605
X0027Y00621
X00239Y00609
X00193Y00501
X00181Y00466
X002855Y003285
X00279191Y00322191
X00287Y00266
X00306Y00268
X00309Y00277
X00308Y00245
X00325488Y00257488
X00262Y00269
X00247Y00263
X00365Y00298
X00484Y0027
X00544Y00312
X00562Y003255
X00566809Y00367691
X0016975Y00366
X001635Y003535
X00151
X001385
X0014475Y00341
X0015725
X0016975
X001635Y003285
X001385
X0013225Y00341
X001065Y003255
X000915Y003545
X000885Y003785
X000915Y003875
X0008225Y00391
X0006975
X0005725
X0004475
X00051Y003785
X000635
X00076
X0005725Y00366
X0004475
X00051Y003535
X0005725Y00341
X0004475
X000385Y003285
X0004475Y00316
X000385Y003035
X00023Y00304
X00008
Y00334
X00023
X00008Y00364
Y00394
X00023
X000385Y004035
Y003785
X00023Y00424
X00008
Y00454
X00023
Y00484
X00008
Y00514
X00023
Y00544
X00008
Y00574
X00023
Y00604
X00008
Y00634
X00023
X000635Y005035
X00076
X000885
X00101
X001135
X00126
X0013225Y00491
X0011975
X0010725
X0009475
X0008225
X0006975
X00076Y004785
X000885
X0008225Y00466
X000885Y004535
X001025Y004545
X001135Y004535
X0011975Y00441
X0013225
X0014475
X0015725
X0016975
X001385Y004535
Y004785
X001135
X0010725Y00441
X00051Y004285
X000635Y004785
X001635Y005035
X0015725Y00516
Y00391
X00141Y00387
X0014475Y00291
X0015725
X0016975
X001635Y002785
X00151
X0015725Y00266
X0016975
X001635Y002535
X001475Y002575
X0013225Y00241
X0009475
X0008225
X0006975
X0005725
X0004475
X00051Y002535
X000635
X00076
X000925Y002575
X00091Y00286
X000635Y003035
X000695Y003155
X00062Y00325
X0004475Y00291
Y00266
X000385Y002535
X00023Y00244
X00008
Y00274
Y00664
X00023
Y00694
X00008
Y00724
X00023
Y00754
X00008
Y00784
X00023
Y00814
X00008
Y00844
X00021Y00854411
X0003Y00852
X00039Y00854411
X00045588Y00861
X00048Y0087
X00045588Y00879
X00039Y00885589
X0003Y00888
X00021Y00885589
X00014411Y00879
X00012Y0087
X00014411Y00861
X0005725Y00866
X00096Y00879
Y00891
X00126
Y00879
X00156
Y00891
X001675Y008625
X001135Y008285
X00101
X0010725Y00816
X0009475
X0008225
X0008Y0079175
X0006975Y00791
X000635Y007535
X00065Y0072
X00076Y007035
X000885
X00101
X001135
X0011975Y00691
X0010725
X0009475
X0008225
X0006975
X00095Y0072
X00127071Y00722071
X00151Y007285
X001575Y0072
X00161Y00701
X00151Y007035
X00089071Y00842929
X00189Y00855
X00186Y00879
Y00891
X00216
Y00879
X00246
Y00891
X00276
Y00879
X00306
Y00891
X00336
Y00879
X00366
Y00891
X00396
Y00879
X00426
Y00891
X00456
Y00879
X00486
Y00891
X00516
Y00879
X00546
Y00891
X00476Y008035
X00461Y008
X00451Y008035
X0045725Y00816
X0044475
X00445Y00764
X0045725Y00766
X004675Y007625
X0050725Y00741
X0051975
X0055725
X00561Y00728
X0054475Y00716
X0053225
X00495Y007175
X0048225Y00691
X00467318Y00689191
X00445Y00677
X00443Y00655
X0044475Y00641
X0040725
X003885Y00643
Y00672
X00368Y00668
X0036975Y00716
X00378Y00712
X00394Y007166
X0040725Y00716
Y00691
X0043225
X00494Y00664
X00502Y00664
X0051
X00518Y00664
X0053225Y00666
X0054475
X005385Y006535
X00526
X0053225Y00641
X0054475
X0051975
X0049475
X004885Y006535
X005635
X0031975Y00641
X0030725
X0029475
X0028225
X0026975
X00256Y006405
X0020725Y00641
X00199Y0067
X0019475Y00691
X0020725
X0024475
X00255Y00694285
X00279Y00693
X0029475Y00691
X00301Y007035
X0030725Y00716
X003135Y007285
X00326
X00315Y00695
X00320521Y0068
X00251Y007285
X002385
X0024475Y00741
X00251Y007785
X002635
X00276
X0026975Y00791
Y00816
X0023225
X0021975
X00226Y008285
X002385
Y008035
X00226
X002135
X00201
X001885
X0021975Y00791
X0023225
X002385Y007785
X00211Y00781
X0019857Y007325
X0031975Y00816
X0034475
X0036975
X00573Y007655
X0060725Y00716
X0063225
X0062Y00702
X0061975Y00666
X0063225
X00645Y00666
X0060725Y00666
X0059475
X0056975
X006135Y006535
X0061975Y00641
X00671Y00635462
X006735Y00648
X0069475Y00666
X00729243Y00666243
X00738Y00666
X00726Y007075
X00726Y00716
X0071Y00718
X0072Y00729
X00732Y00738
X00723Y00749
X0071975Y00766
X00723Y00776
X0071975Y00791
X00723Y00802
X00724Y00843
X0069837Y00838
X00696Y00879
Y00891
X00726
Y00879
X00756
Y00891
X00786
Y00879
X00816
Y00891
X00846
Y00879
X00876
Y00891
X00906
Y00879
X00936
Y00891
X00966
Y00879
X00938404Y00781096
X00945Y007705
X00926Y0073107
X009395Y007
X009665Y00678
X00949Y00637
X009395Y00646
X008795Y006865
X00851Y006885
X00845Y0068
X00821Y00684
X00814Y00671
X008015Y0067
X00796Y00705465
X00773Y007075
X00777Y006975
X00789Y00728729
X0077168Y0073651
X00758Y00733
X00771Y0077575
Y008025
Y0082925
Y0083925
X00806096Y0084075
X00822875Y00829125
X0082223Y008025
X00822Y0077575
Y00749
X0085Y00739
Y00763
Y00791
Y00819
X00862Y00839
X0088
X0086143Y007225
X00703Y00764
X00689Y00791
X00654Y00776
X00644Y00838
X00636Y00879
Y00891
X00606
Y00879
X00576
Y00891
X00666
Y00879
X006705Y007075
X0070475Y0063725
X00992Y00637
X00991Y00647
X009925Y0065857
X0103
X01045Y0069
X01035Y0073857
X0103Y0076607
X00992Y0074607
X00992054Y0070729
X009925Y00791229
X00969Y00839
X00996Y00879
Y00891
X01026
Y00879
X01056
Y00891
X01086
Y00879
X01116
Y00891
X01146
Y00879
X01176
Y00891
X01206
Y00879
X01236
Y00891
X01266
Y00879
X01296
Y00891
X01326
Y00879
X01356
Y00891
X0134487Y00822486
X0133287
X0132087
X013275Y00804
X013025Y0080393
X0128Y0080393
X01261401Y00798378
X01249456Y00799527
X01237261Y00798249
X01235501Y00786
X01256501
X01251Y00771
Y00745
X01251Y007375
X01251Y0073
X01259
Y00738
Y00745
X01243
Y00738
Y0073
X01242Y00704
X01265Y00705
X01278Y006965
X01298Y007015
X01301Y00732
X0129Y00728
X01289774Y007365
X01295388Y00749014
X01283388
X01288001Y00765
X01309001
X0130681Y00752693
X01318427Y00749685
X01330054Y00752653
X01330001Y00765
X01327Y00777
X01339
X01350209Y00765428
X01346439Y00746151
X0133566Y00740878
X0132416Y00737448
X0131799Y00727909
X0130607Y00668
X0128607Y00645
X01279Y0065
X01255809Y00649191
X01205Y006795
X01205Y007
X0118Y0069393
X01177Y007275
X0117618Y00735985
X0116218
X0114818
X01141Y00728
X01127Y0072
X01121Y00705
X01107
X01103075Y00711903
X01101515Y0069799
Y0068399
X01135Y00691
X01141Y00678
X0115Y00675
X0118Y006565
X01101515Y0064199
X01078349Y00646326
Y00660326
X010875Y00731
X01089485Y00741754
Y00755754
Y00769754
X0109031Y00783729
X0110311Y00781318
X01102514Y0076733
Y00753331
Y00739331
X01150887Y00749014
X01164887
X01185Y007625
X012Y0075
Y007355
X01225001Y00765
X01227249Y00808034
X012125Y0080393
X0119
X011675
X01145
X01094015Y0079723
X01247198Y00823
X01362Y00812
X0137401Y00802766
X01375668Y00790881
X01390227Y00787014
X01405Y0077893
X01427
X014275Y00755
X01405
X01373256Y00770043
X01383Y00725
X013925Y0069
X01405Y007025
X01405Y0065607
X01427
X0144607Y00652
X0144Y006904
X01494Y00704
X01534191Y00694191
X01557191Y00695191
X015575Y0074
X01535
X015375Y007825
X0156
X01575Y00817
X01566Y00879
Y00891
X01596
Y00879
X01626
Y00891
X01656
Y00879
X01686
Y00891
X01716
Y00879
X01746
Y00891
X0172543Y0080643
X01686Y00791
X0165Y00735
X01633Y0074093
X01588Y00751
X0158793Y0065893
X01577Y00641
X016225Y006485
X0153Y0065
X01491809Y00779809
X01492Y00816
X01466154Y00804671
X01458191Y00767191
X01446Y00879
Y00891
X01476
Y00879
X01506
Y00891
X01536
Y00879
X01416
Y00891
X01386
Y00879
X01383Y00843
X01405Y00843
X01686Y00697
X017365Y007195
X01759Y00719
X017475Y007335
X0176186Y00731862
X01776053Y00738196
X01772752Y00756399
X017715Y00784
X0177243Y0080643
X01813001Y00807
X01834001
X01857Y00814
X01872
Y00844
X01865589Y00861
X01868Y0087
X01865589Y00879
X01859Y00885589
X0185Y00888
X01841Y00885589
X01836Y00891
X01834411Y00879
X01832Y0087
X01834411Y00861
X01834001Y00849
X01841Y00854411
X0185Y00852
X01859Y00854411
X01844501Y00828
X01823501
X01802501
X01813001Y00849
X01806Y00879
Y00891
X01776
Y00879
X01802501Y00786
X01823501
X01844501
X01857Y00784
X01872
Y00754
X01857
X01844501Y00744
X01823501
X01802501
X01813001Y00765
X01834001
Y00723
X01813001
X01783452Y00721239
X01783731Y00702742
Y00684242
X017705Y00686
X01770269Y00696884
X01802501Y00702
X01823501
X01844501
X01857Y00694
X01872
Y00724
X01857
Y00664
X01872
X01844501Y0066
X01823501
X01802501
X01798928Y00652202
X01790899Y00640221
X01807952Y00636051
X01834001Y00639
Y00681
X01813001
X0178656Y00665959
X01779051Y0065443
X01760921Y00650749
T05
X007488Y00057
X007742
X007996
X00825
T06
X013142Y001683
X013396
X015767
X016021
X002009Y005406
Y00566
Y005914
Y006168
X001755Y006295
Y006041
Y005787
Y005533
T07
X001721Y000551
Y000805
X001975
X002229
X002483
X002737
X002991
X003245
X003499
Y000551
X003245
X002991
X002737
X002483
X002229
X001975
X004797Y000551
X005051
X005305
X005559
Y000805
X005305
X005051
X004797
X005813
X006067
Y000551
X006321
X006575
Y000805
X006321
X005813Y000551
X004294Y008013
X00404
Y008267
X004294
X003786
X003532
Y008013
X003786
X003278
X003024
Y008267
X003278
X00277
Y008013
X002516
Y008267
T08
X00078Y00145
Y001704
Y001958
X001615Y001979
Y001725
Y001471
X000714Y005188
Y005442
Y006259
Y006513
T09
X00475Y006363
Y006617
T10
X001425Y005076
Y006625
T11
X012634Y001175
X01365
X015259
X016275
T12
X0003Y0003
X0096Y0007
X0185Y0003
X004525Y00585
X0003Y0087
X0185
T13
X0006875Y002891
Y003469
T14
X00112Y005279
Y006422
M30
