M48
;Layer_Color=9474304
;FILE_FORMAT=4:4
METRIC,LZ
;TYPE=PLATED
T1F00S00C0.2000
T2F00S00C0.3000
T3F00S00C0.3500
T4F00S00C0.5000
T5F00S00C1.0000
T6F00S00C1.5000
T7F00S00C3.0000
%
T01
X00555929Y00024499
X00564895Y00022041
X00573889Y00024394
X00580501Y0003093
X0058296Y00039895
X00580606Y00048889
X0057407Y00055501
X00565105Y00057959
X00556111Y00055606
X00549499Y0004907
X0054704Y00040105
X00549394Y00031111
X00050501Y0003093
X00052959Y00039895
X00050606Y00048889
X0004407Y00055501
X00035105Y00057959
X00026111Y00055606
X0002593Y00024499
X00034895Y00022041
X00043889Y00024394
X00019394Y00031111
X0001704Y00040105
X00019499Y0004907
X0024093Y00359499
X00249895Y0035704
X00258889Y00359394
X00265501Y0036593
X00267959Y00374895
X00265606Y00383889
X0025907Y00390501
X00250105Y0039296
X00241111Y00390606
X00234499Y00384071
X00232041Y00375105
X00234394Y00366111
X0055093Y00679499
X00559895Y0067704
X00568889Y00679394
X00575501Y0068593
X0057796Y00694895
X00575606Y00703889
X0056907Y00710501
X00560105Y0071296
X00551111Y00710606
X00544499Y0070407
X0054204Y00695105
X00544394Y00686111
X00055501Y0068593
X00057959Y00694895
X00055606Y00703889
X0004907Y00710501
X00040105Y0071296
X00031111Y00710606
X00024499Y0070407
X00024394Y00686111
X0003093Y00679499
X00039895Y0067704
X00048889Y00679394
X00022041Y00695105
T02
X00430001Y0001
X00440001
X00450001
X00460001
X00470001
X00480001
X00490001
X00500001
X00510001
X00520001
X00530001
X00540001
X00550001
X00560001
X00540001Y0002
Y0003
X00530001
Y0004
Y0005
X00540001
Y0006
Y0007
X00550001
X00560001
X00570001
X00580001
X00590001
Y0008
Y0009
Y001
Y0011
Y0012
Y0013
Y0014
Y0015
Y0016
Y0017
Y0018
Y0019
Y002
Y0021
Y0022
X00580001
Y0021
Y002
Y0019
Y0018
Y0017
Y0016
Y0015
Y0014
Y0013
Y0012
Y0011
Y001
Y0009
Y0008
X00570001
Y0009
Y001
Y0011
Y0012
Y0013
Y0014
Y0015
Y0016
Y0017
Y0018
Y0019
Y002
X00560001
Y0019
Y0018
Y0017
Y0016
Y0015
Y0014
Y0013
Y0012
Y0011
Y001
Y0009
Y0008
X00550001
Y0009
Y001
Y0011
Y0012
Y0013
Y0014
Y0015
Y0016
Y0017
Y0018
Y0019
Y002
X00540001
Y0019
Y0018
Y0017
Y0016
Y0015
Y0014
Y0013
Y0012
Y0011
Y001
Y0009
Y0008
X00530001
Y0009
Y001
Y0011
Y0012
Y0013
Y0014
Y0015
Y0016
Y0017
Y0018
Y0019
Y002
X00520001
Y0019
Y0018
Y0017
Y0016
Y0015
Y0014
Y0013
Y0012
Y0011
Y001
Y0009
Y0008
Y0007
X00530001
Y0006
X00520001
Y0005
Y0004
Y0003
Y0002
X00530001
X00510001
Y0003
Y0004
Y0005
Y0006
Y0007
Y0008
Y0009
Y001
Y0011
Y0012
Y0013
Y0014
Y0015
Y0016
Y0017
Y0018
Y0019
Y002
X00470001Y0017
Y0016
X00460001
Y0017
X00450001
Y0016
X00427Y00193
X00430001Y0008
X00440001
X00450001
X00440001Y0007
X00430001
Y0006
X00480001
X00490001
X00500001
Y0007
Y0008
X00490001Y0007
Y0005
X00500001
Y0004
Y0003
Y0002
X00490001
Y0003
Y0004
X00480001
Y0005
X00470001
Y0004
Y0003
X00480001
Y0002
X00470001
X00460001
Y0003
Y0004
X00450001Y0003
Y0002
X00440001
X00590001Y0003
Y0005
Y0006
X00420001
Y0007
Y0008
X00410001
Y0007
Y0006
Y0005
X00420001
Y0001
X00410001
X00400001
X00390001
X00380001
X00370001
X00360001
X00350001
X00340001
X00330001
X00320001
X00310001
X00300001
X00290001
X00280001
X00270001
X0026
X0025
X0024
X0023
X0022
X0021
X002
X0019
X0018
X0017
Y0002
X0016
Y0003
X0015
Y0004
Y0005
Y0006
Y0007
Y0008
Y0009
Y001
X0014
Y0009
Y0008
Y0007
Y0006
Y0005
Y0004
Y0003
Y0002
X0015
Y0001
X0016
X0014
X0013
Y0002
Y0003
Y0004
Y0005
Y0006
Y0007
Y0008
Y0009
Y001
X0012
Y0009
Y0008
Y0007
Y0006
Y0005
Y0004
Y0003
Y0002
Y0001
X0011
Y0002
Y0003
Y0004
Y0005
Y0006
Y0007
Y0008
Y0009
Y001
X001
Y0009
Y0008
Y0007
Y0006
Y0005
Y0004
Y0003
Y0002
Y0001
X0009
Y0002
Y0003
Y0004
Y0005
Y0006
Y0007
Y0008
Y0009
Y001
X0008
Y0009
Y0008
Y0007
Y0006
Y0005
Y0004
Y0003
Y0002
Y0001
X0007
Y0002
Y0003
Y0004
Y0005
Y0006
Y0007
Y0008
Y0009
Y001
X0006
Y0011
X0005
Y0012
X0004
Y0013
X0003
Y0014
Y0012
Y0011
X0004
Y001
X0005
Y0009
X0006
Y0008
Y0007
Y0006
Y0005
Y0003
Y0002
Y0001
X0005
X0004
X0003
Y0007
X0004
X0005
Y0008
X0004
Y0009
X0003
Y001
Y0008
X0007Y0014
X0011
X0012
X0013
X00143Y00142
X0011Y0015
X001
X002
X0021
X00229Y00185
X0025Y0019
X00261Y0018
X00292Y00169
Y00212
Y00221
X00204Y00218
X00059
X0021Y0007
Y0006
X0026
X00310001
X00360001
X00362Y0013204
X00400001Y0013
X00410001
Y0014
Y0015
Y0016
X0002
Y0017
Y0018
Y0019
Y002
Y0021
Y0022
X0001
Y0021
Y002
Y0019
Y0018
Y0017
Y0016
Y0015
X0002
Y0014
Y0013
Y0012
Y0011
Y001
Y0009
Y0008
Y0007
X0001
Y0008
Y0009
Y001
Y0011
Y0012
Y0013
Y0014
Y0006
Y0005
Y0003
Y0023
X0002
Y0024
Y0025
Y0026
Y0027
Y0028
Y0029
Y003
Y0031
Y0032
Y0033
Y0034
Y0035
Y0036
Y0037
Y0038
Y0039
Y004
Y0041
Y0042
Y0043
Y0044
Y0045
Y00460001
Y00470001
Y00480001
Y00490001
Y00500001
Y00510001
Y00520001
Y00530001
Y00540001
Y00550001
Y00560001
Y00570001
Y00580001
Y00590001
Y00600001
Y00610001
Y00620001
X0001
Y00610001
Y00600001
Y00590001
Y00580001
Y00570001
Y00560001
Y00550001
Y00540001
Y00530001
Y00520001
Y00510001
Y00500001
Y00490001
Y00480001
Y00470001
Y00460001
Y0045
Y0044
Y0043
Y0042
Y0041
Y004
Y0039
Y0038
Y0037
Y0036
Y0035
Y0034
Y0033
Y0032
Y0031
Y003
Y0029
Y0028
Y0027
Y0026
Y0025
Y0024
X0003Y0025
Y0026
Y0037
X0004
X0005
X0006
X0007
Y0038
Y0039
Y004
Y0041
Y0042
Y0043
X0006
Y0044
Y0045
X0005
Y0044
Y0043
Y0042
X0006
Y0041
Y004
Y0039
Y0038
X0005
Y0039
Y004
Y0041
X0004
Y0042
Y0043
Y0044
Y0045
X0003
Y0044
Y0043
Y0042
Y0041
Y004
X0004
Y0039
Y0038
X0003
Y0039
X001Y0038
X0011
X0012
X0013
X0014
X0015
X0016
X0017
X0018
X0019
X002
X0021
Y0039
Y004
Y0041
X002Y004
Y0039
X0019
Y0037
X002
X0021
Y0036
Y0035
Y0034
X002
Y0035
Y0036
X0018Y0037
X0014
X0013
X0012
X0011
X001
Y0041
X0011
X0012
X0013
X0014
Y0042
X0015
X0013
X0012
X0011
X0010204Y0043
X00138Y00445
X0017Y0044
Y0045
X00162Y00405
X0024Y0043
X0025
X0026
Y0044
Y0045
X00270001
X00280001
X00300001Y0044
Y0043
X00310001
Y0042
X00320001
X00300001
X00303Y0047529
X00303152Y00515332
X00296Y0052
X00268758Y00491544
X0026Y00480001
Y00470001
Y00460001
X0025
Y00470001
Y00480001
X0024
Y00470001
Y00460001
Y0045
X0025
Y0044
X0024
X0023Y0045
X00209546Y00503788
X00209521Y00511788
X00201641Y00519014
X00199685Y00536109
X0022Y00620001
X0023
X0024
X0025
X0026
X00270001
X00280001
X00290001
X00300001
X00310001
X00300001Y00610001
X0026
X0025
X0024
X00340001Y00620001
X00380001
X00121Y00577
X0007Y00585
X00204Y0023
X002475Y00265
X00292Y00237548
X00320001Y0028
X00330001
X00510001Y0027
X00520001
X00530001
X00540001
X00550001
Y0028
Y003
Y0031
X00540001
X00530001
X00520001
X00510001
X00580001
X00590001
Y0032
Y0033
Y0034
Y0035
Y0036
Y0037
Y0038
Y0039
Y004
Y0041
Y0042
Y0043
Y0044
Y0045
Y00460001
Y00470001
Y00480001
Y00490001
Y00500001
Y00510001
Y00520001
Y00530001
Y00540001
Y00550001
Y00560001
Y00570001
Y00580001
Y00590001
Y00600001
Y00610001
Y00620001
X00580001
Y00610001
Y00600001
Y00590001
Y00580001
Y00570001
Y00560001
Y00550001
Y00540001
Y00530001
Y00520001
Y00510001
Y00500001
Y00490001
Y00480001
Y00470001
Y00460001
Y0045
Y0044
Y0043
Y0042
Y0041
Y004
Y0039
Y0038
Y0037
Y0036
Y0035
Y0034
Y0033
Y0032
Y003
X00590001
Y0029
Y0028
Y0027
Y0026
Y0025
Y0024
Y0023
X00580001
Y0024
Y0025
Y0026
Y0027
Y0028
Y0029
X00550001Y0024
X00540001
X00530001
X00520001
X00510001
X00440001Y00550001
X00443Y0056
X00440001Y00630001
X00450001
Y00640001
X00440001
X00430001
Y00630001
Y00720001
X00440001
X00450001
X00460001
X00470001
X00480001
X00490001
X00500001
X00510001
X00520001
X00530001
X00540001
X00550001
X00570001
X00590001Y00700001
Y00690001
Y00680001
Y00670001
Y00660001
Y00650001
Y00640001
Y00630001
X00580001
Y00640001
Y00650001
Y00660001
Y00670001
X00570001
Y00660001
Y00650001
Y00640001
X00420001Y00630001
X00410001
X00400001
X00390001
X00380001
X00370001
X00340001
X00310001
X00300001
X00290001
Y00640001
Y00650001
Y00660001
X00280001
Y00650001
Y00640001
Y00630001
X00270001
Y00640001
Y00650001
Y00660001
X0024
Y00650001
Y00640001
Y00630001
X0023
Y00640001
Y00650001
Y00660001
X0022
Y00650001
Y00640001
Y00630001
X0021
Y00640001
Y00650001
Y00660001
X002
Y00650001
Y00640001
Y00630001
X0019
Y00640001
Y00650001
Y00660001
X0018Y00640001
Y00630001
X0017
Y00640001
X0016
Y00630001
X0015
Y00640001
X0014
Y00630001
X0013
X001
Y00720001
X0011
X0012
X0013
X0014
X0015
X0016
X0017
X0018
X0019
X002
X0021
X0022
X0023
X0024
X0025
X0026
X00270001
X00280001
X00290001
X00300001
X00310001
X00320001
X00330001
X00340001
X00350001
X00360001
X00370001
X00380001
X00390001
X00400001
X00410001
X00420001
X0009
X0008
X0007
X0006
X0005
X0003
X0001Y00700001
Y00690001
Y00680001
Y00670001
X0002
Y00660001
Y00650001
Y00640001
Y00630001
X0001
Y00640001
Y00650001
Y00660001
T03
X00427Y00201
X0037Y00132
X00292Y0016
X00299Y00208
Y00216
X00261Y00188
X00196Y00218
X00143Y00134
X00196Y0023
X00256Y00265
X00059Y00226
X001Y0042
X0015Y0041
X00138Y00454
X00201Y005
Y0051
Y00544
X00304Y005235
X00295Y00477
X0027311Y00484831
X0007Y00576
X00448Y00552
T04
X00465Y0013
X00565Y00209
X00345Y00223
X0035Y0009
X00041Y00188
X00174Y00324
X00260569Y00301943
X0034Y0039
X00405Y00465
X00367Y00522
X002815Y005875
X00099999Y0048
X00439Y00605
X00565Y0046
X00444Y00323
X00455Y0029
X00439Y00248
T05
X001972Y00051
Y000764
X002226
X00248
X002734
X002988
X003242
X003496
X00375
Y00051
X003496
X003242
X002988
X002734
X00248
X002226
T06
X00515Y004475
Y004975
T07
X00565Y0004
X00035
X0025Y00375
X0056Y00695
X0004
M30
