G04*
G04 #@! TF.GenerationSoftware,Altium Limited,Altium Designer,25.3.2 (17)*
G04*
G04 Layer_Color=32768*
%FSLAX44Y44*%
%MOMM*%
G71*
G04*
G04 #@! TF.SameCoordinates,DB8DDDC1-B0E2-4658-990C-9C265D1726FE*
G04*
G04*
G04 #@! TF.FilePolarity,Positive*
G04*
G01*
G75*
%ADD13C,0.1000*%
%ADD171C,0.0500*%
D13*
X63061Y673034D02*
G03*
X23021Y672055I-18336J-69399D01*
G01*
Y498045D02*
G03*
X63061Y497066I21704J68420D01*
G01*
X3000Y504400D02*
Y665700D01*
Y504400D02*
X218900D01*
Y665700D01*
X3000D02*
X218900D01*
X3000D02*
X23000Y672050D01*
X63000Y673050D02*
X75000Y669050D01*
X78000D01*
X3000Y504400D02*
X23000Y498050D01*
X63000Y497050D02*
X75000Y501050D01*
X78000D01*
X267576Y323120D02*
Y333120D01*
X262576Y328120D02*
X272576D01*
X614750Y324000D02*
Y378000D01*
X564500D02*
X614750D01*
X564500Y324000D02*
Y378000D01*
Y324000D02*
X614750D01*
X661000Y589500D02*
X670500Y580000D01*
Y560500D02*
Y589500D01*
X654500Y560500D02*
X670500D01*
X654500D02*
Y589500D01*
X670500D01*
X508000Y606000D02*
X517500Y615500D01*
X508000D02*
X537000D01*
Y599500D02*
Y615500D01*
X508000Y599500D02*
X537000D01*
X508000D02*
Y615500D01*
X567500Y480000D02*
X572500Y485000D01*
X567500D02*
X637500D01*
Y415000D02*
Y485000D01*
X567500Y415000D02*
X637500D01*
X567500D02*
Y485000D01*
X521000Y121500D02*
X574000D01*
Y223500D01*
X521000D02*
X574000D01*
X521000Y121500D02*
Y223500D01*
Y128000D02*
X527500Y121500D01*
X1231000Y757500D02*
X1271000D01*
Y717500D02*
Y757500D01*
X1231000Y717500D02*
X1271000D01*
X1231000D02*
Y757500D01*
Y752500D02*
X1236000Y757500D01*
X1677500Y667500D02*
Y677500D01*
X1672500Y672500D02*
X1682500D01*
X1677500Y762500D02*
Y772500D01*
X1672500Y767500D02*
X1682500D01*
X1231000Y515000D02*
X1271000D01*
Y475000D02*
Y515000D01*
X1231000Y475000D02*
X1271000D01*
X1231000D02*
Y515000D01*
Y510000D02*
X1236000Y515000D01*
X1682500Y425000D02*
Y435000D01*
X1677500Y430000D02*
X1687500D01*
X1682500Y515000D02*
Y525000D01*
X1677500Y520000D02*
X1687500D01*
X1480900Y230000D02*
Y240000D01*
X1475900Y235000D02*
X1485900D01*
X1223400Y230000D02*
Y240000D01*
X1218400Y235000D02*
X1228400D01*
X750000Y600000D02*
Y610000D01*
X745000Y605000D02*
X755000D01*
X692500Y662500D02*
X722500D01*
X692500Y632500D02*
Y662500D01*
Y632500D02*
X722500D01*
Y662500D01*
X717500D02*
X722500Y657500D01*
X370000Y582500D02*
Y592500D01*
X365000Y587500D02*
X375000D01*
X545000Y520000D02*
X550000Y515000D01*
X520000Y520000D02*
X550000D01*
X520000Y490000D02*
Y520000D01*
Y490000D02*
X550000D01*
Y520000D01*
X405000Y707500D02*
X415000D01*
X410000Y702500D02*
Y712500D01*
X327500Y707500D02*
X337500D01*
X332500Y702500D02*
Y712500D01*
X261450Y707000D02*
X264000Y709550D01*
Y707000D02*
Y713000D01*
X256000D02*
X264000D01*
X256000Y707000D02*
Y713000D01*
Y707000D02*
X264000D01*
X1240400Y40000D02*
X1388000D01*
X1240400D02*
Y181000D01*
X1388000D01*
Y40000D02*
Y181000D01*
X1377700Y-47600D02*
Y40000D01*
X1250700Y-47600D02*
X1377700D01*
X1250700D02*
Y40000D01*
X1364200Y-168300D02*
Y-47600D01*
X1264200Y-168300D02*
X1364200D01*
X1264200D02*
Y-47600D01*
X1364200Y-140000D02*
X1369550D01*
Y-125000D01*
X1364200D02*
X1369550D01*
X1258850Y-140000D02*
X1264200D01*
X1258850D02*
Y-125000D01*
X1264200D01*
X1502900Y40000D02*
X1650500D01*
X1502900D02*
Y181000D01*
X1650500D01*
Y40000D02*
Y181000D01*
X1640200Y-47600D02*
Y40000D01*
X1513200Y-47600D02*
X1640200D01*
X1513200D02*
Y40000D01*
X1626700Y-168300D02*
Y-47600D01*
X1526700Y-168300D02*
X1626700D01*
X1526700D02*
Y-47600D01*
X1626700Y-140000D02*
X1632050D01*
Y-125000D01*
X1626700D02*
X1632050D01*
X1521350Y-140000D02*
X1526700D01*
X1521350D02*
Y-125000D01*
X1526700D01*
X750000Y693000D02*
Y703000D01*
X745000Y698000D02*
X755000D01*
X735000Y254250D02*
X740000Y259250D01*
X735000Y209250D02*
Y259250D01*
Y209250D02*
X785000D01*
Y259250D01*
X735000D02*
X785000D01*
X735000Y467708D02*
X740000Y472708D01*
X735000Y422708D02*
Y472708D01*
Y422708D02*
X785000D01*
Y472708D01*
X735000D02*
X785000D01*
X587852Y720000D02*
Y747000D01*
X604352D01*
Y720000D02*
Y747000D01*
X587852Y720000D02*
X604352D01*
X587852Y726200D02*
X594052Y720000D01*
X564019D02*
Y747000D01*
X580519D01*
Y720000D02*
Y747000D01*
X564019Y720000D02*
X580519D01*
X564019Y726200D02*
X570219Y720000D01*
X652019D02*
Y747000D01*
X635519Y720000D02*
X652019D01*
X635519D02*
Y747000D01*
X652019D01*
X645819D02*
X652019Y740800D01*
X628186Y720000D02*
Y747000D01*
X611685Y720000D02*
X628186D01*
X611685D02*
Y747000D01*
X628186D01*
X621986D02*
X628186Y740800D01*
X596000Y805000D02*
Y815000D01*
X591000Y810000D02*
X601000D01*
X303000Y213000D02*
Y223000D01*
X298000Y218000D02*
X308000D01*
X329000Y185000D02*
X339000D01*
X334000Y180000D02*
Y190000D01*
X321500Y235000D02*
X346500D01*
X321500Y203000D02*
Y235000D01*
Y203000D02*
X346500D01*
Y235000D01*
X242600Y401350D02*
X255300Y414050D01*
X242600Y361250D02*
Y414050D01*
Y361250D02*
X295400D01*
Y414050D01*
X242600D02*
X295400D01*
X110380Y309620D02*
X119880Y319120D01*
X110380Y289880D02*
Y319120D01*
Y289880D02*
X126620D01*
Y319120D01*
X110380D02*
X126620D01*
X337170Y308820D02*
X347170D01*
X342170Y303820D02*
Y313820D01*
X970500Y798250D02*
X1009500D01*
Y711750D02*
Y798250D01*
X970500Y711750D02*
X1009500D01*
X970500D02*
Y798250D01*
Y785550D02*
X983200Y798250D01*
D171*
X257576Y311120D02*
X277576D01*
X257576Y345120D02*
X277576D01*
X257576Y311120D02*
Y345120D01*
X277576Y311120D02*
Y345120D01*
X732600Y71950D02*
X841200D01*
Y42050D02*
Y71950D01*
X732600Y42050D02*
X841200D01*
X732600D02*
Y71950D01*
X-22020Y128150D02*
Y212650D01*
X-22020Y128150D02*
X87000D01*
Y212650D01*
X-22020D02*
X87000D01*
X1442750Y670000D02*
Y725000D01*
Y670000D02*
X1517250D01*
Y725000D01*
X1442750D02*
X1517250D01*
X1442750Y782500D02*
Y837500D01*
Y782500D02*
X1517250D01*
Y837500D01*
X1442750D02*
X1517250D01*
X1635500Y642500D02*
X1719500D01*
X1635500Y702500D02*
X1719500D01*
Y642500D02*
Y702500D01*
X1635500Y642500D02*
Y702500D01*
Y737500D02*
X1719500D01*
X1635500Y797500D02*
X1719500D01*
Y737500D02*
Y797500D01*
X1635500Y737500D02*
Y797500D01*
X1442750Y425000D02*
Y480000D01*
Y425000D02*
X1517250D01*
Y480000D01*
X1442750D02*
X1517250D01*
X1442750Y587500D02*
X1517250D01*
Y532500D02*
Y587500D01*
X1442750Y532500D02*
X1517250D01*
X1442750D02*
Y587500D01*
X1640500Y400000D02*
X1724500D01*
X1640500Y460000D02*
X1724500D01*
Y400000D02*
Y460000D01*
X1640500Y400000D02*
Y460000D01*
Y490000D02*
X1724500D01*
X1640500Y550000D02*
X1724500D01*
Y490000D02*
Y550000D01*
X1640500Y490000D02*
Y550000D01*
X1465900Y223000D02*
X1495900D01*
X1465900Y247000D02*
X1495900D01*
Y223000D02*
Y247000D01*
X1465900Y223000D02*
Y247000D01*
X1208400Y223000D02*
X1238400D01*
X1208400Y247000D02*
X1238400D01*
Y223000D02*
Y247000D01*
X1208400Y223000D02*
Y247000D01*
X730000Y623000D02*
X770000D01*
X730000Y587000D02*
X770000D01*
X730000D02*
Y623000D01*
X770000Y587000D02*
Y623000D01*
X340000Y629500D02*
X400000D01*
X340000Y545500D02*
X400000D01*
X340000D02*
Y629500D01*
X400000Y545500D02*
Y629500D01*
X960250Y317500D02*
X1034750D01*
Y262500D02*
Y317500D01*
X960250Y262500D02*
X1034750D01*
X960250D02*
Y317500D01*
Y230000D02*
X1034750D01*
Y175000D02*
Y230000D01*
X960250Y175000D02*
X1034750D01*
X960250D02*
Y230000D01*
Y547500D02*
X1034750D01*
Y492500D02*
Y547500D01*
X960250Y492500D02*
X1034750D01*
X960250D02*
Y547500D01*
Y457500D02*
X1034750D01*
Y402500D02*
Y457500D01*
X960250Y402500D02*
X1034750D01*
X960250D02*
Y457500D01*
X388000Y716750D02*
X432000D01*
X388000Y698250D02*
Y716750D01*
Y698250D02*
X432000D01*
Y716750D01*
X310500Y698250D02*
X354500D01*
Y716750D01*
X310500D02*
X354500D01*
X310500Y698250D02*
Y716750D01*
X730000Y716000D02*
X770000D01*
X730000Y680000D02*
X770000D01*
X730000D02*
Y716000D01*
X770000Y680000D02*
Y716000D01*
X562500Y767500D02*
Y852500D01*
Y852500D02*
X629500D01*
X562500Y767500D02*
X629500D01*
Y767500D02*
Y852500D01*
X293000Y200500D02*
X313000D01*
X293000Y235500D02*
X313000D01*
X293000Y200500D02*
Y235500D01*
X313000Y200500D02*
Y235500D01*
X316500Y175000D02*
Y195000D01*
X351500Y175000D02*
Y195000D01*
X316500D02*
X351500D01*
X316500Y175000D02*
X351500D01*
X301420Y268070D02*
Y349570D01*
X382920Y268070D02*
Y349570D01*
X301420D02*
X382920D01*
X301420Y268070D02*
X382920D01*
M02*
