G04*
G04 #@! TF.GenerationSoftware,Altium Limited,Altium Designer,25.3.2 (17)*
G04*
G04 Layer_Color=16711935*
%FSLAX44Y44*%
%MOMM*%
G71*
G04*
G04 #@! TF.SameCoordinates,DB8DDDC1-B0E2-4658-990C-9C265D1726FE*
G04*
G04*
G04 #@! TF.FilePolarity,Negative*
G04*
G01*
G75*
%ADD72C,6.0000*%
G04:AMPARAMS|DCode=75|XSize=1.6032mm|YSize=1.9032mm|CornerRadius=0.2766mm|HoleSize=0mm|Usage=FLASHONLY|Rotation=270.000|XOffset=0mm|YOffset=0mm|HoleType=Round|Shape=RoundedRectangle|*
%AMROUNDEDRECTD75*
21,1,1.6032,1.3500,0,0,270.0*
21,1,1.0500,1.9032,0,0,270.0*
1,1,0.5532,-0.6750,-0.5250*
1,1,0.5532,-0.6750,0.5250*
1,1,0.5532,0.6750,0.5250*
1,1,0.5532,0.6750,-0.5250*
%
%ADD75ROUNDEDRECTD75*%
G04:AMPARAMS|DCode=77|XSize=1.2032mm|YSize=1.9032mm|CornerRadius=0.2266mm|HoleSize=0mm|Usage=FLASHONLY|Rotation=180.000|XOffset=0mm|YOffset=0mm|HoleType=Round|Shape=RoundedRectangle|*
%AMROUNDEDRECTD77*
21,1,1.2032,1.4500,0,0,180.0*
21,1,0.7500,1.9032,0,0,180.0*
1,1,0.4532,-0.3750,0.7250*
1,1,0.4532,0.3750,0.7250*
1,1,0.4532,0.3750,-0.7250*
1,1,0.4532,-0.3750,-0.7250*
%
%ADD77ROUNDEDRECTD77*%
G04:AMPARAMS|DCode=78|XSize=1.6032mm|YSize=1.9032mm|CornerRadius=0.2766mm|HoleSize=0mm|Usage=FLASHONLY|Rotation=0.000|XOffset=0mm|YOffset=0mm|HoleType=Round|Shape=RoundedRectangle|*
%AMROUNDEDRECTD78*
21,1,1.6032,1.3500,0,0,0.0*
21,1,1.0500,1.9032,0,0,0.0*
1,1,0.5532,0.5250,-0.6750*
1,1,0.5532,-0.5250,-0.6750*
1,1,0.5532,-0.5250,0.6750*
1,1,0.5532,0.5250,0.6750*
%
%ADD78ROUNDEDRECTD78*%
G04:AMPARAMS|DCode=81|XSize=1.2032mm|YSize=1.9032mm|CornerRadius=0.2266mm|HoleSize=0mm|Usage=FLASHONLY|Rotation=90.000|XOffset=0mm|YOffset=0mm|HoleType=Round|Shape=RoundedRectangle|*
%AMROUNDEDRECTD81*
21,1,1.2032,1.4500,0,0,90.0*
21,1,0.7500,1.9032,0,0,90.0*
1,1,0.4532,0.7250,0.3750*
1,1,0.4532,0.7250,-0.3750*
1,1,0.4532,-0.7250,-0.3750*
1,1,0.4532,-0.7250,0.3750*
%
%ADD81ROUNDEDRECTD81*%
%ADD102R,1.4032X0.8032*%
%ADD110C,1.6492*%
%ADD111C,1.8102*%
%ADD112R,1.6492X1.6492*%
%ADD113C,1.7332*%
%ADD114C,2.5582*%
%ADD115R,2.3032X2.3032*%
%ADD116C,2.3032*%
%ADD117C,1.5700*%
%ADD118R,1.5700X1.5700*%
%ADD119C,4.5032*%
%ADD120C,1.5500*%
%ADD121R,1.5500X1.5500*%
%ADD122R,1.6032X1.6032*%
%ADD123C,3.2182*%
%ADD124C,1.6032*%
G04:AMPARAMS|DCode=125|XSize=1mm|YSize=2.1mm|CornerRadius=0.5mm|HoleSize=0mm|Usage=FLASHONLY|Rotation=270.000|XOffset=0mm|YOffset=0mm|HoleType=Round|Shape=RoundedRectangle|*
%AMROUNDEDRECTD125*
21,1,1.0000,1.1000,0,0,270.0*
21,1,0.0000,2.1000,0,0,270.0*
1,1,1.0000,-0.5500,0.0000*
1,1,1.0000,-0.5500,0.0000*
1,1,1.0000,0.5500,0.0000*
1,1,1.0000,0.5500,0.0000*
%
%ADD125ROUNDEDRECTD125*%
G04:AMPARAMS|DCode=126|XSize=1mm|YSize=1.8mm|CornerRadius=0.5mm|HoleSize=0mm|Usage=FLASHONLY|Rotation=270.000|XOffset=0mm|YOffset=0mm|HoleType=Round|Shape=RoundedRectangle|*
%AMROUNDEDRECTD126*
21,1,1.0000,0.8000,0,0,270.0*
21,1,0.0000,1.8000,0,0,270.0*
1,1,1.0000,-0.4000,0.0000*
1,1,1.0000,-0.4000,0.0000*
1,1,1.0000,0.4000,0.0000*
1,1,1.0000,0.4000,0.0000*
%
%ADD126ROUNDEDRECTD126*%
%ADD127C,1.7532*%
%ADD128R,1.6492X1.6492*%
%ADD129R,1.7532X1.7532*%
%ADD130C,0.6500*%
G04:AMPARAMS|DCode=160|XSize=1.55mm|YSize=0.6mm|CornerRadius=0.051mm|HoleSize=0mm|Usage=FLASHONLY|Rotation=180.000|XOffset=0mm|YOffset=0mm|HoleType=Round|Shape=RoundedRectangle|*
%AMROUNDEDRECTD160*
21,1,1.5500,0.4980,0,0,180.0*
21,1,1.4480,0.6000,0,0,180.0*
1,1,0.1020,-0.7240,0.2490*
1,1,0.1020,0.7240,0.2490*
1,1,0.1020,0.7240,-0.2490*
1,1,0.1020,-0.7240,-0.2490*
%
%ADD160ROUNDEDRECTD160*%
%ADD163O,0.9032X2.7032*%
%ADD164R,2.0032X0.6532*%
%ADD165R,1.3032X1.5032*%
%ADD166R,0.5032X1.6782*%
%ADD167R,1.6032X0.5032*%
%ADD168R,0.8032X1.4032*%
%ADD169R,1.6782X0.5032*%
G36*
X-3343Y-0D02*
X-3343Y75000D01*
X25000D01*
X70000Y30000D01*
Y-0D01*
X-3343D01*
D02*
G37*
G36*
X-5000Y900000D02*
X70000Y900000D01*
Y870000D01*
X25000Y825000D01*
X-5000Y825000D01*
Y900000D01*
D02*
G37*
G36*
X1880000Y-3343D02*
X1810000Y-3343D01*
Y30000D01*
X1850000Y70000D01*
X1880000D01*
Y-3343D01*
D02*
G37*
G36*
X1883343Y900000D02*
X1883343Y830000D01*
X1850000D01*
X1810000Y870000D01*
Y900000D01*
X1883343D01*
D02*
G37*
D72*
X1880030Y850024D02*
G03*
X1830030Y900024I-50000J0D01*
G01*
Y0D02*
G03*
X1880030Y50000I0J50000D01*
G01*
X47500Y900024D02*
G03*
X-2500Y850024I0J-50000D01*
G01*
Y50000D02*
G03*
X47500Y0I50000J0D01*
G01*
X1830030D01*
X47500Y900024D02*
X1830030D01*
X1880030Y50000D02*
Y850024D01*
X-2500Y50000D02*
Y850024D01*
D75*
X477500Y181430D02*
D03*
X455000D02*
D03*
X465000Y536430D02*
D03*
X442500D02*
D03*
X660000Y623570D02*
D03*
X637500D02*
D03*
X1030000Y691430D02*
D03*
X1395000Y628930D02*
D03*
X992500Y778930D02*
D03*
X1612500Y628930D02*
D03*
X1160000D02*
D03*
X992500Y691430D02*
D03*
X1360000Y628930D02*
D03*
X1030000Y778930D02*
D03*
X1577500Y628930D02*
D03*
X1192500D02*
D03*
X1612500Y606070D02*
D03*
X1577500D02*
D03*
X1395000D02*
D03*
X1360000D02*
D03*
X1030000Y756070D02*
D03*
X992500D02*
D03*
X1192500Y606070D02*
D03*
X1030000Y668570D02*
D03*
X992500D02*
D03*
X1160000Y606070D02*
D03*
X175000Y701430D02*
D03*
X660000Y666070D02*
D03*
Y646430D02*
D03*
X637500D02*
D03*
X192500Y466070D02*
D03*
X682500Y506430D02*
D03*
X707500Y441070D02*
D03*
X682500D02*
D03*
X515000Y513570D02*
D03*
X465000D02*
D03*
X442500D02*
D03*
X707500Y343570D02*
D03*
X682500D02*
D03*
X621000Y339570D02*
D03*
X552500Y368570D02*
D03*
X477500Y158570D02*
D03*
X455000D02*
D03*
X660000Y688930D02*
D03*
X682500Y366430D02*
D03*
X515000Y536430D02*
D03*
X682500Y483570D02*
D03*
X707500Y463930D02*
D03*
X682500D02*
D03*
X621000Y362430D02*
D03*
X175000Y678570D02*
D03*
X192500Y488930D02*
D03*
X572500Y641430D02*
D03*
X595000D02*
D03*
X552500Y391430D02*
D03*
X572500Y618570D02*
D03*
X595000D02*
D03*
X707500Y366430D02*
D03*
D77*
X516500Y427500D02*
D03*
X497500D02*
D03*
X516500Y448333D02*
D03*
X497500D02*
D03*
X338000Y694500D02*
D03*
Y671000D02*
D03*
Y647500D02*
D03*
X373000Y505500D02*
D03*
X448500Y240000D02*
D03*
X447500Y318000D02*
D03*
X513000Y345000D02*
D03*
X497500Y490000D02*
D03*
Y469167D02*
D03*
X513000Y390000D02*
D03*
X600500Y318500D02*
D03*
X513000Y367500D02*
D03*
X116500Y607000D02*
D03*
Y562000D02*
D03*
Y584500D02*
D03*
X703500Y542000D02*
D03*
X438000Y490000D02*
D03*
Y469167D02*
D03*
Y448333D02*
D03*
X396500Y694500D02*
D03*
Y671000D02*
D03*
Y647500D02*
D03*
X373000Y528000D02*
D03*
X600500Y296000D02*
D03*
X438000Y427500D02*
D03*
X929500Y665000D02*
D03*
X467000Y264000D02*
D03*
X467500Y240000D02*
D03*
X467000Y294000D02*
D03*
X466500Y318000D02*
D03*
X540500Y267500D02*
D03*
X448000Y264000D02*
D03*
X540500Y290000D02*
D03*
X448000Y294000D02*
D03*
X532000Y345000D02*
D03*
X559500Y267500D02*
D03*
Y290000D02*
D03*
X910500Y640000D02*
D03*
X929500D02*
D03*
X910500Y665000D02*
D03*
X392000Y505500D02*
D03*
Y528000D02*
D03*
X357000Y647500D02*
D03*
X377500D02*
D03*
X357000Y671000D02*
D03*
X377500D02*
D03*
X357000Y694500D02*
D03*
X377500D02*
D03*
X165500Y466000D02*
D03*
X532000Y367500D02*
D03*
X684500Y542000D02*
D03*
X135500Y562000D02*
D03*
X146500Y466000D02*
D03*
X581500Y318500D02*
D03*
Y296000D02*
D03*
X516500Y490000D02*
D03*
Y469167D02*
D03*
X532000Y390000D02*
D03*
X457000Y427500D02*
D03*
Y448333D02*
D03*
Y469167D02*
D03*
Y490000D02*
D03*
X135500Y584500D02*
D03*
Y607000D02*
D03*
D78*
X689430Y776000D02*
D03*
X666570D02*
D03*
X351430Y528000D02*
D03*
Y505500D02*
D03*
X619570Y318500D02*
D03*
X766070Y357500D02*
D03*
Y750000D02*
D03*
X828570Y722500D02*
D03*
Y700000D02*
D03*
X788930Y750000D02*
D03*
X933930Y615000D02*
D03*
X851430Y722500D02*
D03*
Y700000D02*
D03*
X851430Y605000D02*
D03*
X788930Y357500D02*
D03*
X102570Y466000D02*
D03*
X663430Y542500D02*
D03*
X563570Y540000D02*
D03*
Y520000D02*
D03*
X328570Y528000D02*
D03*
Y505500D02*
D03*
X642430Y318500D02*
D03*
X911070Y615000D02*
D03*
X828570Y605000D02*
D03*
X640570Y542500D02*
D03*
X586430Y520000D02*
D03*
Y540000D02*
D03*
X125430Y466000D02*
D03*
D81*
X775000Y127000D02*
D03*
X800000D02*
D03*
X696500Y242000D02*
D03*
X669500D02*
D03*
X642500D02*
D03*
Y128000D02*
D03*
X137500Y72000D02*
D03*
X490000Y515500D02*
D03*
X790000Y670500D02*
D03*
Y595500D02*
D03*
X696500Y185500D02*
D03*
X669500D02*
D03*
X642500D02*
D03*
X667500Y128000D02*
D03*
X115000Y72000D02*
D03*
X765000Y670500D02*
D03*
Y614500D02*
D03*
X790000Y633000D02*
D03*
X642500Y223000D02*
D03*
Y204500D02*
D03*
X669500Y223000D02*
D03*
Y204500D02*
D03*
X696500Y223000D02*
D03*
Y204500D02*
D03*
X667500Y147000D02*
D03*
X642500D02*
D03*
X137500Y53000D02*
D03*
X115000D02*
D03*
X765000Y652000D02*
D03*
Y689500D02*
D03*
X790000D02*
D03*
X765000Y633000D02*
D03*
X790000Y614500D02*
D03*
X765000Y595500D02*
D03*
X790000Y652000D02*
D03*
X800000Y108000D02*
D03*
X775000D02*
D03*
X467500Y733000D02*
D03*
Y719500D02*
D03*
Y700500D02*
D03*
X490000Y534500D02*
D03*
X445000Y733000D02*
D03*
Y719500D02*
D03*
Y700500D02*
D03*
X467500Y752000D02*
D03*
X445000D02*
D03*
X495000Y702000D02*
D03*
X517500D02*
D03*
X605000Y563000D02*
D03*
X627500D02*
D03*
X495000Y683000D02*
D03*
X605000Y582000D02*
D03*
X517500Y683000D02*
D03*
X627500Y582000D02*
D03*
X560000Y563000D02*
D03*
X582500D02*
D03*
X560000Y582000D02*
D03*
X582500D02*
D03*
D102*
X675000Y575000D02*
D03*
Y584500D02*
D03*
X650000Y565500D02*
D03*
X675000D02*
D03*
X650000Y584500D02*
D03*
D110*
X175500Y553300D02*
D03*
X200900Y540600D02*
D03*
X175500Y604100D02*
D03*
X200900Y591400D02*
D03*
Y566000D02*
D03*
X175500Y578700D02*
D03*
X200900Y616800D02*
D03*
X1602100Y168300D02*
D03*
X1339600D02*
D03*
D111*
X112000Y642200D02*
D03*
Y527900D02*
D03*
D112*
X175500Y629500D02*
D03*
D113*
X71400Y518800D02*
D03*
Y625900D02*
D03*
Y544200D02*
D03*
Y651300D02*
D03*
D114*
X142500Y507600D02*
D03*
Y662500D02*
D03*
D115*
X475000Y636300D02*
D03*
D116*
Y661700D02*
D03*
D117*
X161500Y147100D02*
D03*
Y172500D02*
D03*
D118*
Y197900D02*
D03*
D119*
X452500Y585000D02*
D03*
X1850000Y870000D02*
D03*
Y30000D02*
D03*
X960000Y70000D02*
D03*
X30000Y870000D02*
D03*
Y30000D02*
D03*
D120*
X302400Y826700D02*
D03*
Y801300D02*
D03*
X299100Y80500D02*
D03*
X404000Y801300D02*
D03*
Y826700D02*
D03*
X353200Y801300D02*
D03*
Y826700D02*
D03*
X429400Y801300D02*
D03*
X327800Y826700D02*
D03*
X277000D02*
D03*
X378600Y801300D02*
D03*
Y826700D02*
D03*
X327800Y801300D02*
D03*
X277000D02*
D03*
X324500Y80500D02*
D03*
X172100Y55100D02*
D03*
X222900Y80500D02*
D03*
X273700D02*
D03*
X248300D02*
D03*
X197500D02*
D03*
X606700Y80500D02*
D03*
X581300D02*
D03*
X555900D02*
D03*
X197500Y55100D02*
D03*
X172100Y80500D02*
D03*
X349900Y55100D02*
D03*
X324500D02*
D03*
X299100D02*
D03*
X273700D02*
D03*
X248300D02*
D03*
X222900D02*
D03*
X657500Y55100D02*
D03*
X632100D02*
D03*
X606700D02*
D03*
X581300D02*
D03*
X555900D02*
D03*
X530500D02*
D03*
X505100D02*
D03*
X479700D02*
D03*
X632100Y80500D02*
D03*
X530500D02*
D03*
X505100D02*
D03*
X479700D02*
D03*
X251600Y801300D02*
D03*
Y826700D02*
D03*
D121*
X349900Y80500D02*
D03*
X429400Y826700D02*
D03*
X657500Y80500D02*
D03*
D122*
X748800Y57000D02*
D03*
D123*
X1627500Y117500D02*
D03*
X1525900D02*
D03*
X1365000D02*
D03*
X1263400D02*
D03*
D124*
X825000Y57000D02*
D03*
X799600D02*
D03*
X774200D02*
D03*
D125*
X73750Y361200D02*
D03*
Y274800D02*
D03*
D126*
X31950Y361200D02*
D03*
Y274800D02*
D03*
D127*
X78000Y170400D02*
D03*
Y195800D02*
D03*
D128*
X1314200Y168300D02*
D03*
X1576700D02*
D03*
D129*
X78000Y145000D02*
D03*
D130*
X68750Y289100D02*
D03*
Y346900D02*
D03*
D160*
X828000Y666550D02*
D03*
X882000Y628450D02*
D03*
Y641150D02*
D03*
X828000Y628450D02*
D03*
X882000Y666550D02*
D03*
Y653850D02*
D03*
X828000Y641150D02*
D03*
Y653850D02*
D03*
D163*
X350950Y563000D02*
D03*
X389050Y612000D02*
D03*
Y563000D02*
D03*
X376350D02*
D03*
X363650D02*
D03*
X350950Y612000D02*
D03*
X363650D02*
D03*
X376350D02*
D03*
D164*
X512000Y182250D02*
D03*
X583000Y214750D02*
D03*
Y208250D02*
D03*
Y201750D02*
D03*
Y195250D02*
D03*
Y182250D02*
D03*
Y188750D02*
D03*
X512000Y201750D02*
D03*
Y208250D02*
D03*
Y214750D02*
D03*
Y195250D02*
D03*
Y130250D02*
D03*
Y136750D02*
D03*
Y143250D02*
D03*
Y149750D02*
D03*
Y156250D02*
D03*
Y162750D02*
D03*
Y169250D02*
D03*
Y175750D02*
D03*
X583000D02*
D03*
Y169250D02*
D03*
Y162750D02*
D03*
Y156250D02*
D03*
Y149750D02*
D03*
Y143250D02*
D03*
Y136750D02*
D03*
Y130250D02*
D03*
X512000Y188750D02*
D03*
D165*
X599250Y340500D02*
D03*
X582750Y361500D02*
D03*
X599250D02*
D03*
X582750Y340500D02*
D03*
D166*
X615000Y407620D02*
D03*
X585000Y492380D02*
D03*
X615000D02*
D03*
X610000Y407620D02*
D03*
X590000D02*
D03*
X580000D02*
D03*
X585000D02*
D03*
X595000D02*
D03*
X620000D02*
D03*
X590000Y492380D02*
D03*
X610000D02*
D03*
X625000D02*
D03*
X605000Y407620D02*
D03*
X575000D02*
D03*
X630000D02*
D03*
X620000Y492380D02*
D03*
X595000D02*
D03*
X600000D02*
D03*
X575000D02*
D03*
X580000D02*
D03*
X600000Y407620D02*
D03*
X625000D02*
D03*
X630000Y492380D02*
D03*
X605000D02*
D03*
D167*
X685500Y652500D02*
D03*
X729500Y647500D02*
D03*
Y642500D02*
D03*
Y637500D02*
D03*
Y657500D02*
D03*
Y652500D02*
D03*
X685500Y642500D02*
D03*
Y647500D02*
D03*
Y637500D02*
D03*
Y657500D02*
D03*
D168*
X522500Y620000D02*
D03*
X513000D02*
D03*
X532000Y595000D02*
D03*
Y620000D02*
D03*
X513000Y595000D02*
D03*
D169*
X560120Y477500D02*
D03*
X644880Y472500D02*
D03*
Y447500D02*
D03*
Y462500D02*
D03*
Y427500D02*
D03*
Y432500D02*
D03*
Y467500D02*
D03*
Y457500D02*
D03*
Y437500D02*
D03*
X560120Y462500D02*
D03*
Y457500D02*
D03*
Y452500D02*
D03*
Y422500D02*
D03*
Y427500D02*
D03*
Y432500D02*
D03*
Y437500D02*
D03*
Y442500D02*
D03*
Y447500D02*
D03*
X644880Y442500D02*
D03*
X560120Y472500D02*
D03*
Y467500D02*
D03*
X644880Y422500D02*
D03*
Y452500D02*
D03*
Y477500D02*
D03*
M02*
