G04*
G04 #@! TF.GenerationSoftware,Altium Limited,Altium Designer,25.3.2 (17)*
G04*
G04 Layer_Color=128*
%FSLAX44Y44*%
%MOMM*%
G71*
G04*
G04 #@! TF.SameCoordinates,DB8DDDC1-B0E2-4658-990C-9C265D1726FE*
G04*
G04*
G04 #@! TF.FilePolarity,Positive*
G04*
G01*
G75*
G04:AMPARAMS|DCode=25|XSize=1.4mm|YSize=1.7mm|CornerRadius=0.175mm|HoleSize=0mm|Usage=FLASHONLY|Rotation=270.000|XOffset=0mm|YOffset=0mm|HoleType=Round|Shape=RoundedRectangle|*
%AMROUNDEDRECTD25*
21,1,1.4000,1.3500,0,0,270.0*
21,1,1.0500,1.7000,0,0,270.0*
1,1,0.3500,-0.6750,-0.5250*
1,1,0.3500,-0.6750,0.5250*
1,1,0.3500,0.6750,0.5250*
1,1,0.3500,0.6750,-0.5250*
%
%ADD25ROUNDEDRECTD25*%
G04:AMPARAMS|DCode=28|XSize=1mm|YSize=1.7mm|CornerRadius=0.125mm|HoleSize=0mm|Usage=FLASHONLY|Rotation=180.000|XOffset=0mm|YOffset=0mm|HoleType=Round|Shape=RoundedRectangle|*
%AMROUNDEDRECTD28*
21,1,1.0000,1.4500,0,0,180.0*
21,1,0.7500,1.7000,0,0,180.0*
1,1,0.2500,-0.3750,0.7250*
1,1,0.2500,0.3750,0.7250*
1,1,0.2500,0.3750,-0.7250*
1,1,0.2500,-0.3750,-0.7250*
%
%ADD28ROUNDEDRECTD28*%
G04:AMPARAMS|DCode=29|XSize=1.4mm|YSize=1.7mm|CornerRadius=0.175mm|HoleSize=0mm|Usage=FLASHONLY|Rotation=0.000|XOffset=0mm|YOffset=0mm|HoleType=Round|Shape=RoundedRectangle|*
%AMROUNDEDRECTD29*
21,1,1.4000,1.3500,0,0,0.0*
21,1,1.0500,1.7000,0,0,0.0*
1,1,0.3500,0.5250,-0.6750*
1,1,0.3500,-0.5250,-0.6750*
1,1,0.3500,-0.5250,0.6750*
1,1,0.3500,0.5250,0.6750*
%
%ADD29ROUNDEDRECTD29*%
G04:AMPARAMS|DCode=32|XSize=1mm|YSize=1.7mm|CornerRadius=0.125mm|HoleSize=0mm|Usage=FLASHONLY|Rotation=90.000|XOffset=0mm|YOffset=0mm|HoleType=Round|Shape=RoundedRectangle|*
%AMROUNDEDRECTD32*
21,1,1.0000,1.4500,0,0,90.0*
21,1,0.7500,1.7000,0,0,90.0*
1,1,0.2500,0.7250,0.3750*
1,1,0.2500,0.7250,-0.3750*
1,1,0.2500,-0.7250,-0.3750*
1,1,0.2500,-0.7250,0.3750*
%
%ADD32ROUNDEDRECTD32*%
%ADD61R,1.2000X0.6000*%
%ADD155O,0.7000X2.5000*%
%ADD156R,1.8000X0.4500*%
%ADD157R,1.1000X1.3000*%
%ADD158R,0.3000X1.4750*%
%ADD159R,1.4000X0.3000*%
G04:AMPARAMS|DCode=160|XSize=1.55mm|YSize=0.6mm|CornerRadius=0.051mm|HoleSize=0mm|Usage=FLASHONLY|Rotation=180.000|XOffset=0mm|YOffset=0mm|HoleType=Round|Shape=RoundedRectangle|*
%AMROUNDEDRECTD160*
21,1,1.5500,0.4980,0,0,180.0*
21,1,1.4480,0.6000,0,0,180.0*
1,1,0.1020,-0.7240,0.2490*
1,1,0.1020,0.7240,0.2490*
1,1,0.1020,0.7240,-0.2490*
1,1,0.1020,-0.7240,-0.2490*
%
%ADD160ROUNDEDRECTD160*%
%ADD161R,0.6000X1.2000*%
%ADD162R,1.4750X0.3000*%
D25*
X477500Y181430D02*
D03*
X455000D02*
D03*
X465000Y536430D02*
D03*
X442500D02*
D03*
X660000Y623570D02*
D03*
X637500D02*
D03*
X1030000Y691430D02*
D03*
X1395000Y628930D02*
D03*
X992500Y778930D02*
D03*
X1612500Y628930D02*
D03*
X1160000D02*
D03*
X992500Y691430D02*
D03*
X1360000Y628930D02*
D03*
X1030000Y778930D02*
D03*
X1577500Y628930D02*
D03*
X1192500D02*
D03*
X1612500Y606070D02*
D03*
X1577500D02*
D03*
X1395000D02*
D03*
X1360000D02*
D03*
X1030000Y756070D02*
D03*
X992500D02*
D03*
X1192500Y606070D02*
D03*
X1030000Y668570D02*
D03*
X992500D02*
D03*
X1160000Y606070D02*
D03*
X175000Y701430D02*
D03*
X660000Y666070D02*
D03*
Y646430D02*
D03*
X637500D02*
D03*
X192500Y466070D02*
D03*
X682500Y506430D02*
D03*
X707500Y441070D02*
D03*
X682500D02*
D03*
X515000Y513570D02*
D03*
X465000D02*
D03*
X442500D02*
D03*
X707500Y343570D02*
D03*
X682500D02*
D03*
X621000Y339570D02*
D03*
X552500Y368570D02*
D03*
X477500Y158570D02*
D03*
X455000D02*
D03*
X660000Y688930D02*
D03*
X682500Y366430D02*
D03*
X515000Y536430D02*
D03*
X682500Y483570D02*
D03*
X707500Y463930D02*
D03*
X682500D02*
D03*
X621000Y362430D02*
D03*
X175000Y678570D02*
D03*
X192500Y488930D02*
D03*
X572500Y641430D02*
D03*
X595000D02*
D03*
X552500Y391430D02*
D03*
X572500Y618570D02*
D03*
X595000D02*
D03*
X707500Y366430D02*
D03*
D28*
X516500Y427500D02*
D03*
X497500D02*
D03*
X516500Y448333D02*
D03*
X497500D02*
D03*
X338000Y694500D02*
D03*
Y671000D02*
D03*
Y647500D02*
D03*
X373000Y505500D02*
D03*
X448500Y240000D02*
D03*
X447500Y318000D02*
D03*
X513000Y345000D02*
D03*
X497500Y490000D02*
D03*
Y469167D02*
D03*
X513000Y390000D02*
D03*
X600500Y318500D02*
D03*
X513000Y367500D02*
D03*
X116500Y607000D02*
D03*
Y562000D02*
D03*
Y584500D02*
D03*
X703500Y542000D02*
D03*
X438000Y490000D02*
D03*
Y469167D02*
D03*
Y448333D02*
D03*
X396500Y694500D02*
D03*
Y671000D02*
D03*
Y647500D02*
D03*
X373000Y528000D02*
D03*
X600500Y296000D02*
D03*
X438000Y427500D02*
D03*
X929500Y665000D02*
D03*
X467000Y264000D02*
D03*
X467500Y240000D02*
D03*
X467000Y294000D02*
D03*
X466500Y318000D02*
D03*
X540500Y267500D02*
D03*
X448000Y264000D02*
D03*
X540500Y290000D02*
D03*
X448000Y294000D02*
D03*
X532000Y345000D02*
D03*
X559500Y267500D02*
D03*
Y290000D02*
D03*
X910500Y640000D02*
D03*
X929500D02*
D03*
X910500Y665000D02*
D03*
X392000Y505500D02*
D03*
Y528000D02*
D03*
X357000Y647500D02*
D03*
X377500D02*
D03*
X357000Y671000D02*
D03*
X377500D02*
D03*
X357000Y694500D02*
D03*
X377500D02*
D03*
X165500Y466000D02*
D03*
X532000Y367500D02*
D03*
X684500Y542000D02*
D03*
X135500Y562000D02*
D03*
X146500Y466000D02*
D03*
X581500Y318500D02*
D03*
Y296000D02*
D03*
X516500Y490000D02*
D03*
Y469167D02*
D03*
X532000Y390000D02*
D03*
X457000Y427500D02*
D03*
Y448333D02*
D03*
Y469167D02*
D03*
Y490000D02*
D03*
X135500Y584500D02*
D03*
Y607000D02*
D03*
D29*
X689430Y776000D02*
D03*
X666570D02*
D03*
X351430Y528000D02*
D03*
Y505500D02*
D03*
X619570Y318500D02*
D03*
X766070Y357500D02*
D03*
Y750000D02*
D03*
X828570Y722500D02*
D03*
Y700000D02*
D03*
X788930Y750000D02*
D03*
X933930Y615000D02*
D03*
X851430Y722500D02*
D03*
Y700000D02*
D03*
X851430Y605000D02*
D03*
X788930Y357500D02*
D03*
X102570Y466000D02*
D03*
X663430Y542500D02*
D03*
X563570Y540000D02*
D03*
Y520000D02*
D03*
X328570Y528000D02*
D03*
Y505500D02*
D03*
X642430Y318500D02*
D03*
X911070Y615000D02*
D03*
X828570Y605000D02*
D03*
X640570Y542500D02*
D03*
X586430Y520000D02*
D03*
Y540000D02*
D03*
X125430Y466000D02*
D03*
D32*
X775000Y127000D02*
D03*
X800000D02*
D03*
X696500Y242000D02*
D03*
X669500D02*
D03*
X642500D02*
D03*
Y128000D02*
D03*
X137500Y72000D02*
D03*
X490000Y515500D02*
D03*
X790000Y670500D02*
D03*
Y595500D02*
D03*
X696500Y185500D02*
D03*
X669500D02*
D03*
X642500D02*
D03*
X667500Y128000D02*
D03*
X115000Y72000D02*
D03*
X765000Y670500D02*
D03*
Y614500D02*
D03*
X790000Y633000D02*
D03*
X642500Y223000D02*
D03*
Y204500D02*
D03*
X669500Y223000D02*
D03*
Y204500D02*
D03*
X696500Y223000D02*
D03*
Y204500D02*
D03*
X667500Y147000D02*
D03*
X642500D02*
D03*
X137500Y53000D02*
D03*
X115000D02*
D03*
X765000Y652000D02*
D03*
Y689500D02*
D03*
X790000D02*
D03*
X765000Y633000D02*
D03*
X790000Y614500D02*
D03*
X765000Y595500D02*
D03*
X790000Y652000D02*
D03*
X800000Y108000D02*
D03*
X775000D02*
D03*
X467500Y733000D02*
D03*
Y719500D02*
D03*
Y700500D02*
D03*
X490000Y534500D02*
D03*
X445000Y733000D02*
D03*
Y719500D02*
D03*
Y700500D02*
D03*
X467500Y752000D02*
D03*
X445000D02*
D03*
X495000Y702000D02*
D03*
X517500D02*
D03*
X605000Y563000D02*
D03*
X627500D02*
D03*
X495000Y683000D02*
D03*
X605000Y582000D02*
D03*
X517500Y683000D02*
D03*
X627500Y582000D02*
D03*
X560000Y563000D02*
D03*
X582500D02*
D03*
X560000Y582000D02*
D03*
X582500D02*
D03*
D61*
X675000Y575000D02*
D03*
Y584500D02*
D03*
X650000Y565500D02*
D03*
X675000D02*
D03*
X650000Y584500D02*
D03*
D155*
X350950Y563000D02*
D03*
X389050Y612000D02*
D03*
Y563000D02*
D03*
X376350D02*
D03*
X363650D02*
D03*
X350950Y612000D02*
D03*
X363650D02*
D03*
X376350D02*
D03*
D156*
X512000Y182250D02*
D03*
X583000Y214750D02*
D03*
Y208250D02*
D03*
Y201750D02*
D03*
Y195250D02*
D03*
Y182250D02*
D03*
Y188750D02*
D03*
X512000Y201750D02*
D03*
Y208250D02*
D03*
Y214750D02*
D03*
Y195250D02*
D03*
Y130250D02*
D03*
Y136750D02*
D03*
Y143250D02*
D03*
Y149750D02*
D03*
Y156250D02*
D03*
Y162750D02*
D03*
Y169250D02*
D03*
Y175750D02*
D03*
X583000D02*
D03*
Y169250D02*
D03*
Y162750D02*
D03*
Y156250D02*
D03*
Y149750D02*
D03*
Y143250D02*
D03*
Y136750D02*
D03*
Y130250D02*
D03*
X512000Y188750D02*
D03*
D157*
X599250Y340500D02*
D03*
X582750Y361500D02*
D03*
X599250D02*
D03*
X582750Y340500D02*
D03*
D158*
X615000Y407620D02*
D03*
X585000Y492380D02*
D03*
X615000D02*
D03*
X610000Y407620D02*
D03*
X590000D02*
D03*
X580000D02*
D03*
X585000D02*
D03*
X595000D02*
D03*
X620000D02*
D03*
X590000Y492380D02*
D03*
X610000D02*
D03*
X625000D02*
D03*
X605000Y407620D02*
D03*
X575000D02*
D03*
X630000D02*
D03*
X620000Y492380D02*
D03*
X595000D02*
D03*
X600000D02*
D03*
X575000D02*
D03*
X580000D02*
D03*
X600000Y407620D02*
D03*
X625000D02*
D03*
X630000Y492380D02*
D03*
X605000D02*
D03*
D159*
X685500Y652500D02*
D03*
X729500Y647500D02*
D03*
Y642500D02*
D03*
Y637500D02*
D03*
Y657500D02*
D03*
Y652500D02*
D03*
X685500Y642500D02*
D03*
Y647500D02*
D03*
Y637500D02*
D03*
Y657500D02*
D03*
D160*
X828000Y666550D02*
D03*
X882000Y628450D02*
D03*
Y641150D02*
D03*
X828000Y628450D02*
D03*
X882000Y666550D02*
D03*
Y653850D02*
D03*
X828000Y641150D02*
D03*
Y653850D02*
D03*
D161*
X522500Y620000D02*
D03*
X513000D02*
D03*
X532000Y595000D02*
D03*
Y620000D02*
D03*
X513000Y595000D02*
D03*
D162*
X560120Y477500D02*
D03*
X644880Y472500D02*
D03*
Y447500D02*
D03*
Y462500D02*
D03*
Y427500D02*
D03*
Y432500D02*
D03*
Y467500D02*
D03*
Y457500D02*
D03*
Y437500D02*
D03*
X560120Y462500D02*
D03*
Y457500D02*
D03*
Y452500D02*
D03*
Y422500D02*
D03*
Y427500D02*
D03*
Y432500D02*
D03*
Y437500D02*
D03*
Y442500D02*
D03*
Y447500D02*
D03*
X644880Y442500D02*
D03*
X560120Y472500D02*
D03*
Y467500D02*
D03*
X644880Y422500D02*
D03*
Y452500D02*
D03*
Y477500D02*
D03*
M02*
