G04*
G04 #@! TF.GenerationSoftware,Altium Limited,Altium Designer,21.3.2 (30)*
G04*
G04 Layer_Color=8388736*
%FSLAX44Y44*%
%MOMM*%
G71*
G04*
G04 #@! TF.SameCoordinates,84BDE467-7FE3-4CD0-9C3F-AB944645557B*
G04*
G04*
G04 #@! TF.FilePolarity,Negative*
G04*
G01*
G75*
%ADD14R,1.8000X1.0000*%
%ADD15R,3.2000X1.6000*%
%ADD18R,1.6000X3.2000*%
%ADD21R,1.2000X1.2000*%
%ADD23R,1.7000X0.9500*%
%ADD24R,3.2000X1.7200*%
%ADD25R,5.7000X1.6000*%
%ADD26R,2.6000X4.5000*%
%ADD27R,1.4532X1.7032*%
%ADD28R,1.6532X0.6532*%
%ADD29R,2.9432X4.0632*%
%ADD30R,1.7032X1.4532*%
%ADD31R,1.4532X1.8032*%
%ADD32R,1.8032X1.4532*%
%ADD33C,4.5032*%
%ADD34C,2.4532*%
G04:AMPARAMS|DCode=35|XSize=2.4532mm|YSize=2.4532mm|CornerRadius=0.6641mm|HoleSize=0mm|Usage=FLASHONLY|Rotation=90.000|XOffset=0mm|YOffset=0mm|HoleType=Round|Shape=RoundedRectangle|*
%AMROUNDEDRECTD35*
21,1,2.4532,1.1250,0,0,90.0*
21,1,1.1250,2.4532,0,0,90.0*
1,1,1.3282,0.5625,0.5625*
1,1,1.3282,0.5625,-0.5625*
1,1,1.3282,-0.5625,-0.5625*
1,1,1.3282,-0.5625,0.5625*
%
%ADD35ROUNDEDRECTD35*%
%ADD36R,1.5500X1.5500*%
%ADD37C,1.5500*%
%ADD38C,0.6032*%
%ADD39C,0.8032*%
%ADD40C,1.4732*%
%ADD41C,1.2032*%
D14*
X42000Y179000D02*
D03*
Y149000D02*
D03*
X70000Y180000D02*
D03*
Y150000D02*
D03*
X337500Y350000D02*
D03*
Y320000D02*
D03*
X307500Y350000D02*
D03*
Y320000D02*
D03*
X325000Y652500D02*
D03*
Y622500D02*
D03*
X357500Y652500D02*
D03*
Y622500D02*
D03*
X85000Y627500D02*
D03*
Y657500D02*
D03*
X115000Y627500D02*
D03*
Y657500D02*
D03*
D15*
X482500Y145000D02*
D03*
X432500D02*
D03*
X447500Y477500D02*
D03*
X397500D02*
D03*
X375000Y352500D02*
D03*
X425000D02*
D03*
X395000Y655000D02*
D03*
X445000D02*
D03*
D18*
X520000Y555000D02*
D03*
Y605000D02*
D03*
X252500Y640500D02*
D03*
Y690500D02*
D03*
X85000Y352500D02*
D03*
Y302500D02*
D03*
D21*
X519500Y355000D02*
D03*
X540500D02*
D03*
Y322500D02*
D03*
X519500D02*
D03*
X540500Y225000D02*
D03*
X519500D02*
D03*
Y290000D02*
D03*
X540500D02*
D03*
Y257500D02*
D03*
X519500D02*
D03*
D23*
X275000Y169000D02*
D03*
Y141000D02*
D03*
X220000Y169000D02*
D03*
Y141000D02*
D03*
X225000Y466500D02*
D03*
Y438500D02*
D03*
X280000Y466500D02*
D03*
Y438500D02*
D03*
D24*
X400000Y240450D02*
D03*
Y304550D02*
D03*
X160000Y295450D02*
D03*
Y359550D02*
D03*
X410000Y540450D02*
D03*
Y604550D02*
D03*
X165000Y592950D02*
D03*
Y657050D02*
D03*
D25*
X327500Y249000D02*
D03*
Y296000D02*
D03*
Y194500D02*
D03*
Y147500D02*
D03*
X340000Y498500D02*
D03*
Y451500D02*
D03*
Y554000D02*
D03*
Y601000D02*
D03*
D26*
X177500Y222500D02*
D03*
X97500D02*
D03*
X181100Y517500D02*
D03*
X101100D02*
D03*
D27*
X329500Y227500D02*
D03*
X308500D02*
D03*
X162000Y422500D02*
D03*
X183000D02*
D03*
X495500Y225000D02*
D03*
X474500D02*
D03*
X495500Y355000D02*
D03*
X474500D02*
D03*
X495500Y322500D02*
D03*
X474500D02*
D03*
X495500Y290000D02*
D03*
X474500D02*
D03*
X495500Y257500D02*
D03*
X474500D02*
D03*
X183000Y157500D02*
D03*
X162000D02*
D03*
X143000D02*
D03*
X122000D02*
D03*
X102000Y447500D02*
D03*
X123000D02*
D03*
X107000Y607500D02*
D03*
X86000D02*
D03*
Y585000D02*
D03*
X107000D02*
D03*
X316500Y525000D02*
D03*
X337500D02*
D03*
D28*
X218250Y250008D02*
D03*
Y243508D02*
D03*
Y237008D02*
D03*
Y230508D02*
D03*
Y224008D02*
D03*
Y217508D02*
D03*
Y211008D02*
D03*
Y204508D02*
D03*
Y198008D02*
D03*
Y191508D02*
D03*
X276750D02*
D03*
Y198008D02*
D03*
Y204508D02*
D03*
Y211008D02*
D03*
Y217508D02*
D03*
Y224008D02*
D03*
Y230508D02*
D03*
Y237008D02*
D03*
Y243508D02*
D03*
Y250008D02*
D03*
X281750Y545008D02*
D03*
Y538508D02*
D03*
Y532008D02*
D03*
Y525508D02*
D03*
Y519008D02*
D03*
Y512508D02*
D03*
Y506008D02*
D03*
Y499508D02*
D03*
Y493008D02*
D03*
Y486508D02*
D03*
X223250D02*
D03*
Y493008D02*
D03*
Y499508D02*
D03*
Y506008D02*
D03*
Y512508D02*
D03*
Y519008D02*
D03*
Y525508D02*
D03*
Y532008D02*
D03*
Y538508D02*
D03*
Y545008D02*
D03*
D29*
X247500Y220758D02*
D03*
X252500Y515758D02*
D03*
D30*
Y593500D02*
D03*
Y572500D02*
D03*
X380000Y172000D02*
D03*
Y193000D02*
D03*
X407500D02*
D03*
Y172000D02*
D03*
X247500Y144500D02*
D03*
Y165500D02*
D03*
Y302633D02*
D03*
Y281633D02*
D03*
X42500Y237000D02*
D03*
Y258000D02*
D03*
Y197000D02*
D03*
Y218000D02*
D03*
X460000Y605500D02*
D03*
Y584500D02*
D03*
Y560500D02*
D03*
Y539500D02*
D03*
X77500Y468000D02*
D03*
Y447000D02*
D03*
D31*
X346000Y127000D02*
D03*
X312000D02*
D03*
X155500Y445000D02*
D03*
X189500D02*
D03*
D32*
X276000Y278000D02*
D03*
Y312000D02*
D03*
X219000Y278000D02*
D03*
Y312000D02*
D03*
X281000Y572000D02*
D03*
Y606000D02*
D03*
X224000Y572000D02*
D03*
Y606000D02*
D03*
D33*
X250000Y375000D02*
D03*
X560000Y695000D02*
D03*
X565000Y40000D02*
D03*
X35000D02*
D03*
X40000Y695000D02*
D03*
D34*
X515000Y497500D02*
D03*
D35*
Y447500D02*
D03*
D36*
X375000Y76400D02*
D03*
D37*
X349600D02*
D03*
X324200D02*
D03*
X298800D02*
D03*
X273400D02*
D03*
X248000D02*
D03*
X222600D02*
D03*
X197200D02*
D03*
X375000Y51000D02*
D03*
X349600D02*
D03*
X324200D02*
D03*
X298800D02*
D03*
X273400D02*
D03*
X248000D02*
D03*
X222600D02*
D03*
X197200D02*
D03*
D38*
X575501Y685930D02*
D03*
X575606Y703889D02*
D03*
X569070Y710501D02*
D03*
X560105Y712960D02*
D03*
X542040Y695105D02*
D03*
X57959Y694895D02*
D03*
X559895Y677040D02*
D03*
X565105Y57959D02*
D03*
X52959Y39895D02*
D03*
X547040Y40105D02*
D03*
X35105Y57959D02*
D03*
X34895Y22041D02*
D03*
X564895D02*
D03*
X43889Y24394D02*
D03*
X573889D02*
D03*
X555929Y24499D02*
D03*
X25930D02*
D03*
X580501Y30930D02*
D03*
X50501D02*
D03*
X549394Y31111D02*
D03*
X19394D02*
D03*
X582960Y39895D02*
D03*
X17040Y40105D02*
D03*
X50606Y48889D02*
D03*
X580606D02*
D03*
X549499Y49070D02*
D03*
X19499D02*
D03*
X574070Y55501D02*
D03*
X44070D02*
D03*
X556111Y55606D02*
D03*
X26111D02*
D03*
X249895Y357040D02*
D03*
X258889Y359394D02*
D03*
X265501Y365930D02*
D03*
X267959Y374895D02*
D03*
X265606Y383889D02*
D03*
X259070Y390501D02*
D03*
X250105Y392960D02*
D03*
X241111Y390606D02*
D03*
X234499Y384071D02*
D03*
X232041Y375105D02*
D03*
X234394Y366111D02*
D03*
X240930Y359499D02*
D03*
X568889Y679394D02*
D03*
X577960Y694895D02*
D03*
X551111Y710606D02*
D03*
X544499Y704070D02*
D03*
X544394Y686111D02*
D03*
X550930Y679499D02*
D03*
X30930D02*
D03*
X24394Y686111D02*
D03*
X22041Y695105D02*
D03*
X24499Y704070D02*
D03*
X31111Y710606D02*
D03*
X40105Y712960D02*
D03*
X49070Y710501D02*
D03*
X55606Y703889D02*
D03*
X55501Y685930D02*
D03*
X48889Y679394D02*
D03*
X39895Y677040D02*
D03*
D39*
X121000Y577000D02*
D03*
X229000Y185000D02*
D03*
X199685Y536109D02*
D03*
X143000Y142000D02*
D03*
Y134000D02*
D03*
X362000Y132040D02*
D03*
X370000Y132000D02*
D03*
X138000Y454000D02*
D03*
Y445000D02*
D03*
X209521Y511788D02*
D03*
X201000Y510000D02*
D03*
X201641Y519014D02*
D03*
X201000Y500000D02*
D03*
X448000Y552000D02*
D03*
X201000Y544000D02*
D03*
X427000Y201000D02*
D03*
Y193000D02*
D03*
X59000Y218000D02*
D03*
Y226000D02*
D03*
X304000Y523500D02*
D03*
X209546Y503788D02*
D03*
X150000Y410000D02*
D03*
X100000Y420000D02*
D03*
X296000Y520000D02*
D03*
X303152Y515332D02*
D03*
X295000Y477000D02*
D03*
X273110Y484831D02*
D03*
X261000Y188000D02*
D03*
X196000Y230000D02*
D03*
X256000Y265000D02*
D03*
X292000Y160000D02*
D03*
X299000Y208000D02*
D03*
X292000Y212000D02*
D03*
Y221000D02*
D03*
X299000Y216000D02*
D03*
X196000Y218000D02*
D03*
X162000Y405000D02*
D03*
X102040Y430000D02*
D03*
X70000Y576000D02*
D03*
Y585000D02*
D03*
X268758Y491544D02*
D03*
X443000Y560000D02*
D03*
X303000Y475290D02*
D03*
X292000Y237548D02*
D03*
Y169000D02*
D03*
X204000Y218000D02*
D03*
X261000Y180000D02*
D03*
X204000Y230000D02*
D03*
X247500Y265000D02*
D03*
D40*
X99999Y480000D02*
D03*
X367000Y522000D02*
D03*
X260569Y301943D02*
D03*
X174000Y324000D02*
D03*
X281500Y587500D02*
D03*
X340000Y390000D02*
D03*
X405000Y465000D02*
D03*
X345000Y223000D02*
D03*
X439000Y605000D02*
D03*
D41*
X444000Y323000D02*
D03*
X565000Y209000D02*
D03*
Y460000D02*
D03*
X465000Y130000D02*
D03*
X41000Y188000D02*
D03*
X455000Y290000D02*
D03*
X439000Y248000D02*
D03*
X350000Y90000D02*
D03*
M02*
