G04*
G04 #@! TF.GenerationSoftware,Altium Limited,Altium Designer,21.3.2 (30)*
G04*
G04 Layer_Physical_Order=2*
G04 Layer_Color=36540*
%FSLAX44Y44*%
%MOMM*%
G71*
G04*
G04 #@! TF.SameCoordinates,84BDE467-7FE3-4CD0-9C3F-AB944645557B*
G04*
G04*
G04 #@! TF.FilePolarity,Positive*
G04*
G01*
G75*
%ADD36R,1.5500X1.5500*%
%ADD37C,1.5500*%
%ADD45C,0.3000*%
%ADD46C,4.3000*%
%ADD47C,2.2500*%
%ADD49C,0.6000*%
%ADD50C,0.4000*%
G36*
X562912Y728185D02*
X568282Y726746D01*
X573418Y724618D01*
X578232Y721839D01*
X582643Y718454D01*
X586574Y714523D01*
X589959Y710113D01*
X592738Y705298D01*
X594866Y700162D01*
X596305Y694792D01*
X597030Y689280D01*
Y686500D01*
Y46500D01*
Y43720D01*
X596305Y38208D01*
X594866Y32838D01*
X592738Y27702D01*
X589959Y22888D01*
X586574Y18477D01*
X582643Y14546D01*
X578232Y11161D01*
X573418Y8382D01*
X568282Y6254D01*
X562912Y4815D01*
X557400Y4090D01*
X41840D01*
X36328Y4815D01*
X30958Y6254D01*
X25822Y8382D01*
X21008Y11161D01*
X16597Y14546D01*
X12666Y18477D01*
X9281Y22887D01*
X6502Y27702D01*
X4374Y32838D01*
X2935Y38208D01*
X2210Y43720D01*
Y46500D01*
Y686500D01*
Y689280D01*
X2935Y694792D01*
X4374Y700162D01*
X6502Y705298D01*
X9281Y710112D01*
X12666Y714523D01*
X16597Y718454D01*
X21007Y721839D01*
X25822Y724618D01*
X30958Y726746D01*
X36328Y728185D01*
X41840Y728910D01*
X557400D01*
X562912Y728185D01*
D02*
G37*
%LPC*%
G36*
X440099Y613350D02*
X437901D01*
X435777Y612781D01*
X433873Y611682D01*
X432318Y610127D01*
X431219Y608223D01*
X430650Y606099D01*
Y603901D01*
X431219Y601777D01*
X432318Y599873D01*
X433873Y598318D01*
X435777Y597219D01*
X437901Y596650D01*
X440099D01*
X442223Y597219D01*
X444127Y598318D01*
X445682Y599873D01*
X446781Y601777D01*
X447350Y603901D01*
Y606099D01*
X446781Y608223D01*
X445682Y610127D01*
X444127Y611682D01*
X442223Y612781D01*
X440099Y613350D01*
D02*
G37*
G36*
X70995Y590000D02*
X69005D01*
X67168Y589239D01*
X65761Y587832D01*
X65000Y585995D01*
Y584005D01*
X65761Y582168D01*
X67168Y580761D01*
X69005Y580000D01*
X70995D01*
X72832Y580761D01*
X74239Y582168D01*
X75000Y584005D01*
Y585995D01*
X74239Y587832D01*
X72832Y589239D01*
X70995Y590000D01*
D02*
G37*
G36*
X282599Y595850D02*
X280401D01*
X278277Y595281D01*
X276373Y594182D01*
X274818Y592627D01*
X273719Y590723D01*
X273150Y588599D01*
Y586401D01*
X273719Y584277D01*
X274818Y582373D01*
X276373Y580818D01*
X278277Y579719D01*
X280401Y579150D01*
X282599D01*
X284723Y579719D01*
X286627Y580818D01*
X288182Y582373D01*
X289281Y584277D01*
X289850Y586401D01*
Y588599D01*
X289281Y590723D01*
X288182Y592627D01*
X286627Y594182D01*
X284723Y595281D01*
X282599Y595850D01*
D02*
G37*
G36*
X443995Y565000D02*
X442005D01*
X440168Y564239D01*
X438761Y562832D01*
X438000Y560995D01*
Y559005D01*
X438761Y557168D01*
X440168Y555761D01*
X442005Y555000D01*
X443995D01*
X445832Y555761D01*
X447239Y557168D01*
X448000Y559005D01*
Y560995D01*
X447239Y562832D01*
X445832Y564239D01*
X443995Y565000D01*
D02*
G37*
G36*
X200679Y541109D02*
X198690D01*
X196852Y540348D01*
X195446Y538941D01*
X194685Y537103D01*
Y535114D01*
X195446Y533277D01*
X196852Y531870D01*
X198690Y531109D01*
X200679D01*
X202517Y531870D01*
X203924Y533277D01*
X204685Y535114D01*
Y537103D01*
X203924Y538941D01*
X202517Y540348D01*
X200679Y541109D01*
D02*
G37*
G36*
X368099Y530350D02*
X365901D01*
X363777Y529781D01*
X361873Y528682D01*
X360318Y527127D01*
X359219Y525223D01*
X358650Y523099D01*
Y520901D01*
X359219Y518777D01*
X360318Y516873D01*
X361873Y515318D01*
X363777Y514219D01*
X365901Y513650D01*
X368099D01*
X370223Y514219D01*
X372127Y515318D01*
X373682Y516873D01*
X374781Y518777D01*
X375350Y520901D01*
Y523099D01*
X374781Y525223D01*
X373682Y527127D01*
X372127Y528682D01*
X370223Y529781D01*
X368099Y530350D01*
D02*
G37*
G36*
X296995Y525000D02*
X295005D01*
X293168Y524239D01*
X291761Y522832D01*
X291000Y520995D01*
Y519005D01*
X291761Y517168D01*
X293168Y515761D01*
X295005Y515000D01*
X296995D01*
X297097Y515042D01*
X298152Y514338D01*
X298913Y512500D01*
X300319Y511094D01*
X302157Y510332D01*
X304146D01*
X305984Y511094D01*
X307390Y512500D01*
X308152Y514338D01*
Y516327D01*
X307390Y518165D01*
X305984Y519571D01*
X304146Y520332D01*
X302157D01*
X302055Y520290D01*
X301000Y520995D01*
X300239Y522832D01*
X298832Y524239D01*
X296995Y525000D01*
D02*
G37*
G36*
X202635Y524014D02*
X200646D01*
X198809Y523253D01*
X197402Y521846D01*
X196641Y520008D01*
Y518019D01*
X197402Y516182D01*
X198809Y514775D01*
X200646Y514014D01*
X202635D01*
X203868Y514524D01*
X204840Y513552D01*
X204521Y512782D01*
Y510793D01*
X205282Y508955D01*
X206462Y507775D01*
X205308Y506620D01*
X204546Y504782D01*
Y502793D01*
X205308Y500956D01*
X206714Y499549D01*
X208552Y498788D01*
X210541D01*
X212379Y499549D01*
X213785Y500956D01*
X214546Y502793D01*
Y504782D01*
X213785Y506620D01*
X212605Y507801D01*
X213759Y508955D01*
X214521Y510793D01*
Y512782D01*
X213759Y514620D01*
X212353Y516027D01*
X210515Y516788D01*
X208526D01*
X207294Y516278D01*
X206322Y517249D01*
X206641Y518019D01*
Y520008D01*
X205880Y521846D01*
X204473Y523253D01*
X202635Y524014D01*
D02*
G37*
G36*
X269753Y496544D02*
X267763D01*
X265926Y495783D01*
X264519Y494376D01*
X263758Y492538D01*
Y490549D01*
X264519Y488712D01*
X265926Y487305D01*
X267763Y486544D01*
X269753D01*
X271590Y487305D01*
X272997Y488712D01*
X273758Y490549D01*
Y492538D01*
X272997Y494376D01*
X271590Y495783D01*
X269753Y496544D01*
D02*
G37*
G36*
X101099Y488350D02*
X98900D01*
X96776Y487781D01*
X94872Y486682D01*
X93318Y485127D01*
X92218Y483223D01*
X91649Y481099D01*
Y478901D01*
X92218Y476777D01*
X93318Y474873D01*
X94872Y473318D01*
X96776Y472219D01*
X98900Y471650D01*
X101099D01*
X103222Y472219D01*
X105126Y473318D01*
X106681Y474873D01*
X107780Y476777D01*
X108349Y478901D01*
Y481099D01*
X107780Y483223D01*
X106681Y485127D01*
X105126Y486682D01*
X103222Y487781D01*
X101099Y488350D01*
D02*
G37*
G36*
X303995Y480290D02*
X302005D01*
X300168Y479529D01*
X298761Y478122D01*
X298000Y476285D01*
Y474295D01*
X298761Y472458D01*
X300168Y471051D01*
X302005Y470290D01*
X303995D01*
X305832Y471051D01*
X307239Y472458D01*
X308000Y474295D01*
Y476285D01*
X307239Y478122D01*
X305832Y479529D01*
X303995Y480290D01*
D02*
G37*
G36*
X406099Y473350D02*
X403901D01*
X401777Y472781D01*
X399873Y471682D01*
X398318Y470127D01*
X397219Y468223D01*
X396650Y466099D01*
Y463901D01*
X397219Y461777D01*
X398318Y459873D01*
X399873Y458318D01*
X401777Y457219D01*
X403901Y456650D01*
X406099D01*
X408223Y457219D01*
X410127Y458318D01*
X411682Y459873D01*
X412781Y461777D01*
X413350Y463901D01*
Y466099D01*
X412781Y468223D01*
X411682Y470127D01*
X410127Y471682D01*
X408223Y472781D01*
X406099Y473350D01*
D02*
G37*
G36*
X565922Y467000D02*
X564078D01*
X562298Y466523D01*
X560702Y465601D01*
X559399Y464298D01*
X558477Y462702D01*
X558000Y460922D01*
Y459078D01*
X558477Y457298D01*
X559399Y455702D01*
X560702Y454399D01*
X562298Y453477D01*
X564078Y453000D01*
X565922D01*
X567702Y453477D01*
X569298Y454399D01*
X570601Y455702D01*
X571523Y457298D01*
X572000Y459078D01*
Y460922D01*
X571523Y462702D01*
X570601Y464298D01*
X569298Y465601D01*
X567702Y466523D01*
X565922Y467000D01*
D02*
G37*
G36*
X138995Y450000D02*
X137005D01*
X135168Y449239D01*
X133761Y447832D01*
X133000Y445995D01*
Y444005D01*
X133761Y442168D01*
X135168Y440761D01*
X137005Y440000D01*
X138995D01*
X140832Y440761D01*
X142239Y442168D01*
X143000Y444005D01*
Y445995D01*
X142239Y447832D01*
X140832Y449239D01*
X138995Y450000D01*
D02*
G37*
G36*
X520625Y461360D02*
X509375D01*
X507243Y461080D01*
X505257Y460257D01*
X503552Y458948D01*
X502243Y457243D01*
X501420Y455257D01*
X501139Y453125D01*
Y441875D01*
X501420Y439743D01*
X502243Y437757D01*
X503552Y436052D01*
X505257Y434743D01*
X507243Y433920D01*
X509375Y433639D01*
X520625D01*
X522757Y433920D01*
X524743Y434743D01*
X526448Y436052D01*
X527757Y437757D01*
X528580Y439743D01*
X528860Y441875D01*
Y453125D01*
X528580Y455257D01*
X527757Y457243D01*
X526448Y458948D01*
X524743Y460257D01*
X522757Y461080D01*
X520625Y461360D01*
D02*
G37*
G36*
X103034Y435000D02*
X101045D01*
X99208Y434239D01*
X97801Y432832D01*
X97040Y430995D01*
Y429005D01*
X97801Y427168D01*
X99208Y425761D01*
X101045Y425000D01*
X103034D01*
X104872Y425761D01*
X106279Y427168D01*
X107040Y429005D01*
Y430995D01*
X106279Y432832D01*
X104872Y434239D01*
X103034Y435000D01*
D02*
G37*
G36*
X162995Y410000D02*
X161005D01*
X159168Y409239D01*
X157761Y407832D01*
X157000Y405995D01*
Y404005D01*
X157761Y402168D01*
X159168Y400761D01*
X161005Y400000D01*
X162995D01*
X164832Y400761D01*
X166239Y402168D01*
X167000Y404005D01*
Y405995D01*
X166239Y407832D01*
X164832Y409239D01*
X162995Y410000D01*
D02*
G37*
G36*
X341099Y398350D02*
X338901D01*
X336777Y397781D01*
X334873Y396682D01*
X333318Y395127D01*
X332219Y393223D01*
X331650Y391099D01*
Y388901D01*
X332219Y386777D01*
X333318Y384873D01*
X334873Y383318D01*
X336777Y382219D01*
X338901Y381650D01*
X341099D01*
X343223Y382219D01*
X345127Y383318D01*
X346682Y384873D01*
X347781Y386777D01*
X348350Y388901D01*
Y391099D01*
X347781Y393223D01*
X346682Y395127D01*
X345127Y396682D01*
X343223Y397781D01*
X341099Y398350D01*
D02*
G37*
G36*
X444922Y330000D02*
X443078D01*
X441298Y329523D01*
X439702Y328601D01*
X438399Y327298D01*
X437477Y325702D01*
X437000Y323922D01*
Y322078D01*
X437477Y320298D01*
X438399Y318702D01*
X439702Y317399D01*
X441298Y316477D01*
X443078Y316000D01*
X444922D01*
X446702Y316477D01*
X448298Y317399D01*
X449601Y318702D01*
X450523Y320298D01*
X451000Y322078D01*
Y323922D01*
X450523Y325702D01*
X449601Y327298D01*
X448298Y328601D01*
X446702Y329523D01*
X444922Y330000D01*
D02*
G37*
G36*
X175099Y332350D02*
X172901D01*
X170777Y331781D01*
X168873Y330682D01*
X167318Y329127D01*
X166219Y327223D01*
X165650Y325099D01*
Y322901D01*
X166219Y320777D01*
X167318Y318873D01*
X168873Y317318D01*
X170777Y316219D01*
X172901Y315650D01*
X175099D01*
X177223Y316219D01*
X179127Y317318D01*
X180682Y318873D01*
X181781Y320777D01*
X182350Y322901D01*
Y325099D01*
X181781Y327223D01*
X180682Y329127D01*
X179127Y330682D01*
X177223Y331781D01*
X175099Y332350D01*
D02*
G37*
G36*
X261668Y310293D02*
X259469D01*
X257346Y309723D01*
X255442Y308624D01*
X253887Y307070D01*
X252788Y305166D01*
X252219Y303042D01*
Y300843D01*
X252788Y298720D01*
X253887Y296816D01*
X255442Y295261D01*
X257346Y294162D01*
X259469Y293593D01*
X261668D01*
X263792Y294162D01*
X265696Y295261D01*
X267250Y296816D01*
X268349Y298720D01*
X268919Y300843D01*
Y303042D01*
X268349Y305166D01*
X267250Y307070D01*
X265696Y308624D01*
X263792Y309723D01*
X261668Y310293D01*
D02*
G37*
G36*
X455922Y297000D02*
X454078D01*
X452298Y296523D01*
X450702Y295601D01*
X449399Y294298D01*
X448477Y292702D01*
X448000Y290922D01*
Y289078D01*
X448477Y287298D01*
X449399Y285702D01*
X450702Y284399D01*
X452298Y283477D01*
X454078Y283000D01*
X455922D01*
X457702Y283477D01*
X459298Y284399D01*
X460601Y285702D01*
X461523Y287298D01*
X462000Y289078D01*
Y290922D01*
X461523Y292702D01*
X460601Y294298D01*
X459298Y295601D01*
X457702Y296523D01*
X455922Y297000D01*
D02*
G37*
G36*
X248494Y270000D02*
X246505D01*
X244668Y269239D01*
X243261Y267832D01*
X242500Y265995D01*
Y264005D01*
X243261Y262168D01*
X244668Y260761D01*
X246505Y260000D01*
X248494D01*
X250332Y260761D01*
X251739Y262168D01*
X252500Y264005D01*
Y265995D01*
X251739Y267832D01*
X250332Y269239D01*
X248494Y270000D01*
D02*
G37*
G36*
X439922Y255000D02*
X438078D01*
X436298Y254523D01*
X434702Y253601D01*
X433399Y252298D01*
X432477Y250702D01*
X432000Y248922D01*
Y247078D01*
X432477Y245298D01*
X433399Y243702D01*
X434702Y242399D01*
X436298Y241477D01*
X438078Y241000D01*
X439922D01*
X441702Y241477D01*
X443298Y242399D01*
X444601Y243702D01*
X445523Y245298D01*
X446000Y247078D01*
Y248922D01*
X445523Y250702D01*
X444601Y252298D01*
X443298Y253601D01*
X441702Y254523D01*
X439922Y255000D01*
D02*
G37*
G36*
X292995Y242548D02*
X291005D01*
X289168Y241787D01*
X287761Y240380D01*
X287000Y238542D01*
Y236553D01*
X287761Y234716D01*
X289168Y233309D01*
X291005Y232548D01*
X292995D01*
X294832Y233309D01*
X296239Y234716D01*
X297000Y236553D01*
Y238542D01*
X296239Y240380D01*
X294832Y241787D01*
X292995Y242548D01*
D02*
G37*
G36*
X204995Y235000D02*
X203005D01*
X201168Y234239D01*
X199761Y232832D01*
X199000Y230995D01*
Y229005D01*
X199761Y227168D01*
X201168Y225761D01*
X203005Y225000D01*
X204995D01*
X206832Y225761D01*
X208239Y227168D01*
X209000Y229005D01*
Y230995D01*
X208239Y232832D01*
X206832Y234239D01*
X204995Y235000D01*
D02*
G37*
G36*
X346099Y231350D02*
X343901D01*
X341777Y230781D01*
X339873Y229682D01*
X338318Y228127D01*
X337219Y226223D01*
X336650Y224099D01*
Y221901D01*
X337219Y219777D01*
X338318Y217873D01*
X339873Y216318D01*
X341777Y215219D01*
X343901Y214650D01*
X346099D01*
X348223Y215219D01*
X350127Y216318D01*
X351682Y217873D01*
X352781Y219777D01*
X353350Y221901D01*
Y224099D01*
X352781Y226223D01*
X351682Y228127D01*
X350127Y229682D01*
X348223Y230781D01*
X346099Y231350D01*
D02*
G37*
G36*
X204995Y223000D02*
X203005D01*
X201168Y222239D01*
X199761Y220832D01*
X199000Y218995D01*
Y217005D01*
X199761Y215168D01*
X201168Y213761D01*
X203005Y213000D01*
X204995D01*
X206832Y213761D01*
X208239Y215168D01*
X209000Y217005D01*
Y218995D01*
X208239Y220832D01*
X206832Y222239D01*
X204995Y223000D01*
D02*
G37*
G36*
X59995D02*
X58005D01*
X56168Y222239D01*
X54761Y220832D01*
X54000Y218995D01*
Y217005D01*
X54761Y215168D01*
X56168Y213761D01*
X58005Y213000D01*
X59995D01*
X61832Y213761D01*
X63239Y215168D01*
X64000Y217005D01*
Y218995D01*
X63239Y220832D01*
X61832Y222239D01*
X59995Y223000D01*
D02*
G37*
G36*
X292995Y226000D02*
X291005D01*
X289168Y225239D01*
X287761Y223832D01*
X287000Y221995D01*
Y220005D01*
X287761Y218168D01*
X288599Y217330D01*
X289032Y216500D01*
X288599Y215670D01*
X287761Y214832D01*
X287000Y212995D01*
Y211005D01*
X287761Y209168D01*
X289168Y207761D01*
X291005Y207000D01*
X292995D01*
X294832Y207761D01*
X296239Y209168D01*
X297000Y211005D01*
Y212995D01*
X296239Y214832D01*
X295401Y215670D01*
X294968Y216500D01*
X295401Y217330D01*
X296239Y218168D01*
X297000Y220005D01*
Y221995D01*
X296239Y223832D01*
X294832Y225239D01*
X292995Y226000D01*
D02*
G37*
G36*
X565922Y216000D02*
X564078D01*
X562298Y215523D01*
X560702Y214601D01*
X559399Y213298D01*
X558477Y211702D01*
X558000Y209922D01*
Y208078D01*
X558477Y206298D01*
X559399Y204702D01*
X560702Y203399D01*
X562298Y202477D01*
X564078Y202000D01*
X565922D01*
X567702Y202477D01*
X569298Y203399D01*
X570601Y204702D01*
X571523Y206298D01*
X572000Y208078D01*
Y209922D01*
X571523Y211702D01*
X570601Y213298D01*
X569298Y214601D01*
X567702Y215523D01*
X565922Y216000D01*
D02*
G37*
G36*
X427995Y198000D02*
X426005D01*
X424168Y197239D01*
X422761Y195832D01*
X422000Y193995D01*
Y192005D01*
X422761Y190168D01*
X424168Y188761D01*
X426005Y188000D01*
X427995D01*
X429832Y188761D01*
X431239Y190168D01*
X432000Y192005D01*
Y193995D01*
X431239Y195832D01*
X429832Y197239D01*
X427995Y198000D01*
D02*
G37*
G36*
X41922Y195000D02*
X40079D01*
X38298Y194523D01*
X36702Y193601D01*
X35399Y192298D01*
X34477Y190702D01*
X34000Y188922D01*
Y187078D01*
X34477Y185298D01*
X35399Y183702D01*
X36702Y182399D01*
X38298Y181477D01*
X40079Y181000D01*
X41922D01*
X43702Y181477D01*
X45298Y182399D01*
X46601Y183702D01*
X47523Y185298D01*
X48000Y187078D01*
Y188922D01*
X47523Y190702D01*
X46601Y192298D01*
X45298Y193601D01*
X43702Y194523D01*
X41922Y195000D01*
D02*
G37*
G36*
X261995Y185000D02*
X260005D01*
X258168Y184239D01*
X256761Y182832D01*
X256000Y180995D01*
Y179005D01*
X256761Y177168D01*
X258168Y175761D01*
X260005Y175000D01*
X261995D01*
X263832Y175761D01*
X265239Y177168D01*
X266000Y179005D01*
Y180995D01*
X265239Y182832D01*
X263832Y184239D01*
X261995Y185000D01*
D02*
G37*
G36*
X292995Y174000D02*
X291005D01*
X289168Y173239D01*
X287761Y171832D01*
X287000Y169995D01*
Y168005D01*
X287761Y166168D01*
X289168Y164761D01*
X291005Y164000D01*
X292995D01*
X294832Y164761D01*
X296239Y166168D01*
X297000Y168005D01*
Y169995D01*
X296239Y171832D01*
X294832Y173239D01*
X292995Y174000D01*
D02*
G37*
G36*
X143995Y147000D02*
X142005D01*
X140168Y146239D01*
X138761Y144832D01*
X138000Y142994D01*
Y141005D01*
X138761Y139168D01*
X140168Y137761D01*
X142005Y137000D01*
X143995D01*
X145832Y137761D01*
X147239Y139168D01*
X148000Y141005D01*
Y142994D01*
X147239Y144832D01*
X145832Y146239D01*
X143995Y147000D01*
D02*
G37*
G36*
X362995Y137040D02*
X361006D01*
X359168Y136279D01*
X357761Y134872D01*
X357000Y133035D01*
Y131045D01*
X357761Y129208D01*
X359168Y127801D01*
X361006Y127040D01*
X362995D01*
X364832Y127801D01*
X366239Y129208D01*
X367000Y131045D01*
Y133035D01*
X366239Y134872D01*
X364832Y136279D01*
X362995Y137040D01*
D02*
G37*
G36*
X465922Y137000D02*
X464078D01*
X462298Y136523D01*
X460702Y135601D01*
X459399Y134298D01*
X458477Y132702D01*
X458000Y130922D01*
Y129078D01*
X458477Y127298D01*
X459399Y125702D01*
X460702Y124399D01*
X462298Y123477D01*
X464078Y123000D01*
X465922D01*
X467702Y123477D01*
X469298Y124399D01*
X470601Y125702D01*
X471523Y127298D01*
X472000Y129078D01*
Y130922D01*
X471523Y132702D01*
X470601Y134298D01*
X469298Y135601D01*
X467702Y136523D01*
X465922Y137000D01*
D02*
G37*
G36*
X350922Y97000D02*
X349078D01*
X347298Y96523D01*
X345702Y95601D01*
X344399Y94298D01*
X343477Y92702D01*
X343000Y90922D01*
Y89078D01*
X343477Y87298D01*
X344399Y85702D01*
X344338Y85244D01*
X343282Y84634D01*
X341366Y82718D01*
X340011Y80372D01*
X339310Y77755D01*
Y75045D01*
X340011Y72428D01*
X341366Y70082D01*
X343282Y68166D01*
X345628Y66811D01*
X348245Y66110D01*
X350955D01*
X353572Y66811D01*
X355918Y68166D01*
X357834Y70082D01*
X359189Y72428D01*
X359890Y75045D01*
Y77755D01*
X359189Y80372D01*
X357834Y82718D01*
X355918Y84634D01*
X355728Y84744D01*
X355601Y85702D01*
X356523Y87298D01*
X357000Y89078D01*
Y90922D01*
X356523Y92702D01*
X355601Y94298D01*
X354298Y95601D01*
X352702Y96523D01*
X350922Y97000D01*
D02*
G37*
G36*
X300155Y86690D02*
X297445D01*
X294828Y85989D01*
X292482Y84634D01*
X290566Y82718D01*
X289211Y80372D01*
X288510Y77755D01*
Y75045D01*
X289211Y72428D01*
X290566Y70082D01*
X292482Y68166D01*
X294828Y66811D01*
X297445Y66110D01*
X300155D01*
X302772Y66811D01*
X305118Y68166D01*
X307034Y70082D01*
X308389Y72428D01*
X309090Y75045D01*
Y77755D01*
X308389Y80372D01*
X307034Y82718D01*
X305118Y84634D01*
X302772Y85989D01*
X300155Y86690D01*
D02*
G37*
G36*
X249355D02*
X246645D01*
X244028Y85989D01*
X241682Y84634D01*
X239766Y82718D01*
X238411Y80372D01*
X237710Y77755D01*
Y75045D01*
X238411Y72428D01*
X239766Y70082D01*
X241682Y68166D01*
X244028Y66811D01*
X246645Y66110D01*
X249355D01*
X251972Y66811D01*
X254318Y68166D01*
X256234Y70082D01*
X257589Y72428D01*
X258290Y75045D01*
Y77755D01*
X257589Y80372D01*
X256234Y82718D01*
X254318Y84634D01*
X251972Y85989D01*
X249355Y86690D01*
D02*
G37*
G36*
X198555D02*
X195845D01*
X193228Y85989D01*
X190882Y84634D01*
X188966Y82718D01*
X187611Y80372D01*
X186910Y77755D01*
Y75045D01*
X187611Y72428D01*
X188966Y70082D01*
X190882Y68166D01*
X193228Y66811D01*
X195845Y66110D01*
X198555D01*
X201172Y66811D01*
X203518Y68166D01*
X205434Y70082D01*
X206789Y72428D01*
X207490Y75045D01*
Y77755D01*
X206789Y80372D01*
X205434Y82718D01*
X203518Y84634D01*
X201172Y85989D01*
X198555Y86690D01*
D02*
G37*
G36*
X350955Y61290D02*
X348245D01*
X345628Y60589D01*
X343282Y59234D01*
X341366Y57318D01*
X340011Y54972D01*
X339310Y52355D01*
Y49645D01*
X340011Y47028D01*
X341366Y44682D01*
X343282Y42766D01*
X345628Y41411D01*
X348245Y40710D01*
X350955D01*
X353572Y41411D01*
X355918Y42766D01*
X357834Y44682D01*
X359189Y47028D01*
X359890Y49645D01*
Y52355D01*
X359189Y54972D01*
X357834Y57318D01*
X355918Y59234D01*
X353572Y60589D01*
X350955Y61290D01*
D02*
G37*
G36*
X300155D02*
X297445D01*
X294828Y60589D01*
X292482Y59234D01*
X290566Y57318D01*
X289211Y54972D01*
X288510Y52355D01*
Y49645D01*
X289211Y47028D01*
X290566Y44682D01*
X292482Y42766D01*
X294828Y41411D01*
X297445Y40710D01*
X300155D01*
X302772Y41411D01*
X305118Y42766D01*
X307034Y44682D01*
X308389Y47028D01*
X309090Y49645D01*
Y52355D01*
X308389Y54972D01*
X307034Y57318D01*
X305118Y59234D01*
X302772Y60589D01*
X300155Y61290D01*
D02*
G37*
G36*
X249355D02*
X246645D01*
X244028Y60589D01*
X241682Y59234D01*
X239766Y57318D01*
X238411Y54972D01*
X237710Y52355D01*
Y49645D01*
X238411Y47028D01*
X239766Y44682D01*
X241682Y42766D01*
X244028Y41411D01*
X246645Y40710D01*
X249355D01*
X251972Y41411D01*
X254318Y42766D01*
X256234Y44682D01*
X257589Y47028D01*
X258290Y49645D01*
Y52355D01*
X257589Y54972D01*
X256234Y57318D01*
X254318Y59234D01*
X251972Y60589D01*
X249355Y61290D01*
D02*
G37*
G36*
X198555D02*
X195845D01*
X193228Y60589D01*
X190882Y59234D01*
X188966Y57318D01*
X187611Y54972D01*
X186910Y52355D01*
Y49645D01*
X187611Y47028D01*
X188966Y44682D01*
X190882Y42766D01*
X193228Y41411D01*
X195845Y40710D01*
X198555D01*
X201172Y41411D01*
X203518Y42766D01*
X205434Y44682D01*
X206789Y47028D01*
X207490Y49645D01*
Y52355D01*
X206789Y54972D01*
X205434Y57318D01*
X203518Y59234D01*
X201172Y60589D01*
X198555Y61290D01*
D02*
G37*
%LPD*%
D36*
X375000Y76400D02*
D03*
D37*
X324200D02*
D03*
X273400D02*
D03*
X222600D02*
D03*
X375000Y51000D02*
D03*
X324200D02*
D03*
X273400D02*
D03*
X222600D02*
D03*
D45*
X303076Y515257D02*
X303152Y515332D01*
X303000Y475290D02*
X303076Y475366D01*
D46*
X250000Y375000D02*
D03*
X560000Y695000D02*
D03*
X565000Y40000D02*
D03*
X35000D02*
D03*
X40000Y695000D02*
D03*
D47*
X515000Y497500D02*
D03*
D49*
X590001Y700001D02*
D03*
Y690001D02*
D03*
Y680001D02*
D03*
Y670001D02*
D03*
Y660001D02*
D03*
Y650001D02*
D03*
Y640001D02*
D03*
Y630001D02*
D03*
Y620001D02*
D03*
Y610001D02*
D03*
Y600001D02*
D03*
Y590001D02*
D03*
Y580001D02*
D03*
Y570001D02*
D03*
Y560001D02*
D03*
Y550001D02*
D03*
Y540001D02*
D03*
Y530001D02*
D03*
Y520001D02*
D03*
Y510001D02*
D03*
Y500001D02*
D03*
Y490001D02*
D03*
Y480001D02*
D03*
Y470001D02*
D03*
Y460001D02*
D03*
Y450000D02*
D03*
Y440000D02*
D03*
Y430000D02*
D03*
Y420000D02*
D03*
Y410000D02*
D03*
Y400000D02*
D03*
Y390000D02*
D03*
Y380000D02*
D03*
Y370000D02*
D03*
Y360000D02*
D03*
Y350000D02*
D03*
Y340000D02*
D03*
Y330000D02*
D03*
Y320000D02*
D03*
Y310000D02*
D03*
Y300000D02*
D03*
Y290000D02*
D03*
Y280000D02*
D03*
Y270000D02*
D03*
Y260000D02*
D03*
Y250000D02*
D03*
Y240000D02*
D03*
Y230000D02*
D03*
Y220000D02*
D03*
Y210000D02*
D03*
Y200000D02*
D03*
Y190000D02*
D03*
Y180000D02*
D03*
Y170000D02*
D03*
Y160000D02*
D03*
Y150000D02*
D03*
Y140000D02*
D03*
Y130000D02*
D03*
Y120000D02*
D03*
Y110000D02*
D03*
Y100000D02*
D03*
Y90000D02*
D03*
Y80000D02*
D03*
Y70000D02*
D03*
Y60000D02*
D03*
Y50000D02*
D03*
Y30000D02*
D03*
X580001Y670001D02*
D03*
Y660001D02*
D03*
Y650001D02*
D03*
Y640001D02*
D03*
Y630001D02*
D03*
Y620001D02*
D03*
Y610001D02*
D03*
Y600001D02*
D03*
Y590001D02*
D03*
Y580001D02*
D03*
Y570001D02*
D03*
Y560001D02*
D03*
Y550001D02*
D03*
Y540001D02*
D03*
Y530001D02*
D03*
Y520001D02*
D03*
Y510001D02*
D03*
Y500001D02*
D03*
Y490001D02*
D03*
Y480001D02*
D03*
Y470001D02*
D03*
Y460001D02*
D03*
Y450000D02*
D03*
Y440000D02*
D03*
Y430000D02*
D03*
Y420000D02*
D03*
Y410000D02*
D03*
Y400000D02*
D03*
Y390000D02*
D03*
Y380000D02*
D03*
Y370000D02*
D03*
Y360000D02*
D03*
Y350000D02*
D03*
Y340000D02*
D03*
Y330000D02*
D03*
Y320000D02*
D03*
Y310000D02*
D03*
Y300000D02*
D03*
Y290000D02*
D03*
Y280000D02*
D03*
Y270000D02*
D03*
Y260000D02*
D03*
Y250000D02*
D03*
Y240000D02*
D03*
Y230000D02*
D03*
Y220000D02*
D03*
Y210000D02*
D03*
Y200000D02*
D03*
Y190000D02*
D03*
Y180000D02*
D03*
Y170000D02*
D03*
Y160000D02*
D03*
Y150000D02*
D03*
Y140000D02*
D03*
Y130000D02*
D03*
Y120000D02*
D03*
Y110000D02*
D03*
Y100000D02*
D03*
Y90000D02*
D03*
Y80000D02*
D03*
Y70000D02*
D03*
X570001Y720001D02*
D03*
Y670001D02*
D03*
Y660001D02*
D03*
Y650001D02*
D03*
Y640001D02*
D03*
Y200000D02*
D03*
Y190000D02*
D03*
Y180000D02*
D03*
Y170000D02*
D03*
Y160000D02*
D03*
Y150000D02*
D03*
Y140000D02*
D03*
Y130000D02*
D03*
Y120000D02*
D03*
Y110000D02*
D03*
Y100000D02*
D03*
Y90000D02*
D03*
Y80000D02*
D03*
Y70000D02*
D03*
X560001Y200000D02*
D03*
Y190000D02*
D03*
Y180000D02*
D03*
Y170000D02*
D03*
Y160000D02*
D03*
Y150000D02*
D03*
Y140000D02*
D03*
Y130000D02*
D03*
Y120000D02*
D03*
Y110000D02*
D03*
Y100000D02*
D03*
Y90000D02*
D03*
Y80000D02*
D03*
Y70000D02*
D03*
Y10000D02*
D03*
X550001Y720001D02*
D03*
Y310000D02*
D03*
Y300000D02*
D03*
Y280000D02*
D03*
Y270000D02*
D03*
Y240000D02*
D03*
Y200000D02*
D03*
Y190000D02*
D03*
Y180000D02*
D03*
Y170000D02*
D03*
Y160000D02*
D03*
Y150000D02*
D03*
Y140000D02*
D03*
Y130000D02*
D03*
Y120000D02*
D03*
Y110000D02*
D03*
Y100000D02*
D03*
Y90000D02*
D03*
Y80000D02*
D03*
Y70000D02*
D03*
Y10000D02*
D03*
X540001Y720001D02*
D03*
Y310000D02*
D03*
Y270000D02*
D03*
Y240000D02*
D03*
Y200000D02*
D03*
Y190000D02*
D03*
Y180000D02*
D03*
Y170000D02*
D03*
Y160000D02*
D03*
Y150000D02*
D03*
Y140000D02*
D03*
Y130000D02*
D03*
Y120000D02*
D03*
Y110000D02*
D03*
Y100000D02*
D03*
Y90000D02*
D03*
Y80000D02*
D03*
Y70000D02*
D03*
Y60000D02*
D03*
Y50000D02*
D03*
Y30000D02*
D03*
Y20000D02*
D03*
Y10000D02*
D03*
X530001Y720001D02*
D03*
Y310000D02*
D03*
Y270000D02*
D03*
Y240000D02*
D03*
Y200000D02*
D03*
Y190000D02*
D03*
Y180000D02*
D03*
Y170000D02*
D03*
Y160000D02*
D03*
Y150000D02*
D03*
Y140000D02*
D03*
Y130000D02*
D03*
Y120000D02*
D03*
Y110000D02*
D03*
Y100000D02*
D03*
Y90000D02*
D03*
Y80000D02*
D03*
Y70000D02*
D03*
Y60000D02*
D03*
Y50000D02*
D03*
Y40000D02*
D03*
Y30000D02*
D03*
Y20000D02*
D03*
Y10000D02*
D03*
X520001Y720001D02*
D03*
Y310000D02*
D03*
Y270000D02*
D03*
Y240000D02*
D03*
Y200000D02*
D03*
Y190000D02*
D03*
Y180000D02*
D03*
Y170000D02*
D03*
Y160000D02*
D03*
Y150000D02*
D03*
Y140000D02*
D03*
Y130000D02*
D03*
Y120000D02*
D03*
Y110000D02*
D03*
Y100000D02*
D03*
Y90000D02*
D03*
Y80000D02*
D03*
Y70000D02*
D03*
Y60000D02*
D03*
Y50000D02*
D03*
Y40000D02*
D03*
Y30000D02*
D03*
Y20000D02*
D03*
Y10000D02*
D03*
X510001Y720001D02*
D03*
Y310000D02*
D03*
Y270000D02*
D03*
Y240000D02*
D03*
Y200000D02*
D03*
Y190000D02*
D03*
Y180000D02*
D03*
Y170000D02*
D03*
Y160000D02*
D03*
Y150000D02*
D03*
Y140000D02*
D03*
Y130000D02*
D03*
Y120000D02*
D03*
Y110000D02*
D03*
Y100000D02*
D03*
Y90000D02*
D03*
Y80000D02*
D03*
Y70000D02*
D03*
Y60000D02*
D03*
Y50000D02*
D03*
Y40000D02*
D03*
Y30000D02*
D03*
Y20000D02*
D03*
Y10000D02*
D03*
X500001Y720001D02*
D03*
Y80000D02*
D03*
Y70000D02*
D03*
Y60000D02*
D03*
Y50000D02*
D03*
Y40000D02*
D03*
Y30000D02*
D03*
Y20000D02*
D03*
Y10000D02*
D03*
X490001Y720001D02*
D03*
Y70000D02*
D03*
Y60000D02*
D03*
Y50000D02*
D03*
Y40000D02*
D03*
Y30000D02*
D03*
Y20000D02*
D03*
Y10000D02*
D03*
X480001Y720001D02*
D03*
Y60000D02*
D03*
Y50000D02*
D03*
Y40000D02*
D03*
Y30000D02*
D03*
Y20000D02*
D03*
Y10000D02*
D03*
X470001Y720001D02*
D03*
Y170000D02*
D03*
Y160000D02*
D03*
Y50000D02*
D03*
Y40000D02*
D03*
Y30000D02*
D03*
Y20000D02*
D03*
Y10000D02*
D03*
X460001Y720001D02*
D03*
Y170000D02*
D03*
Y160000D02*
D03*
Y40000D02*
D03*
Y30000D02*
D03*
Y20000D02*
D03*
Y10000D02*
D03*
X450001Y720001D02*
D03*
Y640001D02*
D03*
Y630001D02*
D03*
Y170000D02*
D03*
Y160000D02*
D03*
Y80000D02*
D03*
Y30000D02*
D03*
Y20000D02*
D03*
Y10000D02*
D03*
X440001Y720001D02*
D03*
Y640001D02*
D03*
Y630001D02*
D03*
Y80000D02*
D03*
Y70000D02*
D03*
Y20000D02*
D03*
Y10000D02*
D03*
X430001Y720001D02*
D03*
Y640001D02*
D03*
Y630001D02*
D03*
Y80000D02*
D03*
Y70000D02*
D03*
Y60000D02*
D03*
Y10000D02*
D03*
X420001Y720001D02*
D03*
Y630001D02*
D03*
Y80000D02*
D03*
Y70000D02*
D03*
Y60000D02*
D03*
Y50000D02*
D03*
Y10000D02*
D03*
X410001Y720001D02*
D03*
Y630001D02*
D03*
Y160000D02*
D03*
Y150000D02*
D03*
Y140000D02*
D03*
Y130000D02*
D03*
Y80000D02*
D03*
Y70000D02*
D03*
Y60000D02*
D03*
Y50000D02*
D03*
Y10000D02*
D03*
X400001Y720001D02*
D03*
Y630001D02*
D03*
Y130000D02*
D03*
Y10000D02*
D03*
X390001Y720001D02*
D03*
Y630001D02*
D03*
Y10000D02*
D03*
X380001Y720001D02*
D03*
Y630001D02*
D03*
Y620001D02*
D03*
Y10000D02*
D03*
X370001Y720001D02*
D03*
Y630001D02*
D03*
Y10000D02*
D03*
X360001Y720001D02*
D03*
Y60000D02*
D03*
Y10000D02*
D03*
X350001Y720001D02*
D03*
Y10000D02*
D03*
X340001Y720001D02*
D03*
Y630001D02*
D03*
Y620001D02*
D03*
Y10000D02*
D03*
X330001Y720001D02*
D03*
Y280000D02*
D03*
Y10000D02*
D03*
X320001Y720001D02*
D03*
Y420000D02*
D03*
Y280000D02*
D03*
Y10000D02*
D03*
X310001Y720001D02*
D03*
Y630001D02*
D03*
Y620001D02*
D03*
Y430000D02*
D03*
Y420000D02*
D03*
Y60000D02*
D03*
Y10000D02*
D03*
X300001Y720001D02*
D03*
Y630001D02*
D03*
Y620001D02*
D03*
Y610001D02*
D03*
Y440000D02*
D03*
Y430000D02*
D03*
Y420000D02*
D03*
Y10000D02*
D03*
X290001Y720001D02*
D03*
Y660001D02*
D03*
Y650001D02*
D03*
Y640001D02*
D03*
Y630001D02*
D03*
Y620001D02*
D03*
Y10000D02*
D03*
X280001Y720001D02*
D03*
Y660001D02*
D03*
Y650001D02*
D03*
Y640001D02*
D03*
Y630001D02*
D03*
Y620001D02*
D03*
Y450000D02*
D03*
Y10000D02*
D03*
X270001Y720001D02*
D03*
Y660001D02*
D03*
Y650001D02*
D03*
Y640001D02*
D03*
Y630001D02*
D03*
Y620001D02*
D03*
Y450000D02*
D03*
Y10000D02*
D03*
X260000Y720001D02*
D03*
Y620001D02*
D03*
Y610001D02*
D03*
Y480001D02*
D03*
Y470001D02*
D03*
Y460001D02*
D03*
Y450000D02*
D03*
Y440000D02*
D03*
Y430000D02*
D03*
Y60000D02*
D03*
Y10000D02*
D03*
X250000Y720001D02*
D03*
Y620001D02*
D03*
Y610001D02*
D03*
Y480001D02*
D03*
Y470001D02*
D03*
Y460001D02*
D03*
Y450000D02*
D03*
Y440000D02*
D03*
Y430000D02*
D03*
Y190000D02*
D03*
Y10000D02*
D03*
X240000Y720001D02*
D03*
Y660001D02*
D03*
Y650001D02*
D03*
Y640001D02*
D03*
Y630001D02*
D03*
Y620001D02*
D03*
Y610001D02*
D03*
Y480001D02*
D03*
Y470001D02*
D03*
Y460001D02*
D03*
Y450000D02*
D03*
Y440000D02*
D03*
Y430000D02*
D03*
Y10000D02*
D03*
X230000Y720001D02*
D03*
Y660001D02*
D03*
Y650001D02*
D03*
Y640001D02*
D03*
Y630001D02*
D03*
Y620001D02*
D03*
Y450000D02*
D03*
Y10000D02*
D03*
X220000Y720001D02*
D03*
Y660001D02*
D03*
Y650001D02*
D03*
Y640001D02*
D03*
Y630001D02*
D03*
Y620001D02*
D03*
Y10000D02*
D03*
X210000Y720001D02*
D03*
Y660001D02*
D03*
Y650001D02*
D03*
Y640001D02*
D03*
Y630001D02*
D03*
Y410000D02*
D03*
Y400000D02*
D03*
Y390000D02*
D03*
Y380000D02*
D03*
Y370000D02*
D03*
Y360000D02*
D03*
Y350000D02*
D03*
Y340000D02*
D03*
Y150000D02*
D03*
Y70000D02*
D03*
Y60000D02*
D03*
Y10000D02*
D03*
X200000Y720001D02*
D03*
Y660001D02*
D03*
Y650001D02*
D03*
Y640001D02*
D03*
Y630001D02*
D03*
Y400000D02*
D03*
Y390000D02*
D03*
Y380000D02*
D03*
Y370000D02*
D03*
Y360000D02*
D03*
Y350000D02*
D03*
Y340000D02*
D03*
Y150000D02*
D03*
Y10000D02*
D03*
X190000Y720001D02*
D03*
Y660001D02*
D03*
Y650001D02*
D03*
Y640001D02*
D03*
Y630001D02*
D03*
Y390000D02*
D03*
Y380000D02*
D03*
Y370000D02*
D03*
Y10000D02*
D03*
X180000Y720001D02*
D03*
Y640001D02*
D03*
Y630001D02*
D03*
Y380000D02*
D03*
Y370000D02*
D03*
Y10000D02*
D03*
X170000Y720001D02*
D03*
Y640001D02*
D03*
Y630001D02*
D03*
Y450000D02*
D03*
Y440000D02*
D03*
Y380000D02*
D03*
Y20000D02*
D03*
Y10000D02*
D03*
X160000Y720001D02*
D03*
Y640001D02*
D03*
Y630001D02*
D03*
Y380000D02*
D03*
Y30000D02*
D03*
Y20000D02*
D03*
Y10000D02*
D03*
X150000Y720001D02*
D03*
Y640001D02*
D03*
Y630001D02*
D03*
Y420000D02*
D03*
Y380000D02*
D03*
Y100000D02*
D03*
Y90000D02*
D03*
Y80000D02*
D03*
Y70000D02*
D03*
Y60000D02*
D03*
Y50000D02*
D03*
Y40000D02*
D03*
Y30000D02*
D03*
Y20000D02*
D03*
Y10000D02*
D03*
X140000Y720001D02*
D03*
Y640001D02*
D03*
Y630001D02*
D03*
Y420000D02*
D03*
Y410000D02*
D03*
Y380000D02*
D03*
Y370000D02*
D03*
Y100000D02*
D03*
Y90000D02*
D03*
Y80000D02*
D03*
Y70000D02*
D03*
Y60000D02*
D03*
Y50000D02*
D03*
Y40000D02*
D03*
Y30000D02*
D03*
Y20000D02*
D03*
Y10000D02*
D03*
X130000Y720001D02*
D03*
Y630001D02*
D03*
Y420000D02*
D03*
Y410000D02*
D03*
Y380000D02*
D03*
Y370000D02*
D03*
Y140000D02*
D03*
Y100000D02*
D03*
Y90000D02*
D03*
Y80000D02*
D03*
Y70000D02*
D03*
Y60000D02*
D03*
Y50000D02*
D03*
Y40000D02*
D03*
Y30000D02*
D03*
Y20000D02*
D03*
Y10000D02*
D03*
X120000Y720001D02*
D03*
Y420000D02*
D03*
Y410000D02*
D03*
Y380000D02*
D03*
Y370000D02*
D03*
Y140000D02*
D03*
Y100000D02*
D03*
Y90000D02*
D03*
Y80000D02*
D03*
Y70000D02*
D03*
Y60000D02*
D03*
Y50000D02*
D03*
Y40000D02*
D03*
Y30000D02*
D03*
Y20000D02*
D03*
Y10000D02*
D03*
X110000Y720001D02*
D03*
Y420000D02*
D03*
Y410000D02*
D03*
Y380000D02*
D03*
Y370000D02*
D03*
Y150000D02*
D03*
Y140000D02*
D03*
Y100000D02*
D03*
Y90000D02*
D03*
Y80000D02*
D03*
Y70000D02*
D03*
Y60000D02*
D03*
Y50000D02*
D03*
Y40000D02*
D03*
Y30000D02*
D03*
Y20000D02*
D03*
Y10000D02*
D03*
X100000Y720001D02*
D03*
Y630001D02*
D03*
Y410000D02*
D03*
Y380000D02*
D03*
Y370000D02*
D03*
Y150000D02*
D03*
Y100000D02*
D03*
Y90000D02*
D03*
Y80000D02*
D03*
Y70000D02*
D03*
Y60000D02*
D03*
Y50000D02*
D03*
Y40000D02*
D03*
Y30000D02*
D03*
Y20000D02*
D03*
Y10000D02*
D03*
X90000Y720001D02*
D03*
Y100000D02*
D03*
Y90000D02*
D03*
Y80000D02*
D03*
Y70000D02*
D03*
Y60000D02*
D03*
Y50000D02*
D03*
Y40000D02*
D03*
Y30000D02*
D03*
Y20000D02*
D03*
Y10000D02*
D03*
X80000Y720001D02*
D03*
Y100000D02*
D03*
Y90000D02*
D03*
Y80000D02*
D03*
Y70000D02*
D03*
Y60000D02*
D03*
Y50000D02*
D03*
Y40000D02*
D03*
Y30000D02*
D03*
Y20000D02*
D03*
Y10000D02*
D03*
X70000Y720001D02*
D03*
Y430000D02*
D03*
Y420000D02*
D03*
Y410000D02*
D03*
Y400000D02*
D03*
Y390000D02*
D03*
Y380000D02*
D03*
Y370000D02*
D03*
Y140000D02*
D03*
Y100000D02*
D03*
Y90000D02*
D03*
Y80000D02*
D03*
Y70000D02*
D03*
Y60000D02*
D03*
Y50000D02*
D03*
Y40000D02*
D03*
Y30000D02*
D03*
Y20000D02*
D03*
Y10000D02*
D03*
X60000Y720001D02*
D03*
Y450000D02*
D03*
Y440000D02*
D03*
Y430000D02*
D03*
Y420000D02*
D03*
Y410000D02*
D03*
Y400000D02*
D03*
Y390000D02*
D03*
Y380000D02*
D03*
Y370000D02*
D03*
Y110000D02*
D03*
Y100000D02*
D03*
Y90000D02*
D03*
Y80000D02*
D03*
Y70000D02*
D03*
Y60000D02*
D03*
Y50000D02*
D03*
Y30000D02*
D03*
Y20000D02*
D03*
Y10000D02*
D03*
X50000Y720001D02*
D03*
Y450000D02*
D03*
Y440000D02*
D03*
Y430000D02*
D03*
Y420000D02*
D03*
Y410000D02*
D03*
Y400000D02*
D03*
Y390000D02*
D03*
Y380000D02*
D03*
Y370000D02*
D03*
Y120000D02*
D03*
Y110000D02*
D03*
Y100000D02*
D03*
Y90000D02*
D03*
Y80000D02*
D03*
Y70000D02*
D03*
Y10000D02*
D03*
X40000Y450000D02*
D03*
Y440000D02*
D03*
Y430000D02*
D03*
Y420000D02*
D03*
Y410000D02*
D03*
Y400000D02*
D03*
Y390000D02*
D03*
Y380000D02*
D03*
Y370000D02*
D03*
Y130000D02*
D03*
Y120000D02*
D03*
Y110000D02*
D03*
Y100000D02*
D03*
Y90000D02*
D03*
Y80000D02*
D03*
Y70000D02*
D03*
Y10000D02*
D03*
X30000Y720001D02*
D03*
Y450000D02*
D03*
Y440000D02*
D03*
Y430000D02*
D03*
Y420000D02*
D03*
Y410000D02*
D03*
Y400000D02*
D03*
Y390000D02*
D03*
Y380000D02*
D03*
Y370000D02*
D03*
Y260000D02*
D03*
Y250000D02*
D03*
Y140000D02*
D03*
Y130000D02*
D03*
Y120000D02*
D03*
Y110000D02*
D03*
Y100000D02*
D03*
Y90000D02*
D03*
Y80000D02*
D03*
Y70000D02*
D03*
Y10000D02*
D03*
X20000Y670001D02*
D03*
Y660001D02*
D03*
Y650001D02*
D03*
Y640001D02*
D03*
Y630001D02*
D03*
Y620001D02*
D03*
Y610001D02*
D03*
Y600001D02*
D03*
Y590001D02*
D03*
Y580001D02*
D03*
Y570001D02*
D03*
Y560001D02*
D03*
Y550001D02*
D03*
Y540001D02*
D03*
Y530001D02*
D03*
Y520001D02*
D03*
Y510001D02*
D03*
Y500001D02*
D03*
Y490001D02*
D03*
Y480001D02*
D03*
Y470001D02*
D03*
Y460001D02*
D03*
Y450000D02*
D03*
Y440000D02*
D03*
Y430000D02*
D03*
Y420000D02*
D03*
Y410000D02*
D03*
Y400000D02*
D03*
Y390000D02*
D03*
Y380000D02*
D03*
Y370000D02*
D03*
Y360000D02*
D03*
Y350000D02*
D03*
Y340000D02*
D03*
Y330000D02*
D03*
Y320000D02*
D03*
Y310000D02*
D03*
Y300000D02*
D03*
Y290000D02*
D03*
Y280000D02*
D03*
Y270000D02*
D03*
Y260000D02*
D03*
Y250000D02*
D03*
Y240000D02*
D03*
Y230000D02*
D03*
Y220000D02*
D03*
Y210000D02*
D03*
Y200000D02*
D03*
Y190000D02*
D03*
Y180000D02*
D03*
Y170000D02*
D03*
Y160000D02*
D03*
Y150000D02*
D03*
Y140000D02*
D03*
Y130000D02*
D03*
Y120000D02*
D03*
Y110000D02*
D03*
Y100000D02*
D03*
Y90000D02*
D03*
Y80000D02*
D03*
Y70000D02*
D03*
X10000Y700001D02*
D03*
Y690001D02*
D03*
Y680001D02*
D03*
Y670001D02*
D03*
Y660001D02*
D03*
Y650001D02*
D03*
Y640001D02*
D03*
Y630001D02*
D03*
Y620001D02*
D03*
Y610001D02*
D03*
Y600001D02*
D03*
Y590001D02*
D03*
Y580001D02*
D03*
Y570001D02*
D03*
Y560001D02*
D03*
Y550001D02*
D03*
Y540001D02*
D03*
Y530001D02*
D03*
Y520001D02*
D03*
Y510001D02*
D03*
Y500001D02*
D03*
Y490001D02*
D03*
Y480001D02*
D03*
Y470001D02*
D03*
Y460001D02*
D03*
Y450000D02*
D03*
Y440000D02*
D03*
Y430000D02*
D03*
Y420000D02*
D03*
Y410000D02*
D03*
Y400000D02*
D03*
Y390000D02*
D03*
Y380000D02*
D03*
Y370000D02*
D03*
Y360000D02*
D03*
Y350000D02*
D03*
Y340000D02*
D03*
Y330000D02*
D03*
Y320000D02*
D03*
Y310000D02*
D03*
Y300000D02*
D03*
Y290000D02*
D03*
Y280000D02*
D03*
Y270000D02*
D03*
Y260000D02*
D03*
Y250000D02*
D03*
Y240000D02*
D03*
Y230000D02*
D03*
Y220000D02*
D03*
Y210000D02*
D03*
Y200000D02*
D03*
Y190000D02*
D03*
Y180000D02*
D03*
Y170000D02*
D03*
Y160000D02*
D03*
Y150000D02*
D03*
Y140000D02*
D03*
Y130000D02*
D03*
Y120000D02*
D03*
Y110000D02*
D03*
Y100000D02*
D03*
Y90000D02*
D03*
Y80000D02*
D03*
Y70000D02*
D03*
Y60000D02*
D03*
Y50000D02*
D03*
Y30000D02*
D03*
X121000Y577000D02*
D03*
X229000Y185000D02*
D03*
X440001Y550001D02*
D03*
X143000Y134000D02*
D03*
X370000Y132000D02*
D03*
X138000Y454000D02*
D03*
X201000Y510000D02*
D03*
Y500000D02*
D03*
X448000Y552000D02*
D03*
X201000Y544000D02*
D03*
X427000Y201000D02*
D03*
X59000Y226000D02*
D03*
X304000Y523500D02*
D03*
X150000Y410000D02*
D03*
X100000Y420000D02*
D03*
X303152Y515332D02*
D03*
X295000Y477000D02*
D03*
X273110Y484831D02*
D03*
X261000Y188000D02*
D03*
X196000Y230000D02*
D03*
X256000Y265000D02*
D03*
X292000Y160000D02*
D03*
X299000Y208000D02*
D03*
Y216000D02*
D03*
X196000Y218000D02*
D03*
X70000Y576000D02*
D03*
X303000Y475290D02*
D03*
D50*
X575501Y685930D02*
D03*
X575606Y703889D02*
D03*
X569070Y710501D02*
D03*
X560105Y712960D02*
D03*
X542040Y695105D02*
D03*
X57959Y694895D02*
D03*
X559895Y677040D02*
D03*
X565105Y57959D02*
D03*
X52959Y39895D02*
D03*
X547040Y40105D02*
D03*
X35105Y57959D02*
D03*
X34895Y22041D02*
D03*
X564895D02*
D03*
X43889Y24394D02*
D03*
X573889D02*
D03*
X555929Y24499D02*
D03*
X25930D02*
D03*
X580501Y30930D02*
D03*
X50501D02*
D03*
X549394Y31111D02*
D03*
X19394D02*
D03*
X582960Y39895D02*
D03*
X17040Y40105D02*
D03*
X50606Y48889D02*
D03*
X580606D02*
D03*
X549499Y49070D02*
D03*
X19499D02*
D03*
X574070Y55501D02*
D03*
X44070D02*
D03*
X556111Y55606D02*
D03*
X26111D02*
D03*
X249895Y357040D02*
D03*
X258889Y359394D02*
D03*
X265501Y365930D02*
D03*
X267959Y374895D02*
D03*
X265606Y383889D02*
D03*
X259070Y390501D02*
D03*
X250105Y392960D02*
D03*
X241111Y390606D02*
D03*
X234499Y384071D02*
D03*
X232041Y375105D02*
D03*
X234394Y366111D02*
D03*
X240930Y359499D02*
D03*
X568889Y679394D02*
D03*
X577960Y694895D02*
D03*
X551111Y710606D02*
D03*
X544499Y704070D02*
D03*
X544394Y686111D02*
D03*
X550930Y679499D02*
D03*
X30930D02*
D03*
X24394Y686111D02*
D03*
X22041Y695105D02*
D03*
X24499Y704070D02*
D03*
X31111Y710606D02*
D03*
X40105Y712960D02*
D03*
X49070Y710501D02*
D03*
X55606Y703889D02*
D03*
X55501Y685930D02*
D03*
X48889Y679394D02*
D03*
X39895Y677040D02*
D03*
M02*
