G04*
G04 #@! TF.GenerationSoftware,Altium Limited,Altium Designer,21.3.2 (30)*
G04*
G04 Layer_Color=32896*
%FSLAX44Y44*%
%MOMM*%
G71*
G04*
G04 #@! TF.SameCoordinates,84BDE467-7FE3-4CD0-9C3F-AB944645557B*
G04*
G04*
G04 #@! TF.FilePolarity,Positive*
G04*
G01*
G75*
%ADD10C,0.2500*%
%ADD11C,0.2000*%
%ADD12C,0.1520*%
D10*
X456405Y397500D02*
G03*
X456405Y397500I-1250J0D01*
G01*
X456405Y465000D02*
G03*
X456405Y465000I-1250J0D01*
G01*
X551250Y507750D02*
G03*
X551250Y507750I-1250J0D01*
G01*
X481250D02*
G03*
X481250Y507750I-1250J0D01*
G01*
X344650Y396250D02*
G03*
X344650Y396250I-1250J0D01*
G01*
D11*
X311500Y501500D02*
Y520500D01*
X342500Y501500D02*
Y520500D01*
X365700Y368300D02*
Y374450D01*
X434300Y368300D02*
Y374450D01*
X365700Y368300D02*
X434300D01*
Y420550D02*
Y426700D01*
X365700Y420550D02*
Y426700D01*
X434300D01*
X384000Y513750D02*
Y526250D01*
X366000Y513750D02*
Y526250D01*
X434000Y513750D02*
Y526250D01*
X416000Y513750D02*
Y526250D01*
X471765Y351130D02*
Y358870D01*
X488235Y351130D02*
Y358870D01*
X502800Y355750D02*
Y394250D01*
X557200Y355750D02*
Y394250D01*
X365700Y435800D02*
Y441950D01*
X434300Y435800D02*
Y441950D01*
X365700Y435800D02*
X434300D01*
Y488050D02*
Y494200D01*
X365700Y488050D02*
Y494200D01*
X434300D01*
X561750Y452500D02*
X564000D01*
X561750Y497500D02*
X564000D01*
X536000Y452500D02*
X538250D01*
X536000Y497500D02*
X538250D01*
X564000Y452500D02*
Y497500D01*
X536000Y452500D02*
Y497500D01*
X491750Y452500D02*
X494000D01*
X491750Y497500D02*
X494000D01*
X466000Y452500D02*
X468250D01*
X466000Y497500D02*
X468250D01*
X494000Y452500D02*
Y497500D01*
X466000Y452500D02*
Y497500D01*
X276000Y411000D02*
X342000D01*
X276000Y442000D02*
X342000D01*
Y411000D02*
Y442000D01*
X276000Y411000D02*
Y442000D01*
X304500Y342000D02*
X323500D01*
X304500Y373000D02*
X323500D01*
D12*
X453748Y431249D02*
Y423751D01*
X449999D01*
X448750Y425001D01*
Y429999D01*
X449999Y431249D01*
X453748D01*
X441252D02*
X443751Y429999D01*
X446250Y427500D01*
Y425001D01*
X445001Y423751D01*
X442502D01*
X441252Y425001D01*
Y426250D01*
X442502Y427500D01*
X446250D01*
X313998Y480499D02*
Y474251D01*
X312749Y473001D01*
X310250D01*
X309000Y474251D01*
Y480499D01*
X306501Y473001D02*
X304002D01*
X305251D01*
Y480499D01*
X306501Y479249D01*
X571249Y373750D02*
Y368752D01*
X567500D01*
Y371251D01*
Y368752D01*
X563751D01*
Y381248D02*
Y376250D01*
X568750Y381248D01*
X569999D01*
X571249Y379998D01*
Y377499D01*
X569999Y376250D01*
X483749Y385000D02*
Y380002D01*
X480000D01*
Y382501D01*
Y380002D01*
X476251D01*
Y387499D02*
Y389998D01*
Y388749D01*
X483749D01*
X482499Y387499D01*
X546251Y441248D02*
X553749D01*
Y437499D01*
X552499Y436250D01*
X547501D01*
X546251Y437499D01*
Y441248D01*
X547501Y433750D02*
X546251Y432501D01*
Y430002D01*
X547501Y428752D01*
X548750D01*
X550000Y430002D01*
X551250Y428752D01*
X552499D01*
X553749Y430002D01*
Y432501D01*
X552499Y433750D01*
X551250D01*
X550000Y432501D01*
X548750Y433750D01*
X547501D01*
X550000Y432501D02*
Y430002D01*
X476251Y441248D02*
X483749D01*
Y437499D01*
X482499Y436250D01*
X477501D01*
X476251Y437499D01*
Y441248D01*
Y433750D02*
Y428752D01*
X477501D01*
X482499Y433750D01*
X483749D01*
X451248Y498749D02*
Y491251D01*
X447499D01*
X446250Y492501D01*
Y497499D01*
X447499Y498749D01*
X451248D01*
X438752D02*
X443750D01*
Y495000D01*
X441251Y496250D01*
X440002D01*
X438752Y495000D01*
Y492501D01*
X440002Y491251D01*
X442501D01*
X443750Y492501D01*
X351499Y352502D02*
X352749Y351252D01*
Y348753D01*
X351499Y347503D01*
X346501D01*
X345251Y348753D01*
Y351252D01*
X346501Y352502D01*
X345251Y359999D02*
Y355001D01*
X350250Y359999D01*
X351499D01*
X352749Y358750D01*
Y356250D01*
X351499Y355001D01*
X346501Y362498D02*
X345251Y363748D01*
Y366247D01*
X346501Y367497D01*
X351499D01*
X352749Y366247D01*
Y363748D01*
X351499Y362498D01*
X350250D01*
X349000Y363748D01*
Y367497D01*
X331998Y548499D02*
X333248Y549749D01*
X335747D01*
X336997Y548499D01*
Y543501D01*
X335747Y542251D01*
X333248D01*
X331998Y543501D01*
X324501Y542251D02*
X329499D01*
X324501Y547250D01*
Y548499D01*
X325750Y549749D01*
X328250D01*
X329499Y548499D01*
X322002D02*
X320752Y549749D01*
X318253D01*
X317003Y548499D01*
Y547250D01*
X318253Y546000D01*
X317003Y544750D01*
Y543501D01*
X318253Y542251D01*
X320752D01*
X322002Y543501D01*
Y544750D01*
X320752Y546000D01*
X322002Y547250D01*
Y548499D01*
X320752Y546000D02*
X318253D01*
X377499Y548126D02*
X378749Y546877D01*
Y544378D01*
X377499Y543128D01*
X372501D01*
X371251Y544378D01*
Y546877D01*
X372501Y548126D01*
X371251Y550626D02*
Y553125D01*
Y551875D01*
X378749D01*
X377499Y550626D01*
Y556874D02*
X378749Y558123D01*
Y560622D01*
X377499Y561872D01*
X376250D01*
X375000Y560622D01*
X373750Y561872D01*
X372501D01*
X371251Y560622D01*
Y558123D01*
X372501Y556874D01*
X373750D01*
X375000Y558123D01*
X376250Y556874D01*
X377499D01*
X375000Y558123D02*
Y560622D01*
X427499Y548750D02*
X428749Y547501D01*
Y545002D01*
X427499Y543752D01*
X422501D01*
X421251Y545002D01*
Y547501D01*
X422501Y548750D01*
X428749Y556248D02*
Y551250D01*
X425000D01*
X426250Y553749D01*
Y554998D01*
X425000Y556248D01*
X422501D01*
X421251Y554998D01*
Y552499D01*
X422501Y551250D01*
M02*
