G04*
G04 #@! TF.GenerationSoftware,Altium Limited,Altium Designer,21.3.2 (30)*
G04*
G04 Layer_Physical_Order=3*
G04 Layer_Color=16440176*
%FSLAX44Y44*%
%MOMM*%
G71*
G04*
G04 #@! TF.SameCoordinates,84BDE467-7FE3-4CD0-9C3F-AB944645557B*
G04*
G04*
G04 #@! TF.FilePolarity,Positive*
G04*
G01*
G75*
%ADD37C,1.5500*%
%ADD42C,0.7000*%
%ADD43C,1.0000*%
%ADD44C,2.0000*%
%ADD45C,0.3000*%
%ADD51C,1.2700*%
%ADD52C,1.0000*%
D37*
X349600Y76400D02*
D03*
X298800D02*
D03*
D42*
X350000Y90000D02*
X355000Y95000D01*
X360000Y100000D01*
X423000D02*
X439000Y116000D01*
X360000Y100000D02*
X423000D01*
X174000Y324000D02*
X175000Y323000D01*
X444000D01*
X340000Y325000D02*
X342000Y323000D01*
X340000Y325000D02*
Y390000D01*
X439000Y116000D02*
Y248000D01*
D43*
X461000Y310858D02*
Y366000D01*
X405517Y421483D02*
X461000Y366000D01*
X395858Y305000D02*
X455142D01*
X461000Y310858D01*
X405517Y421483D02*
Y464483D01*
X263382Y301000D02*
X339142D01*
X391858D02*
X395858Y305000D01*
X339142Y301000D02*
X391858D01*
X368000Y551436D02*
Y579142D01*
X367000Y522000D02*
Y550436D01*
X368000Y551436D01*
X359142Y588000D02*
X368000Y579142D01*
X262956Y301426D02*
X263382Y301000D01*
X261085Y301426D02*
X262956D01*
X260569Y301943D02*
X261085Y301426D01*
X281500Y587500D02*
X282000Y588000D01*
X359142D01*
X345000Y223000D02*
Y294142D01*
X339142Y300000D02*
X345000Y294142D01*
X405000Y465000D02*
X405517Y464483D01*
X455000Y290000D02*
X485000D01*
D44*
X85000Y137716D02*
Y465000D01*
X99999Y479999D02*
Y480000D01*
X85000Y465000D02*
X99999Y479999D01*
X103716Y119000D02*
X331000D01*
X85000Y137716D02*
X103716Y119000D01*
X349600Y76400D02*
Y90000D01*
Y100400D01*
X439000Y605000D02*
X474284D01*
X486000Y593284D01*
Y291000D02*
Y593284D01*
Y94787D02*
Y291000D01*
X421213Y30000D02*
X486000Y94787D01*
X189506Y30000D02*
X421213D01*
X176910Y42596D02*
X189506Y30000D01*
X176910Y42596D02*
Y84804D01*
X188796Y96690D01*
X281804D01*
X298800Y79694D01*
Y76400D02*
Y79694D01*
X331000Y119000D02*
X349600Y100400D01*
D45*
X565000Y209000D02*
Y460000D01*
X485000Y290000D02*
X486000Y291000D01*
D51*
X99999Y480000D02*
D03*
X367000Y522000D02*
D03*
X260569Y301943D02*
D03*
X174000Y324000D02*
D03*
X281500Y587500D02*
D03*
X340000Y390000D02*
D03*
X405000Y465000D02*
D03*
X345000Y223000D02*
D03*
X439000Y605000D02*
D03*
D52*
X444000Y323000D02*
D03*
X565000Y209000D02*
D03*
Y460000D02*
D03*
X455000Y290000D02*
D03*
X439000Y248000D02*
D03*
X350000Y90000D02*
D03*
M02*
