G04*
G04 #@! TF.GenerationSoftware,Altium Limited,Altium Designer,21.3.2 (30)*
G04*
G04 Layer_Color=16711935*
%FSLAX44Y44*%
%MOMM*%
G71*
G04*
G04 #@! TF.SameCoordinates,84BDE467-7FE3-4CD0-9C3F-AB944645557B*
G04*
G04*
G04 #@! TF.FilePolarity,Negative*
G04*
G01*
G75*
%ADD14R,1.8000X1.0000*%
%ADD33C,4.5032*%
%ADD34C,2.4532*%
G04:AMPARAMS|DCode=35|XSize=2.4532mm|YSize=2.4532mm|CornerRadius=0.6641mm|HoleSize=0mm|Usage=FLASHONLY|Rotation=90.000|XOffset=0mm|YOffset=0mm|HoleType=Round|Shape=RoundedRectangle|*
%AMROUNDEDRECTD35*
21,1,2.4532,1.1250,0,0,90.0*
21,1,1.1250,2.4532,0,0,90.0*
1,1,1.3282,0.5625,0.5625*
1,1,1.3282,0.5625,-0.5625*
1,1,1.3282,-0.5625,-0.5625*
1,1,1.3282,-0.5625,0.5625*
%
%ADD35ROUNDEDRECTD35*%
%ADD36R,1.5500X1.5500*%
%ADD37C,1.5500*%
%ADD38C,0.6032*%
%ADD39C,0.8032*%
%ADD40C,1.4732*%
%ADD41C,1.2032*%
%ADD55R,2.0320X1.1430*%
%ADD56R,5.3000X2.0000*%
%ADD62R,3.5032X1.4032*%
%ADD63R,2.9972X4.0132*%
%ADD64R,1.7532X2.6032*%
G04:AMPARAMS|DCode=65|XSize=0.9032mm|YSize=2.6032mm|CornerRadius=0.1506mm|HoleSize=0mm|Usage=FLASHONLY|Rotation=0.000|XOffset=0mm|YOffset=0mm|HoleType=Round|Shape=RoundedRectangle|*
%AMROUNDEDRECTD65*
21,1,0.9032,2.3020,0,0,0.0*
21,1,0.6020,2.6032,0,0,0.0*
1,1,0.3012,0.3010,-1.1510*
1,1,0.3012,-0.3010,-1.1510*
1,1,0.3012,-0.3010,1.1510*
1,1,0.3012,0.3010,1.1510*
%
%ADD65ROUNDEDRECTD65*%
G04:AMPARAMS|DCode=66|XSize=3.4032mm|YSize=2.6032mm|CornerRadius=0.1496mm|HoleSize=0mm|Usage=FLASHONLY|Rotation=0.000|XOffset=0mm|YOffset=0mm|HoleType=Round|Shape=RoundedRectangle|*
%AMROUNDEDRECTD66*
21,1,3.4032,2.3040,0,0,0.0*
21,1,3.1040,2.6032,0,0,0.0*
1,1,0.2992,1.5520,-1.1520*
1,1,0.2992,-1.5520,-1.1520*
1,1,0.2992,-1.5520,1.1520*
1,1,0.2992,1.5520,1.1520*
%
%ADD66ROUNDEDRECTD66*%
%ADD67R,1.4032X3.5032*%
D14*
X375000Y505000D02*
D03*
Y535000D02*
D03*
X425000Y505000D02*
D03*
Y535000D02*
D03*
D33*
X250000Y375000D02*
D03*
X560000Y695000D02*
D03*
X565000Y40000D02*
D03*
X35000D02*
D03*
X40000Y695000D02*
D03*
D34*
X515000Y497500D02*
D03*
D35*
Y447500D02*
D03*
D36*
X375000Y76400D02*
D03*
D37*
X349600D02*
D03*
X324200D02*
D03*
X298800D02*
D03*
X273400D02*
D03*
X248000D02*
D03*
X222600D02*
D03*
X197200D02*
D03*
X375000Y51000D02*
D03*
X349600D02*
D03*
X324200D02*
D03*
X298800D02*
D03*
X273400D02*
D03*
X248000D02*
D03*
X222600D02*
D03*
X197200D02*
D03*
D38*
X575501Y685930D02*
D03*
X575606Y703889D02*
D03*
X569070Y710501D02*
D03*
X560105Y712960D02*
D03*
X542040Y695105D02*
D03*
X57959Y694895D02*
D03*
X559895Y677040D02*
D03*
X565105Y57959D02*
D03*
X52959Y39895D02*
D03*
X547040Y40105D02*
D03*
X35105Y57959D02*
D03*
X34895Y22041D02*
D03*
X564895D02*
D03*
X43889Y24394D02*
D03*
X573889D02*
D03*
X555929Y24499D02*
D03*
X25930D02*
D03*
X580501Y30930D02*
D03*
X50501D02*
D03*
X549394Y31111D02*
D03*
X19394D02*
D03*
X582960Y39895D02*
D03*
X17040Y40105D02*
D03*
X50606Y48889D02*
D03*
X580606D02*
D03*
X549499Y49070D02*
D03*
X19499D02*
D03*
X574070Y55501D02*
D03*
X44070D02*
D03*
X556111Y55606D02*
D03*
X26111D02*
D03*
X249895Y357040D02*
D03*
X258889Y359394D02*
D03*
X265501Y365930D02*
D03*
X267959Y374895D02*
D03*
X265606Y383889D02*
D03*
X259070Y390501D02*
D03*
X250105Y392960D02*
D03*
X241111Y390606D02*
D03*
X234499Y384071D02*
D03*
X232041Y375105D02*
D03*
X234394Y366111D02*
D03*
X240930Y359499D02*
D03*
X568889Y679394D02*
D03*
X577960Y694895D02*
D03*
X551111Y710606D02*
D03*
X544499Y704070D02*
D03*
X544394Y686111D02*
D03*
X550930Y679499D02*
D03*
X30930D02*
D03*
X24394Y686111D02*
D03*
X22041Y695105D02*
D03*
X24499Y704070D02*
D03*
X31111Y710606D02*
D03*
X40105Y712960D02*
D03*
X49070Y710501D02*
D03*
X55606Y703889D02*
D03*
X55501Y685930D02*
D03*
X48889Y679394D02*
D03*
X39895Y677040D02*
D03*
D39*
X121000Y577000D02*
D03*
X229000Y185000D02*
D03*
X199685Y536109D02*
D03*
X143000Y142000D02*
D03*
Y134000D02*
D03*
X362000Y132040D02*
D03*
X370000Y132000D02*
D03*
X138000Y454000D02*
D03*
Y445000D02*
D03*
X209521Y511788D02*
D03*
X201000Y510000D02*
D03*
X201641Y519014D02*
D03*
X201000Y500000D02*
D03*
X448000Y552000D02*
D03*
X201000Y544000D02*
D03*
X427000Y201000D02*
D03*
Y193000D02*
D03*
X59000Y218000D02*
D03*
Y226000D02*
D03*
X304000Y523500D02*
D03*
X209546Y503788D02*
D03*
X150000Y410000D02*
D03*
X100000Y420000D02*
D03*
X296000Y520000D02*
D03*
X303152Y515332D02*
D03*
X295000Y477000D02*
D03*
X273110Y484831D02*
D03*
X261000Y188000D02*
D03*
X196000Y230000D02*
D03*
X256000Y265000D02*
D03*
X292000Y160000D02*
D03*
X299000Y208000D02*
D03*
X292000Y212000D02*
D03*
Y221000D02*
D03*
X299000Y216000D02*
D03*
X196000Y218000D02*
D03*
X162000Y405000D02*
D03*
X102040Y430000D02*
D03*
X70000Y576000D02*
D03*
Y585000D02*
D03*
X268758Y491544D02*
D03*
X443000Y560000D02*
D03*
X303000Y475290D02*
D03*
X292000Y237548D02*
D03*
Y169000D02*
D03*
X204000Y218000D02*
D03*
X261000Y180000D02*
D03*
X204000Y230000D02*
D03*
X247500Y265000D02*
D03*
D40*
X99999Y480000D02*
D03*
X367000Y522000D02*
D03*
X260569Y301943D02*
D03*
X174000Y324000D02*
D03*
X281500Y587500D02*
D03*
X340000Y390000D02*
D03*
X405000Y465000D02*
D03*
X345000Y223000D02*
D03*
X439000Y605000D02*
D03*
D41*
X444000Y323000D02*
D03*
X565000Y209000D02*
D03*
Y460000D02*
D03*
X465000Y130000D02*
D03*
X41000Y188000D02*
D03*
X455000Y290000D02*
D03*
X439000Y248000D02*
D03*
X350000Y90000D02*
D03*
D55*
X480000Y368335D02*
D03*
Y341665D02*
D03*
D56*
X530000Y408000D02*
D03*
Y342000D02*
D03*
D62*
X327000Y530500D02*
D03*
Y491500D02*
D03*
D63*
X435685Y397500D02*
D03*
X364315D02*
D03*
X435685Y465000D02*
D03*
X364315D02*
D03*
D64*
X550000Y459750D02*
D03*
Y490250D02*
D03*
X480000Y459750D02*
D03*
Y490250D02*
D03*
D65*
X334400Y396250D02*
D03*
X321700D02*
D03*
X309000D02*
D03*
X296300D02*
D03*
X283600D02*
D03*
D66*
X309000Y456750D02*
D03*
D67*
X294500Y357500D02*
D03*
X333500D02*
D03*
M02*
